<svg version="1.2" xmlns="http://www.w3.org/2000/svg" viewBox="0 0 718 533" width="32" height="32">
	<defs>
		<linearGradient id="g1" x2="1" gradientUnits="userSpaceOnUse" gradientTransform="matrix(41.126,-98.926,58.403,24.28,223.81,496.72)">
			<stop offset="0" stop-color="#d0d2d4"/>
			<stop offset="1" stop-color="#86898b"/>
		</linearGradient>
		<linearGradient id="g2" x2="1" gradientUnits="userSpaceOnUse" gradientTransform="matrix(36.832,-88.597,46.436,19.305,229.355,490.959)">
			<stop offset="0" stop-color="#b6b8ba"/>
			<stop offset="1" stop-color="#6c6f71"/>
		</linearGradient>
		<linearGradient id="g3" x2="1" gradientUnits="userSpaceOnUse" gradientTransform="matrix(-15.444,-30.637,18.635,-9.394,283.262,529.717)">
			<stop offset="0" stop-color="#d0d2d4"/>
			<stop offset="1" stop-color="#86898b"/>
		</linearGradient>
		<linearGradient id="g4" x2="1" gradientUnits="userSpaceOnUse" gradientTransform="matrix(6.627,-28.786,14.35,3.304,256.99,482.006)">
			<stop offset="0" stop-color="#f3f5f7"/>
			<stop offset="1" stop-color="#86898b"/>
		</linearGradient>
		<linearGradient id="g5" x2="1" gradientUnits="userSpaceOnUse" gradientTransform="matrix(0,-34.778,33.847,0,306.785,505.845)">
			<stop offset="0" stop-color="#c3c5c7"/>
			<stop offset="1" stop-color="#797c7e"/>
		</linearGradient>
		<linearGradient id="g6" x2="1" gradientUnits="userSpaceOnUse" gradientTransform="matrix(-27.509,31.44,-12.186,-10.662,344.942,470.907)">
			<stop offset="0" stop-color="#ffffff"/>
			<stop offset="1" stop-color="#babdbf"/>
		</linearGradient>
		<linearGradient id="g7" x2="1" gradientUnits="userSpaceOnUse" gradientTransform="matrix(22.457,-26.54,15.655,13.247,276.546,453.415)">
			<stop offset="0" stop-color="#ffffff"/>
			<stop offset="1" stop-color="#babdbf"/>
		</linearGradient>
		<linearGradient id="g8" x2="1" gradientUnits="userSpaceOnUse" gradientTransform="matrix(2.934,-6.305,3.679,1.712,296.076,467.439)">
			<stop offset="0" stop-color="#ffffff"/>
			<stop offset="1" stop-color="#babdbf"/>
		</linearGradient>
		<linearGradient id="g9" x2="1" gradientUnits="userSpaceOnUse" gradientTransform="matrix(2.933,-6.303,3.675,1.71,286.335,469.79)">
			<stop offset="0" stop-color="#ffffff"/>
			<stop offset="1" stop-color="#babdbf"/>
		</linearGradient>
		<linearGradient id="g10" x2="1" gradientUnits="userSpaceOnUse" gradientTransform="matrix(2.934,-6.305,3.678,1.712,279.956,481.511)">
			<stop offset="0" stop-color="#ffffff"/>
			<stop offset="1" stop-color="#babdbf"/>
		</linearGradient>
		<linearGradient id="g11" x2="1" gradientUnits="userSpaceOnUse" gradientTransform="matrix(2.934,-6.305,3.675,1.71,286.332,487.889)">
			<stop offset="0" stop-color="#ffffff"/>
			<stop offset="1" stop-color="#babdbf"/>
		</linearGradient>
		<linearGradient id="g12" x2="1" gradientUnits="userSpaceOnUse" gradientTransform="matrix(2.934,-6.304,3.674,1.71,295.69,479.001)">
			<stop offset="0" stop-color="#ffffff"/>
			<stop offset="1" stop-color="#babdbf"/>
		</linearGradient>
		<linearGradient id="g13" x2="1" gradientUnits="userSpaceOnUse" gradientTransform="matrix(-0.231,11.919,-9.065,-0.176,301.918,468.768)">
			<stop offset="0" stop-color="#eaecee"/>
			<stop offset="1" stop-color="#a0a3a5"/>
		</linearGradient>
		<linearGradient id="g14" x2="1" gradientUnits="userSpaceOnUse" gradientTransform="matrix(41.124,-98.922,58.4,24.278,581.734,290.16)">
			<stop offset="0" stop-color="#d0d2d4"/>
			<stop offset="1" stop-color="#86898b"/>
		</linearGradient>
		<linearGradient id="g15" x2="1" gradientUnits="userSpaceOnUse" gradientTransform="matrix(36.832,-88.596,46.443,19.308,587.295,284.405)">
			<stop offset="0" stop-color="#b6b8ba"/>
			<stop offset="1" stop-color="#6c6f71"/>
		</linearGradient>
		<linearGradient id="g16" x2="1" gradientUnits="userSpaceOnUse" gradientTransform="matrix(-15.447,-30.643,18.649,-9.401,641.193,323.163)">
			<stop offset="0" stop-color="#d0d2d4"/>
			<stop offset="1" stop-color="#86898b"/>
		</linearGradient>
		<linearGradient id="g17" x2="1" gradientUnits="userSpaceOnUse" gradientTransform="matrix(6.628,-28.786,14.35,3.304,614.925,275.45)">
			<stop offset="0" stop-color="#f3f5f7"/>
			<stop offset="1" stop-color="#86898b"/>
		</linearGradient>
		<linearGradient id="g18" x2="1" gradientUnits="userSpaceOnUse" gradientTransform="matrix(0,-34.773,33.839,0,664.717,299.285)">
			<stop offset="0" stop-color="#c3c5c7"/>
			<stop offset="1" stop-color="#797c7e"/>
		</linearGradient>
		<linearGradient id="g19" x2="1" gradientUnits="userSpaceOnUse" gradientTransform="matrix(-27.513,31.444,-12.194,-10.67,702.858,264.339)">
			<stop offset="0" stop-color="#ffffff"/>
			<stop offset="1" stop-color="#babdbf"/>
		</linearGradient>
		<linearGradient id="g20" x2="1" gradientUnits="userSpaceOnUse" gradientTransform="matrix(22.458,-26.541,15.659,13.25,634.464,246.854)">
			<stop offset="0" stop-color="#ffffff"/>
			<stop offset="1" stop-color="#babdbf"/>
		</linearGradient>
		<linearGradient id="g21" x2="1" gradientUnits="userSpaceOnUse" gradientTransform="matrix(2.934,-6.305,3.674,1.71,653.99,260.878)">
			<stop offset="0" stop-color="#ffffff"/>
			<stop offset="1" stop-color="#babdbf"/>
		</linearGradient>
		<linearGradient id="g22" x2="1" gradientUnits="userSpaceOnUse" gradientTransform="matrix(2.934,-6.305,3.679,1.712,644.269,263.238)">
			<stop offset="0" stop-color="#ffffff"/>
			<stop offset="1" stop-color="#babdbf"/>
		</linearGradient>
		<linearGradient id="g23" x2="1" gradientUnits="userSpaceOnUse" gradientTransform="matrix(2.934,-6.305,3.678,1.711,637.881,274.953)">
			<stop offset="0" stop-color="#ffffff"/>
			<stop offset="1" stop-color="#babdbf"/>
		</linearGradient>
		<linearGradient id="g24" x2="1" gradientUnits="userSpaceOnUse" gradientTransform="matrix(2.935,-6.307,3.677,1.711,644.265,281.335)">
			<stop offset="0" stop-color="#ffffff"/>
			<stop offset="1" stop-color="#babdbf"/>
		</linearGradient>
		<linearGradient id="g25" x2="1" gradientUnits="userSpaceOnUse" gradientTransform="matrix(2.935,-6.307,3.681,1.713,653.625,272.449)">
			<stop offset="0" stop-color="#ffffff"/>
			<stop offset="1" stop-color="#babdbf"/>
		</linearGradient>
		<linearGradient id="g26" x2="1" gradientUnits="userSpaceOnUse" gradientTransform="matrix(-0.231,11.919,-9.067,-0.176,659.84,262.212)">
			<stop offset="0" stop-color="#eaecee"/>
			<stop offset="1" stop-color="#a0a3a5"/>
		</linearGradient>
		<linearGradient id="g27" x2="1" gradientUnits="userSpaceOnUse" gradientTransform="matrix(-146.976,87.198,-5.443,-9.174,288.939,381.488)">
			<stop offset="0" stop-color="#ffffff"/>
			<stop offset="1" stop-color="#000000"/>
		</linearGradient>
		<linearGradient id="g28" x2="1" gradientUnits="userSpaceOnUse" gradientTransform="matrix(-122.253,72.53,-35.39,-59.651,177.733,344.155)">
			<stop offset="0" stop-color="#ffffff"/>
			<stop offset="1" stop-color="#000000"/>
		</linearGradient>
		<linearGradient id="g29" x2="1" gradientUnits="userSpaceOnUse" gradientTransform="matrix(121.025,0,0,116.499,587.78,194.781)">
			<stop offset="0" stop-color="#000000"/>
			<stop offset=".415" stop-color="#ffffff"/>
			<stop offset=".793" stop-color="#ffffff"/>
			<stop offset="1" stop-color="#000000"/>
		</linearGradient>
		<linearGradient id="g30" x2="1" gradientUnits="userSpaceOnUse" gradientTransform="matrix(148.517,-31.341,22.328,105.808,204.807,405.167)">
			<stop offset="0" stop-color="#000000"/>
			<stop offset=".415" stop-color="#ffffff"/>
			<stop offset=".793" stop-color="#ffffff"/>
			<stop offset="1" stop-color="#000000"/>
		</linearGradient>
		<linearGradient id="g31" x2="1" gradientUnits="userSpaceOnUse" gradientTransform="matrix(7.484,-1.579,2.954,14,13.287,419.515)">
			<stop offset="0" stop-color="#000000"/>
			<stop offset=".415" stop-color="#ffffff"/>
			<stop offset=".793" stop-color="#ffffff"/>
			<stop offset="1" stop-color="#000000"/>
		</linearGradient>
		<linearGradient id="g32" x2="1" gradientUnits="userSpaceOnUse" gradientTransform="matrix(268.739,-56.711,48.635,230.469,-31.791,403.487)">
			<stop offset="0" stop-color="#000000"/>
			<stop offset=".415" stop-color="#ffffff"/>
			<stop offset=".793" stop-color="#ffffff"/>
			<stop offset="1" stop-color="#000000"/>
		</linearGradient>
		<linearGradient id="g33" x2="1" gradientUnits="userSpaceOnUse" gradientTransform="matrix(190.672,-40.236,33.747,159.919,-4.36,430.684)">
			<stop offset="0" stop-color="#000000"/>
			<stop offset=".415" stop-color="#ffffff"/>
			<stop offset=".793" stop-color="#ffffff"/>
			<stop offset="1" stop-color="#000000"/>
		</linearGradient>
		<linearGradient id="g34" x2="1" gradientUnits="userSpaceOnUse" gradientTransform="matrix(106.26,-22.424,10.173,48.208,130.65,430.212)">
			<stop offset="0" stop-color="#000000"/>
			<stop offset=".415" stop-color="#ffffff"/>
			<stop offset=".793" stop-color="#ffffff"/>
			<stop offset="1" stop-color="#000000"/>
		</linearGradient>
		<linearGradient id="g35" x2="1" gradientUnits="userSpaceOnUse" gradientTransform="matrix(95.689,0,0,36,140.734,420.842)">
			<stop offset="0" stop-color="#faffff"/>
			<stop offset="1" stop-color="#d4d7d9"/>
		</linearGradient>
		<linearGradient id="g36" x2="1" gradientUnits="userSpaceOnUse" gradientTransform="matrix(67.778,0,0,30.743,162.544,420.846)">
			<stop offset="0" stop-color="#faffff"/>
			<stop offset="1" stop-color="#d4d7d9"/>
		</linearGradient>
		<linearGradient id="g37" x2="1" gradientUnits="userSpaceOnUse" gradientTransform="matrix(51.972,0,0,31.574,184.125,420.963)">
			<stop offset="0" stop-color="#faffff"/>
			<stop offset="1" stop-color="#d4d7d9"/>
		</linearGradient>
		<linearGradient id="g38" x2="1" gradientUnits="userSpaceOnUse" gradientTransform="matrix(22.263,0,0,21.74,214.152,427.838)">
			<stop offset="0" stop-color="#faffff"/>
			<stop offset="1" stop-color="#d4d7d9"/>
		</linearGradient>
		<linearGradient id="g39" x2="1" gradientUnits="userSpaceOnUse" gradientTransform="matrix(29.709,57.766,-98.188,50.498,184.739,400.211)">
			<stop offset="0" stop-color="#ffffff"/>
			<stop offset="1" stop-color="#ffffff"/>
		</linearGradient>
		<linearGradient id="g40" x2="1" gradientUnits="userSpaceOnUse" gradientTransform="matrix(25.298,0,0,76.485,11.973,305.567)">
			<stop offset="0" stop-color="#faffff"/>
			<stop offset="1" stop-color="#d4d7d9"/>
		</linearGradient>
		<linearGradient id="g41" x2="1" gradientUnits="userSpaceOnUse" gradientTransform="matrix(17.888,0,0,27.259,19.384,319.752)">
			<stop offset="0" stop-color="#faffff"/>
			<stop offset="1" stop-color="#d4d7d9"/>
		</linearGradient>
		<linearGradient id="g42" x2="1" gradientUnits="userSpaceOnUse" gradientTransform="matrix(14.554,0,0,26.797,22.716,337.978)">
			<stop offset="0" stop-color="#faffff"/>
			<stop offset="1" stop-color="#d4d7d9"/>
		</linearGradient>
		<linearGradient id="g43" x2="1" gradientUnits="userSpaceOnUse" gradientTransform="matrix(25.298,0,0,76.485,11.973,305.567)">
			<stop offset="0" stop-color="#ffffff"/>
			<stop offset="1" stop-color="#ffffff"/>
		</linearGradient>
		<linearGradient id="g44" x2="1" gradientUnits="userSpaceOnUse" gradientTransform="matrix(-9.475,-14.303,72.663,-48.133,506.798,292.846)">
			<stop offset="0" stop-color="#ffffff"/>
			<stop offset="1" stop-color="#000000"/>
		</linearGradient>
		<linearGradient id="g45" x2="1" gradientUnits="userSpaceOnUse" gradientTransform="matrix(-9.475,-14.303,72.663,-48.133,612.832,222.369)">
			<stop offset="0" stop-color="#ffffff"/>
			<stop offset="1" stop-color="#000000"/>
		</linearGradient>
		<linearGradient id="g46" x2="1" gradientUnits="userSpaceOnUse" gradientTransform="matrix(-82.266,-124.191,65.777,-43.572,114.723,594.806)">
			<stop offset="0" stop-color="#ffffff"/>
			<stop offset="1" stop-color="#000000"/>
		</linearGradient>
		<linearGradient id="g47" x2="1" gradientUnits="userSpaceOnUse" gradientTransform="matrix(-112.884,-170.411,201.158,-133.251,157.261,584.073)">
			<stop offset="0" stop-color="#ffffff"/>
			<stop offset="1" stop-color="#000000"/>
		</linearGradient>
		<linearGradient id="g48" x2="1" gradientUnits="userSpaceOnUse" gradientTransform="matrix(-43.124,-65.101,33.329,-22.078,65.012,494.648)">
			<stop offset="0" stop-color="#ffffff"/>
			<stop offset="1" stop-color="#000000"/>
		</linearGradient>
	</defs>
	<style>
		.s0 { fill: #343433 } 
		.s1 { fill: #2d3035 } 
		.s2 { fill: #555960 } 
		.s3 { fill: #393d44 } 
		.s4 { fill: #cdcccb } 
		.s5 { fill: url(#g1) } 
		.s6 { fill: url(#g2) } 
		.s7 { fill: #d0d2d4 } 
		.s8 { fill: url(#g3) } 
		.s9 { fill: url(#g4) } 
		.s10 { fill: url(#g5) } 
		.s11 { fill: url(#g6) } 
		.s12 { fill: url(#g7) } 
		.s13 { fill: url(#g8) } 
		.s14 { fill: #b7b9bb } 
		.s15 { fill: url(#g9) } 
		.s16 { fill: url(#g10) } 
		.s17 { fill: url(#g11) } 
		.s18 { fill: url(#g12) } 
		.s19 { fill: url(#g13) } 
		.s20 { fill: url(#g14) } 
		.s21 { fill: url(#g15) } 
		.s22 { fill: url(#g16) } 
		.s23 { fill: url(#g17) } 
		.s24 { fill: url(#g18) } 
		.s25 { fill: url(#g19) } 
		.s26 { fill: url(#g20) } 
		.s27 { fill: url(#g21) } 
		.s28 { fill: url(#g22) } 
		.s29 { fill: url(#g23) } 
		.s30 { fill: url(#g24) } 
		.s31 { fill: url(#g25) } 
		.s32 { fill: url(#g26) } 
		.s33 { fill: #e52940 } 
		.s34 { fill: #4e5460 } 
		.s35 { opacity: .1;mix-blend-mode: multiply;fill: #4e5460 } 
		.s36 { fill: url(#g27) } 
		.s37 { opacity: .1;mix-blend-mode: multiply;fill: url(#g28) } 
		.s38 { opacity: .3;mix-blend-mode: multiply;fill: url(#g29) } 
		.s39 { opacity: .3;mix-blend-mode: multiply;fill: url(#g30) } 
		.s40 { opacity: .1;mix-blend-mode: multiply;fill: url(#g31) } 
		.s41 { opacity: .1;mix-blend-mode: multiply;fill: url(#g32) } 
		.s42 { opacity: .3;mix-blend-mode: multiply;fill: url(#g33) } 
		.s43 { opacity: .2;mix-blend-mode: multiply;fill: url(#g34) } 
		.s44 { fill: url(#g35) } 
		.s45 { fill: url(#g36) } 
		.s46 { fill: #ffffff } 
		.s47 { fill: url(#g37) } 
		.s48 { fill: url(#g38) } 
		.s49 { fill: #f09041 } 
		.s50 { fill: url(#g39) } 
		.s51 { fill: url(#g40) } 
		.s52 { fill: url(#g41) } 
		.s53 { fill: url(#g42) } 
		.s54 { fill: url(#g43) } 
		.s55 { fill: #141c1e } 
		.s56 { fill: #303e42 } 
		.s57 { fill: #39464a } 
		.s58 { opacity: .7;fill: #c5d0d3 } 
		.s59 { fill: #3d4b4f } 
		.s60 { opacity: .2;fill: #ffffff } 
		.s61 { fill: #dd2f48 } 
		.s62 { fill: #414e52 } 
		.s63 { fill: #283539 } 
		.s64 { opacity: .1;mix-blend-mode: multiply;fill: #283539 } 
		.s65 { opacity: .3;mix-blend-mode: multiply;fill: #283539 } 
		.s66 { opacity: .1;mix-blend-mode: multiply;fill: #dd2f48 } 
		.s67 { fill: #2e383b } 
		.s68 { fill: #485255 } 
		.s69 { opacity: .3;mix-blend-mode: screen;fill: url(#g44) } 
		.s70 { opacity: .3;mix-blend-mode: screen;fill: url(#g45) } 
		.s71 { fill: url(#g46) } 
		.s72 { fill: url(#g47) } 
		.s73 { opacity: .2;mix-blend-mode: multiply;fill: url(#g48) } 
		.s74 { fill: #33383f } 
		.s75 { fill: #3b4447 } 
		.s76 { fill: #25282d } 
		.s77 { fill: #363a3f } 
	</style>
	<g id="Layer 2">
		<g id="&lt;Group&gt;">
			<g id="&lt;Group&gt;">
				<path id="&lt;Path&gt;" class="s0" d="m701.8 225.5l-2 6.7-6.9 2.7-36.1-24.8 28.9-8.2 14.5 10.4z"/>
				<path id="&lt;Path&gt;" class="s0" d="m347.4 456.2l-6.2 6.7-11.7-3.3-34-44.2 37-10.9 16.1 22.2z"/>
				<g id="&lt;Group&gt;">
					<path id="&lt;Path&gt;" class="s1" d="m327 427l-30.1-17.1c-7.3-3.2-16.9-2.1-27.5 3.9-23.1 13.4-41.8 45.8-41.8 72.5 0 13.3 4.7 22.7 12.2 27.1l27.2 15.6q0.8 0.5 1.7 1l0.2 0.1c7.5 3.7 17.5 2.8 28.5-3.5 23.1-13.4 41.8-45.8 41.8-72.5 0-13.3-4.7-22.7-12.2-27.1z"/>
					<path id="&lt;Path&gt;" class="s2" d="m339.2 454.1c0 26.7-18.7 59.1-41.8 72.5-23.1 13.3-41.8 2.5-41.8-24.2 0-26.6 18.7-59.1 41.8-72.4 23.1-13.4 41.8-2.5 41.8 24.1z"/>
					<path id="&lt;Path&gt;" class="s3" d="m336 456c0 24.6-17.3 54.5-38.6 66.8-21.3 12.3-38.6 2.3-38.6-22.2 0-24.6 17.3-54.6 38.6-66.8 21.3-12.3 38.6-2.4 38.6 22.2z"/>
					<path id="&lt;Path&gt;" class="s4" d="m329.9 460.8c0 20.3-14.3 44.9-31.8 55.1-17.6 10.1-31.9 1.9-31.9-18.4 0-20.3 14.3-44.9 31.9-55.1 17.5-10.1 31.8-1.9 31.8 18.4z"/>
					<path id="&lt;Path&gt;" class="s5" d="m328.4 461.6c0 19.4-13.6 42.9-30.3 52.6-16.8 9.7-30.4 1.9-30.4-17.5 0-19.4 13.6-42.9 30.4-52.6 16.7-9.7 30.3-1.9 30.3 17.5z"/>
					<path id="&lt;Path&gt;" class="s6" d="m298.1 444.1c-16.8 9.7-30.4 33.2-30.4 52.6 0 3.9 0.5 7.3 1.5 10.2 5.6 4.2 13.9 4.2 23.1-1.1 16.8-9.7 30.4-33.2 30.4-52.6 0-3.9-0.6-7.3-1.6-10.2-5.6-4.3-13.8-4.2-23 1.1z"/>
					<path id="&lt;Path&gt;" class="s0" d="m267.8 494.7c4.6 4.8 12.2 5.4 20.7 0.4 14.1-8.1 25.4-27.8 25.4-44 0-4.5-0.8-8.3-2.4-11.2-4.1 0.1-8.6 1.4-13.4 4.2-16.2 9.3-29.4 31.6-30.3 50.6z"/>
					<path id="&lt;Path&gt;" class="s7" d="m309 481.5c4.5-0.8 6.9 2.1 6.9 2.1 0 0 8.4-6.9 10.4-18.1 0.9-5.4-2.2-10.8-3.6-12.2 0 0-0.6 17.3-14.7 16.3 0 0 1.7-13.8 2.9-17.3 1.2-3.3 3.3-9.5 7.5-10.9-4.1-2-9.4-2-15.1 0.2 0 3.6-0.6 12.3-5.9 16.1-4.6 3.2-9.7-0.2-12.4-2.6-3.1 3.4-5.9 7.3-8.3 11.4 2.3 0.2 4.8 1.1 4.3 4.6-0.7 5.2-6.2 13.1-12.7 18.2q-0.6 3.8-0.6 7.4c0 5.6 1.1 10.3 3.2 13.8 0.7-4.6 1.9-10.5 3.6-13.6 2.9-5.8 10.6-7.9 10.6-2.3 0 5.6-1.2 19.1-1.2 19.1 0 0 10.7 0.7 17.2-5 5.7-5.1 0-4.4-1.6-5-2.8-1.1-6-5.2-3.9-10.9 2-5.8 9-10.5 13.4-11.3z"/>
					<path id="&lt;Path&gt;" class="s8" d="m292 502.8c-2.6-4.8-2.3-10.4-6.7-13.2-1.8-1.2-5.3 0.2-8.6 4.3 3.5-3.3 8.4-3.8 8.4 0.7 0 5.6-1.2 19.1-1.2 19.1 0 0 9.3 0.6 15.9-4-2.4-0.9-5.6-2.9-7.8-6.9z"/>
					<path id="&lt;Path&gt;" class="s9" d="m288.5 465.3c-0.5-2.3-6-2-10.2-1.4q-0.8 1.3-1.6 2.6c2.3 0.2 4.8 1.1 4.3 4.6-0.7 5.2-6.2 13.1-12.7 18.2q0 0.3-0.1 0.5c14.4-2.6 21.1-20.7 20.3-24.5z"/>
					<path id="&lt;Path&gt;" class="s10" d="m309 481.5c4.5-0.8 6.9 2.1 6.9 2.1 0 0 8.4-6.9 10.4-18.1q0.1-0.7 0.1-1.5c-4.2 7.9-12.7 14.3-16.4 16.3q-1.5 0.8-2.7 1.7 0.9-0.4 1.7-0.5z"/>
					<path id="&lt;Path&gt;" class="s11" d="m308 469.6c0 0 0.1 8.7 2.2 10.6 3.9-2.2 12.1-8.4 16.2-16.2 0.2-4.9-2.5-9.5-3.7-10.7 0 0-0.6 17.3-14.7 16.3z"/>
					<path id="&lt;Path&gt;" class="s12" d="m309.2 440.1q-2.8 0.3-5.9 1.5c0 3.6-0.6 12.3-5.9 16.1-4.6 3.2-9.7-0.2-12.4-2.6q-0.2 0.2-0.3 0.4c2.5 2.5 7.1 6.2 12.4 6.1 7.5-0.2 14-12.9 12.1-21.5z"/>
					<path id="&lt;Path&gt;" class="s13" d="m306.3 465.2c0 1.9-1.4 4.3-3.1 5.3-1.6 0.9-3 0.1-3-1.8 0-2 1.4-4.3 3-5.3 1.7-1 3.1-0.2 3.1 1.8z"/>
					<path id="&lt;Path&gt;" class="s14" d="m300.2 468.3q0.6 0.2 1.3-0.2c1.3-0.8 2.3-2.6 2.3-4q0-0.5-0.2-0.9-0.2 0.1-0.4 0.2c-1.5 0.9-2.8 3.1-3 4.9z"/>
					<path id="&lt;Path&gt;" class="s15" d="m296.6 467.5c0 2-1.4 4.3-3.1 5.3-1.7 1-3 0.2-3-1.8 0-1.9 1.3-4.3 3-5.3 1.7-0.9 3.1-0.1 3.1 1.8z"/>
					<path id="&lt;Path&gt;" class="s14" d="m290.5 470.7q0.5 0.1 1.3-0.3c1.2-0.7 2.3-2.5 2.3-4q0-0.5-0.2-0.8-0.2 0-0.4 0.1c-1.6 1-2.9 3.1-3 5z"/>
					<path id="&lt;Path&gt;" class="s16" d="m290.2 479.2c0 2-1.4 4.4-3.1 5.3-1.7 1-3 0.2-3-1.7 0-2 1.3-4.4 3-5.3 1.7-1 3.1-0.2 3.1 1.7z"/>
					<path id="&lt;Path&gt;" class="s14" d="m284.1 482.4q0.6 0.1 1.3-0.3c1.2-0.7 2.3-2.5 2.3-4q0-0.5-0.2-0.8-0.2 0.1-0.4 0.2c-1.6 0.9-2.9 3-3 4.9z"/>
					<path id="&lt;Path&gt;" class="s17" d="m296.6 485.6c0 2-1.4 4.3-3.1 5.3-1.7 1-3 0.2-3-1.8 0-1.9 1.3-4.3 3-5.3 1.7-0.9 3.1-0.1 3.1 1.8z"/>
					<path id="&lt;Path&gt;" class="s14" d="m290.5 488.8q0.5 0.1 1.3-0.3c1.2-0.7 2.3-2.5 2.3-4q0-0.5-0.2-0.8-0.2 0-0.4 0.1c-1.6 1-2.9 3.1-3 5z"/>
					<path id="&lt;Path&gt;" class="s18" d="m305.9 476.7c0 2-1.3 4.3-3 5.3-1.7 1-3.1 0.2-3.1-1.7 0-2 1.4-4.4 3.1-5.3 1.7-1 3-0.2 3 1.7z"/>
					<path id="&lt;Path&gt;" class="s19" d="m299.6 475.3c0 1.9-1.3 4.3-3 5.3-1.7 0.9-3.1 0.2-3.1-1.8 0-1.9 1.4-4.3 3.1-5.3 1.7-1 3-0.2 3 1.8z"/>
					<path id="&lt;Path&gt;" class="s14" d="m299.8 479.9q0.6 0.1 1.3-0.3c1.3-0.7 2.3-2.5 2.3-4q0-0.5-0.1-0.8-0.2 0-0.4 0.2c-1.6 0.9-2.9 3-3.1 4.9z"/>
				</g>
				<g id="&lt;Group&gt;">
					<path id="&lt;Path&gt;" class="s1" d="m684.9 220.5l-30-17.2c-7.4-3.2-17-2.1-27.6 4-23.1 13.3-41.8 45.8-41.8 72.4 0 13.4 4.7 22.8 12.3 27.1l27.2 15.7q0.8 0.5 1.6 0.9l0.3 0.2v-0.1c7.4 3.7 17.4 2.9 28.4-3.5 23.1-13.3 41.8-45.7 41.8-72.4 0-13.4-4.6-22.7-12.2-27.1z"/>
					<path id="&lt;Path&gt;" class="s2" d="m697.1 247.6c0 26.7-18.7 59.1-41.8 72.4-23.1 13.4-41.8 2.6-41.8-24.1 0-26.7 18.7-59.1 41.8-72.5 23.1-13.3 41.8-2.5 41.8 24.2z"/>
					<path id="&lt;Path&gt;" class="s3" d="m693.9 249.5c0 24.6-17.3 54.5-38.6 66.8-21.3 12.3-38.6 2.3-38.6-22.3 0-24.6 17.3-54.5 38.6-66.8 21.3-12.3 38.6-2.3 38.6 22.3z"/>
					<path id="&lt;Path&gt;" class="s4" d="m687.8 254.2c0 20.3-14.2 45-31.8 55.1-17.6 10.2-31.8 1.9-31.8-18.3 0-20.3 14.2-45 31.8-55.1 17.6-10.2 31.8-2 31.8 18.3z"/>
					<path id="&lt;Path&gt;" class="s20" d="m686.4 255.1c0 19.3-13.6 42.9-30.4 52.6-16.8 9.7-30.4 1.8-30.4-17.6 0-19.3 13.6-42.9 30.4-52.6 16.8-9.7 30.4-1.8 30.4 17.6z"/>
					<path id="&lt;Path&gt;" class="s21" d="m656 237.5c-16.8 9.7-30.4 33.3-30.4 52.6 0 3.9 0.6 7.3 1.6 10.2 5.5 4.3 13.8 4.3 23-1.1 16.8-9.6 30.4-33.2 30.4-52.6 0-3.9-0.6-7.3-1.6-10.2-5.6-4.2-13.8-4.2-23 1.1z"/>
					<path id="&lt;Path&gt;" class="s0" d="m625.7 288.1c4.6 4.9 12.2 5.4 20.8 0.5 14-8.1 25.4-27.8 25.4-44 0-4.6-0.9-8.3-2.5-11.2-4 0-8.6 1.3-13.4 4.1-16.2 9.4-29.4 31.6-30.3 50.6z"/>
					<path id="&lt;Path&gt;" class="s7" d="m667 274.9c4.4-0.8 6.8 2.2 6.8 2.2 0 0 8.4-6.9 10.4-18.1 1-5.5-2.2-10.9-3.6-12.3 0 0-0.5 17.3-14.7 16.4 0 0 1.7-13.9 3-17.4 1.1-3.3 3.2-9.5 7.5-10.9-4.2-1.9-9.4-2-15.2 0.2 0 3.7-0.6 12.4-5.9 16.1-4.6 3.3-9.6-0.1-12.4-2.6-3.1 3.5-5.9 7.4-8.3 11.5 2.4 0.1 4.9 1 4.4 4.5-0.8 5.3-6.3 13.1-12.8 18.3q-0.6 3.7-0.6 7.3c0 5.7 1.2 10.3 3.2 13.9 0.8-4.6 2-10.5 3.6-13.7 2.9-5.8 10.7-7.9 10.7-2.3 0 5.6-1.3 19.1-1.3 19.1 0 0 10.7 0.7 17.2-5 5.7-5 0-4.4-1.6-5-2.8-1-5.9-5.1-3.9-10.9 2-5.7 9-10.4 13.5-11.3z"/>
					<path id="&lt;Path&gt;" class="s22" d="m649.9 296.2c-2.6-4.7-2.3-10.4-6.7-13.2-1.8-1.2-5.2 0.2-8.6 4.3 3.5-3.3 8.5-3.7 8.5 0.7 0 5.6-1.3 19.1-1.3 19.1 0 0 9.3 0.6 15.9-4-2.4-0.9-5.5-2.8-7.8-6.9z"/>
					<path id="&lt;Path&gt;" class="s23" d="m646.4 258.8c-0.5-2.4-5.9-2.1-10.2-1.4q-0.8 1.3-1.6 2.6c2.4 0.1 4.9 1 4.4 4.5-0.8 5.3-6.3 13.1-12.8 18.3q0 0.2 0 0.5c14.3-2.7 21-20.8 20.2-24.5z"/>
					<path id="&lt;Path&gt;" class="s24" d="m667 274.9c4.4-0.8 6.8 2.2 6.8 2.2 0 0 8.4-6.9 10.4-18.1q0.1-0.8 0.2-1.6c-4.2 8-12.7 14.3-16.5 16.4q-1.4 0.8-2.6 1.6 0.8-0.3 1.7-0.5z"/>
					<path id="&lt;Path&gt;" class="s25" d="m665.9 263.1c0 0 0.1 8.7 2.2 10.5 3.9-2.2 12.1-8.4 16.3-16.2 0.2-4.9-2.6-9.4-3.8-10.7 0 0-0.5 17.3-14.7 16.4z"/>
					<path id="&lt;Path&gt;" class="s26" d="m667.1 233.5q-2.8 0.4-5.9 1.5c0 3.7-0.6 12.4-5.9 16.1-4.6 3.3-9.6-0.1-12.4-2.6q-0.1 0.2-0.3 0.4c2.5 2.5 7.1 6.2 12.4 6.1 7.6-0.1 14-12.8 12.1-21.5z"/>
					<path id="&lt;Path&gt;" class="s27" d="m664.2 258.6c0 1.9-1.3 4.3-3 5.3-1.7 1-3.1 0.2-3.1-1.8 0-1.9 1.4-4.3 3.1-5.3 1.7-0.9 3-0.2 3 1.8z"/>
					<path id="&lt;Path&gt;" class="s14" d="m658.1 261.8q0.6 0.1 1.3-0.3c1.3-0.7 2.3-2.5 2.3-4q0-0.5-0.1-0.8-0.2 0-0.4 0.1c-1.6 1-2.9 3.1-3.1 5z"/>
					<path id="&lt;Path&gt;" class="s28" d="m654.5 261c0 1.9-1.4 4.3-3.1 5.3-1.6 0.9-3 0.1-3-1.8 0-2 1.4-4.3 3-5.3 1.7-1 3.1-0.2 3.1 1.8z"/>
					<path id="&lt;Path&gt;" class="s14" d="m648.4 264.1q0.6 0.2 1.3-0.2c1.3-0.8 2.3-2.6 2.3-4q0-0.5-0.2-0.9-0.2 0.1-0.4 0.2c-1.5 0.9-2.8 3.1-3 4.9z"/>
					<path id="&lt;Path&gt;" class="s29" d="m648.1 272.7c0 1.9-1.3 4.3-3 5.3-1.7 0.9-3.1 0.2-3.1-1.8 0-1.9 1.4-4.3 3.1-5.3 1.7-1 3-0.2 3 1.8z"/>
					<path id="&lt;Path&gt;" class="s14" d="m642 275.9q0.6 0.1 1.3-0.3c1.3-0.8 2.3-2.6 2.3-4q0-0.5-0.2-0.9-0.1 0.1-0.3 0.2c-1.6 0.9-2.9 3.1-3.1 5z"/>
					<path id="&lt;Path&gt;" class="s30" d="m654.5 279.1c0 1.9-1.4 4.3-3.1 5.3-1.6 0.9-3 0.1-3-1.8 0-2 1.4-4.3 3-5.3 1.7-1 3.1-0.2 3.1 1.8z"/>
					<path id="&lt;Path&gt;" class="s14" d="m648.4 282.2q0.6 0.2 1.3-0.2c1.3-0.8 2.3-2.6 2.3-4q0-0.5-0.2-0.9-0.2 0.1-0.4 0.2c-1.5 0.9-2.8 3.1-3 4.9z"/>
					<path id="&lt;Path&gt;" class="s31" d="m663.9 270.2c0 1.9-1.4 4.3-3.1 5.3-1.7 0.9-3.1 0.2-3.1-1.8 0-2 1.4-4.3 3.1-5.3 1.7-1 3.1-0.2 3.1 1.8z"/>
					<path id="&lt;Path&gt;" class="s32" d="m657.6 268.7c0 2-1.4 4.3-3.1 5.3-1.7 1-3.1 0.2-3.1-1.7 0-2 1.4-4.4 3.1-5.3 1.7-1 3.1-0.2 3.1 1.7z"/>
					<path id="&lt;Path&gt;" class="s14" d="m657.8 273.4q0.5 0.1 1.2-0.3c1.3-0.8 2.3-2.6 2.3-4q0-0.5-0.1-0.9-0.2 0.1-0.4 0.2c-1.6 0.9-2.9 3.1-3 5z"/>
				</g>
				<g id="&lt;Group&gt;">
					<path id="&lt;Path&gt;" class="s33" d="m715.5 202.2c-2.9 12.2-10.5 23.4-15.7 30 0.2-20.1-11.9-28.1-27.7-23.6-3.6 1-7.4 2.7-11.3 5-36.4 22-55.1 54.9-59.6 88.5l-13.2 9.1-243.8 150.1-3 1.6c2.3-7.5 3.8-15.2 4.5-22.4 2.4-26.5-15.9-36.5-39.3-24-12.3 6.5-23.6 15.4-33 26.7-15.3 18.2-25.9 42.3-27.9 71.4l-1 0.5c0 0-4.5 2.3-14.4 4.1q-0.1 0-0.3 0.1-1.3 0.2-2.8 0.5-2.5 0.4-5.3 0.7-1 0.1-2 0.2-2 0.2-4.3 0.4-1 0.1-2 0.1-3.3 0.3-6.9 0.4-1.1 0-2.3 0-4.9 0.1-10.5-0.1c-35.8-1.1-56.8-14.4-66.6-19.7-9.9-5.2-71.9-41.8-88.4-54.1-16.6-12.3-17.7-21.2-17.7-21.2-13.5-14-14.5-25.7-14.6-27.5q0-0.2 0-0.2c0 0-8.1-11.5-5.6-31 2.4-19.5 11.6-30.6 11.6-30.6q0 0 0.1-0.3c0.7-1.4 4.4-9.3 7.9-16.8q0.5-1 1-2 0.1-0.2 0.2-0.4c2.6-5.5 5-10.4 5.7-11.7 2-3.4 21.1-19.4 31.9-27.7 10.8-8.4 75.4-59.7 80.5-64.6 5.1-4.9 16.2-15 16.2-15 31-29.3 63.8-60.7 81.4-74.1 17.5-13.5 44.1-33 64.1-45.1 20-12.1 59.4-36.4 79.2-46.4 19.9-10 57.4-25.7 72.1-29.6 10.4-2.8 32.1-3.2 44-3.2 4.9 0 8.2 0.1 8.2 0.1 26.4-0.4 61.1 7 80.6 17.1 38.8 20.2 73.9 52 84.7 61.2 21 17.7 28.5 42.5 29.7 48.9 0.1 0.8 0.4 1.7 0.7 2.9 2.6 8 10 23.4 10 23.4q0 0 0 0c6.4 5 9.5 29.4 4.9 48.3z"/>
				</g>
				<path id="&lt;Path&gt;" class="s34" d="m715.5 202.2c-2.9 12.2-10.5 23.4-15.7 30 0.2-20.1-11.9-28.1-27.7-23.6v-0.1c-1.9-3.2 0.4-7.5 17-15.6 16.7-8 21.5-39 21.5-39q0 0 0 0c6.4 5 9.5 29.4 4.9 48.3z"/>
				<path id="&lt;Path&gt;" class="s34" d="m273.4 443.2c-15.3 18.2-25.9 42.3-27.9 71.4l-1 0.5c0 0-4.5 2.3-14.4 4.1q-0.1 0-0.3 0.1-1.3 0.2-2.8 0.5-2.5 0.4-5.3 0.7-1 0.1-2 0.2-2 0.2-4.3 0.4-1 0.1-2 0.1-3.3 0.3-6.9 0.4-1.1 0-2.3 0-4.9 0.1-10.5-0.1c-35.8-1.1-56.8-14.4-66.6-19.7-9.9-5.2-71.9-41.8-88.4-54.1-16.6-12.3-17.7-21.2-17.7-21.2-13.5-14-14.5-25.7-14.6-27.5q0-0.2 0-0.2c0 0-8.1-11.5-5.6-31 2.4-19.5 11.6-30.6 11.6-30.6q0 0 0.1-0.3l15.8-0.5 2.5 27c0 0 33.3 66.6 133.5 79.2 0 0 69.2 8.5 109 0.6q0.1 0 0.1 0z"/>
				<path id="&lt;Compound Path&gt;" class="s35" d="m700.6 130.5l-345.3 226c0 0-116 70.7-122.5 73.8-6.4 3.2-51 10.7-98.6-9.5-36.1-15.2-68.1-33-85.3-53.4-5.5-6.5-9.5-13.3-11.6-20.4-4.3-14.3-10.5-23.6-15.7-29.3q-0.1 0.2-0.2 0.4-0.5 1-1 2c-3.9 8.3-8 17.1-8 17.1 0 0-9.2 11.1-11.6 30.6-2.5 19.5 5.6 31 5.6 31q0 0 0 0.2c5.6 6.7 16.2 16.3 21.1 21 9.8 9.4 72.1 44.5 85.4 52 11 6.2 36.1 19.3 67.1 22.5 5.6 0.6 8 6.2 8.2 10.4 0.1 4.2 0 7.7-5 7.2-33-3.5-58.6-16.2-70.3-22.8-13.3-7.5-80.9-43.2-91.9-62.8 0 0 1.1 8.9 17.7 21.2 16.5 12.3 78.5 48.9 88.4 54.1 9.8 5.3 30.8 18.6 66.6 19.7q5.6 0.2 10.5 0.1 1.2 0 2.3 0 3.6-0.1 6.9-0.4 1 0 2-0.1 2.3-0.2 4.3-0.4 1-0.1 2-0.2 2.8-0.3 5.3-0.7 1.5-0.3 2.8-0.5 0.2-0.1 0.3-0.1 1.5-0.3 2.8-0.6-0.1-2.3 0-4.9c3.3-47.1 28.6-87.6 67.6-108.3 8.4-4.5 16.7-6.8 24.5-6.8 9.6 0 18.1 3.6 24.1 10.1 4 4.4 7.6 13.9 7 26.2l233.9-141.9c7.1-37.1 29.7-69.3 64.3-90.1 4.9-3 9.9-5.2 14.7-6.5l39.4-26.4 2.2-16.1c0 0-7.4-15.4-10-23.4z"/>
				<path id="&lt;Path&gt;" class="s35" d="m677.4 89.1l-10.3-4.2-68.9 4.5c-21.4-1.1-83.4 35.3-130.7 64.1-47.3 28.8-61.8 49.5-61.8 49.5l-65.3 107.6c0 0-7.7 16.2-16.9 27.5-9.3 11.4-63.4 60.5-63.4 60.5l107-69.9 162.6-106.8c0 0 120-80.8 125.5-84.5 5.4-3.7 15.6-10.1 21.6-25.1 6.1-14.9 0.6-23.2 0.6-23.2z"/>
				<path id="&lt;Path&gt;" class="s35" d="m717.4 174.9c-8.3 12-22.1 16.9-22.1 16.9 9.6-6.8 12.9-20.1 12.9-20.1v-0.2l-36 24.2c2.7-0.6 5.4-0.9 8-0.9 9.4 0 17.7 3.6 23.5 10.3 2.6 2.9 4.4 7.3 5.1 13.6 2.8-5 5.3-10.6 6.7-16.4 2.1-8.8 2.6-18.7 1.9-27.4z"/>
				<path id="&lt;Path&gt;" class="s35" d="m355.7 439.2q-0.4 2.9-1.1 6.1-1.3 5.5-2.7 11.3l235.9-145.3q0.3-6.1 1.2-12.1z"/>
				<path id="&lt;Path&gt;" class="s35" d="m24 407.1q2 1.9 3.8 3.6c4.4 4.3 22.7 16.6 84.8 51.6l0.6 0.4c29.9 16.8 59.2 24.5 87 22.9 17.2-1.1 30.4-4.4 39.9-7.8q1.8-5.3 4-10.4c-9.6 3.8-24.1 7.9-43.9 9.1-40.1 2.4-74-15.5-87.3-22.9-13.3-7.5-75.6-42.6-85.5-52-8.1-7.8-22.4-21.4-25.8-39-0.3 1.7-0.6 3.4-0.8 5.2-0.4 3.4-0.5 6.5-0.4 9.4 5.8 13.4 15.5 22.5 23.6 29.9z"/>
				<g id="&lt;Group&gt;" style="opacity: .3;mix-blend-mode: screen">
					<path id="&lt;Path&gt;" class="s36" d="m140.4 423.3q4.3 1.6 8.5 2.9c11.8-8 65.8-44.7 99.4-64.2-32.1 17-92.7 49.5-107.9 61.3z"/>
				</g>
				<path id="&lt;Path&gt;" class="s37" d="m45.4 363c10.4-35.5 62.6-95.6 62.6-95.6-41.4 41.9-59.1 76.6-64.7 92.4q1 1.6 2.1 3.2z"/>
				<path id="&lt;Path&gt;" class="s38" d="m703.7 205.1c-5.8-6.7-14.1-10.3-23.5-10.3-8.2 0-17.2 2.8-25.9 8.1-34.6 20.8-57.2 53-64.3 90.1l8.1 0.7-9.1 5.5q-0.9 6-1.2 12.1l0.2-0.1 13.2-9.1c4.5-33.6 23.2-66.5 59.6-88.5 20.8-12.5 39.3-6.2 39 18.6 2.7-3.4 6-8.1 9-13.5-0.7-6.3-2.5-10.7-5.1-13.6z"/>
				<path id="&lt;Path&gt;" class="s39" d="m347.9 443.9l8.2-9c0.6-12.3-3-21.8-7-26.2-6-6.5-14.5-10.1-24.1-10.1-7.8 0-16.1 2.3-24.5 6.8-39 20.7-64.3 61.2-67.6 108.3q-0.1 2.6 0 4.9c8-1.7 11.6-3.5 11.6-3.5l1-0.5c3.3-47.1 28.8-81.1 60.9-98.1 23.4-12.5 41.7-2.5 39.3 24-0.7 7.2-2.2 14.9-4.5 22.4l3-1.6 7.7-4.7q1.4-5.8 2.7-11.3 0.7-3.2 1.1-6.1z"/>
				<g id="&lt;Group&gt;">
					<path id="&lt;Path&gt;" class="s40" d="m15 419.4c1.6 2.3 3.6 4.7 6 7.1-1.8-3-3.8-5.2-6-7.1z"/>
					<path id="&lt;Path&gt;" class="s41" d="m232.9 513.7c0.9-12 3.2-23.6 6.7-34.5-9.5 3.3-22.5 6.5-39.3 7.5q-3.8 0.2-7.6 0.2c-25.7 0-52.6-7.8-80.1-23.3l-0.5-0.3c-62.2-35-80.6-47.5-85-51.8q-1.9-1.7-3.9-3.6c-7.6-7-16.7-15.4-22.6-27.6 1.1 11.8 5.8 18.5 5.8 18.5q0 0 0 0.2c5.6 6.6 16.2 16.3 21 21 9.9 9.4 72.2 44.5 85.5 52 11 6.2 36.1 19.3 67.1 22.5 5.6 0.6 8 6.2 8.2 10.4 0.1 4.2-0.1 7.7-5 7.2-33-3.5-58.6-16.2-70.3-22.8-13.3-7.5-80.9-43.2-91.9-62.8 0 0 1.1 8.9 17.7 21.2 16.5 12.3 78.5 48.9 88.4 54.1 9.8 5.3 30.8 18.6 66.6 19.7 18.2 0.6 31-1.1 39.2-2.9q-0.1-2.3 0-4.9z"/>
				</g>
				<path id="&lt;Path&gt;" class="s42" d="m180 494.5c-13-1.3-25-4.4-35.4-8.1l0.4 2.7 7.7 5-7.3-2.1c-16.5-5.2-29.2-11.6-36.5-15.8-13.3-7.5-80.9-43.2-92-62.7v2.6c11.1 19.6 78.7 55.3 92 62.8 7.3 4.1 20.2 10.7 36.9 15.9l0.6 4.2c0 0 25.8 8.1 35.6 7.6 2.4-0.1 4.5-1.2 6.1-2.7-0.5-4.1-3-8.9-8.1-9.4z"/>
				<path id="&lt;Path&gt;" class="s43" d="m208.1 458.1c-2.6 0-5.4-0.1-8.5-0.2-15.6-0.5-34.3-3.8-55.7-9.7l-0.7-0.2q-3.3-0.9-3.7-2.9c-0.4-2 1.7-3.7 2-3.9l0.8-0.6c5.4-4.2 18.1-14 30.5-18.1 5.5-1.9 15.4-2.9 27.1-2.9 12.5 0 24.1 1.2 28.8 2.9 5.1 1.9 10.8 7.5 8.4 23.3-1.6 10.2-12.7 12.3-29 12.3z"/>
				<path id="&lt;Path&gt;" class="s44" d="m142.2 442.2c0 0-4.1 3.1 1.3 4.6 5.4 1.5 31.9 9 56.2 9.9 24.2 0.8 34.7-1.5 36.2-11.1 1.2-8.4 0.9-18.7-7.7-21.9-8.6-3.2-42.1-4.3-55 0-13 4.3-26.5 15.1-31 18.5z"/>
				<path id="&lt;Path&gt;" class="s45" d="m228.2 423.7c-6.8-2.6-29.4-3.8-44.9-2l-18.4 9c-1.4 0.7-2.4 2.4-2.4 5 0 5.1 3.6 11.6 8.1 14.5 2.2 1.4 4.2 1.7 5.7 1l54-26.5q-0.9-0.6-2.1-1z"/>
				<path id="&lt;Path&gt;" class="s46" d="m162.5 435.7c0 5.1 3.6 11.6 8.1 14.5 2.2 1.4 4.2 1.7 5.7 1 1.4-0.7 2.4-2.4 2.4-5 0-5.1-3.6-11.6-8.1-14.5-2.2-1.4-4.2-1.7-5.7-1-1.4 0.7-2.4 2.4-2.4 5z"/>
				<path id="&lt;Path&gt;" class="s47" d="m228.2 423.7c-3.7-1.4-12.1-2.4-21.4-2.7l-20.3 10.6c-1.5 0.7-2.4 2.5-2.4 5 0 5.1 3.6 11.6 8.1 14.5 2.2 1.5 4.2 1.8 5.7 1.1l38.2-17.8c-0.8-4.8-3-8.9-7.9-10.7z"/>
				<path id="&lt;Path&gt;" class="s46" d="m184.1 436.6c0 5.1 3.6 11.6 8.1 14.5 2.2 1.5 4.2 1.8 5.7 1.1 1.4-0.7 2.3-2.5 2.3-5 0.1-5.1-3.6-11.6-8-14.5-2.2-1.5-4.2-1.8-5.7-1.1-1.5 0.7-2.4 2.5-2.4 5z"/>
				<path id="&lt;Path&gt;" class="s48" d="m214.2 440c-0.1 3.1 2.1 7 4.8 8.7 1.3 0.9 2.5 1.1 3.4 0.7l13.8-6.7c0.5-5.3 0.2-10.9-2.6-14.9l-18 9.2c-0.9 0.4-1.4 1.4-1.4 3z"/>
				<path id="&lt;Path&gt;" class="s49" d="m214.2 440c-0.1 3.1 2.1 7 4.8 8.7 1.3 0.9 2.5 1.1 3.4 0.7 0.9-0.5 1.5-1.5 1.5-3 0-3.1-2.2-7-4.9-8.8-1.3-0.9-2.5-1-3.4-0.6-0.9 0.4-1.4 1.4-1.4 3z"/>
				<path id="&lt;Path&gt;" class="s50" d="m142.2 442.2c0 0-4.1 3.1 1.3 4.6 5.4 1.5 31.9 9 56.2 9.9 24.2 0.8 34.7-1.5 36.2-11.1 1.2-8.4 0.9-18.7-7.7-21.9-8.6-3.2-42.1-4.3-55 0-13 4.3-26.5 15.1-31 18.5z"/>
				<g id="&lt;Group&gt;">
					<path id="&lt;Path&gt;" class="s51" d="m27.6 305.6q-0.1 0.2-0.3 0.4c-1.9 3.4-14.9 31.2-14.9 31.2q0 0-0.4 0.6c0 0 1.2 11.1 6.9 22.6 5.6 11.4 15.6 21.7 15.6 21.7 0 0 3.2-27.3 2.7-43.3-0.4-14.1-4.9-32.5-9.6-33.2z"/>
					<g id="&lt;Group&gt;">
						<path id="&lt;Path&gt;" class="s52" d="m37.2 338.8c-0.2-6.1-1.1-13.1-2.5-19l-12.9 6.3c-1.5 0.7-2.4 2.4-2.4 5 0 5.1 3.6 11.6 8 14.5 2.2 1.5 4.3 1.7 5.7 1l4.2-2c0-2 0-4-0.1-5.8z"/>
						<path id="&lt;Path&gt;" class="s46" d="m19.4 331.1c0 5.1 3.6 11.6 8 14.5 2.2 1.5 4.3 1.7 5.7 1 1.5-0.7 2.4-2.4 2.4-4.9 0-5.1-3.6-11.6-8-14.6-2.3-1.4-4.3-1.7-5.7-1-1.5 0.7-2.4 2.4-2.4 5z"/>
						<path id="&lt;Path&gt;" class="s53" d="m37.2 338.8q0-0.4 0-0.8l-12.1 5.9c-1.5 0.7-2.4 2.4-2.4 5 0 5.1 3.6 11.6 8.1 14.5 2.1 1.4 4 1.7 5.4 1.1 0.7-8.4 1.2-18.2 1-25.7z"/>
						<path id="&lt;Path&gt;" class="s46" d="m30.8 344.9c-2.2-1.4-4.2-1.7-5.7-1-1.5 0.7-2.4 2.4-2.4 5 0 5.1 3.6 11.6 8.1 14.5 2.1 1.4 4 1.7 5.4 1.1 0.3-3.9 0.6-8 0.8-12.1-1.5-3.1-3.7-5.8-6.2-7.5z"/>
					</g>
					<path id="&lt;Path&gt;" class="s54" d="m27.6 305.6q-0.1 0.2-0.3 0.4c-1.9 3.4-14.9 31.2-14.9 31.2q0 0-0.4 0.6c0 0 1.2 11.1 6.9 22.6 5.6 11.4 15.6 21.7 15.6 21.7 0 0 3.2-27.3 2.7-43.3-0.4-14.1-4.9-32.5-9.6-33.2z"/>
				</g>
				<path id="&lt;Path&gt;" class="s55" d="m651.7 132.9c-5.3-2.3-33.2-16.2-51.8-16.3-18.5-0.2-43.5 8.2-70.7 21.3-1.6 0.8-3.4 1.8-5.4 2.7-3.3 1.5-5.4 4.5-4.8 10.7l9.6 70-16.7 11.1-11.2-72.7c-0.5-3.8-3.1-4-5.6-2.4-21.4 13.6-45 28.9-55.2 36.3-25.3 18.5-26.6 33.3-40.2 56.4-12.8 21.6-33.3 66.4-34.5 73.8 0 0-2 8.1 4.5 3.5 5.4-3.9 108.2-70.5 142.6-92.6l16.7-11.1 126.2-86.2c0 0 3.1-1.6-3.5-4.5z"/>
				<path id="&lt;Path&gt;" class="s55" d="m376.7 252.5c-7.9 14.7-34.2 59.9-39.6 66.4-5.3 6.4-22.6 13.5-43 10.2-20.4-3.3-57.9-22.3-97-46.4-39.2-24.2-53.5-36.7-55.9-50.8-2.5-14 12.5-25.1 21-33.3 8.5-8.3 67.6-65.6 92.4-82.2 0 0 2.2-2.6 7.9 1.8 5.7 4.4 38.8 28.6 58.8 40.5 19.9 11.8 84.4 44.3 84.4 44.3z"/>
				<path id="&lt;Path&gt;" class="s56" d="m222.4 273.5c-27.7-19.2-41.8-26.8-57.7-40.9-15.9-14.1-8.6-25.2-4.9-28.9 1.3-1.3 2.7-2.5 3.9-3.6l1.3-1.3c43.3-41.8 70.6-66.8 85.8-77l0.2-0.2 0.1-0.1c0.1-0.1 0.3-0.1 0.7-0.1 0.6 0 4.6 0.4 7 2.3 5.3 4.1 38 28 58.2 40 17.8 10.5 72.4 38.6 83.4 44.2l-25.5 43.5c-5.9 11.1-23.1 40.7-33 56.5-3.9 6.4-20.9 10.9-32.6 7.5-11.6-3.3-60.7-23.8-86.9-41.9z"/>
				<path id="&lt;Path&gt;" class="s55" d="m603.5 89.8c0 0-17-5-24.3-10.2-15.3-10.9-33-26.6-58.8-41.9-25.3-15.1-43.9-22.8-50.5-26.8-7.7-4.8-14.9-5.9-7.5-6.9 5.3-0.7 13.9-1.4 22-1.9 19.5-1.2 39.2 0 58.5 4 4.9 1 9.8 2.2 14.7 3.6 24.1 7.2 40.2 18.1 61.5 31.9 21.3 13.8 46 37.5 50.4 43.3 4.4 5.9 13.6 25.6 2.7 25.3-11-0.4-68.7-20.4-68.7-20.4z"/>
				<path id="&lt;Path&gt;" class="s56" d="m670.3 107.7c-10.4-0.4-66.3-19.8-66.9-20-0.2 0-16.6-4.9-23.5-9.8-4.6-3.3-9.5-7.1-14.7-11.1-12-9.2-25.5-19.6-43.2-30.1-15.9-9.5-29.4-16.2-38.3-20.6-5-2.4-8.9-4.3-11.2-5.7-2.6-1.6-5.2-2.9-7.1-3.7q-0.3-0.2-0.5-0.3c4.4-0.6 11.5-1.2 21.1-1.8 4.7-0.3 9.5-0.4 14.2-0.4 14.7 0 29.1 1.4 42.8 4.3 5.2 1 10 2.2 14.3 3.5 22.3 6.7 37.4 16.5 56.7 29l3.4 2.2c20.2 13.1 44.6 36.3 49.1 42.1 3.6 4.9 9 16.8 6.9 21-0.3 0.6-0.9 1.4-2.8 1.4z"/>
				<path id="&lt;Path&gt;" class="s56" d="m644.2 142.3l-113.6 77.7-9.5-69c-0.6-5.8 1.6-7.6 3.6-8.5 1.2-0.5 2.3-1.1 3.3-1.6q1.1-0.6 2.1-1.1c29.1-14 52.4-21.1 69.3-21.1h0.5c13.2 0.1 31.4 7.6 42.4 12.3 3.2 1.3 9.4 6.2 1.9 11.3z"/>
				<path id="&lt;Path&gt;" class="s56" d="m391.3 310.6c35.7-23.2 92.3-59.9 118.7-77l-11.4-73.7q-0.2-1.4-0.7-1.4c-0.2 0-0.8 0-1.7 0.6-19.2 12.2-44.4 28.4-55 36.2-23.8 17.3-25.1 30.9-37.7 52.3l-2 3.5c-4.9 8.2-11 20.1-16.7 31.9z"/>
				<path id="&lt;Path&gt;" class="s57" d="m277.6 268.1c-17.9-11.4-36-23.2-71.6-41.5-24.9-12.8-42.1-16.1-50.1-16.9-2.1 5.4-1.8 13.5 8.8 22.9 15.9 14.1 30 21.7 57.7 40.9 26.2 18.1 75.3 38.6 86.9 41.9 9.6 2.8 22.7 0.3 29.3-4.2-14-16-45.4-33.2-61-43.1z"/>
				<path id="&lt;Path&gt;" class="s58" d="m171.7 198.4l101.3-64.3c-7-5-12.3-8.9-14.2-10.4-2.4-1.9-6.4-2.3-7-2.3-0.4 0-0.6 0-0.7 0.1l-0.1 0.1-0.2 0.2c-14.4 9.7-39.8 32.7-79.5 70.9z"/>
				<path id="&lt;Compound Path&gt;" fill-rule="evenodd" class="s59" d="m333.4 290.9c-2.4-0.2-5.4-1.1-8.7-2.7-11.7-5.7-24-18.6-27.3-28.7-2.4-7.3 0.5-11.2 6.7-10.7 2.5 0.2 5.4 1.1 8.7 2.7 11.8 5.7 24 18.5 27.3 28.7 2.4 7.3-0.5 11.2-6.7 10.7zm2-9.6c-2.9-8.7-14.1-20.3-24.5-25.4-3.3-1.6-5.5-2-6.8-2.1-1.3-0.1-2.1 0.1-2.3 0.4-0.2 0.3-0.5 1.6 0.4 4.1 2.8 8.8 14 20.4 24.4 25.4 3.3 1.6 5.5 2.1 6.8 2.2 1.3 0.1 2.1-0.1 2.3-0.4 0.2-0.3 0.5-1.6-0.3-4.2z"/>
				<path id="&lt;Path&gt;" class="s59" d="m266.6 263.1l1.5-1.6c0 0 22.2-9.4 43.1 2.1 20.8 11.5 21.9 38.6 21.9 38.6l-1.3 1.3c0 0-15.8 3.2-48.7-11.2-33-14.3-16.5-29.2-16.5-29.2z"/>
				<path id="&lt;Path&gt;" class="s60" d="m317 163.7c-20.2-12-52.9-35.9-58.2-40-2.4-1.9-6.4-2.3-7-2.3-0.4 0-0.6 0-0.7 0.1l-0.1 0.1-0.2 0.2c-15.2 10.2-42.5 35.2-85.8 77l-1.3 1.3c-1.2 1.1-2.6 2.3-3.9 3.6-3.7 3.7-11 14.8 4.9 28.9 1.5 1.3 2.9 2.5 4.3 3.7 37.5-22.1 94.6-52.3 152.8-69.8-1.8-1.1-3.5-2-4.8-2.8z"/>
				<g id="&lt;Group&gt;">
					<path id="&lt;Path&gt;" class="s61" d="m382.6 304.8c0 0-2.9-1.8-4.8-1.7-2 0.2-3 4.4-2.6 8.7 0.4 4.2 5.3 4.6 5.3 4.6 0 0 13.2 7.1 14.9 7.7 1.8 0.6 6.3 0.2 7.7-0.4 1.4-0.6 2.1-4.4 2.1-7.4 0-3-0.3-4.2-2.6-5.6-2.3-1.4-14.7-7.8-14.7-7.8 0 0-4-1.3-5.3 1.9z"/>
				</g>
				<path id="&lt;Path&gt;" class="s62" d="m380.7 310.5c0.4-3.9 1.9-5.7 1.9-5.7 0 0-2.9-1.8-4.8-1.7-2 0.2-3 4.4-2.6 8.7 0.4 4.2 5.3 4.6 5.3 4.6 0 0-0.3-2.1 0.2-5.9z"/>
				<path id="&lt;Path&gt;" class="s63" d="m380.5 316.4c0 0-0.3-2 0.1-5.6-1.9-0.6-4-1.7-5.4-2.6-0.1 1.1-0.1 2.3 0 3.6 0.4 4.2 5.3 4.6 5.3 4.6z"/>
				<path id="&lt;Path&gt;" class="s64" d="m403.1 323.7c1.4-0.6 2.1-4.4 2.1-7.4 0-1.5-0.1-2.5-0.4-3.4-2.6 1.1-7.5 3.3-8.4 4.5-0.8 1-1.8 4-1.6 6.5 0.3 0.1 0.5 0.2 0.6 0.2 1.8 0.6 6.3 0.2 7.7-0.4z"/>
				<path id="&lt;Path&gt;" class="s65" d="m396.2 317.7c-5.2-1.9-12.4-5.6-15.5-7.3q0 0 0 0.1c-0.5 3.8-0.2 5.9-0.2 5.9 0 0 11.1 6 14.3 7.5-0.2-2.3 0.7-5 1.4-6.2z"/>
				<g id="&lt;Group&gt;">
					<path id="&lt;Path&gt;" class="s61" d="m165.9 189.3q4.2-4 8.5-8c-0.2-1.6-0.5-4.9-1-5.8-0.6-1.1-12.4-8.9-12.4-8.9 0 0-1.4-1.4-3.6 0.8-2.3 2.2-2.5 9.6-2.1 11.5 0.2 1.5 7.4 7.7 10.6 10.4z"/>
				</g>
				<path id="&lt;Path&gt;" class="s66" d="m166.1 178.9c-0.7-1.4-7.4-6.1-10.3-8.2-0.8 3-0.8 6.9-0.5 8.2 0.2 1.5 7.4 7.7 10.6 10.4q0.4-0.4 0.8-0.8c0-3.5 0-8.5-0.6-9.6z"/>
				<path id="&lt;Path&gt;" class="s62" d="m173.9 181.7c-1.2-0.4-3-0.9-3.9-0.2-1 0.7-1.2 3.6-1.2 5.1q2.5-2.5 5.1-4.9z"/>
				<g id="&lt;Group&gt;">
					<path id="&lt;Path&gt;" class="s67" d="m500.4 278l21.1-12.6c0 0 1-0.6 1.1 1.1 0.1 1.7 0 10.1 0 10.1l-5.3 2.9v-4.6l-16.4 9.5c0 0-2.2 1-2.1-2.1 0.1-3 0.9-3.9 1.6-4.3z"/>
					<path id="&lt;Path&gt;" class="s68" d="m500.4 279l21.1-12.7c0 0 1-0.5 1.1 1.2q0 0 0 0.1c0-0.5 0-0.9 0-1.1-0.1-1.7-1.1-1.1-1.1-1.1l-21.1 12.6c-0.7 0.4-1.5 1.3-1.6 4.3q0 0.4 0 0.7c0.2-2.8 1-3.6 1.6-4z"/>
					<path id="&lt;Path&gt;" class="s69" d="m517.3 274.9l-16.4 9.5q0 0-0.1 0v3.8l16.5-9.8z"/>
				</g>
				<g id="&lt;Group&gt;">
					<path id="&lt;Path&gt;" class="s67" d="m606.5 207.5l21-12.6c0 0 1-0.6 1.1 1.1 0.1 1.7 0 10.1 0 10.1l-5.3 2.9v-4.6l-16.4 9.5c0 0-2.2 1-2.1-2.1 0.1-3 1-3.9 1.7-4.3z"/>
					<path id="&lt;Path&gt;" class="s68" d="m606.5 208.5l21-12.6c0 0 1-0.6 1.1 1.1q0 0.1 0 0.1c0-0.5 0-0.9 0-1.1-0.1-1.7-1.1-1.1-1.1-1.1l-21 12.6c-0.7 0.4-1.6 1.3-1.7 4.3q0 0.4 0.1 0.7c0.1-2.7 0.9-3.6 1.6-4z"/>
					<path id="&lt;Path&gt;" class="s70" d="m623.3 204.4l-16.4 9.5q0 0-0.1 0v3.8l16.5-9.7z"/>
				</g>
				<g id="&lt;Group&gt;" style="opacity: .2;mix-blend-mode: multiply">
					<path id="&lt;Path&gt;" class="s71" d="m522.3 336.6c-0.3-3.7 2.4-14.9 5.4-26.8 2.4-9.6 4.8-19.6 5.3-24.5 1-10.1 0.1-40 0-42.2l-12.3-14.8-0.1-0.1c-0.1-0.6-10.8-59-11.9-68.2-1.2-9-5.8-12.6-5.8-12.7l0.4-0.5c0.2 0.1 4.9 3.8 6.1 13.1 1.1 9 11.5 65.4 11.9 68.1l12.4 14.8 0.1 0.2c0 0.3 1 31.9-0.1 42.4-0.4 4.9-2.9 14.9-5.3 24.6-2.8 11.3-5.7 23-5.4 26.5z"/>
				</g>
				<g id="&lt;Group&gt;" style="opacity: .2;mix-blend-mode: multiply">
					<path id="&lt;Path&gt;" class="s72" d="m362.4 429.7c-0.2-0.3-3.4-6.2-3.4-12.5 0-6.1-3.1-57.7-3.2-59.8l-6.9-17v-0.1c0.1-0.3 7.1-28.3 21.4-55.3 14.3-27 43.4-74.3 60.2-89.9l0.5 0.6c-16.7 15.5-45.7 62.7-60.1 89.7-13.8 26-20.7 53-21.2 55l6.8 16.9c0 0.5 3.2 53.7 3.2 59.9 0 6.1 3.3 12.1 3.3 12.1z"/>
				</g>
				<path id="&lt;Path&gt;" class="s73" d="m38.7 414.7c0.1-2.3 1.7-3.3 3.7-2.1l67 40.1c2 1.1 3.6 4 3.6 6.3v11.6c0 2.3-1.6 3.2-3.6 2l-67.4-40.1c-1.9-1.2-3.5-4.1-3.5-6.4z"/>
				<path id="&lt;Path&gt;" class="s46" d="m111.1 471.9c-0.3 0-0.7-0.1-1-0.4l-67.4-40.1c-1.6-1-3-3.4-2.9-5.2l0.2-11.5c0-0.5 0.1-1.3 0.8-1.3q0.4 0 1 0.3l67 40c1.6 1 3 3.4 3 5.3v11.6c0 0.5-0.1 1.3-0.7 1.3z"/>
				<path id="&lt;Path&gt;" class="s74" d="m586.2 252.6l-237.3 141.5v4.5l1.4 0.9 238.8-143.9 1.2-1.5-0.6-0.8c-0.8-1.1-2.3-1.4-3.5-0.7z"/>
				<path id="&lt;Path&gt;" class="s34" d="m588.1 253.4l-237.8 142.1v4.5l238.2-141.8c1.2-0.7 2-2.1 1.9-3.5 0-1.2-1.3-1.9-2.3-1.3z"/>
			</g>
			<path id="&lt;Path&gt;" class="s75" d="m319 136.1l12.3-5.6 6.7 4.1-6.7 10.7c0 0-6.4-1.9-12.3-9.2z"/>
			<path id="&lt;Path&gt;" class="s76" d="m331.3 145.3l8.8-4.3 4.7-4.3-4.4-4.1-2.4 2z"/>
			<path id="&lt;Path&gt;" class="s76" d="m319 136.1l12.5-7.6h3l-3.2 2z"/>
			<path id="&lt;Path&gt;" class="s77" d="m340.4 132.6l-5.9-4.1-3.2 2 6.7 4.1z"/>
			<g id="&lt;Group&gt;">
				<path id="&lt;Path&gt;" class="s77" d="m335.4 131.4c11.7-23.3 34.2-40.6 59.5-46.5-18.8 4.7-36 15.6-48.2 30.7-4 5-7.7 10.4-10.4 16.2z"/>
			</g>
		</g>
	</g>
</svg>