<svg version="1.2" xmlns="http://www.w3.org/2000/svg" viewBox="0 0 1276 1020" width="32" height="32"><defs><linearGradient id="g1" x2="1" gradientUnits="userSpaceOnUse" gradientTransform="matrix(30.239 0 0 24.546 1240.908 445.824)"><stop offset=".272" stop-color="#0267d8"/><stop offset="1" stop-color="#47a2ff"/></linearGradient><linearGradient id="g2" x2="1" gradientUnits="userSpaceOnUse" gradientTransform="matrix(470.573 0 0 246.992 769.195 163.479)"><stop offset="0" stop-color="#0267d8"/><stop offset="1" stop-color="#208ae2"/></linearGradient><linearGradient id="g3" x2="1" gradientUnits="userSpaceOnUse" gradientTransform="matrix(-112.048 0 0 -144.054 584.651 830.552)"><stop offset="0" stop-color="#323232"/><stop offset=".629" stop-color="#201f1d"/><stop offset="1" stop-color="#12100c"/></linearGradient><linearGradient id="g4" x2="1" gradientUnits="userSpaceOnUse" gradientTransform="matrix(8.015 45.342 -29.425 5.201 474.795 892.405)"><stop offset="0" stop-color="#cae3e5"/><stop offset="1" stop-color="#9aaeb0"/></linearGradient><linearGradient id="g5" x2="1" gradientUnits="userSpaceOnUse" gradientTransform="matrix(-38.693 4.294 -5.033 -45.353 531.532 867.345)"><stop offset="0" stop-color="#acc1c4"/><stop offset="1" stop-color="#9aaeb0"/></linearGradient><linearGradient id="g6" x2="1" gradientUnits="userSpaceOnUse" gradientTransform="matrix(61.885 -195.827 111.397 35.204 591.743 999.471)"><stop offset="0" stop-color="#f4feff"/><stop offset=".554" stop-color="#cae3e5"/><stop offset="1" stop-color="#9aaeb0"/></linearGradient><linearGradient id="g7" x2="1" gradientUnits="userSpaceOnUse" gradientTransform="matrix(-146.624 -162.313 289.5 -261.517 682.547 955.212)"><stop offset="0" stop-color="#acc1c4"/><stop offset="1" stop-color="#748385"/></linearGradient><linearGradient id="g8" x2="1" gradientUnits="userSpaceOnUse" gradientTransform="matrix(-112.048 0 0 -144.054 1157.735 499.15)"><stop offset="0" stop-color="#323232"/><stop offset=".629" stop-color="#201f1d"/><stop offset="1" stop-color="#12100c"/></linearGradient><linearGradient id="g9" x2="1" gradientUnits="userSpaceOnUse" gradientTransform="matrix(61.885 -195.827 111.396 35.204 1164.827 668.069)"><stop offset="0" stop-color="#f4feff"/><stop offset=".554" stop-color="#cae3e5"/><stop offset="1" stop-color="#9aaeb0"/></linearGradient><linearGradient id="g10" x2="1" gradientUnits="userSpaceOnUse" gradientTransform="matrix(-146.624 -162.314 289.499 -261.515 1255.63 623.812)"><stop offset="0" stop-color="#acc1c4"/><stop offset="1" stop-color="#748385"/></linearGradient><linearGradient id="g11" x2="1" gradientUnits="userSpaceOnUse" gradientTransform="matrix(26.465 45.838 -227.032 131.077 895.673 561.02)"><stop offset="0" stop-color="#acc1c4"/><stop offset="1" stop-color="#9aaeb0"/></linearGradient><linearGradient id="g12" x2="1" gradientUnits="userSpaceOnUse" gradientTransform="matrix(91.822 0 0 122.431 357.104 897.072)"><stop offset=".272" stop-color="#0267d8"/><stop offset="1" stop-color="#208ae2"/></linearGradient><linearGradient id="g13" x2="1" gradientUnits="userSpaceOnUse" gradientTransform="matrix(-195.384 338.415 -2054.89 -1186.392 392.851 794.706)"><stop offset="0" stop-color="#47a2ff"/><stop offset=".031" stop-color="#208ae2"/><stop offset=".728" stop-color="#0267d8"/></linearGradient><linearGradient id="g14" x2="1" gradientUnits="userSpaceOnUse" gradientTransform="matrix(191.834 0 0 113.822 65.73 840.163)"><stop offset="0" stop-color="#47a2ff"/><stop offset="1" stop-color="#0267d8"/></linearGradient><linearGradient id="g15" x2="1" gradientUnits="userSpaceOnUse" gradientTransform="matrix(60.441 0 0 42.267 27.985 777.898)"><stop offset="0" stop-color="#47a2ff"/><stop offset="1" stop-color="#0267d8"/></linearGradient><linearGradient id="g16" x2="1" gradientUnits="userSpaceOnUse" gradientTransform="matrix(60.441 0 0 42.267 245.77 906.935)"><stop offset="0" stop-color="#47a2ff"/><stop offset="1" stop-color="#0267d8"/></linearGradient><linearGradient id="g17" x2="1" gradientUnits="userSpaceOnUse" gradientTransform="matrix(39.915 0 0 27.912 375.383 974.615)"><stop offset="0" stop-color="#47a2ff"/><stop offset=".728" stop-color="#0267d8"/></linearGradient><linearGradient id="g18" x2="1" gradientUnits="userSpaceOnUse" gradientTransform="matrix(388.179 0 0 187.878 704.669 220.263)"><stop offset="0" stop-color="#414042"/><stop offset=".728" stop-color="#231f20"/></linearGradient><linearGradient id="g19" x2="1" gradientUnits="userSpaceOnUse" gradientTransform="matrix(327.65 0 0 140.733 765.211 389.958)"><stop offset="0" stop-color="#414042"/><stop offset=".728" stop-color="#231f20"/></linearGradient><linearGradient id="g20" x2="1" gradientUnits="userSpaceOnUse" gradientTransform="matrix(649.066 0 0 532.411 603.255 356.071)"><stop offset="0" stop-color="#208ae2"/><stop offset="1" stop-color="#0267d8"/></linearGradient><linearGradient id="g21" x2="1" gradientUnits="userSpaceOnUse" gradientTransform="matrix(-16.021 27.749 -17.556 -10.136 789.377 636.698)"><stop offset=".272" stop-color="#0267d8"/><stop offset="1" stop-color="#47a2ff"/></linearGradient><linearGradient id="g22" x2="1" gradientUnits="userSpaceOnUse" gradientTransform="matrix(44.685 63.836 -79.93 55.951 755.575 603.235)"><stop offset="0" stop-color="#47a2ff"/><stop offset=".728" stop-color="#0267d8"/></linearGradient><linearGradient id="g23" x2="1" gradientUnits="userSpaceOnUse" gradientTransform="matrix(381.945 0 0 294.853 618.741 593.63)"><stop offset="0" stop-color="#208ae2"/><stop offset="1" stop-color="#0267d8"/></linearGradient><linearGradient id="g24" x2="1" gradientUnits="userSpaceOnUse"><stop offset=".272" stop-color="#0267d8"/><stop offset="1" stop-color="#47a2ff"/></linearGradient><linearGradient id="g25" x2="1" gradientUnits="userSpaceOnUse" gradientTransform="matrix(17.38 0 0 16.901 931.313 593.13)"><stop offset="0" stop-color="#fff"/><stop offset="1" stop-color="#a5a7aa"/></linearGradient><linearGradient id="g26" x2="1" gradientUnits="userSpaceOnUse" gradientTransform="matrix(39.915 0 0 27.912 1210.344 485.859)"><stop offset="0" stop-color="#47a2ff"/><stop offset=".728" stop-color="#0267d8"/></linearGradient><linearGradient id="g27" x2="1" gradientUnits="userSpaceOnUse" gradientTransform="matrix(31.68 54.871 -55.458 32.018 1262.54 331.82)"><stop offset="0" stop-color="#eb1c24"/><stop offset=".728" stop-color="#bc1e2d"/></linearGradient><linearGradient id="g28" x2="1" gradientUnits="userSpaceOnUse" gradientTransform="matrix(20.034 34.7 -30.219 17.447 1258.483 352.752)"><stop offset=".272" stop-color="#bc1e2d"/><stop offset="1" stop-color="#eb1c24"/></linearGradient><linearGradient id="g29" x2="1" gradientUnits="userSpaceOnUse" gradientTransform="matrix(13.523 23.422 -20.398 11.777 1254.266 362.705)"><stop offset="0" stop-color="#eb1c24"/><stop offset=".728" stop-color="#bc1e2d"/></linearGradient><linearGradient id="g30" x2="1" gradientUnits="userSpaceOnUse" gradientTransform="matrix(0 231.603 -207.589 0 665.115 762.9)"><stop offset="0" stop-color="#208ae2"/><stop offset=".728" stop-color="#0267d8"/></linearGradient><linearGradient id="g31" x2="1" gradientUnits="userSpaceOnUse" gradientTransform="scale(227.629 244.622)rotate(90 1.799 3.59)"><stop offset="0" stop-color="#47a2ff"/><stop offset=".728" stop-color="#0267d8"/></linearGradient><linearGradient id="g32" x2="1" gradientUnits="userSpaceOnUse" gradientTransform="matrix(3.526 0 0 25.865 1088.276 592.46)"><stop offset="0" stop-color="#acc1c4"/><stop offset="1" stop-color="#748385"/></linearGradient><linearGradient id="g33" x2="1" gradientUnits="userSpaceOnUse" gradientTransform="matrix(24.219 0 0 13.996 1119.752 525.956)"><stop offset="0" stop-color="#acc1c4"/><stop offset="1" stop-color="#748385"/></linearGradient><linearGradient id="g34" x2="1" gradientUnits="userSpaceOnUse" gradientTransform="matrix(18.089 0 0 27.351 1057.547 588.121)"><stop offset="0" stop-color="#acc1c4"/><stop offset="1" stop-color="#748385"/></linearGradient><linearGradient id="g35" x2="1" gradientUnits="userSpaceOnUse" gradientTransform="matrix(18.089 0 0 27.351 1107.853 500.986)"><stop offset="0" stop-color="#acc1c4"/><stop offset="1" stop-color="#748385"/></linearGradient><linearGradient id="g36" x2="1" gradientUnits="userSpaceOnUse" gradientTransform="matrix(10.656 0 0 2.84 1100.656 526.227)"><stop offset="0" stop-color="#acc1c4"/><stop offset="1" stop-color="#748385"/></linearGradient><linearGradient id="g37" x2="1" gradientUnits="userSpaceOnUse" gradientTransform="matrix(6.412 0 0 11.987 1069.137 557.188)"><stop offset="0" stop-color="#acc1c4"/><stop offset="1" stop-color="#748385"/></linearGradient><linearGradient id="g38" x2="1" gradientUnits="userSpaceOnUse" gradientTransform="matrix(92.176 0 0 117.551 1051.835 502.996)"><stop offset="0" stop-color="#f4feff"/><stop offset=".554" stop-color="#cae3e5"/><stop offset="1" stop-color="#9aaeb0"/></linearGradient><linearGradient id="g39" x2="1" gradientUnits="userSpaceOnUse" gradientTransform="matrix(0 42.842 -33.311 0 1125.479 540.366)"><stop offset="0" stop-color="#f4feff"/><stop offset=".554" stop-color="#cae3e5"/><stop offset="1" stop-color="#9aaeb0"/></linearGradient><linearGradient id="g40" x2="1" gradientUnits="userSpaceOnUse" gradientTransform="matrix(10.636 0 0 9.58 1080.934 534.3)"><stop offset="0" stop-color="#acc1c4"/><stop offset="1" stop-color="#748385"/></linearGradient><linearGradient id="g41" x2="1" gradientUnits="userSpaceOnUse" gradientTransform="matrix(3.499 0 0 16.425 1048.377 579.151)"><stop offset="0" stop-color="#acc1c4"/><stop offset="1" stop-color="#748385"/></linearGradient><linearGradient id="g42" x2="1" gradientUnits="userSpaceOnUse" gradientTransform="matrix(24.219 0 0 13.996 1048.377 567.165)"><stop offset="0" stop-color="#acc1c4"/><stop offset="1" stop-color="#748385"/></linearGradient><linearGradient id="g43" x2="1" gradientUnits="userSpaceOnUse" gradientTransform="matrix(3.526 0 0 25.865 1088.044 510.445)"><stop offset="0" stop-color="#acc1c4"/><stop offset="1" stop-color="#748385"/></linearGradient><linearGradient id="g44" x2="1" gradientUnits="userSpaceOnUse" gradientTransform="matrix(16.004 0 0 9.253 1088.044 503.202)"><stop offset="0" stop-color="#acc1c4"/><stop offset="1" stop-color="#748385"/></linearGradient><linearGradient id="g45" x2="1" gradientUnits="userSpaceOnUse" gradientTransform="matrix(12.3 0 0 17.323 1057.363 533.479)"><stop offset="0" stop-color="#acc1c4"/><stop offset="1" stop-color="#748385"/></linearGradient><linearGradient id="g46" x2="1" gradientUnits="userSpaceOnUse" gradientTransform="matrix(3.526 0 0 25.865 515.694 923.863)"><stop offset="0" stop-color="#acc1c4"/><stop offset="1" stop-color="#748385"/></linearGradient><linearGradient id="g47" x2="1" gradientUnits="userSpaceOnUse" gradientTransform="matrix(24.219 0 0 13.996 547.169 857.359)"><stop offset="0" stop-color="#acc1c4"/><stop offset="1" stop-color="#748385"/></linearGradient><linearGradient id="g48" x2="1" gradientUnits="userSpaceOnUse" gradientTransform="matrix(18.089 0 0 27.351 484.964 919.523)"><stop offset="0" stop-color="#acc1c4"/><stop offset="1" stop-color="#748385"/></linearGradient><linearGradient id="g49" x2="1" gradientUnits="userSpaceOnUse" gradientTransform="matrix(18.089 0 0 27.351 535.271 832.388)"><stop offset="0" stop-color="#acc1c4"/><stop offset="1" stop-color="#748385"/></linearGradient><linearGradient id="g50" x2="1" gradientUnits="userSpaceOnUse" gradientTransform="matrix(10.656 0 0 2.84 528.074 857.629)"><stop offset="0" stop-color="#acc1c4"/><stop offset="1" stop-color="#748385"/></linearGradient><linearGradient id="g51" x2="1" gradientUnits="userSpaceOnUse" gradientTransform="matrix(6.412 0 0 11.987 496.554 888.59)"><stop offset="0" stop-color="#acc1c4"/><stop offset="1" stop-color="#748385"/></linearGradient><linearGradient id="g52" x2="1" gradientUnits="userSpaceOnUse" gradientTransform="matrix(92.176 0 0 117.551 479.253 834.398)"><stop offset="0" stop-color="#f4feff"/><stop offset=".554" stop-color="#cae3e5"/><stop offset="1" stop-color="#9aaeb0"/></linearGradient><linearGradient id="g53" x2="1" gradientUnits="userSpaceOnUse" gradientTransform="matrix(0 42.842 -33.311 0 552.892 871.752)"><stop offset="0" stop-color="#f4feff"/><stop offset=".554" stop-color="#cae3e5"/><stop offset="1" stop-color="#9aaeb0"/></linearGradient><linearGradient id="g54" x2="1" gradientUnits="userSpaceOnUse" gradientTransform="matrix(10.636 0 0 9.58 508.351 865.702)"><stop offset="0" stop-color="#acc1c4"/><stop offset="1" stop-color="#748385"/></linearGradient><linearGradient id="g55" x2="1" gradientUnits="userSpaceOnUse" gradientTransform="matrix(3.499 0 0 16.425 475.794 910.553)"><stop offset="0" stop-color="#acc1c4"/><stop offset="1" stop-color="#748385"/></linearGradient><linearGradient id="g56" x2="1" gradientUnits="userSpaceOnUse" gradientTransform="matrix(24.219 0 0 13.996 475.794 898.567)"><stop offset="0" stop-color="#acc1c4"/><stop offset="1" stop-color="#748385"/></linearGradient><linearGradient id="g57" x2="1" gradientUnits="userSpaceOnUse" gradientTransform="matrix(3.526 0 0 25.865 515.461 841.847)"><stop offset="0" stop-color="#acc1c4"/><stop offset="1" stop-color="#748385"/></linearGradient><linearGradient id="g58" x2="1" gradientUnits="userSpaceOnUse" gradientTransform="matrix(16.004 0 0 9.253 515.461 834.604)"><stop offset="0" stop-color="#acc1c4"/><stop offset="1" stop-color="#748385"/></linearGradient><linearGradient id="g59" x2="1" gradientUnits="userSpaceOnUse" gradientTransform="matrix(12.3 0 0 17.323 484.781 864.881)"><stop offset="0" stop-color="#acc1c4"/><stop offset="1" stop-color="#748385"/></linearGradient><clipPath clipPathUnits="userSpaceOnUse" id="cp1"><path d="M1151.21 538.92c.68 31.45-20.87 70.26-48.14 86.71-19.85 11.96-37.26 8.78-45.53-5.96l-4.64-8.25s-2.53-5.17-.97-3.66q.84.81 1.75 1.51-1.1-4.94-1.24-10.81c-.69-31.44 20.86-70.26 48.14-86.7 3.82-2.31 7.54-3.99 11.14-5.2 4.51 1.75 8.23 5.03 10.87 9.68-3.04-5.38-7.5-8.94-12.96-10.42-2.14-.57.93-1 .93-1l12.05-.37c16.49-.51 28.1 12.1 28.6 34.47m-28.2-21.91q.23.45.46.92-.23-.47-.46-.92m-.42-.77q.21.38.42.77-.21-.39-.42-.77m1.39 2.83.3.72zm-.39-.88q.2.44.39.88-.19-.45-.39-.88m-47.14 93.78q-.45.14-.9.27.45-.13.9-.27m-.9.27-.12.04zm-4.76 1.05q.51-.07 1.03-.16-.52.09-1.03.16m-16.48-3.57q.43.32.87.61-.44-.29-.87-.61m10.4 3.77.6.04zm-.38-.04.38.04zm-1.64-.23q.29.05.59.09-.3-.04-.59-.09m-.37-.06.37.06zm4.1.42q.49 0 .99-.01-.5.01-.99.01m14.86-3.51q-.47.21-.94.41.47-.2.94-.41m45.66-75.89c.54 24.9-15.42 55.27-36.4 70.41 20.98-15.14 36.94-45.51 36.4-70.41m-2.47-13.88q.14.38.28.77-.14-.39-.28-.77m.28.77q.13.37.25.74-.12-.37-.25-.74m-50.64 91.57q-.52.13-1.03.24.51-.11 1.03-.24m-4.53.8q-.51.05-1.01.08.5-.03 1.01-.08m-13.68-2.69q.86.5 1.77.91-.91-.41-1.77-.91m5.42 2.17q-.47-.1-.93-.23.46.13.93.23m-1.87-.55q-.46-.15-.91-.31.45.16.91.31m18.39-.89q.5-.17 1-.37-.5.2-1 .37m5.92-2.65q-.4.21-.79.41.39-.2.79-.41m41.47-86.27q.21.7.4 1.43-.19-.73-.4-1.43m.62 2.43q.16.65.29 1.33-.13-.68-.29-1.33m.5 2.6q.1.6.19 1.21-.09-.61-.19-1.21m.36 2.85q.05.49.09.98-.04-.49-.09-.98"/></clipPath><clipPath clipPathUnits="userSpaceOnUse" id="cp2"><path d="M1106.91 539.88q1.73 1 3.45 2.01c2.62 1.87 4.21 5.4 4.22 10.26.03 10.57-7.4 23.45-16.6 28.76l-3.46-2.01c9.2-5.31 16.63-18.19 16.6-28.76-.01-4.86-1.6-8.39-4.21-10.26"/></clipPath><clipPath clipPathUnits="userSpaceOnUse" id="cp3"><path d="M1106.91 539.88q-.31-.22-.64-.42l3.46 2.01q.33.19.63.42l-2.36-1.38q-.27-.16-.55-.32-.17-.1-.35-.2-.1-.05-.19-.11"/></clipPath><clipPath clipPathUnits="userSpaceOnUse" id="cp4"><path d="M1082.66 580.06c3.03 1.76 7.23 1.51 11.86-1.16l3.46 2.01c-4.63 2.67-8.83 2.92-11.86 1.16-1.03-.61-2.42-1.41-3.46-2.01"/></clipPath><clipPath clipPathUnits="userSpaceOnUse" id="cp5"><path d="m1106.26 539.46 3.46 2.01c-3.03-1.76-7.22-1.51-11.85 1.16l-3.46-2.01c4.63-2.67 8.83-2.92 11.85-1.16"/></clipPath><clipPath clipPathUnits="userSpaceOnUse" id="cp6"><path d="m1075.64 590.13-3.46-2.01c-1.34-1.76-2.36-3.96-3-6.54l3.46 2.01c.64 2.58 1.66 4.78 3 6.54"/></clipPath><clipPath clipPathUnits="userSpaceOnUse" id="cp7"><path d="m1104.11 529.07-3.45-2.01c2.56-.75 4.99-.99 7.19-.73l3.46 2.01c-2.2-.26-4.63-.02-7.2.73"/></clipPath><clipPath clipPathUnits="userSpaceOnUse" id="cp8"><path d="m1086.13 582.07-3.46-2.01c-2.99-1.74-4.84-5.43-4.86-10.68-.03-10.57 7.4-23.45 16.6-28.76l3.46 2.01c-9.2 5.31-16.63 18.19-16.6 28.76.01 5.25 1.87 8.94 4.86 10.68"/></clipPath><clipPath clipPathUnits="userSpaceOnUse" id="cp9"><path d="m1072.6 569.17-3.46-2c.62-3.32 1.63-6.68 2.95-9.98l3.46 2.01c-1.33 3.3-2.33 6.66-2.95 9.97"/></clipPath><clipPath clipPathUnits="userSpaceOnUse" id="cp10"><path d="m1084.39 543.88-3.46-2.01c2.2-2.8 4.62-5.36 7.18-7.57l3.46 2.01c-2.56 2.21-4.98 4.77-7.18 7.57"/></clipPath><clipPath clipPathUnits="userSpaceOnUse" id="cp11"><path d="M578.62 870.33c.69 31.44-20.86 70.26-48.14 86.7-19.84 11.96-37.25 8.78-45.52-5.96l-4.64-8.25s-2.54-5.17-.97-3.65q.84.8 1.75 1.5-1.11-4.94-1.24-10.8c-.69-31.45 20.86-70.26 48.14-86.71 3.82-2.3 7.54-3.99 11.14-5.2 4.5 1.75 8.23 5.03 10.86 9.68-3.03-5.38-7.49-8.94-12.96-10.41-2.13-.58.94-1.01.94-1.01l12.04-.37c16.49-.51 28.11 12.1 28.6 34.48m-28.2-21.92q.24.45.46.92-.22-.47-.46-.92m-.41-.76q.21.37.41.76-.2-.39-.41-.76m1.39 2.82q.15.36.29.72-.14-.36-.29-.72m-.39-.88q.2.44.39.88-.19-.44-.39-.88m-47.14 93.78q-.45.14-.9.27.45-.13.9-.27m-.9.27-.12.04zm-4.76 1.05q.51-.07 1.02-.16-.51.09-1.02.16m-16.49-3.57q.43.32.88.62-.45-.3-.88-.62m10.41 3.77.6.04zm-.38-.03q.19.02.38.03-.19-.01-.38-.03m-1.65-.24q.3.05.6.09-.3-.04-.6-.09m-.36-.06.36.06zm4.09.42q.5.01 1-.01-.5.02-1 .01m14.87-3.51q-.47.21-.95.41.48-.2.95-.41m45.65-75.89c.55 24.9-15.42 55.27-36.39 70.41 20.97-15.14 36.94-45.51 36.39-70.41m-2.46-13.88q.14.38.28.77-.14-.39-.28-.77m.28.77q.13.37.25.75-.12-.38-.25-.75m-50.65 91.57q-.51.13-1.02.24.51-.11 1.02-.24m-4.52.8q-.51.05-1.01.09.5-.04 1.01-.09m-13.68-2.69q.86.5 1.77.92-.91-.42-1.77-.92m5.42 2.18q-.47-.11-.93-.24.46.13.93.24m-1.87-.56q-.46-.14-.91-.31.45.17.91.31m18.39-.89q.5-.17 1-.36-.5.19-1 .36m5.92-2.64-.8.4zm41.46-86.28q.22.7.4 1.43-.18-.73-.4-1.43m.63 2.43q.15.66.29 1.33-.14-.67-.29-1.33m.5 2.6q.1.6.18 1.21-.08-.61-.18-1.21m.35 2.85q.06.49.1.98-.04-.49-.1-.98"/></clipPath><clipPath clipPathUnits="userSpaceOnUse" id="cp12"><path d="M534.32 871.28q1.73 1 3.46 2.01c2.61 1.87 4.2 5.4 4.22 10.27.03 10.57-7.4 23.44-16.6 28.75l-3.46-2.01c9.2-5.31 16.63-18.18 16.6-28.75-.01-4.87-1.61-8.4-4.22-10.27"/></clipPath><clipPath clipPathUnits="userSpaceOnUse" id="cp13"><path d="M534.32 871.28q-.31-.22-.63-.41l3.45 2.01q.33.19.64.41l-2.36-1.38q-.28-.15-.55-.31-.18-.11-.35-.21-.1-.05-.2-.11"/></clipPath><clipPath clipPathUnits="userSpaceOnUse" id="cp14"><path d="M510.08 911.46c3.03 1.76 7.23 1.52 11.86-1.16l3.46 2.01c-4.63 2.68-8.83 2.92-11.86 1.16-1.04-.6-2.42-1.41-3.46-2.01"/></clipPath><clipPath clipPathUnits="userSpaceOnUse" id="cp15"><path d="m533.68 870.86 3.46 2.01c-3.03-1.76-7.22-1.51-11.85 1.16l-3.46-2.01c4.63-2.67 8.82-2.92 11.85-1.16"/></clipPath><clipPath clipPathUnits="userSpaceOnUse" id="cp16"><path d="m503.05 921.53-3.46-2.01c-1.33-1.76-2.35-3.96-3-6.54l3.46 2.01c.65 2.58 1.66 4.78 3 6.54"/></clipPath><clipPath clipPathUnits="userSpaceOnUse" id="cp17"><path d="m531.53 860.47-3.46-2.01c2.57-.75 4.99-.99 7.2-.73l3.46 2.01c-2.21-.26-4.63-.02-7.2.73"/></clipPath><clipPath clipPathUnits="userSpaceOnUse" id="cp18"><path d="m513.55 913.47-3.46-2.01c-2.99-1.74-4.85-5.43-4.86-10.68-.03-10.57 7.4-23.44 16.6-28.76l3.46 2.01c-9.2 5.31-16.63 18.19-16.6 28.76.01 5.25 1.87 8.94 4.86 10.68"/></clipPath><clipPath clipPathUnits="userSpaceOnUse" id="cp19"><path d="m500.01 900.58-3.46-2.01c.63-3.32 1.63-6.68 2.96-9.98l3.46 2.01c-1.33 3.3-2.33 6.66-2.96 9.98"/></clipPath><clipPath clipPathUnits="userSpaceOnUse" id="cp20"><path d="m511.81 875.28-3.46-2.01c2.2-2.8 4.61-5.36 7.18-7.57l3.46 2.01c-2.57 2.21-4.98 4.77-7.18 7.57"/></clipPath></defs><style>.s1{fill:#262523}.s4{fill:#231f20}.s5{fill:#d3d3d3}.s6{opacity:.7;fill:#334547}.s7{opacity:.8;fill:#202b2d}.s10{fill:#208ae2}.s11{fill:#444340}.s12{fill:#2d2c2b}.s14{fill:#f4feff}.s19{fill:#a8bdc0}.s26{opacity:.5;mix-blend-mode:multiply;fill:#d89b13}.s27{fill:#ffa836}.s30{fill:none;stroke:#231f20;stroke-miterlimit:10}.s33{fill:#fff}.s36{fill:#f06522}.s58{fill:#949595}.s61{fill:#bfc0c0}.s62{fill:#babbbb}.s63{fill:#b6b6b6}.s64{fill:#b1b2b2}.s65{fill:#acadad}.s66{fill:#a7a8a8}.s67{fill:#a3a3a3}.s68{fill:#9e9e9e}.s69{fill:#999a9a}.s70{fill:#8f9090}.s71{fill:#8b8b8b}.s72{fill:#868686}.s73{fill:#818282}.s74{fill:#7c7d7d}.s77{fill:#a6a7a8}.s78{fill:#a1a3a4}.s79{fill:#9d9fa0}.s80{fill:#999b9b}.s81{fill:#959697}.s82{fill:#919293}.s83{fill:#8d8e8f}.s84{fill:#898a8b}.s85{fill:#848686}.s86{fill:#808282}.s88{fill:#6c6d6d}.s89{fill:#707171}.s90{fill:#747576}.s91{fill:#78797a}.s92{fill:#7c7d7e}</style><g id="Layer 1"><g id="&lt;Group&gt;"><path id="&lt;Path&gt;" d="m1271.1 461.3-30.2-15.5.4 24.6z" fill="url(#g1)"/><g id="15"><path class="s1" d="M1165.8 452.6c26.2 15.2 33.6 57.8 35.4 96l-331-192.4c-1.8-38.2-9.2-80.7-35.4-95.9z"/><path id="&lt;Compound Path&gt;" fill-rule="evenodd" d="m1009.2 365.7-14.8 164.1-279.3 171.7-382.4-26.3V477.4c5.6-3.3 11.1-6.6 16.9-10l21.2-.7 148.6-144.3s52.3-33.4 131-60.5c38.2-13.2 82-25.3 123.8-34.6zm-276-120.6c-93.7 13.8-195.8 76.6-200.7 79.3L394.4 462l246.7-142.4z" fill="#405666"/><path d="m769.2 224.4 168.9-58.5c12-4.2 25.2-2.9 36.1 3.5l264.9 153.9c1 .6.8 2-.2 2.3l-153.7 84.9z" fill="url(#g2)"/><path class="s4" d="M928 178.5c0 1.9-2.6 3.5-5.7 3.5s-5.6-1.6-5.6-3.5 2.5-3.4 5.6-3.4 5.7 1.5 5.7 3.4"/><g opacity=".5"><path fill-rule="evenodd" class="s5" d="M607.3 537.6c25 8.2 49.1 32.9 53.9 55.2 4.7 22.2-11.8 33.7-36.8 25.6-25-8.2-49.2-32.9-53.9-55.2-4.7-22.2 11.8-33.7 36.8-25.6m-31 29.1c4 19.1 24.8 40.4 46.3 47.4s35.7-2.8 31.6-22c-1.2-5.7-4-11.6-7.8-17.2l-34.4 9.8-14.3-42c-15.5-1.2-24.8 8.1-21.4 24m31.6-22c-1.5-.5-2.9-.8-4.4-1.1l11.9 34.7 27.9-8c-9-11.4-22.1-21.3-35.4-25.6"/><path class="s5" d="M382.9 459.6c115.7 37.1 238 112.5 310.6 182.5l-2.8 27.3-34.4 54.2-326.9-203.5c-2.2-32.8 38.3-67.2 53.5-60.5"/><path class="s6" d="M800.2 479.8 705.3 666s-61.6 40.6-190.6-40.6c-129-81.1-165.1-158-165.1-158l169.3-146.9z"/></g><path fill-rule="evenodd" class="s7" d="m358 480.6 165.1-155.8c76 61.7 164.2 112.2 264.3 151.7l-106.9 183s-36.8 47.1-165.8-34.1c-129-81.1-161-151.7-156.7-144.8m325.7 161.6L777 480.5c-96.5-38.7-184.6-83.7-255.6-144.6l-144 133.5c-1.5 1.4-2 3.7-1 5.5C405.3 524.1 618.5 632 679 644.4c1.9.4 3.8-.5 4.7-2.2"/><path class="s7" d="M471.4 373.6s149 110.2 279.4 165.5c0 0 13.4-11.5 8.4-15.8S486.9 359 486.9 359z"/><path d="m787.4 482.4-88 200.6L998 508.8l23.2-121.8s-155.6 41.1-233.8 95.4" fill="#252f30"/><path d="M358 480.6c-4.3-6.9-8.4-13.2-8.4-13.2l169.3-146.9 4.2 4.3z" fill="#47a2ff"/><path class="s1" d="M590.4 782.3c28 16.3 35.3 65.7 36.6 106.2L296.1 696.2c-1.4-40.5-8.6-89.9-36.6-106.2z"/><path class="s10" d="m787.4 476.5-2.3 11-74.4 175.4-26.1 9.3-4.1-12.7z"/><path class="s11" d="M421.1 864.2c7.6-17.2 18-33.6 30.2-47.5 10.3-11.8 21.9-21.7 34.1-28.8 21.7-12.5 41.4-13.7 55.6-5.4l42.9 25c-14.2-8.3-33.8-7.1-55.5 5.4-12.3 7.1-23.8 17-34.1 28.7-12.3 13.9-22.7 30.3-30.3 47.5-8.5 19.4-13.5 39.7-13.5 58.5.1 24.6 8.8 42 22.8 50.1l-42.9-25c-14-8.1-22.7-25.4-22.8-50-.1-18.8 4.9-39.2 13.5-58.5"/><path class="s12" d="M528.4 812.9c43.1-24.9 78.2-4.9 78.3 44.6S572 967.4 528.9 992.3s-78.2 4.9-78.4-44.7c-.1-49.5 34.7-109.8 77.9-134.7"/><path d="M528.4 838.2c31-17.8 56.1-3.5 56.3 32 .1 35.6-24.9 78.9-55.9 96.7-30.9 17.9-56.1 3.6-56.2-32-.1-35.5 24.9-78.8 55.8-96.7" opacity=".5" fill="url(#g3)"/><path class="s14" d="m532.9 878.2.1 3c.2 11.6-7.7 26-17.8 32q-.2.1-.3.2l-2.6 1.5.4-.2c11.4-6.9 20.5-23.3 20.2-36.5"/><path d="m515.3 864.9 2.1 4.6c8.7-3.4 15.3 1.3 15.6 11.7l-.1-3c-.2-11.8-7.8-17.2-17.6-13.3" fill="#cae3e5"/><path d="m512.3 914.9 2.6-1.5c-10 5.8-18.2 1.3-18.5-10.2-.1-5 1.3-10.6 3.8-15.7l-4.5-2.1c-2.8 5.8-4.5 12.1-4.3 17.9.2 13.1 9.6 18.2 20.9 11.6" fill="url(#g4)"/><path class="s14" d="M511.6 866.8q1.9-1.2 3.7-1.9l2.1 4.6q-1.5.6-3.2 1.6c-5.7 3.5-10.7 9.6-14 16.4l-4.5-2.1c3.7-7.7 9.4-14.7 15.9-18.6"/><path d="M514.2 871.1c-10.1 6.1-18 20.4-17.8 32.1.3 11.6 8.7 16.1 18.8 10 10.1-6 18-20.4 17.8-32-.3-11.7-8.7-16.2-18.8-10.1" fill="url(#g5)"/><path d="m549.5 835.8-12 .4s-3.1.4-1 1c10.2 2.8 17 12.8 17.4 28.4.5 26.5-17.7 59.3-40.7 73.2-14 8.4-26.5 8-34.4.4-1.5-1.6 1 3.6 1 3.6l4.7 8.3c8.2 14.7 25.6 17.9 45.5 5.9 27.3-16.4 48.8-55.2 48.1-86.7-.5-22.4-12.1-35-28.6-34.5" fill="url(#g6)"/><path fill-rule="evenodd" class="s19" d="M581.2 868.5c.7 33.4-22.2 74.6-51.1 92.1-29 17.4-53.1 4.5-53.8-28.9s22.2-74.6 51.1-92.1c29-17.4 53-4.5 53.8 28.9m-53.7-25.3c-27.3 16.4-48.8 55.2-48.1 86.7.6 31.4 23.3 43.6 50.6 27.1 27.3-16.4 48.8-55.2 48.1-86.7-.7-31.4-23.3-43.6-50.6-27.1"/><path fill-rule="evenodd" d="M479.4 929.9c-.7-31.5 20.8-70.3 48.1-86.7 3.8-2.3 7.5-4 11.1-5.2 9 3.5 14.9 13.1 15.3 27.6.5 26.5-17.7 59.3-40.7 73.2-13 7.8-24.7 8-32.6 1.9q-1.1-5-1.2-10.8m33.3-15.2c11.4-6.9 20.5-23.3 20.2-36.5s-9.8-18.4-21.3-11.4c-11.5 6.9-20.5 23.2-20.2 36.5.2 13.2 9.8 18.3 21.3 11.4" fill="url(#g7)"/><path class="s11" d="M994.2 532.8c7.6-17.2 18-33.6 30.2-47.5 10.3-11.8 21.9-21.7 34.1-28.8 21.7-12.5 41.4-13.7 55.6-5.4l42.9 25c-14.2-8.3-33.8-7.1-55.5 5.4-12.3 7.1-23.9 17-34.2 28.7-12.2 13.9-22.6 30.3-30.2 47.5-8.5 19.4-13.5 39.7-13.5 58.5.1 24.6 8.8 42 22.8 50.1l-42.9-25c-14.1-8.1-22.7-25.4-22.8-50-.1-18.8 4.9-39.2 13.5-58.5"/><path class="s12" d="M1101.5 481.5c43.1-24.9 78.1-4.9 78.3 44.6.1 49.5-34.7 109.9-77.8 134.8-43.2 24.9-78.2 4.9-78.4-44.7-.1-49.5 34.7-109.8 77.9-134.7"/><path d="M1101.5 506.8c31-17.8 56.1-3.5 56.2 32 .1 35.6-24.9 78.9-55.8 96.7-31 17.9-56.1 3.6-56.2-32-.1-35.5 24.9-78.8 55.8-96.7" opacity=".5" fill="url(#g8)"/><path d="m1122.6 504.4-12 .4s-3.1.4-1 1c10.2 2.8 17 12.8 17.3 28.4.6 26.5-17.6 59.3-40.6 73.2-14 8.4-26.5 8-34.4.4-1.5-1.6 1 3.6 1 3.6l4.6 8.3c8.3 14.7 25.7 17.9 45.6 5.9 27.2-16.4 48.8-55.2 48.1-86.7-.5-22.4-12.1-35-28.6-34.5" fill="url(#g9)"/><path fill-rule="evenodd" class="s19" d="M1154.3 537.1c.7 33.4-22.2 74.6-51.2 92.1-28.9 17.4-53 4.5-53.7-28.9s22.1-74.6 51.1-92.1c29-17.4 53-4.5 53.8 28.9m-53.7-25.3c-27.3 16.4-48.8 55.2-48.2 86.7.7 31.4 23.4 43.6 50.7 27.1 27.2-16.4 48.8-55.2 48.1-86.7-.7-31.4-23.3-43.6-50.6-27.1"/><path fill-rule="evenodd" d="M1052.4 598.5c-.6-31.5 20.9-70.3 48.2-86.7 3.8-2.3 7.5-4 11.1-5.2 9 3.5 14.9 13.1 15.2 27.6.6 26.5-17.6 59.3-40.6 73.2-13 7.8-24.7 8-32.6 1.9q-1.1-5-1.3-10.8m33.4-15.2c11.4-6.9 20.5-23.3 20.2-36.5s-9.8-18.4-21.3-11.4c-11.5 6.9-20.5 23.2-20.3 36.5.3 13.2 9.9 18.3 21.4 11.4" fill="url(#g10)"/><path d="m919.3 597.2 13-7.5c4.4-2.6 8.1-8.3 8.1-12.8v-16.4c0-4.5-3.7-6-8.1-3.4l-13 7.5c-4.5 2.5-8.1 8.2-8.1 12.7v16.4c0 4.5 3.6 6 8.1 3.5" style="mix-blend-mode:multiply" opacity=".4" fill="#9b1f15"/><path d="m909 590.3 33.6-19.4c3.6-2.1 6.4-6.6 6.4-10.1 0-3.6-2.8-4.8-6.4-2.7L909 577.5c-3.6 2-6.5 6.6-6.5 10.1 0 3.6 2.9 4.8 6.5 2.7" fill="url(#g11)"/><path class="s26" d="m398.5 931.6 15.8-9.1c4.3-2.5 7.8-1.1 7.8 3.3v.7c0 4.3-3.5 9.9-7.8 12.4l-15.8 9.1c-4.4 2.5-7.9 1-7.9-3.3v-.7c0-4.4 3.5-9.9 7.9-12.4"/><path class="s27" d="m399 932.6 12.8-7.4c3.5-2 6.4-.8 6.4 2.7v.6c0 3.5-2.9 8-6.4 10l-12.8 7.4c-3.5 2-6.4.8-6.4-2.7v-.5c0-3.5 2.9-8.1 6.4-10.1"/><path class="s26" d="m1202.2 406.8 15.8-9.1c4.3-2.5 7.9-1 7.9 3.3v.7c0 4.4-3.6 9.9-7.9 12.4l-15.8 9.1c-4.3 2.5-7.9 1.1-7.9-3.3v-.7c0-4.3 3.6-9.9 7.9-12.4"/><path class="s27" d="m1202.7 407.9 12.8-7.4c3.5-2.1 6.4-.8 6.4 2.7v.5c0 3.5-2.9 8-6.4 10.1l-12.8 7.4c-3.5 2-6.4.8-6.4-2.7v-.6c0-3.5 2.9-8 6.4-10"/><path class="s10" d="M1251.4 346.2c-1.2-19.5-21-33.7-39.2-26.3-.4.1-127 90.6-127 90.6s-47.1 37.8-108.9 84l-104 74.6c-56.3 38.5-111.1 72.1-146.4 84.6l-.7.3.1-.1c-9.4 3.2-17.4 5-23.6 4.9-308.8 178.3-363.4 297.7-365.2 304 .8 3.8 15.4 69.4 81.3 44.3 12.2-4.7 20.4-16.3 20.9-29.3 4.2-106.1 32.6-155.5 86.3-186.4 83.9-48.5 100 34.9 102 97.1l362.2-210c2.7-115.4 49.4-184 103.3-215.1q3.5-2 7-3.9c82.1-42.1 98.8 28.9 101.7 89.1 53.3-56.9 52.9-160.6 50.2-202.4"/><path class="s10" d="M349.6 467.2C191.8 558.3 105.9 633.8 59.4 686.8c-30.1 34.2-43.7 59-49.6 72.4-2.9 6.5-2.6 14.5-2.9 15.5 0 0-14.7 34.8.6 49.3 12.2 11.6 226.9 136.9 310.9 185.7 18.9 11.1 59 14.3 85.1 1.7 16.6-8.1-.3-20.6-17.3-27.9-5.5-2.3-18.1-1.8-28-.9 3-26.9 24.3-68.4 45.5-92.5 46.5-52.9 143.5-138.5 301.3-229.6-134.8-26.1-283.8-109-355.4-193.3"/><path d="M448.9 897.1c-9.3 13.4-30.2 58.7-50.6 73.7s-40.1 11.8-40.1 11.8-2.5 36 0 36.8c15.6.6 32.2-1.7 45.3-8v-.1c4.5-.9 9.2-2.3 14.3-4.2 12.2-4.7 20.4-16.3 20.9-29.3 1.3-31.6 4.7-58.2 10.2-80.7" fill="url(#g12)"/><path d="m358.2 982.6-136.5-80.4c-7.5-4.5-10-14.1-5.7-21.6l4.8-8.2-97-56.1-5.9 8c-4.8 6.5-13.8 8.4-20.8 4.2L6.9 774.7l-1.5 4c-3.3 9.5-10 33.8 2.1 45.3 12.2 11.6 226.9 136.9 310.9 185.7 12.3 7.2 26 9.9 39.8 9.7z" fill="url(#g13)"/></g><path class="s30" d="M360.4 478.5S101.5 618.9 30.7 762.4l298.6 172.8s123.8-175.7 353.5-279.5"/><path class="s30" d="m83.6 687.1 43.4 25.3c14.1 8.2 18.6 26.5 9.9 40.3l-32.7 52.2m286.4 58.8-70.2-40.6c-10.4-6-23.7-3.6-31.3 5.8l-45.9 56.5"/><path d="M161.7 884c53 30.6 95.9 61.2 95.9 68.5-.1 7.2-43-11.7-96-42.3s-95.9-61.3-95.9-68.5c.1-7.2 43 11.7 96 42.3" fill="url(#g14)"/><path class="s4" d="M75.2 841.5c9.7 11.4 47.9 37.8 93.5 64.1 38 22 71 38 86.5 42.5-9.8-11.4-47.9-37.8-93.5-64.1-38.1-22-71-38-86.5-42.5"/><path d="M83.2 807.5c2.9 1.7 5.2 5.7 5.2 9s-2.3 4.6-5.2 3l-50-28.9c-2.9-1.7-5.2-5.7-5.2-9s2.3-4.6 5.2-3z" fill="url(#g15)"/><path class="s33" d="M82.4 816.3c2.8 1.7 5.2.4 5.2-2.9v-.8c-1-2.1-2.6-4.1-4.4-5.1l-50-28.9c-2.9-1.6-5.2-.3-5.2 3v.7c1 2.2 2.5 4.1 4.3 5.2z"/><path d="M301 936.5c2.9 1.7 5.2 5.7 5.2 9s-2.3 4.6-5.2 3l-50-28.9c-2.9-1.7-5.2-5.7-5.2-9s2.3-4.6 5.2-3z" fill="url(#g16)"/><path d="M378.8 994.2c-1.9 1.1-3.4 3.7-3.4 5.9s1.5 3.1 3.4 2l33.1-19.1c1.9-1.1 3.4-3.8 3.4-6 0-2.1-1.6-3-3.4-1.9z" fill="url(#g17)"/><path class="s36" d="m377.8 1000.4 33-19.1c1.9-1.1 3.4-3.7 3.4-5.9v-.6c-.6-.3-1.5-.2-2.3.3l-33.1 19.1c-1.9 1.1-3.4 3.7-3.4 5.9v.6q1.05.45 2.4-.3"/><path class="s33" d="M305.6 948q.6-1 .6-2.5c0-3.3-2.3-7.3-5.2-9l-50-28.9q-.8-.4-1.4-.5-.6.9-.6 2.4c0 3.3 2.3 7.3 5.1 9l50.1 28.9q.7.4 1.4.6"/><path class="s10" d="M474.7 370.5s150.9 107 281.3 162.4c0 0 8.2-5.3 3.2-9.6S486.9 359 486.9 359z"/><path d="M959.4 317.5c-38.8-22.6-190.2-93.1-190.2-93.1l-41.1-2.8c-22.7-1.5-45.4 2.6-66 12.2-7.4 3.3-15.7 7.5-25.2 12.8-46.9 25.9-116.4 68.6-139.1 89.2l-15.7 14.3c-3.8 3.4-6 8.3-6 13.4 0 0 11.1 13.9 107 72.9 122.9 75.7 183.2 94.3 183.2 94.3l66.1-55L998 390l94.8 18.1s-98.6-70.3-133.4-90.6" fill="#414042"/><path d="M959.5 316.5c-38.7-22.6-190.2-93.2-190.2-93.2l-41.1-2.7c-7.9-.6-15.7-.4-23.5.4L998 390c1.1 1.7 94.8 18.1 94.8 18.1s-98.4-71.3-133.3-91.6" fill="url(#g18)"/><path d="M1092.9 408.1 998 390s-19.8.6-66.8 26.6C884.3 442.5 810.7 482.4 788 503c-10.8 9.8-16.9 15.4-20.4 18.6-2.6 2.3-3.1 6.1-1.3 9.1l24.5-16.6s71.7-47.1 98-59.1q.4-.1.8-.3c22.6-10.3 48.8-8.8 70.1 4.1l35.5 21.5z" fill="url(#g19)"/><path d="M1092.5 463.4q3.5-2 7-3.9c82.1-42.1 98.8 28.9 101.7 89.1 49.5-52.9 52.6-146 50.7-192.5-194.4 29.3-258.3 235.3-493.8 350.8-56.7 27.7-108.6 57.5-154.8 86.7 17.5 22 22.6 61.5 23.7 94.9l362.2-210c2.7-115.4 49.4-184 103.3-215.1" fill="url(#g20)"/><path d="M768 654.1q-.5 0-1-.1l-7.9-1.8c-2.6-.6-4.1-3.1-3.5-5.7.5-2.5 3.1-4 5.6-3.5l3.9 1 4-10.7c1-2.5 3.7-3.7 6.1-2.8 2.4 1 3.6 3.7 2.7 6.1l-5.5 14.5c-.7 1.8-2.5 3-4.4 3" fill="url(#g21)"/><path d="M788.4 610.4c5.3-.4 44.6 12.3 44.1 17-1 8.8-14.8 20.4-23.2 22.2-8 1.6-41.4-9-41.6-12.2-.3-5.9 10.7-26.5 20.7-27" fill="url(#g22)"/><path d="m627 888.5 362.2-210c.8-31.8 4.8-60 11.5-84.9l-382 232.8c5.5 19.4 7.7 41.9 8.3 62.1" fill="url(#g23)"/><path d="m1256.2 461.7-14.9 8.7c2.3-9 4.2-18 5.7-26.9l-59 36c5.4 12.2 8.8 26.7 10.8 41.8q.2 2.2.5 4.1c.9 7.7 1.5 15.5 1.9 23.2q.3-.4.7-.8-.2.3-.1.3l54.5-42.2c10.6-6.2 19.2-21 19.1-33.2 0-12.2-8.6-17.1-19.2-11" fill="#0267d8"/><path class="s30" d="M995.2 480.3s6.8 89.6-34.2 214.6m-246.5-38.7-42 58.5c-11.5 16-17.7 35.1-17.7 54.8v102.9"/><path fill-rule="evenodd" d="M963.1 582.7c2.7-1.6 4.8-.3 4.9 2.7 0 3.1-2.2 6.9-4.9 8.4l-19.2 11.1c2.6-1.5 4.8-5.3 4.8-8.3 0-3.1-2.2-4.4-4.9-2.8zm-1 10.2c1.9-1.1 3.5-3.8 3.4-6 0-2.2-1.5-3.1-3.4-2s-3.5 3.8-3.5 6 1.6 3.1 3.5 2" fill="#cfd1d2"/><path d="M943.8 593.8c2.7-1.6 4.9-.3 4.9 2.8 0 3-2.2 6.8-4.8 8.3l-7.7 4.5c-2.7 1.5-4.9.3-4.9-2.8s2.2-6.8 4.8-8.4z" fill="url(#g25)"/><path d="M962 584.9c1.9-1.1 3.5-.2 3.5 2s-1.5 4.8-3.4 5.9c-2 1.1-3.5.3-3.5-1.9s1.5-4.9 3.4-6" fill="#a0a2a2"/><path fill-rule="evenodd" class="s33" d="M964.6 580c3.6-2.1 6.5-.4 6.5 3.6 0 4.1-2.9 9.1-6.4 11.1l-29.2 16.9c-3.6 2-6.5.4-6.5-3.7s2.9-9 6.4-11.1zm-1.5 13.9c2.7-1.6 4.9-5.3 4.9-8.4-.1-3.1-2.2-4.3-4.9-2.8l-27 15.6c-2.6 1.5-4.8 5.3-4.8 8.4 0 3 2.2 4.3 4.9 2.7z"/><path class="s6" d="M959.4 317.5c-24.4-14.2-93.3-47.3-141.1-70-15.9.5-30.9.9-30.9.9L975.3 359l44.6-1.9c-23.5-16-46.9-31.6-60.5-39.6"/><path d="M1213.8 505.4c-1.9 1.1-3.5 3.8-3.5 5.9.1 2.2 1.6 3.1 3.5 2l33-19.1c1.9-1.1 3.5-3.7 3.5-5.9s-1.6-3.1-3.5-2z" fill="url(#g26)"/><path class="s36" d="m1212.7 511.6 33.1-19.1c1.9-1 3.4-3.7 3.4-5.9q0-.3-.1-.6c-.6-.3-1.4-.2-2.3.3l-33 19.1c-1.9 1.1-3.5 3.8-3.5 5.9q.1.3.1.6c.6.3 1.4.2 2.3-.3"/><path d="M1251.9 356.1s11.1 29-.7 52c0 0-23.5 3.1-29.3-11.6s7.4-32.6 30-40.4" fill="url(#g27)"/><path d="M1257.7 383.4c0 8.9-5.5 16.1-12.2 16.1s-12.2-7.2-12.2-16.1 5.5-16.1 12.2-16.1 12.2 7.2 12.2 16.1" fill="url(#g28)"/><path d="M1253.7 383.4c0 6-3.7 10.9-8.2 10.9s-8.2-4.9-8.2-10.9 3.7-10.9 8.2-10.9 8.2 4.9 8.2 10.9" fill="url(#g29)"/><path class="s30" d="M1155.3 348.4c2.4 4.9-2.8 12.3-11.6 16.5s-17.8 3.7-20.1-1.2c-2.4-4.8 2.8-12.2 11.6-16.4 8.8-4.3 17.8-3.8 20.1 1.1zm-181.1-179-186.8 62.4m413.8 69.5-143.1 82"/><path d="m956.1 2.5-33.8 175.1" fill="none" stroke="#cfd1d2" stroke-linecap="round" stroke-linejoin="round" stroke-width="4"/><path class="s30" d="M821.8 220.3s177.7 52.5 258.4 150.3"/><path d="M1059.4 362v.1q-.1 0-.1.1v.1h-.1v.1l-.1.1-.1.1q-.1 0-.2.1h-.1q-.1 0-.2.1h-1.3l-.1-.1h-.4q-.2-.1-.4-.1-.1 0-.1-.1h-.2q-.1-.1-.2-.1t-.2-.1h-.1q-.2-.1-.5-.2h-.1q-.2-.2-.4-.3c-1.1-.6-1.8-1.4-1.8-2v8.7c0 .6.6 1.3 1.7 2q.3.1.5.2h.1q.2.2.5.2v.1h.1q.1 0 .2.1h.1q.1.1.2.1h.2q.2.1.4.1h.1q.2.1.3.1h.4q.1 0 .1.1h.4l.1-.1h.5l.1-.1h.1q.1 0 .1-.1h.1l.1-.1q.1 0 .1-.1l.1-.1v-.3l.1-8.7z" fill="#858585"/><path d="M1057.6 360c1.6.9 2.2 2.1 1.4 2.6-.9.5-2.9.1-4.5-.8s-2.2-2.1-1.4-2.6c.9-.5 2.9-.2 4.5.8" fill="#dcdcdc"/><path d="M639.7 881.2c0-56.2-15.3-107.8-58.5-116.9-18.5-4-38.7-.2-58.1 10-13.1 9.6-25.3 19-36.6 28-12 12.3-22.8 27.3-31.8 44.6-30.6 58.6-21.3 146.4-21.2 147.4 3.1-4.8 5-10.5 5.2-16.5 4.2-106.1 32.6-155.5 86.3-186.4 83.8-48.4 99.9 34.5 102 96.7z" fill="url(#g30)"/><path d="M1148.7 438.9c-36.3-5.1-96 23.4-130.7 79.4-35.4 57.2-36.5 164.7-36.5 164.7l7.7-4.5c2.7-115.4 49.4-184 103.3-215.1q3.5-2 7-3.9c82.1-42.1 98.8 28.9 101.7 89.1q4.2-4.5 7.9-9.4c.2-77.2-24.6-95.3-60.4-100.3" fill="url(#g31)"/><g id="&lt;Clip Group&gt;" clip-path="url(#cp1)"><path class="s58" d="m1120.3 564.3-3.5-2 14.8 8.4 3.4 2z"/><path d="m1091.8 618.3-3.5-2v-23.8l3.4 2z" fill="url(#g32)"/><path d="m1123.2 540-3.4-2.1 20.7-11.9 3.5 2z" fill="url(#g33)"/><g clip-path="url(#cp2)"><path class="s61" d="m1098 580.9-3.5-2c2-1.1 3.8-2.6 5.6-4.3l3.4 2c-1.7 1.7-3.6 3.2-5.5 4.3"/><path class="s62" d="m1103.5 576.6-3.4-2q.9-.9 1.8-2l3.5 2.1q-.9 1-1.9 1.9"/><path class="s63" d="m1105.4 574.7-3.5-2.1q.7-.7 1.4-1.6l3.4 2q-.6.9-1.3 1.7"/><path class="s64" d="m1106.7 573-3.4-2q.5-.7 1.1-1.5l3.4 2q-.5.8-1.1 1.5"/><path class="s65" d="m1107.8 571.5-3.4-2q.5-.7.9-1.4l3.5 2z"/><path class="s66" d="m1108.8 570.1-3.5-2q.5-.7.9-1.4l3.4 2z"/><path class="s67" d="m1109.6 568.7-3.4-2 .8-1.4 3.4 2q-.3.7-.8 1.4"/><path class="s68" d="m1110.4 567.3-3.4-2q.3-.8.7-1.5l3.4 2q-.3.8-.7 1.5"/><path class="s69" d="m1111.1 565.8-3.4-2q.3-.7.7-1.4l3.4 2q-.3.7-.7 1.4"/><path class="s58" d="m1111.8 564.4-3.4-2q.3-.8.6-1.5l3.4 2q-.3.8-.6 1.5"/><path class="s70" d="m1112.4 562.9-3.4-2q.3-.8.5-1.6l3.5 2z"/><path class="s71" d="m1113 561.3-3.5-2q.3-.8.5-1.7l3.5 2q-.2.9-.5 1.7"/><path class="s72" d="m1113.5 559.6-3.5-2q.3-.9.5-1.9l3.5 2q-.2 1-.5 1.9"/><path class="s73" d="m1114 557.7-3.5-2q.3-1.1.4-2.3l3.5 2q-.2 1.2-.4 2.3"/><path class="s74" d="m1114.4 555.4-3.5-2q.2-1.7.2-3.3c0-5.2-1.8-8.9-4.8-10.6l3.4 2c3 1.7 4.9 5.4 4.9 10.7q0 1.6-.2 3.2"/></g><g clip-path="url(#cp3)"><path class="s74" d="m1114.4 555.4-3.5-2q.2-1.7.2-3.3c0-5.2-1.8-8.9-4.8-10.6l3.4 2c3 1.7 4.9 5.4 4.9 10.7q0 1.6-.2 3.2"/></g><g clip-path="url(#cp4)"><path class="s58" d="m1086.1 582.1-3.4-2h.1l3.4 2z"/><path class="s69" d="m1086.2 582.1-3.4-2 .8.4 3.5 2q-.5-.2-.9-.4"/><path class="s68" d="m1087.1 582.5-3.5-2q.4.2.9.3l3.4 2q-.4-.1-.8-.3"/><path class="s67" d="m1087.9 582.8-3.4-2q.4.2.9.2l3.5 2.1q-.5-.1-1-.3"/><path class="s66" d="m1088.9 583.1-3.5-2.1 1 .2 3.5 2q-.5-.1-1-.1"/><path class="s65" d="m1089.9 583.2-3.5-2h1.1l3.5 2z"/><path class="s64" d="m1091 583.2-3.5-2q.6-.1 1.3-.2l3.4 2.1q-.6.1-1.2.1"/><path class="s63" d="m1092.2 583.1-3.4-2.1q.7-.1 1.4-.3l3.5 2q-.8.2-1.5.4"/><path class="s62" d="m1093.7 582.7-3.5-2q1-.2 2-.6l3.4 2q-1 .4-1.9.6"/><path class="s61" d="m1095.6 582.1-3.4-2q1.1-.5 2.3-1.2l3.5 2q-1.2.7-2.4 1.2"/></g><path d="m1061 615.5-3.5-2 14.7-25.4 3.4 2z" fill="url(#g34)"/><path d="m1111.3 528.3-3.4-2 14.6-25.3 3.4 2z" fill="url(#g35)"/><path class="s58" d="m1125.9 503-3.4-2 8.9 5.1 3.4 2z"/><g clip-path="url(#cp5)"><path class="s77" d="m1097.9 542.6-3.5-2q1.2-.7 2.3-1.1l3.5 2q-1.1.4-2.3 1.1"/><path class="s78" d="m1100.2 541.5-3.5-2q1-.5 2-.7l3.5 2q-1 .3-2 .7"/><path class="s79" d="m1102.2 540.8-3.5-2q.8-.2 1.5-.3l3.4 2q-.7.1-1.4.3"/><path class="s80" d="m1103.6 540.5-3.4-2 1.2-.2 3.5 2.1q-.6 0-1.3.1"/><path class="s81" d="m1104.9 540.4-3.5-2.1q.6 0 1.1.1l3.5 2q-.6-.1-1.1 0"/><path class="s82" d="m1106 540.4-3.5-2q.5 0 1 .1l3.5 2q-.5-.1-1-.1"/><path class="s83" d="m1107 540.5-3.5-2 1 .2 3.4 2q-.4-.1-.9-.2"/><path class="s84" d="m1107.9 540.7-3.4-2q.4.1.8.3l3.5 2q-.4-.2-.9-.3"/><path class="s85" d="m1108.8 541-3.5-2q.5.2.9.4l3.4 2z"/><path class="s86" d="m1109.6 541.4-3.4-2 .1.1 3.4 2q0-.1-.1-.1"/></g><g clip-path="url(#cp6)"><path class="s74" d="m1075.6 590.1-3.4-2c-1.4-1.7-2.4-3.9-3-6.5l3.4 2c.7 2.6 1.7 4.8 3 6.5"/></g><g clip-path="url(#cp7)"><path d="M1107.9 526.3h-.8q-.9-.1-1.7-.1l-2 .2q-1.1.2-2.3.5l-.4.2 3.4 2q.2-.1.5-.2 1.2-.3 2.3-.5 1-.1 1.9-.1.9-.1 1.7 0h.8z" fill="url(#g36)"/></g><g clip-path="url(#cp8)"><path class="s88" d="m1086.1 582.1-3.4-2c-3-1.8-4.9-5.5-4.9-10.7q0-1.6.2-3.3l3.5 2q-.2 1.7-.2 3.3c0 5.2 1.8 8.9 4.8 10.7"/><path class="s89" d="m1081.5 568.1-3.5-2q.2-1.1.4-2.3l3.5 2q-.3 1.2-.4 2.3"/><path class="s90" d="m1081.9 565.8-3.5-2q.2-.9.5-1.9l3.4 2q-.2 1-.4 1.9"/><path class="s91" d="m1082.3 563.9-3.4-2q.2-.9.5-1.7l3.5 2q-.3.9-.6 1.7"/><path class="s92" d="m1082.9 562.2-3.5-2 .6-1.6 3.4 2q-.3.8-.5 1.6"/><path class="s86" d="m1083.4 560.6-3.4-2q.3-.7.6-1.5l3.4 2q-.3.8-.6 1.5"/><path class="s85" d="m1084 559.1-3.4-2 .6-1.4 3.5 2q-.3.7-.7 1.4"/><path class="s84" d="m1084.7 557.7-3.5-2 .8-1.4 3.4 2q-.4.7-.7 1.4"/><path class="s83" d="m1085.4 556.3-3.4-2q.3-.7.7-1.4l3.5 2z"/><path class="s82" d="m1086.2 554.9-3.5-2q.5-.7.9-1.4l3.5 2q-.5.7-.9 1.4"/><path class="s81" d="m1087.1 553.5-3.5-2q.5-.8 1-1.5l3.4 2q-.5.7-.9 1.5"/><path class="s80" d="m1088 552-3.4-2q.5-.7 1.1-1.5l3.4 2q-.5.8-1.1 1.5"/><path class="s79" d="m1089.1 550.5-3.4-2q.6-.8 1.3-1.6l3.5 2z"/><path class="s78" d="m1090.5 548.9-3.5-2 1.8-2 3.5 2z"/><path class="s77" d="m1092.3 546.9-3.5-2c1.8-1.7 3.7-3.2 5.6-4.3l3.5 2c-2 1.2-3.9 2.6-5.6 4.3"/></g><g clip-path="url(#cp9)"><path d="M1072.1 557.2q-.2.4-.3.8-.5 1.2-.9 2.4l-.8 2.6q-.4 1.6-.7 3.1-.2.5-.3 1.1l3.5 2q.1-.6.2-1.1.3-1.5.8-3 .3-1.4.8-2.7l.8-2.4q.2-.4.3-.8z" fill="url(#g37)"/></g><path fill-rule="evenodd" d="m1144 542.4-20.7 12q-1.05 4.95-3 9.9l14.7 8.4-8.8 15.4-14.7-8.4c-2.2 2.8-4.7 5.3-7.2 7.5v23.9l-12.5 7.2-.1-23.8c-2.5.7-5 1-7.2.7l-14.6 25.3-8.9-5 14.6-25.4c-1.3-1.7-2.3-3.9-3-6.5l-20.7 12-.1-14.4 20.8-12c.6-3.3 1.6-6.7 2.9-10l-14.7-8.4 8.9-15.3 14.7 8.4c2.2-2.8 4.6-5.4 7.2-7.6l-.1-23.8 12.5-7.3.1 23.9c2.6-.8 5-1 7.2-.8l14.6-25.3 8.9 5.1-14.6 25.3c1.3 1.8 2.4 4 3 6.6l20.8-12zm-46.1 38.5c9.2-5.3 16.7-18.2 16.6-28.8 0-10.5-7.5-14.8-16.7-9.5s-16.6 18.2-16.6 28.8c.1 10.5 7.5 14.8 16.7 9.5" fill="url(#g38)"/><path d="M1097.9 542.6c9.2-5.3 16.7-1 16.7 9.6 0 10.5-7.4 23.4-16.6 28.7s-16.7 1.1-16.7-9.5c-.1-10.6 7.4-23.5 16.6-28.8" fill="url(#g39)"/><g clip-path="url(#cp10)"><path d="M1088.1 534.3q-1.3 1.1-2.5 2.3l-2.8 3q-1 1.1-1.9 2.3l3.5 2q.9-1.2 1.8-2.3 1.4-1.5 2.9-3 1.2-1.2 2.5-2.3z" fill="url(#g40)"/></g><path d="m1051.9 595.6-3.5-2v-14.4l3.4 2z" fill="url(#g41)"/><path d="m1051.8 581.2-3.4-2 20.7-12 3.5 2z" fill="url(#g42)"/><path d="m1091.6 536.3-3.5-2-.1-23.9 3.5 2.1z" fill="url(#g43)"/><path d="m1091.5 512.5-3.5-2.1 12.6-7.2 3.4 2z" fill="url(#g44)"/><path class="s58" d="m1069.7 535.5-3.5-2 14.7 8.4 3.5 2z"/><path d="m1060.8 550.8-3.4-2 8.8-15.3 3.5 2z" fill="url(#g45)"/></g><g clip-path="url(#cp11)"><path class="s58" d="m547.7 895.7-3.4-2 14.7 8.4 3.4 2z"/><path d="m519.2 949.7-3.4-2-.1-23.8 3.5 2z" fill="url(#g46)"/><path d="m550.6 871.4-3.4-2.1 20.7-11.9 3.5 2z" fill="url(#g47)"/><g clip-path="url(#cp12)"><path class="s61" d="m525.4 912.3-3.5-2c2-1.1 3.9-2.6 5.6-4.3l3.5 2c-1.8 1.7-3.7 3.2-5.6 4.3"/><path class="s62" d="m531 908-3.5-2q.9-.9 1.8-1.9l3.5 2q-.9 1-1.8 1.9"/><path class="s63" d="m532.8 906.1-3.5-2q.7-.8 1.4-1.7l3.4 2q-.6.9-1.3 1.7"/><path class="s64" d="m534.1 904.4-3.4-2q.5-.7 1.1-1.5l3.4 2q-.5.8-1.1 1.5"/><path class="s65" d="m535.2 902.9-3.4-2q.5-.7.9-1.4l3.5 2z"/><path class="s66" d="m536.2 901.5-3.5-2q.5-.7.9-1.4l3.5 2q-.5.7-.9 1.4"/><path class="s67" d="m537.1 900.1-3.5-2 .8-1.4 3.4 2q-.3.7-.7 1.4"/><path class="s68" d="m537.8 898.7-3.4-2q.4-.7.7-1.5l3.5 2q-.4.8-.8 1.5"/><path class="s69" d="m538.6 897.2-3.5-2q.4-.7.7-1.4l3.4 2z"/><path class="s58" d="m539.2 895.8-3.4-2q.3-.8.6-1.5l3.4 2q-.3.8-.6 1.5"/><path class="s70" d="m539.8 894.3-3.4-2q.3-.8.5-1.6l3.5 2z"/><path class="s71" d="m540.4 892.7-3.5-2q.3-.8.6-1.7l3.4 2q-.2.9-.5 1.7"/><path class="s72" d="m540.9 891-3.4-2q.2-.9.4-1.9l3.5 2q-.2 1-.5 1.9"/><path class="s73" d="m541.4 889.1-3.5-2q.3-1.1.4-2.3l3.5 2q-.2 1.2-.4 2.3"/><path class="s74" d="m541.8 886.8-3.5-2q.2-1.7.2-3.3c0-5.2-1.8-8.9-4.8-10.6l3.4 2c3 1.7 4.9 5.4 4.9 10.7q0 1.6-.2 3.2"/></g><g clip-path="url(#cp13)"><path class="s74" d="m541.8 886.8-3.5-2q.2-1.7.2-3.3c0-5.2-1.8-8.9-4.8-10.6l3.4 2c3 1.7 4.9 5.4 4.9 10.7q0 1.6-.2 3.2"/></g><g clip-path="url(#cp14)"><path class="s58" d="m513.5 913.5-3.4-2h.1l3.4 2z"/><path class="s69" d="m513.6 913.5-3.4-2 .8.4 3.5 2q-.5-.1-.9-.4"/><path class="s68" d="m514.5 913.9-3.5-2q.4.2.9.3l3.5 2q-.5-.1-.9-.3"/><path class="s67" d="m515.4 914.2-3.5-2q.4.2.9.2l3.5 2.1q-.5-.1-.9-.3"/><path class="s66" d="m516.3 914.5-3.5-2.1 1 .2 3.5 2q-.5-.1-1-.1"/><path class="s65" d="m517.3 914.6-3.5-2h1.1l3.5 2z"/><path class="s64" d="m518.4 914.6-3.5-2q.6-.1 1.3-.1l3.4 2q-.6.1-1.2.1"/><path class="s63" d="m519.6 914.5-3.4-2 1.4-.4 3.5 2q-.7.3-1.5.4"/><path class="s62" d="m521.1 914.1-3.5-2q1-.2 2-.6l3.5 2q-1 .4-2 .6"/><path class="s61" d="m523.1 913.5-3.5-2q1.2-.5 2.3-1.2l3.5 2q-1.2.7-2.3 1.2"/></g><path d="m488.4 946.9-3.4-2 14.6-25.4 3.5 2z" fill="url(#g48)"/><path d="m538.7 859.7-3.4-2 14.6-25.3 3.5 2z" fill="url(#g49)"/><path class="s58" d="m553.4 834.4-3.5-2 8.9 5.1 3.5 2z"/><g clip-path="url(#cp15)"><path class="s77" d="m525.3 874-3.5-2q1.2-.7 2.4-1.1l3.4 2q-1.1.4-2.3 1.1"/><path class="s78" d="m527.6 872.9-3.4-2q1-.5 1.9-.7l3.5 2q-1 .3-2 .7"/><path class="s79" d="m529.6 872.2-3.5-2q.8-.2 1.5-.3l3.4 2q-.7.1-1.4.3"/><path class="s80" d="m531 871.9-3.4-2q.6-.1 1.2-.1l3.5 2q-.6 0-1.3.1"/><path class="s81" d="m532.3 871.8-3.5-2q.6-.1 1.1 0l3.5 2q-.5-.1-1.1 0"/><path class="s82" d="m533.4 871.8-3.5-2q.5 0 1 .1l3.5 2q-.5-.1-1-.1"/><path class="s83" d="m534.4 871.9-3.5-2 1 .2 3.4 2q-.4-.1-.9-.2"/><path class="s84" d="m535.3 872.1-3.4-2q.4.1.9.3l3.4 2q-.4-.2-.9-.3"/><path class="s85" d="m536.2 872.4-3.4-2 .8.4 3.4 2z"/><path class="s86" d="m537 872.8-3.4-2 .1.1 3.4 2q0-.1-.1-.1"/></g><g clip-path="url(#cp16)"><path class="s74" d="m503.1 921.5-3.5-2c-1.3-1.7-2.4-3.9-3-6.5l3.5 2c.6 2.6 1.6 4.8 3 6.5"/></g><g clip-path="url(#cp17)"><path d="M535.3 857.7h-.8q-.8-.1-1.7-.1-1 .1-1.9.2-1.2.2-2.4.5l-.4.2 3.4 2q.3-.1.5-.2 1.2-.3 2.3-.5 1-.1 1.9-.1.9-.1 1.8 0h.7z" fill="url(#g50)"/></g><g clip-path="url(#cp18)"><path class="s88" d="m513.5 913.5-3.4-2c-3-1.8-4.9-5.5-4.9-10.7q0-1.6.2-3.3l3.5 2q-.2 1.7-.2 3.3c0 5.2 1.9 8.9 4.8 10.7"/><path class="s89" d="m508.9 899.5-3.5-2q.2-1.1.4-2.3l3.5 2q-.3 1.2-.4 2.3"/><path class="s90" d="m509.3 897.2-3.5-2q.2-.9.5-1.9l3.5 2q-.3 1-.5 1.9"/><path class="s91" d="m509.8 895.3-3.5-2q.2-.9.5-1.7l3.5 2q-.3.9-.5 1.7"/><path class="s92" d="m510.3 893.6-3.5-2 .6-1.6 3.4 2q-.3.8-.5 1.6"/><path class="s86" d="m510.8 892-3.4-2q.3-.7.6-1.5l3.5 2q-.4.8-.7 1.5"/><path class="s85" d="m511.5 890.5-3.5-2q.3-.7.7-1.4l3.4 2z"/><path class="s84" d="m512.1 889.1-3.4-2q.3-.7.7-1.4l3.4 2q-.3.7-.7 1.4"/><path class="s83" d="m512.8 887.7-3.4-2 .8-1.4 3.4 2z"/><path class="s82" d="m513.6 886.3-3.4-2 .8-1.4 3.5 2q-.5.7-.9 1.4"/><path class="s81" d="m514.5 884.9-3.5-2q.5-.8 1-1.5l3.4 2q-.5.7-.9 1.5"/><path class="s80" d="m515.4 883.4-3.4-2q.5-.7 1.1-1.5l3.5 2q-.6.8-1.2 1.5"/><path class="s79" d="m516.6 881.9-3.5-2q.7-.8 1.3-1.6l3.5 2q-.7.8-1.3 1.6"/><path class="s78" d="m517.9 880.3-3.5-2q.9-1 1.9-2l3.4 2z"/><path class="s77" d="m519.7 878.3-3.4-2c1.7-1.7 3.6-3.1 5.5-4.3l3.5 2c-2 1.2-3.8 2.6-5.6 4.3"/></g><g clip-path="url(#cp19)"><path d="M499.5 888.6q-.2.4-.3.8-.5 1.2-.9 2.4l-.8 2.6q-.4 1.6-.7 3.1-.1.5-.2 1.1l3.4 2q.1-.6.2-1.1l.8-3q.3-1.4.8-2.7.4-1.2.9-2.4.1-.4.3-.8z" fill="url(#g51)"/></g><path fill-rule="evenodd" d="m571.4 873.8-20.7 12q-1.05 4.95-3 9.9l14.7 8.4-8.8 15.4-14.7-8.4a51.3 51.3 0 0 1-7.2 7.5l.1 23.9-12.6 7.2v-23.8c-2.6.7-5 1-7.2.7l-14.7 25.3-8.9-5 14.7-25.4c-1.4-1.7-2.4-3.9-3-6.5l-20.8 12v-14.4l20.7-12c.6-3.3 1.6-6.7 3-10l-14.8-8.4 8.9-15.3 14.7 8.4c2.2-2.8 4.6-5.4 7.2-7.6l-.1-23.8 12.6-7.3v23.9c2.6-.8 5-1 7.2-.8l14.7-25.3 8.9 5.1-14.7 25.3q2.1 2.7 3 6.6l20.8-12zm-46 38.5c9.2-5.3 16.6-18.2 16.6-28.8-.1-10.5-7.6-14.8-16.8-9.5s-16.6 18.2-16.6 28.8c.1 10.5 7.6 14.8 16.8 9.5" fill="url(#g52)"/><path d="M525.3 874c9.2-5.3 16.7-1 16.7 9.6 0 10.5-7.4 23.4-16.6 28.7s-16.7 1.1-16.7-9.5 7.4-23.5 16.6-28.8" fill="url(#g53)"/><g clip-path="url(#cp20)"><path d="M515.5 865.7q-1.2 1.1-2.5 2.3l-2.8 3q-.9 1.1-1.8 2.3l3.4 2q.9-1.2 1.9-2.3 1.3-1.5 2.8-3 1.2-1.2 2.5-2.3z" fill="url(#g54)"/></g><path d="m479.3 927-3.5-2v-14.4l3.5 2z" fill="url(#g55)"/><path d="m479.3 912.6-3.5-2 20.8-12 3.4 2z" fill="url(#g56)"/><path d="m519 867.7-3.5-2v-23.9l3.4 2.1z" fill="url(#g57)"/><path d="m518.9 843.9-3.4-2.1 12.5-7.2 3.5 2z" fill="url(#g58)"/><path class="s58" d="m497.1 866.9-3.5-2 14.8 8.4 3.4 2z"/><path d="m488.2 882.2-3.4-2 8.8-15.3 3.5 2z" fill="url(#g59)"/></g></g><path fill-rule="evenodd" class="s4" d="M766.3 530.7 760.8 638l-11.3 5.7s-26.7 12.9-36.6 13.4zm-4.6 21.9-42.2 99.1c15.4-4.5 36.8-17.4 36.8-17.4zM481.4 375.2l-24.1 50.9s-64.2 37.6-63 35.9c1.3-1.8 84.9-88.3 84.9-88.3zm-3.6 3.3L410.4 449l44.1-24.5z"/></g></svg>