<svg version="1.2" xmlns="http://www.w3.org/2000/svg" viewBox="0 0 1200 783" width="32" height="32"><defs><linearGradient id="g1" x2="1" gradientUnits="userSpaceOnUse" gradientTransform="matrix(66.985 -90.467 53.044 39.276 399.448 696.705)"><stop offset=".161" stop-color="#d9d9d9"/><stop offset=".163" stop-color="#f0f0f0"/><stop offset=".559" stop-color="#f0f0f0"/><stop offset=".562" stop-color="#d9d9d9"/><stop offset=".873" stop-color="#d9d9d9"/></linearGradient><linearGradient id="g2" x2="1" gradientUnits="userSpaceOnUse" gradientTransform="matrix(38.36 69.901 -138.44 75.973 516.585 627.497)"><stop offset=".118"/><stop offset=".985" stop-color="#7c94bf"/></linearGradient><linearGradient id="g3" x2="1" gradientUnits="userSpaceOnUse" gradientTransform="matrix(57.721 0 0 58.863 337.082 231.953)"><stop offset="0" stop-color="#e4e5e6"/><stop offset=".774" stop-color="#cfd1d2"/></linearGradient><linearGradient id="g4" x2="1" gradientUnits="userSpaceOnUse" gradientTransform="matrix(450.145 0 0 230.029 748.114 .863)"><stop offset="0" stop-color="#a68970"/><stop offset="1" stop-color="#5c4a3c"/></linearGradient><linearGradient id="g5" x2="1" gradientUnits="userSpaceOnUse" gradientTransform="matrix(249.336 0 0 148.026 427.979 6.135)"><stop offset="0" stop-color="#e4e5e6"/><stop offset=".774" stop-color="#cfd1d2"/></linearGradient><linearGradient id="g6" x2="1" gradientUnits="userSpaceOnUse" gradientTransform="matrix(312.438 0 0 231.744 23.467 520.116)"><stop offset="0" stop-color="#a68970"/><stop offset="1" stop-color="#bfb9b9"/></linearGradient><linearGradient id="g7" x2="1" gradientUnits="userSpaceOnUse" gradientTransform="matrix(0 104.677 -52.396 0 147.173 514.829)"><stop offset="0" stop-color="#a68970"/><stop offset="1" stop-color="#5c4a3c"/></linearGradient><linearGradient id="g8" x2="1" gradientUnits="userSpaceOnUse" gradientTransform="matrix(0 99.646 -109.111 0 323.954 655.166)"><stop offset="0" stop-color="#a68970"/><stop offset="1" stop-color="#5c4a3c"/></linearGradient><linearGradient id="g9" x2="1" gradientUnits="userSpaceOnUse" gradientTransform="matrix(76.616 0 0 35.22 240.145 684.858)"><stop offset="0" stop-color="#e4e5e6"/><stop offset="1" stop-color="#fff"/></linearGradient><linearGradient id="g10" x2="1" gradientUnits="userSpaceOnUse" gradientTransform="matrix(38.865 0 0 53.784 26.706 531.76)"><stop offset="0" stop-color="#e4e5e6"/><stop offset="1" stop-color="#fff"/></linearGradient><linearGradient id="g11" x2="1" gradientUnits="userSpaceOnUse" gradientTransform="matrix(11.828 -4.479 5.782 15.271 273.826 723.761)"><stop offset=".118" stop-color="#f06522"/><stop offset=".985" stop-color="#f5921d"/></linearGradient><linearGradient id="g12" x2="1" gradientUnits="userSpaceOnUse" gradientTransform="matrix(31.234 -11.827 6.834 18.048 272.999 721.521)"><stop offset=".118" stop-color="#f06522"/><stop offset=".985" stop-color="#f5921d"/></linearGradient><linearGradient id="g13" x2="1" gradientUnits="userSpaceOnUse" gradientTransform="matrix(3.86 -1.462 3.218 8.499 306.361 726.97)"><stop offset=".118" stop-color="#f06522"/><stop offset=".985" stop-color="#f5921d"/></linearGradient><linearGradient id="g14" x2="1" gradientUnits="userSpaceOnUse" gradientTransform="matrix(15.6 -5.907 4.951 13.076 289.046 728.293)"><stop offset=".118" stop-color="#f06522"/><stop offset=".985" stop-color="#f5921d"/></linearGradient><linearGradient id="g15" x2="1" gradientUnits="userSpaceOnUse" gradientTransform="matrix(9.822 2.791 -3.604 12.681 23.122 553.526)"><stop offset=".118" stop-color="#f06522"/><stop offset=".985" stop-color="#f5921d"/></linearGradient><linearGradient id="g16" x2="1" gradientUnits="userSpaceOnUse" gradientTransform="matrix(25.938 7.371 -4.259 14.987 23.664 551.676)"><stop offset=".118" stop-color="#f06522"/><stop offset=".985" stop-color="#f5921d"/></linearGradient><linearGradient id="g17" x2="1" gradientUnits="userSpaceOnUse" gradientTransform="matrix(3.205 .911 -2.005 7.058 42.665 571.269)"><stop offset=".118" stop-color="#f06522"/><stop offset=".985" stop-color="#f5921d"/></linearGradient><linearGradient id="g18" x2="1" gradientUnits="userSpaceOnUse" gradientTransform="matrix(12.954 3.681 -3.086 10.859 30.805 563.791)"><stop offset=".118" stop-color="#f06522"/><stop offset=".985" stop-color="#f5921d"/></linearGradient><linearGradient id="g19" x2="1" gradientUnits="userSpaceOnUse" gradientTransform="matrix(438.951 0 0 282.045 320.285 33.019)"><stop offset="0" stop-color="#a68970"/><stop offset=".774" stop-color="#5c4a3c"/></linearGradient><linearGradient id="g20" x2="1" gradientUnits="userSpaceOnUse" gradientTransform="matrix(66.985 -90.467 53.044 39.276 910.438 395.144)"><stop offset=".161" stop-color="#d9d9d9"/><stop offset=".163" stop-color="#f0f0f0"/><stop offset=".559" stop-color="#f0f0f0"/><stop offset=".562" stop-color="#d9d9d9"/><stop offset=".873" stop-color="#d9d9d9"/></linearGradient><linearGradient id="g21" x2="1" gradientUnits="userSpaceOnUse" gradientTransform="matrix(38.36 69.901 -138.441 75.974 1027.574 325.937)"><stop offset=".118"/><stop offset=".985" stop-color="#7c94bf"/></linearGradient><linearGradient id="g22" x2="1" gradientUnits="userSpaceOnUse" gradientTransform="matrix(104.57 0 0 165.091 622.667 314.679)"><stop offset=".575" stop-color="#cfd1d2"/><stop offset="1" stop-color="#fff"/></linearGradient><linearGradient id="g23" x2="1" gradientUnits="userSpaceOnUse" gradientTransform="matrix(1173.488 0 0 591.311 25.82 188.694)"><stop offset="0" stop-color="#a68970"/><stop offset=".774" stop-color="#5c4a3c"/></linearGradient><linearGradient id="g24" x2="1" gradientUnits="userSpaceOnUse" gradientTransform="matrix(878.646 0 0 556.399 320.661 223.606)"><stop offset="0" stop-color="#a68970"/><stop offset=".774" stop-color="#5c4a3c"/></linearGradient><linearGradient id="g25" x2="1" gradientUnits="userSpaceOnUse" gradientTransform="matrix(418.454 0 0 209.218 .254 550.706)"><stop offset=".16" stop-color="#cfd1d2"/><stop offset="1" stop-color="#fff"/></linearGradient><linearGradient id="g26" x2="1" gradientUnits="userSpaceOnUse" gradientTransform="matrix(410.135 0 0 198.162 8.562 551.088)"><stop offset=".032" stop-color="#cfd1d2"/><stop offset="1" stop-color="#fff"/></linearGradient><linearGradient id="g27" x2="1" gradientUnits="userSpaceOnUse" gradientTransform="matrix(0 33.483 -26.608 0 158.828 638.573)"><stop offset=".16" stop-color="#231f20"/><stop offset="1" stop-color="#414042"/></linearGradient><linearGradient id="g28" x2="1" gradientUnits="userSpaceOnUse" gradientTransform="matrix(210.441 0 0 139.162 66.622 534.961)"><stop offset="0" stop-color="#e4e5e6"/><stop offset="1" stop-color="#fff"/></linearGradient><linearGradient id="g29" x2="1" gradientUnits="userSpaceOnUse" gradientTransform="matrix(74.396 0 0 120.484 66.622 534.961)"><stop offset=".575" stop-color="#cfd1d2"/><stop offset="1" stop-color="#fff"/></linearGradient><linearGradient id="g30" x2="1" gradientUnits="userSpaceOnUse" gradientTransform="matrix(0 265.655 -373.734 0 539.149 426.32)"><stop offset="0" stop-color="#a68970"/><stop offset="1" stop-color="#5c4a3c"/></linearGradient><linearGradient id="g31" x2="1" gradientUnits="userSpaceOnUse" gradientTransform="matrix(563.921 0 0 363.301 67.679 301.018)"><stop offset="0" stop-color="#a68970"/><stop offset="1" stop-color="#bfb9b9"/></linearGradient><linearGradient id="g32" x2="1" gradientUnits="userSpaceOnUse" gradientTransform="matrix(0 330.244 -384.187 0 395.713 300.522)"><stop offset="0" stop-color="#a68970"/><stop offset="1" stop-color="#bfb9b9"/></linearGradient><linearGradient id="g33" x2="1" gradientUnits="userSpaceOnUse" gradientTransform="matrix(366.758 0 0 311.688 349.041 153.101)"><stop offset=".575" stop-color="#cfd1d2"/><stop offset="1" stop-color="#fff"/></linearGradient><linearGradient id="g34" x2="1" gradientUnits="userSpaceOnUse" gradientTransform="matrix(390.246 0 0 188.704 656.243 14.768)"><stop offset="0" stop-color="#e4e5e6"/><stop offset=".776" stop-color="#a5a7aa"/></linearGradient><linearGradient id="g35" x2="1" gradientUnits="userSpaceOnUse" gradientTransform="matrix(523.431 0 0 311.607 427.979 14.768)"><stop offset="0" stop-color="#a68970"/><stop offset=".774" stop-color="#5c4a3c"/></linearGradient><linearGradient id="g36" x2="1" gradientUnits="userSpaceOnUse" gradientTransform="matrix(330.701 0 0 141.137 715.801 185.238)"><stop offset=".575" stop-color="#cfd1d2"/><stop offset="1" stop-color="#fff"/></linearGradient><linearGradient id="g37" x2="1" gradientUnits="userSpaceOnUse" gradientTransform="matrix(284.287 0 0 197.79 655.359 260.657)"><stop offset=".575" stop-color="#cfd1d2"/><stop offset="1" stop-color="#fff"/></linearGradient><linearGradient id="g38" x2="1" gradientUnits="userSpaceOnUse" gradientTransform="matrix(291.041 0 0 175.719 427.979 150.672)"><stop offset=".575" stop-color="#cfd1d2"/><stop offset="1" stop-color="#fff"/></linearGradient><linearGradient id="g39" x2="1" gradientUnits="userSpaceOnUse"><stop offset=".575" stop-color="#cfd1d2"/><stop offset="1" stop-color="#fff"/></linearGradient><linearGradient id="g40" x2="1" gradientUnits="userSpaceOnUse" gradientTransform="matrix(0 97.734 -13.898 0 1168.411 256.638)"><stop offset=".575" stop-color="#cfd1d2"/><stop offset="1" stop-color="#fff"/></linearGradient><linearGradient id="g41" x2="1" gradientUnits="userSpaceOnUse" gradientTransform="matrix(125.072 0 0 71.927 915.22 186.517)"><stop offset=".575" stop-color="#fff"/><stop offset="1" stop-color="#fff"/></linearGradient><linearGradient id="g42" x2="1" gradientUnits="userSpaceOnUse"><stop offset=".575" stop-color="#fff"/><stop offset="1" stop-color="#fff"/></linearGradient><linearGradient id="g43" x2="1" gradientUnits="userSpaceOnUse" gradientTransform="matrix(250.569 0 0 148.026 715.801 178.365)"><stop offset="0" stop-color="#e4e5e6"/><stop offset=".774" stop-color="#cfd1d2"/></linearGradient><linearGradient id="g44" x2="1" gradientUnits="userSpaceOnUse"><stop offset="0" stop-color="#a68970"/><stop offset=".774" stop-color="#5c4a3c"/></linearGradient><linearGradient id="g45" x2="1" gradientUnits="userSpaceOnUse" gradientTransform="matrix(57.721 0 0 58.863 680.513 408.255)"><stop offset="0" stop-color="#e4e5e6"/><stop offset=".774" stop-color="#cfd1d2"/></linearGradient><linearGradient id="g46" x2="1" gradientUnits="userSpaceOnUse" gradientTransform="matrix(47.096 0 0 22.246 655.359 436.755)"><stop offset="0" stop-color="#e4e5e6"/><stop offset=".774" stop-color="#cfd1d2"/></linearGradient><linearGradient id="g47" x2="1" gradientUnits="userSpaceOnUse" gradientTransform="matrix(16.34 0 0 13.515 976.881 72.991)"><stop offset="0" stop-color="#e4e5e6"/><stop offset=".774" stop-color="#cfd1d2"/></linearGradient><linearGradient id="g48" x2="1" gradientUnits="userSpaceOnUse" gradientTransform="matrix(16.33 0 0 5.256 976.881 81.25)"><stop offset="0" stop-color="#e4e5e6"/><stop offset=".774" stop-color="#a5a7aa"/></linearGradient><linearGradient id="g49" x2="1" gradientUnits="userSpaceOnUse" gradientTransform="matrix(16.34 0 0 13.515 984.132 65.389)"><stop offset="0" stop-color="#e4e5e6"/><stop offset=".774" stop-color="#cfd1d2"/></linearGradient><linearGradient id="g50" x2="1" gradientUnits="userSpaceOnUse" gradientTransform="matrix(16.33 0 0 5.256 984.132 73.648)"><stop offset="0" stop-color="#e4e5e6"/><stop offset=".774" stop-color="#a5a7aa"/></linearGradient><linearGradient id="g51" x2="1" gradientUnits="userSpaceOnUse" gradientTransform="matrix(39.159 0 0 48.046 1159.946 238.449)"><stop offset="0" stop-color="#e4e5e6"/><stop offset=".774" stop-color="#cfd1d2"/></linearGradient><linearGradient id="g52" x2="1" gradientUnits="userSpaceOnUse"><stop offset="0" stop-color="#a68970"/><stop offset=".774" stop-color="#5c4a3c"/></linearGradient><linearGradient id="g53" x2="1" gradientUnits="userSpaceOnUse" gradientTransform="matrix(2.152 0 0 1.477 585.231 670.123)"><stop offset="0" stop-color="#a68970"/><stop offset=".774" stop-color="#5c4a3c"/></linearGradient><linearGradient id="g54" x2="1" gradientUnits="userSpaceOnUse"><stop offset="0" stop-color="#a68970"/><stop offset="1" stop-color="#5c4a3c"/></linearGradient><linearGradient id="g55" x2="1" gradientUnits="userSpaceOnUse" gradientTransform="matrix(0 18.907 -43.242 0 123.53 631.262)"><stop offset="0" stop-color="#a68970"/><stop offset="1" stop-color="#5c4a3c"/></linearGradient><linearGradient id="g56" x2="1" gradientUnits="userSpaceOnUse" gradientTransform="matrix(619.438 0 0 386.553 566.43 264.535)"><stop offset="0" stop-color="#e4e5e6"/><stop offset=".774" stop-color="#cfd1d2"/></linearGradient><linearGradient id="g57" x2="1" gradientUnits="userSpaceOnUse" gradientTransform="matrix(8.036 0 0 10.323 796.269 426.046)"><stop offset="0" stop-color="#e4e5e6"/><stop offset=".774" stop-color="#cfd1d2"/></linearGradient><linearGradient id="g58" x2="1" gradientUnits="userSpaceOnUse" gradientTransform="matrix(57.721 0 0 58.863 409.522 1301.904)"><stop offset="0" stop-color="#e4e5e6"/><stop offset=".774" stop-color="#cfd1d2"/></linearGradient><linearGradient id="g59" x2="1" gradientUnits="userSpaceOnUse" gradientTransform="matrix(450.145 0 0 230.029 820.554 1070.814)"><stop offset="0" stop-color="#a68970"/><stop offset="1" stop-color="#5c4a3c"/></linearGradient><linearGradient id="g60" x2="1" gradientUnits="userSpaceOnUse" gradientTransform="matrix(249.336 0 0 148.026 500.419 1076.086)"><stop offset="0" stop-color="#e4e5e6"/><stop offset=".774" stop-color="#cfd1d2"/></linearGradient><linearGradient id="g61" x2="1" gradientUnits="userSpaceOnUse" gradientTransform="matrix(312.438 0 0 244.233 46.426 1612.647)"><stop offset="0" stop-color="#a68970"/><stop offset="1" stop-color="#bfb9b9"/></linearGradient><linearGradient id="g62" x2="1" gradientUnits="userSpaceOnUse" gradientTransform="scale(52.176 99.39)rotate(90 -6.576 9.65)"><stop offset="0" stop-color="#a68970"/><stop offset="1" stop-color="#5c4a3c"/></linearGradient><linearGradient id="g63" x2="1" gradientUnits="userSpaceOnUse" gradientTransform="matrix(0 88.058 -109.111 0 336.946 1759.286)"><stop offset="0" stop-color="#a68970"/><stop offset="1" stop-color="#5c4a3c"/></linearGradient><linearGradient id="g64" x2="1" gradientUnits="userSpaceOnUse" gradientTransform="matrix(210.441 0 0 139.162 86.323 1639.238)"><stop offset="0" stop-color="#e4e5e6"/><stop offset="1" stop-color="#fff"/></linearGradient><linearGradient id="g65" x2="1" gradientUnits="userSpaceOnUse" gradientTransform="matrix(74.396 0 0 120.484 86.323 1639.238)"><stop offset=".575" stop-color="#cfd1d2"/><stop offset="1" stop-color="#fff"/></linearGradient><linearGradient id="g66" x2="1" gradientUnits="userSpaceOnUse" gradientTransform="matrix(438.951 0 0 280.581 392.725 1102.97)"><stop offset="0" stop-color="#a68970"/><stop offset=".774" stop-color="#5c4a3c"/></linearGradient><linearGradient id="g67" x2="1" gradientUnits="userSpaceOnUse" gradientTransform="matrix(66.985 -90.467 53.044 39.276 982.878 1465.095)"><stop offset=".161" stop-color="#d9d9d9"/><stop offset=".163" stop-color="#f0f0f0"/><stop offset=".559" stop-color="#f0f0f0"/><stop offset=".562" stop-color="#d9d9d9"/><stop offset=".873" stop-color="#d9d9d9"/></linearGradient><linearGradient id="g68" x2="1" gradientUnits="userSpaceOnUse" gradientTransform="matrix(38.36 69.901 -138.441 75.974 1100.014 1395.888)"><stop offset=".118"/><stop offset=".985" stop-color="#7c94bf"/></linearGradient><linearGradient id="g69" x2="1" gradientUnits="userSpaceOnUse" gradientTransform="matrix(104.57 0 0 165.091 695.107 1384.63)"><stop offset=".575" stop-color="#cfd1d2"/><stop offset="1" stop-color="#fff"/></linearGradient><linearGradient id="g70" x2="1" gradientUnits="userSpaceOnUse" gradientTransform="matrix(1224.989 0 0 619.191 46.759 1258.646)"><stop offset="0" stop-color="#a68970"/><stop offset=".774" stop-color="#5c4a3c"/></linearGradient><linearGradient id="g71" x2="1" gradientUnits="userSpaceOnUse" gradientTransform="matrix(930.147 0 0 584.279 341.6 1293.557)"><stop offset="0" stop-color="#a68970"/><stop offset=".774" stop-color="#5c4a3c"/></linearGradient><linearGradient id="g72" x2="1" gradientUnits="userSpaceOnUse" gradientTransform="matrix(366.693 0 0 304.49 421.546 1230.251)"><stop offset=".575" stop-color="#cfd1d2"/><stop offset="1" stop-color="#fff"/></linearGradient><linearGradient id="g73" x2="1" gradientUnits="userSpaceOnUse" gradientTransform="matrix(418.454 0 0 209.218 29.334 1648.39)"><stop offset=".16" stop-color="#cfd1d2"/><stop offset="1" stop-color="#fff"/></linearGradient><linearGradient id="g74" x2="1" gradientUnits="userSpaceOnUse" gradientTransform="matrix(410.135 0 0 198.544 37.642 1648.39)"><stop offset=".032" stop-color="#cfd1d2"/><stop offset="1" stop-color="#fff"/></linearGradient><linearGradient id="g75" x2="1" gradientUnits="userSpaceOnUse" gradientTransform="matrix(426.183 0 0 279.736 281.057 1510.067)"><stop offset="0" stop-color="#a68970"/><stop offset="1" stop-color="#5c4a3c"/></linearGradient><linearGradient id="g76" x2="1" gradientUnits="userSpaceOnUse" gradientTransform="matrix(390.246 0 0 188.704 728.683 1084.72)"><stop offset="0" stop-color="#e4e5e6"/><stop offset=".776" stop-color="#a5a7aa"/></linearGradient><linearGradient id="g77" x2="1" gradientUnits="userSpaceOnUse" gradientTransform="matrix(523.431 0 0 311.607 500.418 1084.72)"><stop offset="0" stop-color="#a68970"/><stop offset=".774" stop-color="#5c4a3c"/></linearGradient><linearGradient id="g78" x2="1" gradientUnits="userSpaceOnUse" gradientTransform="matrix(330.701 0 0 141.137 788.24 1255.189)"><stop offset=".575" stop-color="#cfd1d2"/><stop offset="1" stop-color="#fff"/></linearGradient><linearGradient id="g79" x2="1" gradientUnits="userSpaceOnUse" gradientTransform="matrix(284.287 0 0 197.79 727.799 1330.608)"><stop offset=".575" stop-color="#cfd1d2"/><stop offset="1" stop-color="#fff"/></linearGradient><linearGradient id="g80" x2="1" gradientUnits="userSpaceOnUse" gradientTransform="matrix(66.985 -90.467 53.044 39.276 413.006 1794.111)"><stop offset=".161" stop-color="#d9d9d9"/><stop offset=".163" stop-color="#f0f0f0"/><stop offset=".559" stop-color="#f0f0f0"/><stop offset=".562" stop-color="#d9d9d9"/><stop offset=".873" stop-color="#d9d9d9"/></linearGradient><linearGradient id="g81" x2="1" gradientUnits="userSpaceOnUse" gradientTransform="matrix(38.36 69.901 -138.44 75.973 530.143 1724.904)"><stop offset=".118"/><stop offset=".985" stop-color="#7c94bf"/></linearGradient><linearGradient id="g82" x2="1" gradientUnits="userSpaceOnUse" gradientTransform="matrix(291.041 0 0 175.719 500.418 1220.623)"><stop offset=".575" stop-color="#cfd1d2"/><stop offset="1" stop-color="#fff"/></linearGradient><linearGradient id="g83" x2="1" gradientUnits="userSpaceOnUse" gradientTransform="matrix(613.41 0 0 390.876 90.63 1368.603)"><stop offset="0" stop-color="#a68970"/><stop offset="1" stop-color="#bfb9b9"/></linearGradient><linearGradient id="g84" x2="1" gradientUnits="userSpaceOnUse" gradientTransform="matrix(76.616 0 0 35.22 263.103 1777.39)"><stop offset="0" stop-color="#e4e5e6"/><stop offset="1" stop-color="#fff"/></linearGradient><linearGradient id="g85" x2="1" gradientUnits="userSpaceOnUse" gradientTransform="matrix(38.865 0 0 53.784 49.664 1624.291)"><stop offset="0" stop-color="#e4e5e6"/><stop offset="1" stop-color="#fff"/></linearGradient><linearGradient id="g86" x2="1" gradientUnits="userSpaceOnUse" gradientTransform="matrix(543.321 0 0 319.404 160.719 1440.075)"><stop offset="0" stop-color="#a68970"/><stop offset="1" stop-color="#bfb9b9"/></linearGradient><linearGradient id="g87" x2="1" gradientUnits="userSpaceOnUse" gradientTransform="matrix(11.828 -4.479 5.782 15.271 296.785 1816.292)"><stop offset=".118" stop-color="#f06522"/><stop offset=".985" stop-color="#f5921d"/></linearGradient><linearGradient id="g88" x2="1" gradientUnits="userSpaceOnUse" gradientTransform="matrix(31.234 -11.827 6.834 18.048 295.957 1814.053)"><stop offset=".118" stop-color="#f06522"/><stop offset=".985" stop-color="#f5921d"/></linearGradient><linearGradient id="g89" x2="1" gradientUnits="userSpaceOnUse" gradientTransform="matrix(3.86 -1.462 3.218 8.499 329.32 1819.502)"><stop offset=".118" stop-color="#f06522"/><stop offset=".985" stop-color="#f5921d"/></linearGradient><linearGradient id="g90" x2="1" gradientUnits="userSpaceOnUse" gradientTransform="matrix(15.6 -5.907 4.951 13.076 312.005 1820.825)"><stop offset=".118" stop-color="#f06522"/><stop offset=".985" stop-color="#f5921d"/></linearGradient><linearGradient id="g91" x2="1" gradientUnits="userSpaceOnUse" gradientTransform="matrix(9.822 2.791 -3.604 12.681 46.081 1646.058)"><stop offset=".118" stop-color="#f06522"/><stop offset=".985" stop-color="#f5921d"/></linearGradient><linearGradient id="g92" x2="1" gradientUnits="userSpaceOnUse" gradientTransform="matrix(25.938 7.371 -4.259 14.987 46.622 1644.208)"><stop offset=".118" stop-color="#f06522"/><stop offset=".985" stop-color="#f5921d"/></linearGradient><linearGradient id="g93" x2="1" gradientUnits="userSpaceOnUse" gradientTransform="matrix(3.205 .911 -2.005 7.058 65.623 1663.801)"><stop offset=".118" stop-color="#f06522"/><stop offset=".985" stop-color="#f5921d"/></linearGradient><linearGradient id="g94" x2="1" gradientUnits="userSpaceOnUse" gradientTransform="matrix(12.954 3.681 -3.086 10.859 53.764 1656.323)"><stop offset=".118" stop-color="#f06522"/><stop offset=".985" stop-color="#f5921d"/></linearGradient><linearGradient id="g95" x2="1" gradientUnits="userSpaceOnUse" gradientTransform="matrix(0 21.998 -23.084 0 162.186 1758.663)"><stop offset=".803" stop-color="#231f20"/><stop offset="1" stop-color="#414042"/></linearGradient><linearGradient id="g96" x2="1" gradientUnits="userSpaceOnUse" gradientTransform="matrix(0 33.483 -26.608 0 171.011 1747.177)"><stop offset=".16" stop-color="#231f20"/><stop offset="1" stop-color="#414042"/></linearGradient><linearGradient id="g97" x2="1" gradientUnits="userSpaceOnUse"><stop offset=".575" stop-color="#cfd1d2"/><stop offset="1" stop-color="#fff"/></linearGradient><linearGradient id="g98" x2="1" gradientUnits="userSpaceOnUse" gradientTransform="matrix(0 97.734 -13.898 0 1240.851 1326.59)"><stop offset=".575" stop-color="#cfd1d2"/><stop offset="1" stop-color="#fff"/></linearGradient><linearGradient id="g99" x2="1" gradientUnits="userSpaceOnUse" gradientTransform="matrix(125.072 0 0 71.927 987.66 1256.469)"><stop offset=".575" stop-color="#fff"/><stop offset="1" stop-color="#fff"/></linearGradient><linearGradient id="g100" x2="1" gradientUnits="userSpaceOnUse"><stop offset=".575" stop-color="#fff"/><stop offset="1" stop-color="#fff"/></linearGradient><linearGradient id="g101" x2="1" gradientUnits="userSpaceOnUse" gradientTransform="matrix(250.569 0 0 148.026 788.24 1248.316)"><stop offset="0" stop-color="#e4e5e6"/><stop offset=".774" stop-color="#cfd1d2"/></linearGradient><linearGradient id="g102" x2="1" gradientUnits="userSpaceOnUse"><stop offset="0" stop-color="#a68970"/><stop offset=".774" stop-color="#5c4a3c"/></linearGradient><linearGradient id="g103" x2="1" gradientUnits="userSpaceOnUse" gradientTransform="matrix(57.721 0 0 58.863 752.953 1478.206)"><stop offset="0" stop-color="#e4e5e6"/><stop offset=".774" stop-color="#cfd1d2"/></linearGradient><linearGradient id="g104" x2="1" gradientUnits="userSpaceOnUse" gradientTransform="matrix(47.096 0 0 22.246 727.799 1506.706)"><stop offset="0" stop-color="#e4e5e6"/><stop offset=".774" stop-color="#cfd1d2"/></linearGradient><linearGradient id="g105" x2="1" gradientUnits="userSpaceOnUse" gradientTransform="matrix(16.34 0 0 13.515 1049.321 1142.942)"><stop offset="0" stop-color="#e4e5e6"/><stop offset=".774" stop-color="#cfd1d2"/></linearGradient><linearGradient id="g106" x2="1" gradientUnits="userSpaceOnUse" gradientTransform="matrix(16.33 0 0 5.256 1049.321 1151.201)"><stop offset="0" stop-color="#e4e5e6"/><stop offset=".774" stop-color="#a5a7aa"/></linearGradient><linearGradient id="g107" x2="1" gradientUnits="userSpaceOnUse" gradientTransform="matrix(16.34 0 0 13.515 1056.571 1135.34)"><stop offset="0" stop-color="#e4e5e6"/><stop offset=".774" stop-color="#cfd1d2"/></linearGradient><linearGradient id="g108" x2="1" gradientUnits="userSpaceOnUse" gradientTransform="matrix(16.33 0 0 5.256 1056.571 1143.599)"><stop offset="0" stop-color="#e4e5e6"/><stop offset=".774" stop-color="#a5a7aa"/></linearGradient><linearGradient id="g109" x2="1" gradientUnits="userSpaceOnUse" gradientTransform="matrix(673.265 0 0 417.287 585.044 1334.486)"><stop offset="0" stop-color="#e4e5e6"/><stop offset=".774" stop-color="#cfd1d2"/></linearGradient><linearGradient id="g110" x2="1" gradientUnits="userSpaceOnUse" gradientTransform="matrix(39.159 0 0 48.046 1232.385 1308.4)"><stop offset="0" stop-color="#e4e5e6"/><stop offset=".774" stop-color="#cfd1d2"/></linearGradient><clipPath clipPathUnits="userSpaceOnUse" id="cp1"><path d="m73.58 645.37-8.51-4.95c9.34-11.36 19.86-20.56 30.56-26.74l8.51 4.95c-10.7 6.17-21.22 15.38-30.56 26.74"/></clipPath><clipPath clipPathUnits="userSpaceOnUse" id="cp2"><path d="m47.55 695.09-8.51-4.95c-1.94-1.12-3.14-3.52-3.15-6.92-.01-4.5 2.1-9.88 5.53-14.04l8.51 4.94c-3.43 4.17-5.54 9.54-5.53 14.05.01 3.4 1.21 5.79 3.15 6.92"/></clipPath><clipPath clipPathUnits="userSpaceOnUse" id="cp3"><path d="m179.2 710.13-8.51-4.94c9.34-11.36 19.86-20.56 30.55-26.74l8.51 4.94c-10.7 6.18-21.21 15.39-30.55 26.74"/></clipPath><clipPath clipPathUnits="userSpaceOnUse" id="cp4"><path d="m153.16 759.85-8.51-4.94c-1.93-1.12-3.13-3.52-3.14-6.92-.02-4.5 2.1-9.88 5.52-14.04l8.51 4.94c-3.42 4.17-5.54 9.54-5.53 14.05.01 3.4 1.21 5.79 3.15 6.91"/></clipPath><clipPath clipPathUnits="userSpaceOnUse" id="cp5"><path d="m109.12 1738.92-8.51-4.94c9.34-11.36 19.85-20.56 30.55-26.74l8.51 4.94c-10.7 6.18-21.21 15.38-30.55 26.74"/></clipPath><clipPath clipPathUnits="userSpaceOnUse" id="cp6"><path d="m83.08 1788.64-8.51-4.94c-1.94-1.13-3.14-3.52-3.15-6.92-.01-4.5 2.11-9.88 5.53-14.04l8.51 4.94c-3.42 4.16-5.54 9.54-5.53 14.05.01 3.4 1.21 5.79 3.15 6.91"/></clipPath><clipPath clipPathUnits="userSpaceOnUse" id="cp7"><path d="m214.73 1803.69-8.51-4.94c9.34-11.36 19.86-20.57 30.56-26.74l8.51 4.94c-10.7 6.18-21.22 15.38-30.56 26.74"/></clipPath><clipPath clipPathUnits="userSpaceOnUse" id="cp8"><path d="m188.69 1853.41-8.51-4.94c-1.93-1.13-3.13-3.52-3.14-6.92-.01-4.51 2.1-9.88 5.53-14.05l8.5 4.95c-3.42 4.16-5.54 9.54-5.52 14.04.01 3.4 1.21 5.8 3.14 6.92"/></clipPath></defs><style>.s0{fill:#231f20}.s1{fill:#4c4d4e}.s2{fill:#434445}.s3{fill:#454547}.s4{fill:#464749}.s5{fill:#474849}.s6{fill:#2e2e2f}.s7{fill:#303031}.s8{fill:#313233}.s9{fill:#333435}.s10{fill:#353537}.s11{fill:#373738}.s12{fill:#38393a}.s13{fill:#3a3b3c}.s14{fill:#3c3d3e}.s15{fill:#3e3e40}.s16{fill:#3f4042}.s17{fill:#414243}.s18{fill:#fff;stroke:#231f20;stroke-linecap:round;stroke-linejoin:round;stroke-width:3}.s19{fill:#414042}.s21{fill:#8e9392}.s22{fill:#d7dbdb}.s23{fill:#a7abaa}.s24{fill:#becada}.s26{mix-blend-mode:multiply;fill:#848786}.s34{fill:#fff}.s36{fill:#cfd1d2}.s37{fill:#e4e5e6}.s46{fill:#855131}.s48{fill:#a86243}.s49{fill:#7a3912}.s50{fill:#4f1d00}.s51{fill:#6b3920}.s52{fill:#b88759}.s53{fill:#b07757}.s54{opacity:.8;fill:#202b2d}.s58{fill:#ad4e00}.s59{fill:#b3b3b3}.s60{fill:#d3d3d3}.s70{fill:none;stroke:#231f20;stroke-miterlimit:10}.s72{fill:#574c3a}.s74{fill:#f27333}.s75{fill:#fcc046}.s76{fill:#6b3730}.s90{fill:none;stroke:#cfd1d2;stroke-linecap:round;stroke-linejoin:round;stroke-width:4}.s91{fill:#eff0f0}</style><g id="Layer 1"><path id="&lt;Path&gt;" class="s0" d="M367 780s-46.4 3.2-101.1-14c-69.4-21.7-119.5-50.3-143.7-64.6-24.2-14.2-93.2-68.2-99-79.1-5.9-11 1-32.4 1-32.4l300.5 139.6 27.7 35.9z"/><g id="&lt;Group&gt;"><path class="s1" d="m104.1 618.6-8.5-4.9 23.1-13.4 8.6 5z"/><g id="&lt;Clip Group&gt;" clip-path="url(#cp1)"><path class="s2" d="m73.6 645.4-8.5-5q1.2-1.5 2.5-2.9l8.5 4.9q-1.3 1.5-2.5 3"/><path class="s3" d="m76.1 642.4-8.5-4.9q3.3-3.9 6.8-7.4l8.5 5q-3.5 3.5-6.8 7.3"/><path class="s4" d="m82.9 635.1-8.5-5c6.8-6.7 14-12.2 21.2-16.4l8.5 4.9c-7.2 4.2-14.4 9.8-21.2 16.5"/></g><path class="s5" d="m49.9 674.1-8.5-4.9 23.7-28.8 8.5 5z"/><g clip-path="url(#cp2)"><path class="s6" d="m47.5 695.1-8.5-5c-1.9-1.1-3.1-3.5-3.1-6.9q0-1 .1-2.1l8.5 5q-.1 1-.1 2.1c0 3.4 1.2 5.8 3.1 6.9"/><path class="s7" d="m44.5 686.1-8.5-5q.1-.7.3-1.5l8.5 5q-.2.7-.3 1.5"/><path class="s8" d="m44.8 684.6-8.5-5q.1-.6.3-1.2l8.5 4.9q-.2.6-.3 1.3"/><path class="s9" d="m45.1 683.3-8.5-4.9q.1-.6.3-1.1l8.5 4.9q-.1.6-.3 1.1"/><path class="s10" d="m45.4 682.2-8.5-4.9q.2-.5.4-1.1l8.5 5z"/><path class="s11" d="m45.8 681.2-8.5-5q.2-.4.4-.9l8.5 4.9z"/><path class="s12" d="m46.2 680.2-8.5-4.9q.2-.5.4-.9l8.5 4.9q-.2.5-.4.9"/><path class="s13" d="m46.6 679.3-8.5-4.9q.2-.5.5-1l8.5 5q-.3.4-.5.9"/><path class="s14" d="m47.1 678.4-8.5-5q.2-.4.5-.9l8.5 5q-.3.4-.5.9"/><path class="s15" d="m47.6 677.5-8.5-5q.3-.4.5-.9l8.5 5q-.2.4-.5.9"/><path class="s16" d="m48.1 676.6-8.5-5q.3-.4.7-.9l8.5 4.9q-.4.5-.7 1"/><path class="s17" d="m48.8 675.6-8.5-4.9q.3-.5.7-1l8.5 5q-.4.5-.7.9"/><path class="s2" d="m49.5 674.7-8.5-5q.2-.2.4-.5l8.5 4.9z"/></g><path class="s0" d="m127.3 605.3.1 47.4-72.2 41.6c-5.9 3.5-10.8.7-10.8-6.1 0-4.5 2.1-9.9 5.5-14.1l23.7-28.7c9.3-11.4 19.8-20.6 30.5-26.8z"/></g><path class="s18" d="m158.2 699.6-.1 41-91.5-52.8.1-41.1z"/><path class="s1" d="m209.8 683.4-8.6-4.9 23.2-13.4 8.5 5z"/><g clip-path="url(#cp3)"><path class="s2" d="m179.2 710.1-8.5-4.9q1.2-1.5 2.5-2.9l8.5 4.9q-1.3 1.4-2.5 2.9"/><path class="s3" d="m181.7 707.2-8.5-4.9q3.3-3.9 6.9-7.4l8.5 5q-3.6 3.4-6.9 7.3"/><path class="s4" d="m188.6 699.9-8.5-5c6.7-6.7 13.9-12.3 21.1-16.4l8.6 4.9c-7.3 4.2-14.5 9.8-21.2 16.5"/></g><path class="s5" d="m155.5 738.9-8.5-5 23.7-28.7 8.5 4.9z"/><g clip-path="url(#cp4)"><path class="s6" d="m153.2 759.9-8.5-5c-2-1.1-3.2-3.5-3.2-6.9q0-1 .1-2.1l8.6 4.9q-.2 1.1-.2 2.1c0 3.4 1.2 5.8 3.2 7"/><path class="s7" d="m150.2 750.8-8.6-4.9q.1-.8.3-1.5l8.5 4.9q-.2.8-.2 1.5"/><path class="s8" d="m150.4 749.3-8.5-4.9q.1-.6.3-1.3l8.5 5q-.2.6-.3 1.2"/><path class="s9" d="m150.7 748.1-8.5-5q.2-.5.3-1.1l8.6 5q-.2.5-.4 1.1"/><path class="s10" d="m151.1 747-8.6-5 .4-1 8.5 5q-.2.5-.3 1"/><path class="s11" d="m151.4 746-8.5-5q.2-.5.4-.9l8.5 4.9z"/><path class="s12" d="m151.8 745-8.5-4.9.4-1 8.5 5q-.2.4-.4.9"/><path class="s13" d="m152.2 744.1-8.5-5q.3-.4.5-.9l8.5 5q-.2.4-.5.9"/><path class="s14" d="m152.7 743.2-8.5-5q.2-.4.5-.9l8.5 5q-.3.4-.5.9"/><path class="s15" d="m153.2 742.3-8.5-5q.3-.5.6-.9l8.5 4.9z"/><path class="s16" d="m153.8 741.3-8.5-4.9q.3-.5.6-.9l8.5 4.9q-.3.5-.6.9"/><path class="s17" d="m154.4 740.4-8.5-4.9q.3-.5.7-1l8.5 4.9q-.4.5-.7 1"/><path class="s2" d="m155.1 739.4-8.5-4.9.4-.6 8.5 5q-.2.3-.4.5"/></g><path class="s0" d="m232.9 670.1.1 47.3-72.2 41.7c-5.9 3.4-10.8.7-10.8-6.2 0-4.5 2.1-9.8 5.5-14l23.7-28.8c9.3-11.3 19.9-20.5 30.6-26.7zm153.5 48.7c0 20.1 19.7 31.2 31.1 37.9 5.7 3.2 45.4 23.7 45.4 23.7 7.8-.6-9.1-23 0-28.3 35.2-20.3 63.8-69.7 63.8-110.2 0-40.4-28.6-56.8-63.8-36.4-35.3 20.4-76.5 72.8-76.5 113.3"/><path class="s19" d="M440.4 737.6c0 40.5 28.6 56.8 63.9 36.4 35.3-20.3 63.9-69.7 63.9-110.2s-28.6-56.8-63.9-36.4-63.9 69.7-63.9 110.2"/><path d="M462.9 724.6c0 26.3 18.5 36.9 41.4 23.7s41.5-45.2 41.5-71.5-18.6-36.9-41.5-23.6c-22.9 13.2-41.4 45.2-41.4 71.4" fill="url(#g1)"/><path class="s21" d="M466.3 717.8c0 22.2 15.7 31.2 35.1 20s35.2-38.3 35.2-60.6-15.8-31.2-35.2-20-35.1 38.3-35.1 60.6"/><path class="s22" d="M483.8 712.6c0 13 9.2 18.2 20.5 11.7 11.3-6.6 20.5-22.4 20.5-35.4s-9.2-18.3-20.5-11.7c-11.3 6.5-20.5 22.4-20.5 35.4"/><path class="s23" d="M522.7 691.4c0 10.7-7.9 24.4-17.3 29.8-2.5 1.4-4.9 2.1-6.9 2.1-4.1 0-6.7-3-7.2-8.3 0-.6-.1-1.2-.1-1.9 0-10.7 7.9-24.4 17.3-29.8 2.5-1.4 4.9-2.1 6.9-2.1 4.2 0 6.7 3.1 7.2 8.4v.1q.1.8.1 1.7"/><path class="s24" d="M522.6 690.3v.1c-2.5 8.5-10 17.5-18.5 21.5-2.7 1.3-5.4 2-7.7 2q-1.3 0-2.4-.3-.1-.8-.1-1.7c0-9.9 7.2-22.3 15.8-27.3 2.3-1.3 4.5-2 6.3-2 3.8 0 6.2 2.9 6.6 7.7"/><path d="M535.8 676.6s-11.3 18.8-10 13.8c1.8-7.1-5-26.7-23.4-13.7-21.5 15.1-20.6 41.1-20.6 41.1l-14.6-1.3s2.7-31.4 27.8-51.8c36.4-29.5 40.8 11.9 40.8 11.9" style="mix-blend-mode:screen" fill="url(#g2)"/><path class="s26" d="M467.2 725.1c0-26.3 13.3-53.8 36.2-67 10.8-6.3 24.2-10.5 31.6-7-7.6-5.2-18.5-5-30.7 2.1-22.9 13.2-41.4 45.2-41.4 71.4 0 13.9 5.1 23.3 13.4 27.3-6.7-4.6-9.1-14.5-9.1-26.8"/><path id="&lt;Compound Path&gt;" fill-rule="evenodd" d="M394.8 269.2v11.7q0 .1-.1.2v.9q-.1.1-.1.2v.3q0 .1-.1.2v.3q-.1.1-.1.2v.2h-.1q0 .2-.1.4v.1q-.1.3-.2.5v.1h-.1q-.1.3-.3.6v.1l-.4.4q0 .1-.1.1-.1.2-.3.4l-.4.4q-.1 0-.1.1-.3.1-.5.3l-5.6 3.2h.1c-1.9 1.1-4.5 1-7.3-.7l-31.8-18.3c-5.6-3.3-10.1-11.1-10.1-17.5v-11.2c0-3.2 1.2-5.5 3-6.5l5.6-3.3.4-.2h.1q.1-.1.3-.1.1-.1.2-.1h.1q.2-.1.3-.1h.1q.3-.1.5-.1h1.6q.1 0 .2.1h.5q0 .1.1.1h.1q.1 0 .2.1h.1q.1 0 .2.1h.2l.4.2.4.2h.1q.1 0 .2.1h.2q0 .1.1.1l.1.1q.1 0 .2.1t.3.1l31.8 18.4.1.1.4.2q.2.2.5.3l.2.2q.1 0 .2.1 0 .1.1.1.1.1.2.1.1.1.1.2h.1l.2.2q.1.1.2.1l.1.1.2.2.1.1.2.2.2.2h.1l.2.2q0 .1.1.2.1 0 .1.1l.2.2q.1.1.2.1v.1q.2.1.3.3l.1.1q.2.3.4.5l.1.1q.1.2.3.4.6.7 1 1.4.1 0 .1.1.4.6.7 1.1l.1.1.4.8q0 .1.1.1 0 .1.1.2.1.2.1.3l.1.1q.1.2.1.4.1 0 .1.1.1.3.2.5.1 0 .1.1v.1q.1.1.2.3v.1q.1.1.1.2t.1.2v.2q.1.1.1.2v.1l.2.4v.1q.1.3.2.5v.1q0 .1.1.2v.3q.1 0 .1.1v.2q.1.1.1.2v.2q.1.1.1.2v.1q0 .1.1.3v.3q.1.2.1.4v.1q0 .2.1.5v.6q.1.1.1.2zm-53.3-33.9h.1zm0 0-.1.1zm1.2-.1h.1zm.6 0h-.2zm.7.1q.1.1.2.1-.1 0-.2-.1m.5.1.1.1zm1 .4h.2zm.5.2h.2zm-2.3-.7h-.1zm45.4 49.1v.3zm0 .6v.2zm-.1.6v.1zm-.1.5v.1zm-.1.5-.1.1zm-.2.4v.2zm-47.5-51.5v-.1q0 .1-.1.1zm1.2-.3h-.1zm2.8.4h-.1zm1.6.7q-.1 0-.1-.1 0 .1.1.1m40.8 52.7h.1zm-.8.8h-.1zm2.5-5.6v-.6z" fill="url(#g3)"/><path d="M900.6 14.8c-7.9-4.6-15.8-8-23.2-10.6C862-1.2 845.2 0 830.6 7.3l-.1.1c-2.5 1.2-4.9 2.5-7.2 3.7-14.9 7.5-24.6 9.9-30.9 10h-.3c-12.7 3.3-24.7 6.5-37.4 9.8l-6.6 2.1 131.2 89.2c4.2-3.9 8.7-8.3 13.5-13.3l161.1 105.8 144.4 16.2C1120 132.4 900.6 14.8 900.6 14.8" fill="url(#g4)"/><path d="M677.3 17.9c0-3.4-2-7.5-4.8-9.9h-.1q-.7-.6-1.4-1c-1.7-1-3.2-1.1-4.3-.6 0 0-151.2 59.3-237.1 139.7-1.9 1.9-2.2 4.9-.5 7l.9 1.1S608.4 32.6 674.5 22.4q1.1-.3 1.8-1.1h.1q.6-.8.8-2 0-.3.1-.6z" fill="url(#g5)"/><path d="m335.9 651.5-6.6 100.4L147 693.1 38.3 598.3l-5.1-2.9-5.7-9c-2.9-7.5-4-16-4-16l.3-50.3 85.8 36.2z" fill="url(#g6)"/><path d="m67.7 552.2-1.6-14.3-40.3-23.1-3 5S9.4 547 21.4 564.5l-1 6.6 3.1-.7s1.1 8.5 4 16l5.7 9 5.1 2.9 27.1 21.2c6-34.4 2.3-67.3 2.3-67.3" fill="url(#g7)"/><path d="m333 695.3-28-28.5-27.9-11.6s-33.5 32.6-53.2 62.9l80.2 36.7c12.2-2.5 20.5-4.6 20.6-6 .4-3.2 4-20.2 7-33.7z" fill="url(#g8)"/><path d="M295.4 687.2c9 2.2 18.7 11.6 20.9 20.8q0 .2.1.5c1.7 7.5-2.4 12.3-9.8 11.5l-55.8-6.6q-.6-.1-1.1-.2c-5.5-1.4-10.9-8.5-9.2-12.6 4.4-11 15.2-16.7 29.7-15.6l22.3 1.7q1.5.1 2.9.5" fill="url(#g9)"/><path class="s34" d="M316.3 708c-2.2-9.2-11.9-18.6-20.9-20.8q-1.4-.4-2.9-.5l-22.3-1.7c-7.3-.6-13.6.6-18.7 3.3q-1.2 1.8-2 3.9c-1.7 4.1 3.7 11.2 9.2 12.6q.6.1 1.1.2l55.9 6.6q.5 0 1 .1 0-1.5-.3-3.2-.1-.3-.1-.5"/><path d="M37 533.8q.8.7 1.5 1.5l11.3 12.8c7.4 8.3 13 19.9 15.6 32 .9 4.5-1.7 6.9-4.5 4.5l-.5-.5L32.1 554c-3.8-4-6-10.6-5.3-15.8q.1-.2.1-.3c.9-6.3 5.6-7.9 10.1-4.1" fill="url(#g10)"/><path class="s34" d="m49.8 548.1-11.3-12.8q-.7-.8-1.5-1.5-.8-.6-1.6-1.1c-1.2 1-2.2 2.7-2.5 5.2q-.1.1-.1.3c-.7 5.2 1.5 11.8 5.2 15.8l27.4 29.1c.2-.8.2-1.9 0-3-2.6-12.1-8.2-23.7-15.6-32"/><path class="s36" d="M35 540.7c0 4.9 3.4 10.8 7.7 13.3 4.2 2.4 7.7.5 7.7-4.4v-.9l-.6-.6-11.2-12.8c-2.2.4-3.6 2.3-3.6 5.4"/><path class="s37" d="M59 571.6c1.6.9 3.1 1.2 4.4.9-2.3-7-5.5-13.6-9.5-19.3-1.6.8-2.5 2.5-2.5 5.1-.1 4.9 3.4 10.8 7.6 13.3m207.6 131.7c4.8 2.8 8.6.6 8.7-4.9 0-4.7-2.9-10.3-6.7-13.5q-5.5-.2-10.1.9-.4 1.1-.4 2.7c0 5.4 3.8 12.1 8.5 14.8"/><path class="s36" d="M285.8 686.2c-.8 1-1.2 2.5-1.2 4.3-.1 5.5 3.8 12.1 8.5 14.8 4.8 2.8 8.6.6 8.6-4.9 0-4.6-2.7-10.1-6.5-13.3"/><path class="s37" d="m275.3 721.9-1.5-4 37.6 5.8 4 10.7-38.6-8.5z"/><path d="m289.1 728.3 2.3 6.3-15.2-4.6-2.4-6.2z" fill="url(#g11)"/><path d="m310.2 725.5-3 3.7-18.1-.9-15.3-4.5 3-3.7z" fill="url(#g12)"/><path d="m310.2 725.5 2.4 6.3-3 3.7-2.4-6.3z" fill="url(#g13)"/><path d="m307.2 729.2 2.4 6.3-18.2-.9-2.3-6.3z" fill="url(#g14)"/><path class="s37" d="m25 553.1.9-3.4 21.6 21.8-2.6 9-20.8-24.2z"/><path d="m30.8 563.8-1.5 5.2-7.7-10.3 1.5-5.2z" fill="url(#g15)"/><path d="m45.9 572.2-3.7.9-11.4-9.3-7.7-10.3 3.8-.9z" fill="url(#g16)"/><path d="m45.9 572.2-1.5 5.2-3.7.9 1.5-5.2z" fill="url(#g17)"/><path d="m42.2 573.1-1.5 5.2-11.4-9.3 1.5-5.2z" fill="url(#g18)"/><path class="s46" d="M589.1 143.4h-.1c-17.5 14.8-37.4 30.5-56.9 43.4-39.8 26-124.7 73.2-160.5 93-3.1 4.5-5.4 9.4-7.7 14.3-23.3 50-47.1 103.1-41.5 158 .9 8.5 2.5 17 5.3 25.1l141.7-84.3 166.1-98.8s3.9-18.6 16.8-62.3c10.9-36.8 36.9-57 54.5-68.2.6-21.5 2.9-42.9 2.5-64.5-.2-13.2-1.5-26.5-3.8-39.6l-61 35.2c-4.8 3.3-27 24.8-55.4 48.7"/><path class="s46" d="m313.8 385.5.9 10.9c1 10.8 8.2 49.8 8.2 49.8l8.5 15.5L586 309.1c14-22.8 14-91.3 14-91.3l-6.8-66.1-4.1-8.3c-17.6 14.9-37.5 30.5-57 43.4C480.9 220.3 355 288.9 355 288.9l-5.7 9.9-23.1 13.1z"/><path d="M756.3 40.1c-38.3 19.5-5-7.1-5-7.1L644.5 94.7c-4.9 3.3-27.1 24.8-55.4 48.7-17.6 14.8-37.5 30.5-57 43.4C480.9 220.3 355 288.9 355 288.9s1.8-2.1 4.2-6.4c-4.8 10.9-10.4 16.6-10.4 16.6l-28.5 16s21.1-7.7 34.2-16.4c13-8.6 80-44.3 93.1-52s78.8-45.4 99-60.9l15.3-11.7 80.4-60.4 116.9-75.5c-2.4 1.2-.6.7-2.9 1.9" fill="url(#g19)"/><path class="s48" d="m650.5 106.1-33.8 13.2-49 145.9 247.4 143.1 124.5-143.1-140-89.7z"/><path class="s49" d="M567.7 265.2s-121.6 59.2-110.8 75.7 274.5 163.6 274.5 163.6 92.8-8.1 117.1-39.7c24.3-31.7-33.4-67.4-33.4-67.4z"/><path class="s50" d="M529.9 200s17.1-50.7 60.6-25.2c43.4 25.5 76.4 35.1 68.9 56.1-7.6 21.1-46.7 154.2-46.7 154.2l-118.4-45.9-9.3-21.3z"/><path class="s51" d="M509.7 203.4s17.2-50.7 60.6-25.2c43.5 25.5 76.5 35.1 68.9 56.1-7.5 21.1-46.7 154.2-46.7 154.2l-118.3-45.9-9.4-21.3z"/><path class="s52" d="M692.5 281.7 524.7 376l39.6 27.2 166.5-97.5z"/><path class="s46" d="m771.7 245.8-11.2 33.1-33.6 74.4L597 421.4l-3.5-35.2 137.3-80.5z"/><path class="s53" d="m692.5 281.7 41.4-58.4 37.8 22.5-40.9 59.9z"/><path class="s50" d="M693.1 290.3s17.2-50.6 60.6-25.1 76.4 35 68.9 56.1c-7.5 21-46.7 154.2-46.7 154.2l-118.4-46-9.3-21.2z"/><path class="s51" d="M673 293.7s17.1-50.6 60.6-25.1c43.4 25.5 76.4 35 68.9 56.1-7.6 21-46.7 154.2-46.7 154.2l-118.4-46-9.3-21.3z"/><path fill-rule="evenodd" class="s50" d="M595.9 336.2c25 8.2 49.1 32.9 53.8 55.2 4.8 22.2-11.7 33.7-36.7 25.6s-49.2-32.9-53.9-55.1c-4.7-22.3 11.8-33.8 36.8-25.7m-31 29.1c4 19.2 24.8 40.5 46.3 47.5s35.7-2.9 31.6-22.1c-1.2-5.7-4-11.6-7.8-17.2l-34.4 9.8-14.4-42c-15.4-1.2-24.7 8.2-21.3 24m31.6-22c-1.5-.5-2.9-.7-4.4-1.1l11.9 34.7 27.9-8c-9-11.4-22.1-21.3-35.4-25.6"/><path class="s52" d="M359.9 281.3s23.5-8.7 34.2-1.6c10.8 7 96.2 60.1 119.2 77.4 8.8 6.6 33.8-4.7 60.3 7.1 42.1 18.9 97.2 55.1 97.2 55.1l12.5 21.8-48.5 29.1-41.1-5.4-226.8-126.4-22.2-32.6"/><path class="s54" d="M716.1 321.5C680.2 381.7 631.9 465 631.9 465s-26.1-9.6-63.7-26.5c-26-11.7-57.6-26.9-89.8-44.9-13.9-7.8-27.9-16.1-41.8-24.9-22.7-14.4-44.7-30.1-64.4-46.8-7.9-6.8-15.4-13.7-22.4-20.7-2.5-2.5 7.8-15.4 7.8-15.4s67.5-115 80.5-125.3c0 0 26.3 18 56.5 38.3 19.6 13.2 39.1 26.2 50.2 33.2 5.4 3.5 11.2 7 17.3 10.6 13.4 7.9 28 16 42.8 23.8 33.9 18 68.4 34.8 89.8 45 13.2 6.3 21.4 10.1 21.4 10.1"/><path class="s0" d="M910 414.1c0 20.2 7.1 34.4 18.5 41 5.7 3.2 45.3 23.8 45.3 23.8 7.9-.6-9-23.1 0-28.3 35.3-20.4 63.9-69.7 63.9-110.2s-28.6-56.8-63.9-36.4c-35.2 20.3-63.8 69.7-63.8 110.1"/><path class="s19" d="M951.4 436c0 40.5 28.6 56.8 63.9 36.5 35.3-20.4 63.9-69.7 63.9-110.2s-28.6-56.8-63.9-36.4c-35.3 20.3-63.9 69.7-63.9 110.1"/><path d="M973.8 423.1c0 26.3 18.6 36.8 41.5 23.6s41.4-45.2 41.4-71.5c0-26.2-18.5-36.8-41.4-23.6s-41.5 45.2-41.5 71.5" fill="url(#g20)"/><path class="s21" d="M977.3 416.2c0 22.3 15.7 31.2 35.1 20s35.2-38.3 35.2-60.6c0-22.2-15.8-31.2-35.2-20s-35.1 38.3-35.1 60.6"/><path class="s22" d="M994.8 411c0 13 9.2 18.3 20.5 11.7 11.3-6.5 20.5-22.4 20.5-35.4s-9.2-18.2-20.5-11.7-20.5 22.4-20.5 35.4"/><path class="s23" d="M1033.7 389.8c0 10.8-7.9 24.4-17.3 29.8-2.5 1.4-4.9 2.2-6.9 2.2-4.1 0-6.7-3-7.2-8.3 0-.6-.1-1.3-.1-1.9 0-10.8 7.9-24.4 17.3-29.8 2.5-1.4 4.9-2.2 6.9-2.2 4.1 0 6.7 3.1 7.2 8.4v.1q.1.8.1 1.7"/><path class="s24" d="M1033.6 388.8c-2.5 8.6-10 17.6-18.5 21.6-2.7 1.3-5.4 1.9-7.7 1.9q-1.3.1-2.4-.3-.1-.8-.1-1.7c0-9.8 7.2-22.3 15.8-27.3 2.3-1.2 4.5-1.9 6.3-1.9 3.8 0 6.2 2.8 6.6 7.7"/><path d="M1046.8 375s-11.3 18.9-10.1 13.9c1.9-7.2-4.9-26.7-23.3-13.8-21.6 15.2-20.6 41.2-20.6 41.2l-14.6-1.4s2.7-31.3 27.8-51.7c36.4-29.6 40.8 11.8 40.8 11.8" style="mix-blend-mode:screen" fill="url(#g21)"/><path class="s26" d="M978.2 423.5c0-26.2 13.3-53.8 36.2-67 10.8-6.2 24.2-10.5 31.6-6.9-7.6-5.3-18.5-5-30.7 2-22.9 13.2-41.5 45.2-41.5 71.5 0 13.8 5.2 23.3 13.5 27.2-6.7-4.6-9.1-14.5-9.1-26.8"/><path d="m715.8 321.3 11.4-6.6-83.8 145.1s-17.7 21.6-20.7 19.9l16.7-30.3z" fill="url(#g22)"/><path class="s58" d="m1181.4 269-89 59.4c.8 13.1-3.7 24.5-3.7 24.5l15-11c13.1-9.5 59.1-44.5 77.7-72.9"/><path class="s59" d="M1083.8 302c-.5-.7-.9-1.5-1.5-2.3-13.4-18.5-58.8 10.5-75 20.2-16.1 9.7-50.3 30-63.2 73.7-10.3 35-14.9 53.8-16.3 59.9h.3c.9 0 1.8 0 2.6.1 2.4-9.4 6.9-26.8 14.8-53.6 13-43.7 47.1-64 63.3-73.7 15.2-9.1 56.3-35.3 72.3-23 .5-.9 1.6-1.4 2.7-1.3"/><path class="s60" d="M1084.3 302c-13.4-18.5-58.8 10.6-75 20.3s-50.3 30-63.2 73.6c-10.4 35-15 53.9-16.4 60q.2-.1.4-.1c.8 0 1.7 0 2.6.1 2.3-9.4 6.8-26.7 14.8-53.6 12.9-43.6 47-63.9 63.2-73.6s61.6-38.8 75-20.3c2.3 3.2 3.8 6.6 4.9 10-.8-5.6-2.6-11.2-6.3-16.4"/><path d="M1196.1 227.4c-6.1-7.1-12.5-12.9-19.2-17.8-11.3-8.2-23-13.6-33.7-17.5-15.5-5.4-32.5-4.4-47.2 3l-.2.1c-2.4 1.2-4.8 2.5-7.2 3.7-14.8 7.5-24.5 9.9-30.8 10-9.7.1-11.3-5.3-11.3-5.4l-106.8 61.7c-4.9 3.3-27.1 24.8-55.4 48.7h-.1c-2.6 2.2-5.3 4.5-8.1 6.7-15.4 12.8-32.2 25.8-48.9 36.6-29.1 19.2-82.6 49.7-123.2 72.4-6.6 3.7-12.9 7.2-18.6 10.4v-2l-26 14.5c7.4-11.9 43.6-78.3 64-115.7 8.2-15.1 13.8-25.4 14-25.7h-.1l-10.1 3.6-8.7 15.1-75.1 130.1-3 2.8-6.5 3.2-2.3-1.1-8.3-6.4-37.6-15.2-98.2-46-44.6-26.7-40.1-29.3-44.8-37.9-3.7-7.4c-53.4 30.5-172.3 94.6-206.6 118.5-9.4 6.6-20.4 14.9-31.8 24-41.8 33.3-90 76.4-90.1 76.4.1.1 97.2 72.3 132 92.6 33.8 19.8 131.7 63.8 157.1 75.2 3.7 1.6 6.1 5.3 6.1 9.4l-.3 43.5s2.4 18.8 9.6 25.1S349 779.1 367 780c18.1.9 53.8-23.8 53.8-23.8s-.1-16.9-1.6-26.8c-1.5-9.8 2.6-28.1 15.7-46.6 13-18.6 48.4-40.1 82.6-55.1 14.8-6.5 25.1-5.8 32.7-1.5 10 5.4 15.4 16.8 20.4 25.6 5.9 10.6 11.6 16 14.6 18.3l100.2-59.6L834 522.1l96.6-57.6c.1 0 4-18.6 16.9-62.2s47.1-63.9 63.2-73.6c5.7-3.4 14.9-9.1 25-14.4 19-9.8 41.3-17.9 50-5.9 13.1 18.1 3.5 43.2 3 44.4.2-.1 1.9-1.4 15-10.8 15-11 34.3-22.4 64-55.6 29.6-32.9 31.4-47.9 31.4-48v-.1c.7-3.9-.4-7.9-3-10.9" fill="url(#g23)"/><path fill-rule="evenodd" d="M1199.1 238.3v.1c0 .1-1.8 15.1-31.4 48-29.7 33.2-49 44.6-64 55.6-13.1 9.4-14.8 10.7-15 10.8L930.6 464.5 834 522.1 663.3 623.6l-29.4 17.6-48.7 28.9c-3-2.3-8.7-7.7-14.6-18.3-5-8.8-10.4-20.2-20.4-25.6-7.6-4.3-17.9-5-32.7 1.5-34.2 15-69.6 36.5-82.6 55.1-13.1 18.5-17.2 36.8-15.7 46.6 1.5 9.9 1.6 26.8 1.6 26.8S385.1 780.9 367 780c-18-.9-29.5-13.1-36.7-19.4s-9.6-25.1-9.6-25.1v-7.3l313.2-196.4 304-184 15.6-24.2c18.2-28.3 43.9-51.1 74.3-65.6 47-22.3 118-47.3 170.6-26.8.9 2.3 1.1 4.7.7 7.1m-108.5 108.1c-1 3.5-1.8 5.9-1.9 6.4.2-.6 1.1-2.9 1.9-6.4" fill="url(#g24)"/><path d="M312.8 759.9c-17 0-33-2-48.8-5.9-41.5-10.2-82.1-33.6-138.2-66l-2.9-1.7C46 641.9 14.6 599.2 2.3 575.9c-4.9-9.5-.7-21.1 9.2-25.2l3.4 1c1.1.3 1.9 1.3 2.1 2.4.7 4.2 6.6 15.7 19.8 32.6 26.9 34.8 67.9 62.6 97.6 79.7l2.9 1.7c54.5 31.4 93.9 54.1 132.3 63.6 38.7 9.6 77.6 6.4 134.2-11.1 6.1-1.9 12.5 1.5 14.4 7.6s-1.5 12.5-7.6 14.4c-37.8 11.6-69.2 17.3-97.8 17.3" fill="url(#g25)"/><path d="M403.8 720.6c-56.6 17.5-95.5 20.7-134.2 11.1-38.4-9.5-77.8-32.2-132.3-63.6l-2.9-1.7c-29.7-17.1-70.7-44.9-97.6-79.7-14.3-18.5-19.4-29.9-19.7-33.4 0-.6-.4-1-.9-1.2l-2.7-.8c-1.4-.4-2.9-.2-4.2.5-1.3 4.3-.9 9.1 1.3 13.4 12.3 23.3 43.7 66 120.6 110.4l2.9 1.7c56.1 32.4 96.7 55.8 138.2 66.1 15.8 3.9 31.8 5.8 48.8 5.8 28.5 0 59.9-5.6 97.6-17.2q.1-1.9-.5-3.8c-1.9-6.1-8.3-9.5-14.4-7.6" fill="url(#g26)"/><path d="m138.3 651.1-8.9-12.5c-.5 7.5-1.8 17.6-4.9 27.6l9.6 5.9s8.2-11.5 17-19.2z" fill="url(#g27)"/><path d="M68.8 535s-1.6 15-2 18.1c-.8 6.6 1 13.1 4.8 18.5l59.1 83.8 131.1 18.7s15.2-4.7 15.3-18.9z" fill="url(#g28)"/><path d="M131.3 597.7c-.6-1.9-2.2-7.1-6.6-16.6L68.8 535s-1.6 15-2 18.1c-.8 6.6 1 13.1 4.8 18.5l59.1 83.8 10.3-24.1s-8.6-29.7-9.7-33.6" fill="url(#g29)"/><path d="m549.6 426.3-163.2 66.1-119.7 102.8s-6.6 38.2-8.6 46c-2 7.7 9.7 20 9.7 20 20.6 9.5 38.3 17.4 47.1 21.4 3.7 1.6 6.1 5.3 6.1 9.4l310.6-227.2z" fill="url(#g30)"/><path d="m604.9 449.3-4.9 3-82.2-39.6-64.7-36.1-65.1-47.9-4.9-8.2-33.6-19.5S143.4 422.4 67.7 545.5l73.3 85.8 133.5 33s130.1-152.7 357.1-199.5z" fill="url(#g31)"/><path class="s70" d="M274.5 664.3s130.1-152.7 357.1-199.5"/><path d="M445.9 371.4 388 328.7l-4.9-8.2-33.6-19.5s-212 117.1-287.7 240.2l79.2 90.1s134.9-181.2 304.9-259.9" fill="url(#g32)"/><path class="s70" d="M349.5 301s-212 117.1-287.7 240.2"/><path class="s72" d="M362.1 301c-2.5-2.5 7.8-15.4 7.8-15.4s56.4-94.5 75.8-120c-5-3.3-7.9-5.3-7.9-5.3-13 10.3-80.5 125.3-80.5 125.3s-10.3 12.9-7.8 15.4c95 95.4 282.1 163.8 282.1 163.8s.8-1.4 2.3-3.9C593.4 445 443.7 383 362.1 301"/><path fill-rule="evenodd" d="M715.8 321.3c-35.9 60.2-84.2 143.5-84.2 143.5S444.5 396.4 349.5 301c-2.5-2.5 6.1-19.3 6.1-19.3s60.5-118.3 73.5-128.6c0 0 87.2 60.9 115.4 78.7 62.1 39.4 171.3 89.5 171.3 89.5m-23.5 28.3c9-15.4 3-35.1-13-42.8-35.7-17.2-95.5-46.9-135.2-72.1-17.9-11.4-56.9-37.7-81.3-54.3-12.6-8.6-33-11-41.4 1.6-23.6 35.2-59 104.2-59 104.2s-8.8 12.8-6.4 15.2c79.3 79.5 225 139.6 262.9 154.4 5.2 2.1 11.2 0 14.1-4.9 10.3-17.8 35.4-60.8 59.3-101.3" fill="url(#g33)"/><path class="s74" d="M715.8 321.3S590.1 262 544.5 231.8c-45.6-30.1-106.7-71.5-106.7-71.5l-1.6-13.3 291 167.7-8.2 11.7z"/><path class="s75" d="M436.2 147s83.9 58.3 115.5 76.2c31.5 18 175.5 91.5 175.5 91.5l10.2-3.6-179.6-95.4L449.1 147z"/><path class="s76" d="m1046.5 203.5-106.9 61.7-140-89.7-149.1-69.4 111.8-67.9s114.1 53.3 150.4 74.4c34.9 20.4 133.8 90.9 133.8 90.9"/><path class="s52" d="m650.5 106.1-33.8 13.2 156.7 74.5L914 288l25.6-22.8-140-89.7z"/><path class="s54" d="m939.7 265.2-48.1 42.3-7.3 6.4s-.6.8-2.1 2.4c-5.2 5.4-20.5 20-57 42.6q-2.7 1.7-5.6 3.5c-2.4 1.4-4.8 2.8-7.3 4.3-5.7 3.4-11.7 6.9-18 10.6-.1.1-.2.1-.3.2-20 11.8-42.7 25.1-63.7 37.3-7.7 4.5-15.1 8.8-22.1 12.9-30.1 17.5-52.8 30.8-52.8 30.8l78.3-140.6 1.3-2.3s6.5-4.5 15.9-10.7c15.2-10.1 37.7-25.1 51.9-33.7 4.1-2.5 8.3-4.9 12.5-7.3 4.5-2.5 9-4.9 13.4-7.3 2.8-1.5 5.6-2.9 8.4-4.3 3-1.6 13.1-6.3 15.8-8.1 18.5-12.2 56.2-34.6 56.2-34.6l11.1 20.2 1.8 3.3z"/><path d="m656.2 14.8 295.2 170.4 95.1 18.3s-98.9-70.6-133.8-90.9C873.8 90 751.3 33 751.3 33z" fill="url(#g34)"/><path class="s54" d="M1034.2 194.8c5 3.5 0 0-5-3.6-31.8-22.3-93-64.9-116.5-78.6C883 95.3 804.9 58.2 769.4 41.5l-.3-.1C739.7 36.8 682 27.6 682 27.6l259.1 150.8c46.2 0 93.1 16.4 93.1 16.4"/><path d="M656.2 14.8s-19.9.6-66.9 26.6c-47.1 26.1-116.8 68.9-139.5 89.5L428 150.7v8s11.1 13.9 107.2 73.1C658.5 307.7 719 326.4 719 326.4l66.3-55.2 166.1-86s-104.7-70-141-91c-37.5-21.7-154.2-79.4-154.2-79.4" fill="url(#g35)"/><path d="m1046.5 203.5-95.1-18.3s-19.9.7-67 26.7c-47 26.1-120.9 66.1-143.6 86.7s-25 22.7-25 22.7l3.2 5.1 24.6-16.7s73.1-44.9 98.2-59.2c26-14.8 67.3-40.9 67.3-40.9l30.5 55.6z" fill="url(#g36)"/><path d="m937.2 260.7-88.7 75L660 450.2l-4.6 8.2 142.1-82.5 42.1-25.1 43.8-33.7c29.7-25.9 56.2-51.9 56.2-51.9z" fill="url(#g37)"/><path d="M428 150.7s62.6 46.9 133.8 87.8 154 82.8 154 82.8l3.2 5.1s-77.9-26.3-176.3-87.9C443.6 176.6 428 158.7 428 158.7z" fill="url(#g38)"/><path d="M-729.4 1272.8c0 57.2-32.2 103.6-72 103.6-39.9 0-72.1-46.4-72.1-103.6s32.2-103.6 72.1-103.6c39.8 0 72 46.4 72 103.6" fill="#5c4a3c"/><path class="s0" d="M388.5 351.9c.9 1.4-.7 4-3.5 5.8-2.8 1.7-5.8 2-6.7.6s.7-4 3.5-5.8c2.8-1.7 5.8-2 6.7-.6m81.4 53.2c.9 1.4-.6 4-3.4 5.7-2.9 1.8-5.9 2.1-6.7.6-.9-1.4.6-3.9 3.4-5.7s5.8-2.1 6.7-.6"/><path d="m821.3 261.4-3.5 93 13.9-8.5-3-89.3z" fill="url(#g40)"/><path d="m958.1 186.5-42.9 20.3 27.7 51.6 97.4-56.1z" fill="url(#g41)"/><path d="M966.4 190.2c0-3.5-2.1-7.6-4.9-10h-.1l-1.4-1c-1.6-.9-3.1-1.1-4.3-.5 0 0-154.7 60.5-239.9 142.6l3.2 5.1s178.5-121.5 244.6-131.7l-.1-.1q1.1-.2 1.9-1.1.6-.8.8-1.9v-.1q.1-.2.1-.5t.1-.5z" fill="url(#g43)"/><path class="s70" d="M790.2 53.7S859.1 13.2 910 19.9m93.6 153.4s42.7-39.8 96.7-31.9M819.6 12.9l9.1 4.4c1.4.7 1.3 2.8-.2 3.4l-19.9 7.6c-1.9.7-3.9.7-5.8 0l-15-6.1"/><path class="s0" d="M577.6 233.5c-2.5 4.3-6.2 6.7-8.4 5.4s-2-5.7.4-9.9c2.5-4.3 6.2-6.7 8.4-5.4s2 5.7-.4 9.9"/><path class="s90" d="m644.5 94.7-74.6 139.9"/><path class="s37" d="M794 403.8v7.5l-15.9 9.1V413z"/><path fill-rule="evenodd" class="s91" d="m774.6 406.4 22.9-13.2v19.5c0 2.8-1.9 6.3-4.4 7.7l-14 8.1c-2.5 1.4-4.5.3-4.5-2.5zm19.4 4.8v-7.4l-15.8 9.1v7.4z"/><path class="s91" d="M802.2 387.8c1.7-1 3.1-.2 3.1 1.8v6.9c0 2-1.3 4.3-3 5.3l-4.8 2.8v-11.4l-22.9 13.2v11.4l-4.8 2.8c-1.7.9-3.1.1-3.1-1.8v-6.9c0-2 1.4-4.4 3.1-5.3z"/><path class="s37" d="m923.1 319 .1 7.4-15.9 9.2v-7.4z"/><path fill-rule="evenodd" class="s91" d="m903.7 321.6 23-13.2v19.5c0 2.8-1.9 6.2-4.4 7.7l-14.1 8.1c-2.4 1.4-4.4.2-4.4-2.6zm19.4 4.9V319l-15.8 9.2v7.4z"/><path class="s91" d="M931.4 303c1.7-1 3.1-.2 3.1 1.7v7c0 1.9-1.3 4.3-3 5.3l-4.8 2.7v-11.3l-23 13.2.1 11.4-4.8 2.7c-1.7 1-3.1.2-3.1-1.7v-7c0-1.9 1.4-4.3 3.1-5.3z"/><path fill-rule="evenodd" d="M738.2 445.5v12.3q-.1.1-.1.2v.5l-.1.1v.4q0 .1-.1.1v.2q0 .1-.1.2v.2q-.1.2-.1.4-.1 0-.1.1l-.2.6-.4.6v.1q-.2.2-.3.4l-.1.1-.4.4-.4.4q-.1 0-.1.1-.2.1-.5.3l-5.6 3.2h.1c-1.9 1.1-4.4 1-7.3-.7l-31.8-18.3c-5.6-3.3-10.1-11.1-10.1-17.5v-11.2c.1-3.2 1.2-5.5 3-6.5l5.6-3.3.4-.2h.1q.1-.1.3-.1.1-.1.2-.1h.1q.2-.1.3-.1h.2q.2-.1.5-.1h1.5q.1 0 .3.1h.2q.1 0 .2.1h.3q.1 0 .2.1h.1q.1 0 .2.1h.2l.4.2.4.2q.1 0 .2.1.1 0 .2.1h.1q.1.1.2.1l.1.1q.2.1.3.1l31.8 18.4q.1 0 .1.1l.4.2h.1q.2.2.4.3l.2.2q.1 0 .2.1l.1.1q.1.1.2.1l.2.2.1.1q.1 0 .2.1l.1.1.1.1q.2.1.3.2 0 .1.1.1 0 .1.1.2l.2.2h.1l.2.2.2.2v.1l.2.2q.1.1.2.1 0 .1.1.1.1.1.2.3.1 0 .1.1h.1q.2.3.3.5h.1v.1q.2.2.3.4h.1l1 1.4v.1h.1q.3.6.6 1.1.1 0 .1.1.2.4.5.8v.1q0 .1.1.2.1.2.2.3v.1l.2.4v.1h.1q.1.3.2.5v.1l.1.1q0 .2.1.3v.1q.1.1.1.2.1.1.1.2t.1.2v.2q.1 0 .1.1.1.2.1.4v.1h.1q0 .3.1.5v.1q.1.1.1.2t.1.3v.1q0 .1.1.2v.2q0 .1.1.2v.3q.1.2.1.3v.3q.1.2.1.4v.1q.1.2.1.5v.2q.1.1.1.3zm-53.3-33.9h.1zm0 0q0 .1-.1.1.1 0 .1-.1m1.2-.1h.1zm.4 0h.2zm1 .1q0 .1.1.1-.1 0-.1-.1m.6.2q-.1 0-.1-.1 0 .1.1.1m.9.3h.2zm.5.2h.1zm-2.3-.7h-.2zm45.4 49.1q0 .2-.1.3.1-.1.1-.3m-.1.6v.2zm-.1.6v.1zm-.1.5v.1zm-.1.5v.1zm-.1.4q-.1.1-.1.2 0-.1.1-.2m-47.6-51.5.1-.1q-.1.1-.2.1zm4.1.1h-.1zm1.5.7-.1-.1zm42.5 47.9v-.6z" fill="url(#g45)"/><path d="m702.5 436.8-10.7 13.8c-4.3 5.5-10.9 8.6-17.8 8.4l-18.6-.6" fill="none" stroke="url(#g46)" stroke-linecap="round" stroke-linejoin="round" stroke-width="6"/><path d="m980.4 73-3.5 13.5s16.9-2.1 16.3-2.4c-.6-.4-11.4-2.3-11.4-2.9 0-.5-1.4-8.2-1.4-8.2" fill="url(#g47)"/><path d="m976.9 86.5 4.9-5.3 11.4 2.9z" fill="url(#g48)"/><path d="m987.7 65.4-3.6 13.5s16.9-2.1 16.4-2.4c-.6-.4-11.5-2.3-11.5-2.9 0-.5-1.3-8.2-1.3-8.2" fill="url(#g49)"/><path d="m984.1 78.9 4.9-5.3 11.5 2.9z" fill="url(#g50)"/><path d="M1728.1-324.2h-74.3v-74.3h74.3z" fill="#208ae2"/><path d="m1159.9 278.1 3.7 8.4s34.7-11.5 35.5-48.1c0 0-4 15.7-39.2 39.7" fill="url(#g51)"/><path d="M585.2 670.1c1.4 1.1 2.2 1.5 2.2 1.5z" fill="url(#g53)"/><path d="m97.8 650.2 43.2-18.9" fill="url(#g55)"/><path d="M1185.1 266.5c-1.4-2.1-4.2-2.6-6.3-1.2-220.7 150.6-495.7 311.5-610.1 377.4-1.5.8-2.4 2.5-2.3 4.2.3 3.3 3.9 5.2 6.8 3.6 114.5-65.9 389.7-227 610.7-377.7 2.1-1.4 2.6-4.2 1.2-6.3" fill="url(#g56)"/><path d="M796.3 433.5c0 2.6 1.8 3.6 4 2.3s4-4.4 4-6.9c0-2.6-1.8-3.6-4-2.3s-4 4.4-4 6.9" fill="url(#g57)"/><path fill-rule="evenodd" d="M467.2 1339.2v12.2q0 .1-.1.2v.5q0 .1-.1.2v.4l-.1.1v.1q0 .1-.1.3v.2q-.1.2-.1.3t-.1.1v.1q-.1.3-.2.5v.1l-.4.6q-.2.3-.3.5-.1 0-.1.1l-.4.4-.4.4h-.1q-.2.2-.4.3l-5.7 3.3h.1c-1.9 1.1-4.4.9-7.3-.7l-31.8-18.4c-5.6-3.2-10.1-11.1-10.1-17.5l.1-11.2c0-3.2 1.1-5.4 2.9-6.5l5.6-3.2.4-.2q.1 0 .1-.1.2 0 .3-.1h.2q.1-.1.2-.1t.2-.1h.2q.2 0 .5-.1h1.3q.1.1.2.1h.4q.1 0 .1.1h.3q.1.1.2.1h.3q.1.1.2.1l.1.1h.1q.2.1.4.1l.4.2q.1.1.2.1.1.1.2.1t.1.1q.1 0 .2.1h.1q.2.1.3.2l31.8 18.4h.1q.2.1.4.3h.1q.2.1.4.3.1 0 .2.1l.2.2h.1l.2.2q.1 0 .2.1 0 .1.1.1l.2.2q.1 0 .1.1.1 0 .2.1l.2.2.1.1q.1 0 .1.1l.2.2q.1 0 .1.1l.2.2q.1 0 .2.1 0 .1.1.1 0 .1.1.2l.2.2h.1q.1.2.2.3t.1.2h.1l.4.4v.1q.2.2.3.4.1 0 .1.1.5.6 1 1.3v.1l.1.1q.3.5.6 1.1h.1v.1q.3.4.5.8.1.1.1.3.1.1.2.3l.2.4q0 .1.1.1v.1q.1.2.2.5 0 .1.1.2 0 .1.1.2 0 .1.1.2v.2l.1.1q0 .2.1.3 0 .1.1.2.1.3.1.5h.1q0 .3.1.6.1.1.1.2 0 .2.1.3v.1q0 .1.1.2v.2q0 .1.1.2v.2q0 .1.1.2v.4q0 .1.1.1v.5q.1.3.1.5v.2q.1.2.1.3zm-53.3-33.9h.1zm0 0h-.1zm1.2-.1h.1zm.5 0h.1zm.9.1h.1zm.5.1h.1zm1 .3q.1.1.2.1-.1-.1-.2-.1m.5.2.1.1zm-2.5-.7h.2zm45.6 49.2v.3zm-.1.6v.2zm-.1.5v.2zm-.1.5v.2zm-.1.5v.2zm-.1.5-.1.1zm-.7 1.3v.1zm-.7 1q-.1 0-.1.1v-.1zm-46.2-53.9h.1zm4.1.2q-.1 0-.1-.1 0 .1.1.1m44 48.5v-.5z" fill="url(#g58)"/><path d="M973.1 1084.7c-7.9-4.5-15.8-7.9-23.3-10.5-15.3-5.4-32.2-4.2-46.7 3.1l-.2.1-7.2 3.6c-14.9 7.6-24.6 10-30.8 10h-.3c-12.7 3.4-24.8 6.5-37.5 9.9l-6.5 2.1 131.1 89.1c4.3-3.9 8.8-8.3 13.6-13.3l161.1 105.9 144.3 16.1c-78.2-98.4-297.6-216.1-297.6-216.1" fill="url(#g59)"/><path d="M749.8 1087.9c0-3.5-2.1-7.5-4.9-9.9h-.1q-.7-.6-1.4-1c-1.7-1-3.1-1.1-4.3-.6 0 0-151.1 59.3-237 139.7-2 1.8-2.2 4.8-.5 7l.8 1s178.5-121.5 244.5-131.7v-.1q1.1-.2 1.9-1.1.6-.7.8-1.9.1-.3.1-.6v-.5q0-.1.1-.2z" fill="url(#g60)"/><path class="s0" d="M389.2 1877.8s-33.1-1-87.8-18.2c-69.4-21.7-119.4-50.3-143.7-64.6-24.2-14.3-93.2-68.3-99-79.2s1-32.3 1-32.3L360.3 1823l11.8 41.6z"/><path class="s1" d="m139.7 1712.2-8.5-5 23.1-13.3 8.5 4.9z"/><g clip-path="url(#cp5)"><path class="s2" d="m109.1 1738.9-8.5-4.9q1.2-1.5 2.5-3l8.5 5q-1.3 1.4-2.5 2.9"/><path class="s3" d="m111.6 1736-8.5-5q3.3-3.8 6.9-7.3l8.5 4.9q-3.5 3.5-6.9 7.4"/><path class="s4" d="m118.5 1728.6-8.5-4.9c6.7-6.7 13.9-12.3 21.2-16.5l8.5 5c-7.3 4.2-14.4 9.7-21.2 16.4"/></g><path class="s5" d="m85.5 1767.7-8.5-5 23.6-28.7 8.5 4.9z"/><g clip-path="url(#cp6)"><path class="s6" d="m83.1 1788.6-8.5-4.9c-2-1.1-3.2-3.5-3.2-6.9q0-1 .2-2.1l8.5 4.9q-.2 1.1-.2 2.1c0 3.4 1.2 5.8 3.2 6.9"/><path class="s7" d="m80.1 1779.6-8.5-4.9q.1-.8.2-1.5l8.5 4.9q-.1.8-.2 1.5"/><path class="s8" d="m80.3 1778.1-8.5-4.9q.2-.7.3-1.3l8.5 5q-.1.6-.3 1.2"/><path class="s9" d="m80.6 1776.9-8.5-5q.2-.5.4-1.1l8.5 5q-.2.5-.4 1.1"/><path class="s10" d="m81 1775.8-8.5-5q.1-.5.3-1l8.5 5q-.2.5-.3 1"/><path class="s11" d="m81.3 1774.8-8.5-5 .4-1 8.5 5z"/><path class="s12" d="m81.7 1773.8-8.5-5q.2-.4.5-.9l8.5 5q-.3.4-.5.9"/><path class="s13" d="m82.2 1772.9-8.5-5q.2-.4.4-.9l8.5 4.9z"/><path class="s14" d="m82.6 1771.9-8.5-4.9q.3-.5.5-.9l8.5 4.9q-.2.5-.5.9"/><path class="s15" d="m83.1 1771-8.5-4.9q.3-.5.6-.9l8.5 4.9q-.3.5-.6.9"/><path class="s16" d="m83.7 1770.1-8.5-4.9q.3-.5.6-.9l8.5 4.9q-.3.5-.6.9"/><path class="s17" d="m84.3 1769.2-8.5-4.9q.3-.5.7-1l8.5 4.9q-.4.5-.7 1"/><path class="s2" d="m85 1768.2-8.5-4.9q.2-.3.5-.6l8.5 5z"/></g><path class="s0" d="m162.8 1698.8.1 47.4-72.2 41.7c-5.9 3.4-10.7.7-10.8-6.2 0-4.5 2.1-9.9 5.6-14l23.6-28.8c9.4-11.3 19.9-20.5 30.6-26.7z"/><path class="s18" d="m193.8 1793.1-.2 41-91.4-52.8.1-41z"/><path class="s1" d="m245.3 1777-8.5-5 23.1-13.3 8.5 4.9z"/><g clip-path="url(#cp7)"><path class="s2" d="m214.7 1803.7-8.5-5q1.2-1.4 2.5-2.9l8.5 5q-1.2 1.4-2.5 2.9"/><path class="s3" d="m217.2 1800.8-8.5-5q3.4-3.9 6.9-7.3l8.5 4.9q-3.5 3.5-6.9 7.4"/><path class="s4" d="m224.1 1793.4-8.5-4.9c6.8-6.7 13.9-12.3 21.2-16.5l8.5 5c-7.3 4.1-14.4 9.7-21.2 16.4"/></g><path class="s5" d="m191.1 1832.4-8.5-4.9 23.6-28.8 8.5 5z"/><g clip-path="url(#cp8)"><path class="s6" d="m188.7 1853.4-8.5-4.9c-2-1.2-3.2-3.6-3.2-7q0-1 .2-2l8.5 4.9q-.2 1.1-.2 2.1c.1 3.4 1.3 5.8 3.2 6.9"/><path class="s7" d="m185.7 1844.4-8.5-4.9.2-1.6 8.5 5q-.1.7-.2 1.5"/><path class="s8" d="m185.9 1842.9-8.5-5q.2-.6.3-1.2l8.6 4.9q-.2.7-.4 1.3"/><path class="s9" d="m186.3 1841.6-8.6-4.9q.2-.6.4-1.1l8.5 4.9q-.2.6-.3 1.1"/><path class="s10" d="m186.6 1840.5-8.5-4.9q.1-.5.3-1l8.6 4.9z"/><path class="s11" d="m187 1839.5-8.6-4.9.4-1 8.5 5q-.2.4-.3.9"/><path class="s12" d="m187.3 1838.6-8.5-5q.2-.5.5-.9l8.5 4.9q-.2.5-.5 1"/><path class="s13" d="m187.8 1837.6-8.5-4.9q.2-.5.4-.9l8.5 4.9q-.2.5-.4.9"/><path class="s14" d="m188.2 1836.7-8.5-4.9q.3-.5.5-.9l8.5 4.9q-.2.5-.5.9"/><path class="s15" d="m188.7 1835.8-8.5-4.9q.3-.5.6-.9l8.5 4.9q-.3.5-.6.9"/><path class="s16" d="m189.3 1834.9-8.5-4.9.6-1 8.5 5q-.3.4-.6.9"/><path class="s17" d="m189.9 1834-8.5-5q.4-.5.7-.9l8.5 4.9q-.3.5-.7 1"/><path class="s2" d="m190.6 1833-8.5-4.9q.2-.3.5-.6l8.5 4.9q-.3.3-.5.6"/></g><path class="s0" d="m268.4 1763.6.1 47.4-72.1 41.7c-6 3.4-10.8.6-10.9-6.2 0-4.5 2.2-9.9 5.6-14.1l23.6-28.7c9.4-11.4 19.9-20.6 30.6-26.7z"/><path d="M146.2 1667.6c0 40.5 28.6 56.8 63.9 36.4 35.3-20.3 76.5-72.7 76.5-113.2s-28.6-56.8-63.9-36.5c-35.3 20.4-76.5 72.8-76.5 113.3" fill="#332006"/><path d="M168.6 1654.6c0 26.3 18.6 36.9 41.5 23.7s54-48.3 54-74.6c0-26.2-18.5-36.8-41.4-23.6s-54.1 48.3-54.1 74.5" fill="#9daca7"/><path d="M172.1 1647.8c0 22.2 15.7 31.2 35.1 20s47.8-41.4 47.8-63.7c0-22.2-15.8-31.2-35.2-20s-47.7 41.4-47.7 63.7" fill="#81788b"/><path d="M189.5 1642.6c0 13 9.2 18.2 20.6 11.7 11.3-6.6 33.1-25.5 33.1-38.5s-9.2-18.3-20.5-11.7c-11.3 6.5-33.2 25.5-33.2 38.5" fill="#9faea9"/><path class="s46" d="m661.6 1213.3-.1.1c-17.5 14.8-37.5 30.5-57 43.3-39.8 26.1-124.6 73.3-160.5 93-3 4.5-5.4 9.5-7.7 14.4-23.3 50-47.1 103.1-41.5 157.9.9 8.5 2.6 17.1 5.3 25.2l141.7-84.3 166.1-98.9s3.9-18.6 16.8-62.2c11-36.9 37-57 54.6-68.2.5-21.5 2.8-43 2.5-64.5-.2-13.3-1.6-26.6-3.9-39.7l-61 35.2c-4.8 3.4-27 24.9-55.3 48.7"/><path d="m358.9 1744.1-7.5 112.8-182.8-82.1-107.4-84-5.1-2.9-5.6-9c-2.9-7.5-4.1-16-4.1-16l.4-50.3 85.8 36.2z" fill="url(#g61)"/><path d="m90.6 1644.8-1.6-14.3-42.2-17.9v1.7-1.6s-14.4 26.8-2.5 44.4l2.2-2.4-.1 8.2s1.2 8.5 4.1 16l5.6 9 5.1 2.9 27.1 21.2c6-34.4 2.3-67.2 2.3-67.2" fill="url(#g62)"/><path d="m356 1787.8-28-28.5-38.4.2s-23.1 20.9-42.7 51.1l80.2 36.7c12.2-2.4 20.5-4.6 20.6-6 .3-3.1 4-20.2 7-33.7z" fill="url(#g63)"/><path d="M88.5 1639.2s-1.6 15.1-2 18.2c-.8 6.5 1 13.1 4.8 18.5l59.1 83.8 131.1 18.7s15.2-4.8 15.3-19z" fill="url(#g64)"/><path d="M151 1702c-.6-1.9-2.2-7.1-6.6-16.6l-55.9-46.2s-1.6 15.1-2 18.2c-.8 6.5 1 13.1 4.8 18.5l59.1 83.8 10.3-24.2s-8.6-29.6-9.7-33.5" fill="url(#g65)"/><path class="s46" d="m386.2 1455.4 1 10.9c1 10.9 8.2 49.8 8.2 49.8l8.5 15.6 254.5-152.6c14.1-22.9 14.1-91.4 14.1-91.4l-6.9-66-4-8.4-.1.1c-17.5 14.8-37.4 30.5-57 43.3-51.2 33.5-177.1 102.1-177.1 102.1l-7.1 9.8-21.7 13.2z"/><path d="M828.7 1110.1c-38.3 19.5-4.9-7.1-4.9-7.1l-106.9 61.7c-4.8 3.3-27 24.8-55.3 48.6l-.1.1c-17.5 14.8-37.4 30.5-57 43.3-51.2 33.5-177.1 102.1-177.1 102.1s1.8-2.1 4.2-6.3c-4.7 10.8-11.3 16.1-11.3 16.1l-27.6 15s21.1-6.2 34.2-14.9 80.1-44.3 93.1-52.1c13.1-7.7 78.8-45.4 99-60.8l15.3-11.8 80.5-60.3 116.9-75.6c-2.5 1.2-.7.7-3 2" fill="url(#g66)"/><path class="s48" d="m723 1176-33.8 13.3-49.1 145.8 247.4 143.1 124.6-143.1-140-89.6z"/><path class="s49" d="M640.1 1335.1s-121.6 59.3-110.8 75.8 274.6 163.5 274.6 163.5 92.8-8 117.1-39.7c24.3-31.6-33.5-67.3-33.5-67.3z"/><path class="s50" d="M602.3 1269.9s17.2-50.6 60.6-25.1 76.4 35 68.9 56.1-46.7 154.2-46.7 154.2l-118.4-45.9-9.3-21.3z"/><path class="s51" d="M582.2 1273.3s17.2-50.6 60.6-25.1 76.4 35 68.9 56.1c-7.6 21-46.7 154.2-46.7 154.2l-118.4-46-9.3-21.2z"/><path class="s52" d="M765 1351.7 597.1 1446l39.7 27.2 166.5-97.5z"/><path class="s46" d="m844.2 1315.8-11.2 33-33.6 74.4-129.9 68.2-3.5-35.2 137.3-80.5z"/><path class="s53" d="m765 1351.7 41.3-58.5 37.9 22.6-40.9 59.9z"/><path class="s50" d="M765.5 1360.3s17.2-50.7 60.6-25.2 76.5 35.1 68.9 56.1c-7.5 21.1-46.7 154.2-46.7 154.2L730 1499.5l-9.4-21.3z"/><path class="s51" d="M745.4 1363.7s17.2-50.7 60.6-25.2 76.4 35.1 68.9 56.1c-7.5 21.1-46.7 154.2-46.7 154.2l-118.4-45.9-9.3-21.3z"/><path fill-rule="evenodd" class="s50" d="M668.3 1406.2c25 8.1 49.2 32.9 53.9 55.1 4.7 22.3-11.8 33.8-36.8 25.6-25-8.1-49.1-32.8-53.8-55.1s11.7-33.7 36.7-25.6m-31 29.1c4.1 19.1 24.9 40.4 46.3 47.4 21.5 7 35.7-2.9 31.7-22-1.2-5.7-4.1-11.6-7.8-17.3l-34.4 9.9-14.4-42c-15.5-1.2-24.7 8.1-21.4 24m31.6-22.1c-1.5-.5-2.9-.7-4.4-1l11.9 34.7 27.9-8c-9-11.4-22-21.3-35.4-25.7"/><path class="s52" d="M432.3 1351.2s23.5-8.6 34.3-1.6c10.8 7.1 96.2 60.2 119.1 77.4 8.9 6.7 33.8-4.7 60.3 7.2 42.2 18.9 97.3 55 97.3 55l12.4 21.8-48.5 29.2-41.1-5.5-226.8-126.3-22.2-32.6"/><path class="s54" d="M788.2 1390.8c-35.9 60.3-84.1 143.5-84.1 143.5s-26.1-9.5-63.8-26.4c-26-11.7-57.5-26.9-89.7-45-14-7.7-28-16.1-41.8-24.8-22.7-14.5-44.8-30.2-64.4-46.9q-11.85-10.05-22.5-20.7c-2.5-2.4 7.9-15.4 7.9-15.4s67.4-114.9 80.5-125.3c0 0 26.2 18 56.5 38.4 19.6 13.2 39 26.2 50.1 33.2 5.5 3.4 11.3 7 17.3 10.5 13.4 7.9 28 16 42.8 23.9 33.9 18 68.4 34.8 89.8 44.9 13.2 6.3 21.4 10.1 21.4 10.1"/><path d="m1161.1 1422.8-31.9-19.6-143.6 119.2-377.3 247-43.8-24.5-132.7 107-23-65.5 194.9-121.5 532.8-323.8s44.2 13.1 51.1 26.2c7.2 13.3-26.5 55.5-26.5 55.5"/><path class="s0" d="M982.4 1484.1c0 20.2 7.1 34.3 18.6 41 5.6 3.2 45.3 23.7 45.3 23.7 7.8-.6-9.1-23 0-28.3 35.3-20.3 63.9-69.7 63.9-110.2s-28.6-56.8-63.9-36.4-63.9 69.7-63.9 110.2"/><path class="s19" d="M1023.8 1506c0 40.5 28.7 56.8 63.9 36.4 35.3-20.4 63.9-69.7 63.9-110.2s-28.6-56.8-63.9-36.4c-35.2 20.4-63.9 69.7-63.9 110.2"/><path d="M1046.3 1493c0 26.3 18.5 36.9 41.4 23.7s41.5-45.3 41.5-71.5c0-26.3-18.6-36.9-41.5-23.7-22.9 13.3-41.4 45.3-41.4 71.5" fill="url(#g67)"/><path class="s21" d="M1049.7 1486.2c0 22.2 15.8 31.2 35.2 20s35.1-38.3 35.1-60.6-15.7-31.2-35.1-20-35.2 38.3-35.2 60.6"/><path class="s22" d="M1067.2 1481c0 13 9.2 18.2 20.5 11.7 11.4-6.6 20.6-22.4 20.6-35.4 0-13.1-9.2-18.3-20.6-11.8-11.3 6.6-20.5 22.5-20.5 35.5"/><path class="s23" d="M1106.1 1459.8c0 10.7-7.9 24.4-17.3 29.8-2.4 1.4-4.8 2.1-6.9 2.1-4 0-6.7-3-7.1-8.3-.1-.6-.1-1.2-.1-1.9 0-10.7 7.9-24.4 17.3-29.8 2.4-1.4 4.8-2.1 6.9-2.1 4.1 0 6.7 3.1 7.1 8.4v.1q.1.8.1 1.7"/><path class="s24" d="M1106 1458.7v.1c-2.5 8.5-9.9 17.5-18.5 21.5-2.7 1.3-5.4 2-7.7 2q-1.3 0-2.4-.3-.1-.8-.1-1.7c0-9.9 7.3-22.4 15.9-27.3 2.2-1.3 4.4-2 6.3-2 3.7 0 6.1 2.9 6.5 7.7"/><path d="M1119.3 1445s-11.4 18.8-10.1 13.8c1.8-7.1-5-26.7-23.4-13.7-21.5 15.1-20.6 41.1-20.6 41.1l-14.5-1.3s2.6-31.4 27.7-51.8c36.5-29.6 40.9 11.9 40.9 11.9" style="mix-blend-mode:screen" fill="url(#g68)"/><path class="s26" d="M1050.7 1493.5c0-26.3 13.2-53.8 36.1-67 10.8-6.3 24.2-10.5 31.6-7-7.6-5.2-18.5-5-30.7 2-22.9 13.3-41.4 45.3-41.4 71.5 0 13.9 5.2 23.3 13.4 27.2-6.7-4.5-9-14.4-9-26.7"/><path class="s0" d="M399.9 1816.2c0 20.1 19.7 31.2 31.2 37.9 5.6 3.2 45.3 23.7 45.3 23.7 7.9-.6-9.1-23 0-28.3 35.3-20.3 63.9-69.7 63.9-110.2 0-40.4-28.6-56.8-63.9-36.4s-76.5 72.8-76.5 113.3"/><path class="s19" d="M454 1835c0 40.5 28.6 56.8 63.9 36.4 35.2-20.3 63.8-69.7 63.8-110.2 0-40.4-28.6-56.8-63.8-36.4-35.3 20.4-63.9 69.7-63.9 110.2"/><path d="m788.2 1391.2 11.5-6.6-83.8 145.2s-17.7 21.6-20.8 19.8l16.8-30.3z" fill="url(#g69)"/><path class="s58" d="m1253.8 1339-89 59.3c.9 13.1-3.7 24.5-3.7 24.5l15-10.9c13.1-9.5 59.2-44.5 77.7-72.9m-645.5 430.4 394.8-234.9s3.1-14.9 13-49.3l-49.7 31.2s-23 30.6-119.3 87.2c-48.9 28.8-110.7 58.1-165.4 89-32.4 18.3-63.6 36.5-92.2 53.5q1 1.8 2 3.5c8.6 15.5 16.8 19.8 16.8 19.8"/><path class="s59" d="m612.9 1755.9-8 4.8s-8.1-4.4-16.8-19.8-18.9-39.2-53.1-24.1c-34.2 15-69.5 36.5-82.6 55-13 18.6-17.2 36.9-15.7 46.7.4 2.5 3 7.7 3.7 10.6-.1-.6-.9-7.8-1-8.3-1.5-9.9 1.4-24 14.5-42.6 13-18.5 48.4-40 82.5-55 34.2-15.1 44.5 8.7 53.1 24.1 8.7 15.4 16.9 19.8 16.9 19.8l2.7-1.6c.8-3.4 2-6.6 3.8-9.6"/><path class="s60" d="m614.9 1758.3-8 4.7s-8.2-4.3-16.8-19.8c-8.7-15.4-19-39.1-53.1-24.1-34.2 15.1-69.6 36.5-82.6 55.1-13.1 18.5-17.2 36.8-15.7 46.7.4 2.5 1 5.3 1.7 8.2q-.1-1-.3-1.8c-1.5-9.9 2.6-28.2 15.7-46.7 13.1-18.6 48.4-40 82.6-55.1 34.2-15 44.4 8.7 53.1 24.1 8.6 15.5 16.8 19.8 16.8 19.8l2.7-1.6c.8-3.3 2.1-6.6 3.9-9.5"/><path class="s59" d="M1156.2 1372c-.4-.8-.9-1.6-1.4-2.4-13.4-18.5-58.8 10.6-75 20.3s-50.3 30-63.3 73.6c-10.3 35-14.9 53.9-16.3 60q.2 0 .4-.1c.8 0 1.7 0 2.6.1 2.3-9.4 6.8-26.7 14.8-53.6 12.9-43.6 47-63.9 63.2-73.6 15.2-9.2 56.3-35.4 72.3-23 .5-1 1.7-1.4 2.7-1.3"/><path class="s60" d="M1156.7 1372c-13.4-18.5-58.8 10.5-75 20.2s-50.3 30-63.2 73.7c-10.4 35-14.9 53.8-16.3 59.9h.3c.9-.1 1.7 0 2.6 0 2.3-9.3 6.9-26.7 14.8-53.5 12.9-43.7 47.1-64 63.3-73.7 16.1-9.7 61.6-38.7 74.9-20.2 2.3 3.1 3.9 6.5 4.9 9.9-.7-5.5-2.6-11.2-6.3-16.3"/><path d="m1006.6 1520.1-405.4 243.2 7.1 6.1 394.8-234.9z" fill="#382d21"/><path d="M412.5 1797v6.9l-43.6 26.9v-6.6z" fill="#a92c06"/><path fill-rule="evenodd" d="M1271.5 1308.4s-1.8 15-31.3 47.9c-29.8 33.2-49.1 44.7-64.1 55.6-13 9.5-14.7 10.7-15 10.9.5-1.3 10.1-26.4-3-44.4-8.7-12.1-31-4-49.9 5.9-10.2 5.2-19.4 10.9-25 14.3-16.2 9.8-50.4 30-63.3 73.7-12.9 43.5-16.8 62.1-16.8 62.2l-96.7 57.5-170.6 101.6-127.5 75.8s-8.2-4.4-16.8-19.8c-4.9-8.7-10.4-20.1-20.3-25.6-7.7-4.3-18-5-32.8 1.5-34.2 15.1-69.5 36.5-82.6 55.1s-17.2 36.8-15.7 46.7c1.5 9.8 1.6 26.7 1.6 26.7s-35.6 24.8-53.7 23.8c-18.1-.9-29.6-13-36.7-19.4-7.2-6.3-9.7-25-9.7-25.1l.3-43.5c0-4.1-2.3-7.7-6.1-9.4-25.4-11.4-123.2-55.4-157-75.2-34.8-20.3-131.9-92.5-132-92.5 0-.1 48.2-43.2 90-76.4 11.5-9.2 22.4-17.5 31.8-24.1 38.9-27.1 186.3-105.6 224.1-128.7h.1l5.8-1.7 23.3-10.8q7.7 7.6 16 14.9c57.6 51.3 139.2 93.6 196.8 119.8 40.6 18.5 69.3 29 69.3 29l2.3 1.1 6.5-3.1 3.1-2.9 75-130 8.8-15.2 10.1-3.5c-.1.3-5.8 10.6-14 25.7-20.5 37.8-57.4 105.2-64.2 116-.9 1.3-2.2 2.5-3.5 3.5 8.6-4.8 26.6-14.6 48.3-26.7 40.6-22.8 94.1-53.3 123.3-72.4 16.6-10.9 33.4-23.9 48.9-36.6 2.7-2.2 5.4-4.5 8.1-6.7v-.1c28.4-23.9 50.5-45.3 55.4-48.7l106.8-61.7c.1.1 1.6 5.6 11.3 5.4 6.3 0 16-2.4 30.9-10 2.3-1.2 4.8-2.4 7.2-3.6l.2-.1c14.6-7.4 31.6-8.5 47.1-3 10.8 3.8 22.5 9.3 33.7 17.5 6.7 4.9 13.2 10.7 19.2 17.7 2.6 3 3.7 7 3.1 11zm-817 390.1c-3.6 2.3-6.8 4.5-9.7 6.4l-1 .6q4.7-3.1 10.7-7" fill="url(#g70)"/><path fill-rule="evenodd" d="m1271.6 1308.3-.1.1s-1.8 15-31.3 47.9c-29.8 33.2-49.1 44.7-64.1 55.6-13 9.5-14.7 10.7-15 10.9l-158 111.7-96.7 57.5-170.6 101.6-127.5 75.8s-8.2-4.4-16.8-19.8c-4.9-8.7-10.4-20.1-20.3-25.6-7.7-4.3-18-5-32.8 1.5-34.2 15.1-69.5 36.5-82.6 55.1s-17.2 36.8-15.7 46.7c1.5 9.8 1.6 26.7 1.6 26.7s-35.6 24.8-53.7 23.8c-18.1-.9-29.6-13-36.7-19.4-7.2-6.3-9.7-25-9.7-25.1l.1-10.8 668.7-404.7 15.5-24.2c18.2-28.4 43.9-51.1 74.4-65.6 46.9-22.4 117.9-47.4 170.5-26.8.9 2.2 1.2 4.7.8 7.1m-110.5 114.4c.2-.5 1.1-2.9 2-6.4-1.1 3.6-1.8 6-2 6.4" fill="url(#g71)"/><path class="s72" d="M434.5 1371c-2.5-2.5 7.9-15.4 7.9-15.4s56.4-94.5 75.7-120c-4.9-3.4-7.8-5.3-7.8-5.3-13.1 10.3-80.5 125.3-80.5 125.3s-10.3 12.9-7.9 15.4c95 95.3 282.1 163.7 282.1 163.7s.9-1.4 2.3-3.9c-40.4-15.8-190.1-77.9-271.8-159.8"/><path fill-rule="evenodd" d="M788.2 1391.2c-35.9 60.3-84.2 143.5-84.2 143.5s-187.1-68.4-282.1-163.7c-2.4-2.5 7.9-15.4 7.9-15.4s67.4-115 80.5-125.3c0 0 78.5 53.6 106.6 71.5 62.1 39.3 171.3 89.4 171.3 89.4m-6.5-.3s-105.3-48.3-165.2-86.3c-27.2-17.2-102.7-68.9-102.7-68.9-12.6 10-77.8 120.8-77.8 120.8s-9.9 12.4-7.5 14.8c91.6 92 272 158 272 158s46.6-80.3 81.2-138.4" fill="url(#g72)"/><path d="M341.8 1857.6c-16.9 0-32.9-2-48.7-5.9-41.5-10.3-82.1-33.7-138.2-66l-2.9-1.7c-76.9-44.4-108.3-87.1-120.6-110.4-4.9-9.5-.7-21.1 9.1-25.2l5.8 1.7c-1.7 1.2 3.5 13.7 19.5 34.3 27 34.8 68 62.5 97.7 79.7l2.9 1.6c54.5 31.5 93.8 54.2 132.2 63.7 38.8 9.6 77.7 6.3 134.3-11.1 6.1-1.9 12.5 1.5 14.4 7.6 1.8 6.1-1.6 12.5-7.6 14.4-37.8 11.6-69.2 17.3-97.9 17.3" fill="url(#g73)"/><path d="M432.9 1818.3c-56.6 17.4-95.5 20.7-134.3 11.1-38.4-9.5-77.7-32.2-132.2-63.7l-2.9-1.6c-29.7-17.2-70.7-44.9-97.7-79.7-16-20.6-21.2-33.1-19.5-34.3l-5.8-1.7q-1.1.5-2.1 1.1c-1.3 4.3-1 9.1 1.3 13.4 12.3 23.3 43.6 66 120.6 110.4l2.9 1.7c56.1 32.4 96.7 55.8 138.2 66 15.8 3.9 31.8 5.9 48.7 5.9 28.6 0 59.9-5.6 97.7-17.2q0-1.9-.5-3.8c-1.9-6.1-8.3-9.5-14.4-7.6" fill="url(#g74)"/><path fill-rule="evenodd" d="M707.2 1540.2s-278.7 162.9-365.3 249.6c0-4.1-2.3-7.7-6.1-9.4-8.7-3.9-25.9-11.6-46.2-20.9l-8.5-75.5 118.8-87.5 244.4-86.4c14.3 6.3 26.7 11.5 36.5 15.5zm-252.7 158.4c-3.5 2.3-6.8 4.4-9.7 6.4l-1 .6q4.8-3.1 10.7-7" fill="url(#g75)"/><path class="s74" d="M788.2 1391.2s-125.7-59.3-171.3-89.4-106.6-71.5-106.6-71.5l-1.7-13.3 291.1 167.6-8.2 11.7z"/><path class="s75" d="M508.6 1217s83.9 58.2 115.5 76.2c31.6 17.9 175.6 91.4 175.6 91.4l10.1-3.5-179.6-95.5-108.7-68.6z"/><path class="s76" d="m1118.9 1273.4-106.8 61.7-140-89.6L723 1176l111.7-67.9s114.2 53.3 150.4 74.5c34.9 20.3 133.8 90.8 133.8 90.8"/><path class="s52" d="m723 1176-33.8 13.3 156.6 74.5 140.6 94.1 25.7-22.8-140-89.6z"/><path class="s54" d="m1012.1 1335.1-48.1 42.3-7.3 6.4s-.6.8-2.1 2.5c-5.1 5.4-20.5 19.9-57 42.5q-2.7 1.8-5.6 3.5c-2.4 1.4-4.8 2.9-7.3 4.4-5.6 3.3-11.6 6.9-17.9 10.6-.1 0-.3.1-.4.2-20 11.8-42.6 25-63.7 37.3-7.6 4.4-15 8.8-22 12.9-30.1 17.5-52.9 30.7-52.9 30.7l78.3-140.6 1.3-2.3s6.6-4.4 15.9-10.7c15.2-10.1 37.7-25 52-33.7 4-2.5 8.2-4.9 12.5-7.2 4.4-2.6 8.9-5 13.4-7.3 2.8-1.5 5.6-2.9 8.3-4.3 3.1-1.6 13.2-6.4 15.9-8.1 18.4-12.3 56.2-34.6 56.2-34.6l11 20.1 1.9 3.4z"/><path d="m728.7 1084.7 295.1 170.5 95.1 18.2s-98.9-70.5-133.8-90.9c-38.9-22.6-161.3-79.5-161.3-79.5z" fill="url(#g76)"/><path class="s54" d="M1106.6 1264.7c5.1 3.6 0 0-5-3.5-31.8-22.4-92.9-64.9-116.5-78.7-29.6-17.2-107.8-54.4-143.3-71.1l-.2-.1c-29.5-4.6-87.2-13.8-87.2-13.8l259.1 150.8c46.2 0 93.1 16.4 93.1 16.4"/><path d="M728.7 1084.7s-20 .7-67 26.7c-47.1 26-116.8 68.8-139.5 89.5l-21.8 19.7v8s11.1 14 107.3 73.2c123.2 75.9 183.8 94.5 183.8 94.5l66.2-55.2 166.1-85.9s-104.6-70-141-91c-37.5-21.7-154.1-79.5-154.1-79.5" fill="url(#g77)"/><path d="m1118.9 1273.4-95.1-18.2s-19.9.6-66.9 26.7c-47.1 26-121 66-143.7 86.6s-25 22.7-25 22.7l3.3 5.1 24.5-16.6s73.1-44.9 98.3-59.2c26-14.9 67.3-40.9 67.3-40.9l30.5 55.5z" fill="url(#g78)"/><path d="m1009.6 1330.6-88.6 75.1-188.6 114.4-4.6 8.3 142.1-82.5 42.2-25.2 43.8-33.7c29.6-25.9 56.2-51.9 56.2-51.9z" fill="url(#g79)"/><path d="M476.4 1822.1c0 26.2 18.6 36.8 41.5 23.6s41.4-45.2 41.4-71.5-18.5-36.9-41.4-23.6c-22.9 13.2-41.5 45.2-41.5 71.5" fill="url(#g80)"/><path class="s21" d="M479.9 1815.2c0 22.2 15.7 31.2 35.1 20s35.1-38.3 35.1-60.6c0-22.2-15.7-31.2-35.1-20s-35.1 38.3-35.1 60.6"/><path class="s22" d="M497.3 1810c0 13 9.2 18.2 20.6 11.7 11.3-6.6 20.5-22.4 20.5-35.4s-9.2-18.3-20.5-11.7c-11.4 6.5-20.6 22.4-20.6 35.4"/><path class="s23" d="M536.3 1788.8c0 10.7-8 24.4-17.4 29.8-2.4 1.4-4.8 2.2-6.8 2.2-4.1 0-6.7-3.1-7.2-8.4-.1-.6-.1-1.2-.1-1.8 0-10.8 7.9-24.4 17.3-29.9 2.4-1.4 4.8-2.1 6.9-2.1 4.1 0 6.7 3.1 7.1 8.4v.1q.2.8.2 1.7"/><path class="s24" d="M536.1 1787.7v.1c-2.4 8.5-9.9 17.5-18.4 21.5-2.8 1.3-5.5 2-7.7 2q-1.4 0-2.4-.3-.1-.8-.1-1.7c0-9.8 7.2-22.3 15.8-27.3 2.2-1.3 4.4-2 6.3-2 3.8 0 6.1 2.9 6.5 7.7"/><path d="M549.4 1774s-11.4 18.9-10.1 13.8c1.8-7.1-4.9-26.7-23.3-13.7-21.6 15.1-20.6 41.1-20.6 41.1l-14.6-1.3s2.6-31.4 27.8-51.8c36.4-29.5 40.8 11.9 40.8 11.9" style="mix-blend-mode:screen" fill="url(#g81)"/><path class="s26" d="M480.8 1822.5c0-26.3 13.2-53.8 36.1-67 10.9-6.3 24.3-10.5 31.7-7-7.6-5.2-18.5-5-30.7 2.1-22.9 13.2-41.5 45.2-41.5 71.5 0 13.8 5.2 23.2 13.4 27.2-6.6-4.6-9-14.5-9-26.8"/><path d="M500.4 1220.6s62.6 47 133.8 87.9 154 82.7 154 82.7l3.3 5.1s-77.9-26.3-176.4-87.8c-99-62-114.7-79.8-114.7-79.8z" fill="url(#g82)"/><path d="M704 1534.7s-268.9 57.9-414.4 224.8l-128.9-24-70.1-90.7s147.8-177.5 329.7-276.2z" fill="url(#g83)"/><path d="M318.4 1779.7c9 2.3 18.6 11.6 20.8 20.8q.1.2.1.5c1.8 7.5-2.3 12.4-9.7 11.5l-55.9-6.6-1-.2c-5.6-1.4-11-8.5-9.3-12.6 4.5-11 15.3-16.7 29.8-15.6l22.3 1.7q1.4.1 2.9.5" fill="url(#g84)"/><path class="s34" d="M339.2 1800.5c-2.2-9.2-11.8-18.5-20.8-20.8q-1.5-.4-2.9-.5l-22.3-1.7c-7.3-.5-13.7.6-18.8 3.4q-1.1 1.8-1.9 3.8c-1.7 4.1 3.7 11.2 9.2 12.6q.5.1 1.1.2l55.8 6.6q.6.1 1.1.1 0-1.5-.4-3.2 0-.3-.1-.5"/><path d="M60 1626.4q.7.6 1.5 1.4l11.3 12.8c7.4 8.4 13 20 15.5 32 1 4.5-1.6 6.9-4.4 4.6q-.3-.3-.5-.6L55 1646.5c-3.7-4-5.9-10.6-5.2-15.8v-.3c.9-6.3 5.7-7.9 10.2-4" fill="url(#g85)"/><path class="s34" d="m72.8 1640.6-11.3-12.8q-.8-.8-1.5-1.4-.8-.7-1.6-1.2c-1.3 1-2.2 2.7-2.6 5.2v.3c-.7 5.2 1.4 11.8 5.2 15.8l27.4 29.1c.2-.8.2-1.8-.1-3-2.5-12-8.1-23.6-15.5-32"/><path d="m704 1534.7-161.6-94.6c-239.4 49.2-381.7 295.4-381.7 295.4l128.9 24C435.1 1592.6 704 1534.7 704 1534.7" fill="url(#g86)"/><path class="s36" d="M58 1633.2c0 4.9 3.4 10.9 7.6 13.3 4.3 2.5 7.8.5 7.8-4.4q0-.4-.1-.8-.2-.4-.5-.7l-11.3-12.7c-2.1.3-3.5 2.2-3.5 5.3"/><path class="s37" d="M82 1664.1c1.6.9 3.1 1.2 4.3 1-2.2-7-5.5-13.7-9.5-19.3-1.5.7-2.5 2.5-2.5 5 0 4.9 3.4 10.9 7.7 13.3m207.6 131.7c4.8 2.8 8.6.6 8.6-4.9 0-4.7-2.8-10.3-6.7-13.5q-5.4-.2-10 .9-.4 1.2-.4 2.7c-.1 5.5 3.8 12.1 8.5 14.8"/><path class="s36" d="M308.8 1778.7c-.8 1-1.3 2.5-1.3 4.4 0 5.4 3.8 12 8.6 14.8 4.7 2.7 8.6.5 8.6-4.9 0-4.7-2.8-10.1-6.5-13.4"/><path class="s37" d="m298.3 1814.4-1.5-4 37.5 5.8 4.1 10.8-38.6-8.6z"/><path d="m312 1820.8 2.4 6.3-15.2-4.5-2.4-6.3z" fill="url(#g87)"/><path d="m333.2 1818-3 3.7-18.2-.9-15.2-4.5 3-3.7z" fill="url(#g88)"/><path d="m333.2 1818 2.3 6.3-3 3.7-2.3-6.3z" fill="url(#g89)"/><path d="m330.2 1821.7 2.3 6.3-18.1-.9-2.4-6.3z" fill="url(#g90)"/><path class="s37" d="m48 1645.6.9-3.4 21.5 21.9-2.5 8.9-20.9-24.1z"/><path d="m53.8 1656.3-1.5 5.2-7.7-10.2 1.5-5.2z" fill="url(#g91)"/><path d="m68.8 1664.7-3.7 1-11.3-9.4-7.7-10.2 3.7-1z" fill="url(#g92)"/><path d="m68.8 1664.7-1.5 5.2-3.7 1 1.5-5.2z" fill="url(#g93)"/><path d="m65.1 1665.7-1.5 5.2-11.3-9.4 1.5-5.2z" fill="url(#g94)"/><path class="s70" d="M704 1534.7s-284.8 66.6-414.4 224.8m-199-114.7s188.5-211 330.9-275.1"/><path class="s70" d="m645.9 1551.2 14.6 7c7.3 3.6 12 11 12 19.2v152.7"/><path d="m150.4 1759.7-.7-1c-2.8 5.2-6.7 12.5-9.5 18.2l6.1 3.8s8.2-11.5 16.9-19.2z" fill="url(#g95)"/><path d="m150.4 1759.7-8.8-12.5c-.5 7.5-1.8 17.6-5 27.6l9.7 5.9s8.2-11.5 16.9-19.2z" fill="url(#g96)"/><path class="s0" d="M443.5 1412.3c.9 1.4-.7 4-3.5 5.7-2.8 1.8-5.8 2.1-6.7.7-.9-1.5.7-4 3.5-5.8s5.8-2 6.7-.6m98.9 62.7c.9 1.4-.7 4-3.5 5.8-2.8 1.7-5.8 2-6.7.6s.7-4 3.5-5.8c2.8-1.7 5.8-2 6.7-.6"/><path d="m893.7 1331.3-3.4 93 13.9-8.4-3-89.3z" fill="url(#g98)"/><path d="m1030.5 1256.5-42.8 20.3 27.6 51.6 97.4-56.2z" fill="url(#g99)"/><path d="M1038.8 1260.1c0-3.4-2-7.5-4.8-9.9h-.1q-.7-.6-1.4-1c-1.7-1-3.2-1.1-4.3-.6 0 0-154.7 60.6-240 142.6l3.3 5.1s178.4-121.5 244.5-131.7v-.1q1.1-.2 1.8-1.1h.1q.5-.7.8-1.9 0-.3.1-.6z" fill="url(#g101)"/><path class="s70" d="m899.7 1428.6-2.3 168.8m114.7-262.3v165.4m-149.5-376.9s68.9-40.5 119.8-33.8m93.7 153.5s42.6-39.9 96.6-31.9m-280.6-128.6 9 4.4c1.4.7 1.3 2.8-.1 3.4l-19.9 7.7c-1.9.7-4 .7-5.9-.1l-14.9-6"/><path class="s0" d="M650 1303.5c-2.4 4.2-6.2 6.6-8.4 5.4-2.2-1.3-2-5.8.5-10 2.4-4.2 6.2-6.6 8.4-5.3 2.2 1.2 2 5.7-.5 9.9"/><path class="s90" d="m716.9 1164.6-74.5 139.9"/><path class="s37" d="M877.9 1467.7v7.4l-15.8 9.1-.1-7.4z"/><path fill-rule="evenodd" class="s91" d="m858.5 1470.3 22.9-13.3v19.6c.1 2.8-1.9 6.2-4.4 7.6l-14 8.1c-2.5 1.4-4.5.3-4.5-2.5zm19.4 4.8v-7.4l-15.8 9.1v7.5z"/><path class="s91" d="M886.2 1451.6c1.6-.9 3-.1 3 1.8l.1 6.9c0 2-1.4 4.3-3.1 5.3l-4.8 2.8V1457l-22.9 13.3v11.3l-4.8 2.8c-1.7 1-3 .2-3-1.8l-.1-6.9c0-2 1.4-4.3 3.1-5.3z"/><path class="s37" d="M995.6 1389v7.4l-15.8 9.1v-7.4z"/><path fill-rule="evenodd" class="s91" d="m976.2 1391.6 22.9-13.3.1 19.6c0 2.8-2 6.2-4.5 7.6l-14 8.1c-2.5 1.4-4.4.3-4.5-2.5zm19.5 4.8-.1-7.4-15.8 9.1v7.5z"/><path class="s91" d="M1003.9 1372.9c1.7-.9 3-.1 3 1.8l.1 6.9c0 2-1.4 4.3-3.1 5.3l-4.8 2.8v-11.4l-22.9 13.3v11.3l-4.8 2.8c-1.6 1-3 .2-3-1.8v-6.9c-.1-2 1.3-4.3 3-5.3z"/><path fill-rule="evenodd" d="m810.7 1515.5-.1 11.1v1.5l-.1.1v.5q-.1.1-.1.3v.1l-.1.1v.3l-.1.1v.1q0 .2-.1.3v.1q0 .1-.1.1-.1.3-.2.5v.1q-.2.3-.3.6h-.1q-.1.3-.3.5l-.1.1q-.2.2-.3.4h-.1l-.4.4h-.1q-.2.2-.4.3l-5.6 3.3c-1.8 1.1-4.4.9-7.2-.7l-31.8-18.4c-5.6-3.2-10.2-11.1-10.1-17.5v-11.1c0-3.3 1.1-5.5 3-6.6h-.1l5.6-3.2.4-.2q.1 0 .2-.1.1 0 .2-.1h.2q.1-.1.2-.1t.3-.1h.1q.2 0 .5-.1h1.1q.1 0 .2.1h.7q0 .1.1.1h.3q0 .1.1.1h.3q.1.1.2.1t.1.1h.1q.2.1.4.1l.4.2h.1q0 .1.1.1.1.1.2.1t.2.1l.1.1h.1l.4.2 31.8 18.4h.1q.2.1.4.3.2.1.4.3h.1l.1.1q.1.1.3.2l.2.2q.1 0 .2.1l.1.1.2.2q.1 0 .2.1l.1.1.2.2q.1 0 .1.1.1 0 .2.1l.2.2.1.1q0 .1.1.2.1 0 .2.1 0 .1.1.1l.2.2.2.2q.1.2.2.3l.2.2.4.4v.1l.4.4v.1q.5.6 1 1.3 0 .1.1.1v.1q.4.5.7 1.1 0 .1.1.1l.4.8q.1.1.1.3.1.1.2.3l.2.4.1.1v.1q.1.2.2.5.1.1.1.2.1.1.1.2.1.1.1.2t.1.2v.1q.1.2.1.3.1.1.1.2.1.3.2.5l.2.6v.2q.1.2.1.3v.1q.1.1.1.2t.1.2v.4q.1.1.1.2v.2q.1.1.1.2v.1q0 .2.1.4v.1q0 .3.1.5v1q.1.1.1.2zm-53.3-33.9h.1zm0 0h-.1zm1.1-.1h.2zm.5 0h.1zm.9.1h.2zm.5.1h.1zm1 .3q.1.1.2.1-.1 0-.2-.1m.5.2q.1.1.2.1-.1 0-.2-.1m-2.3-.7h-.2zm45.4 49.2v.3zm0 .6q-.1.1-.1.2 0-.1.1-.2m-.1.5q0 .1-.1.2.1-.1.1-.2m-.1.5q0 .1-.1.2.1-.1.1-.2m-.1.5q-.1.1-.1.2 0-.1.1-.2m-.2.5q0 .1-.1.2v-.1q.1 0 .1-.1m-.6 1.3-.1.1zm-.8 1-.1.1zm-46.2-53.9h.1zm1.3-.2h-.1zm2.8.4-.1-.1q0 .1.1.1m1.6.6h-.1zm39.9 53.6h.1zm2.5-5.7v-.5z" fill="url(#g103)"/><path d="m774.9 1506.7-10.7 13.8c-4.2 5.5-10.8 8.6-17.7 8.4l-18.7-.5" fill="none" stroke="url(#g104)" stroke-linecap="round" stroke-linejoin="round" stroke-width="6"/><path d="m1052.9 1142.9-3.6 13.6s16.9-2.1 16.4-2.5c-.6-.4-11.5-2.2-11.5-2.8s-1.3-8.3-1.3-8.3" fill="url(#g105)"/><path d="m1049.3 1156.5 4.9-5.3 11.5 2.8z" fill="url(#g106)"/><path d="m1060.1 1135.3-3.5 13.6s16.9-2.1 16.3-2.5-11.4-2.2-11.4-2.8-1.4-8.3-1.4-8.3" fill="url(#g107)"/><path d="m1056.6 1148.9 4.9-5.3 11.4 2.8z" fill="url(#g108)"/><path d="M589.5 1751.8c-1.5 0-3.1-.9-3.9-2.3-1.2-2.2-.4-4.9 1.7-6.1 3.8-2.2 379.1-213.8 664-408.1 2-1.4 4.8-.9 6.2 1.2 1.4 2 .9 4.8-1.2 6.2-285.2 194.5-660.8 406.4-664.5 408.5-.7.4-1.5.6-2.3.6" fill="url(#g109)"/><path d="m1232.4 1348.1 3.7 8.3s34.6-11.5 35.4-48c0 0-4 15.7-39.1 39.7" fill="url(#g110)"/><path class="s70" d="m571.8 480.1 16.2 8.2c7.4 3.5 12 11 12 19.1v152.7m366.4-410.4v190.4m-147.5-76.6-2.2 168.8"/></g></svg>