<svg version="1.2" xmlns="http://www.w3.org/2000/svg" viewBox="0 0 817 621" width="32" height="32">
	<defs>
		<linearGradient id="g1" x2="1" gradientUnits="userSpaceOnUse" gradientTransform="matrix(68.385,0,0,88.294,293.817,513.136)">
			<stop offset="0" stop-color="#ffffff"/>
			<stop offset="1" stop-color="#b3b7b8"/>
		</linearGradient>
		<linearGradient id="g2" x2="1" gradientUnits="userSpaceOnUse" gradientTransform="matrix(33.663,114.42,-117.246,34.495,377.677,489.31)">
			<stop offset="0" stop-color="#f3f5f7"/>
			<stop offset="1" stop-color="#999d9e"/>
		</linearGradient>
		<linearGradient id="g3" x2="1" gradientUnits="userSpaceOnUse" gradientTransform="matrix(-7.946,-31.785,31.253,-7.813,312.306,576.704)">
			<stop offset="0" stop-color="#d0d2d4"/>
			<stop offset="1" stop-color="#86898b"/>
		</linearGradient>
		<linearGradient id="g4" x2="1" gradientUnits="userSpaceOnUse" gradientTransform="matrix(-0.537,11.011,-8.161,-0.398,332.235,549.064)">
			<stop offset="0" stop-color="#d0d2d4"/>
			<stop offset="1" stop-color="#86898b"/>
		</linearGradient>
		<linearGradient id="g5" x2="1" gradientUnits="userSpaceOnUse" gradientTransform="matrix(2.048,-8.313,6.014,1.482,335.579,557.533)">
			<stop offset="0" stop-color="#f1f3f5"/>
			<stop offset="1" stop-color="#86898b"/>
		</linearGradient>
		<linearGradient id="g6" x2="1" gradientUnits="userSpaceOnUse" gradientTransform="matrix(-3.52,-15.365,18.611,-4.264,336.562,544.736)">
			<stop offset="0" stop-color="#f1f3f5"/>
			<stop offset="1" stop-color="#86898b"/>
		</linearGradient>
		<linearGradient id="g7" x2="1" gradientUnits="userSpaceOnUse" gradientTransform="matrix(-6.472,-11.947,14.341,-7.768,315.281,537.083)">
			<stop offset="0" stop-color="#f1f3f5"/>
			<stop offset="1" stop-color="#86898b"/>
		</linearGradient>
		<linearGradient id="g8" x2="1" gradientUnits="userSpaceOnUse" gradientTransform="matrix(.279,-28.901,11.958,.115,294.44,559.848)">
			<stop offset="0" stop-color="#f1f3f5"/>
			<stop offset="1" stop-color="#86898b"/>
		</linearGradient>
		<linearGradient id="g9" x2="1" gradientUnits="userSpaceOnUse" gradientTransform="matrix(20.18,0,0,15.309,303.625,560.588)">
			<stop offset="0" stop-color="#f1f3f5"/>
			<stop offset="1" stop-color="#86898b"/>
		</linearGradient>
		<linearGradient id="g10" x2="1" gradientUnits="userSpaceOnUse" gradientTransform="matrix(19.961,0,0,26.682,300.614,570.887)">
			<stop offset=".37" stop-color="#f1f3f5"/>
			<stop offset="1" stop-color="#86898b"/>
		</linearGradient>
		<linearGradient id="g11" x2="1" gradientUnits="userSpaceOnUse" gradientTransform="matrix(16.027,-6.906,7.669,17.799,316.075,566.254)">
			<stop offset=".37" stop-color="#f1f3f5"/>
			<stop offset="1" stop-color="#86898b"/>
		</linearGradient>
		<linearGradient id="g12" x2="1" gradientUnits="userSpaceOnUse" gradientTransform="matrix(68.383,0,0,88.293,669.481,291.854)">
			<stop offset="0" stop-color="#ffffff"/>
			<stop offset="1" stop-color="#b3b7b8"/>
		</linearGradient>
		<linearGradient id="g13" x2="1" gradientUnits="userSpaceOnUse" gradientTransform="matrix(33.663,114.422,-117.243,34.494,753.344,268.025)">
			<stop offset="0" stop-color="#f3f5f7"/>
			<stop offset="1" stop-color="#999d9e"/>
		</linearGradient>
		<linearGradient id="g14" x2="1" gradientUnits="userSpaceOnUse" gradientTransform="matrix(-7.945,-31.783,31.257,-7.814,687.974,355.421)">
			<stop offset="0" stop-color="#d0d2d4"/>
			<stop offset="1" stop-color="#86898b"/>
		</linearGradient>
		<linearGradient id="g15" x2="1" gradientUnits="userSpaceOnUse" gradientTransform="matrix(-0.537,11.013,-8.159,-0.398,707.905,327.782)">
			<stop offset="0" stop-color="#d0d2d4"/>
			<stop offset="1" stop-color="#86898b"/>
		</linearGradient>
		<linearGradient id="g16" x2="1" gradientUnits="userSpaceOnUse" gradientTransform="matrix(2.048,-8.313,6.014,1.482,711.242,336.251)">
			<stop offset="0" stop-color="#f1f3f5"/>
			<stop offset="1" stop-color="#86898b"/>
		</linearGradient>
		<linearGradient id="g17" x2="1" gradientUnits="userSpaceOnUse" gradientTransform="matrix(-3.52,-15.365,18.608,-4.263,712.226,323.452)">
			<stop offset="0" stop-color="#f1f3f5"/>
			<stop offset="1" stop-color="#86898b"/>
		</linearGradient>
		<linearGradient id="g18" x2="1" gradientUnits="userSpaceOnUse" gradientTransform="matrix(-6.472,-11.947,14.338,-7.767,690.94,315.804)">
			<stop offset="0" stop-color="#f1f3f5"/>
			<stop offset="1" stop-color="#86898b"/>
		</linearGradient>
		<linearGradient id="g19" x2="1" gradientUnits="userSpaceOnUse" gradientTransform="matrix(.279,-28.898,11.958,.115,670.107,338.564)">
			<stop offset="0" stop-color="#f1f3f5"/>
			<stop offset="1" stop-color="#86898b"/>
		</linearGradient>
		<linearGradient id="g20" x2="1" gradientUnits="userSpaceOnUse" gradientTransform="matrix(20.178,0,0,15.308,679.288,339.307)">
			<stop offset="0" stop-color="#f1f3f5"/>
			<stop offset="1" stop-color="#86898b"/>
		</linearGradient>
		<linearGradient id="g21" x2="1" gradientUnits="userSpaceOnUse" gradientTransform="matrix(19.963,0,0,26.683,676.278,349.604)">
			<stop offset=".37" stop-color="#f1f3f5"/>
			<stop offset="1" stop-color="#86898b"/>
		</linearGradient>
		<linearGradient id="g22" x2="1" gradientUnits="userSpaceOnUse" gradientTransform="matrix(16.026,-6.905,7.669,17.8,691.74,344.971)">
			<stop offset=".37" stop-color="#f1f3f5"/>
			<stop offset="1" stop-color="#86898b"/>
		</linearGradient>
		<linearGradient id="g23" x2="1" gradientUnits="userSpaceOnUse" gradientTransform="matrix(138.476,0,0,163.254,6.944,278.807)">
			<stop offset="0" stop-color="#ffffff"/>
			<stop offset="1" stop-color="#36549f"/>
		</linearGradient>
		<linearGradient id="g24" x2="1" gradientUnits="userSpaceOnUse" gradientTransform="matrix(269.336,0,0,174.463,1.003,436.536)">
			<stop offset="0" stop-color="#ffffff"/>
			<stop offset="1" stop-color="#36549f"/>
		</linearGradient>
		<linearGradient id="g25" x2="1" gradientUnits="userSpaceOnUse" gradientTransform="matrix(391.146,0,0,327.081,353.596,83.887)">
			<stop offset="0" stop-color="#ffffff"/>
			<stop offset="1" stop-color="#000000"/>
		</linearGradient>
		<linearGradient id="g26" x2="1" gradientUnits="userSpaceOnUse" gradientTransform="matrix(210.167,0,0,118.857,160.256,408.561)">
			<stop offset="0" stop-color="#ffffff"/>
			<stop offset="1" stop-color="#36549f"/>
		</linearGradient>
		<linearGradient id="g27" x2="1" gradientUnits="userSpaceOnUse" gradientTransform="matrix(-231.876,0,0,-175.063,229.257,610.999)">
			<stop offset="0" stop-color="#ffffff"/>
			<stop offset="1" stop-color="#36549f"/>
		</linearGradient>
		<linearGradient id="g28" x2="1" gradientUnits="userSpaceOnUse" gradientTransform="matrix(210.722,299.455,-1824.678,1283.995,646.174,64.804)">
			<stop offset="0" stop-color="#ffffff"/>
			<stop offset="1" stop-color="#36549f"/>
		</linearGradient>
		<linearGradient id="g29" x2="1" gradientUnits="userSpaceOnUse" gradientTransform="matrix(122.331,0,0,125.877,262.58,485.066)">
			<stop offset="0" stop-color="#ffffff"/>
			<stop offset="1" stop-color="#36549f"/>
		</linearGradient>
		<linearGradient id="g30" x2="1" gradientUnits="userSpaceOnUse" gradientTransform="matrix(245.307,0,0,157.728,384.503,371.119)">
			<stop offset="0" stop-color="#ffffff"/>
			<stop offset="1" stop-color="#36549f"/>
		</linearGradient>
		<linearGradient id="g31" x2="1" gradientUnits="userSpaceOnUse" gradientTransform="matrix(7.073,0,0,9.716,377.767,523.247)">
			<stop offset="0" stop-color="#ffffff"/>
			<stop offset="1" stop-color="#36549f"/>
		</linearGradient>
		<linearGradient id="g32" x2="1" gradientUnits="userSpaceOnUse" gradientTransform="matrix(251.254,180.057,-67.309,93.924,55.255,321.576)">
			<stop offset="0" stop-color="#ffffff"/>
			<stop offset="1" stop-color="#36549f"/>
		</linearGradient>
		<linearGradient id="g33" x2="1" gradientUnits="userSpaceOnUse" gradientTransform="matrix(97.263,0,0,16.668,173.179,554.424)">
			<stop offset="0" stop-color="#ffffff"/>
			<stop offset="1" stop-color="#36549f"/>
		</linearGradient>
		<linearGradient id="g34" x2="1" gradientUnits="userSpaceOnUse" gradientTransform="matrix(146.029,-64.437,33.977,76.998,207.963,455.82)">
			<stop offset="0" stop-color="#ffffff"/>
			<stop offset=".223" stop-color="#002a45"/>
			<stop offset="1" stop-color="#002a45"/>
		</linearGradient>
		<linearGradient id="g35" x2="1" gradientUnits="userSpaceOnUse" gradientTransform="matrix(43.231,-19.077,57.471,130.241,272.773,260.365)">
			<stop offset="0" stop-color="#ffffff"/>
			<stop offset=".223" stop-color="#002a45"/>
			<stop offset="1" stop-color="#002a45"/>
		</linearGradient>
		<linearGradient id="g36" x2="1" gradientUnits="userSpaceOnUse" gradientTransform="matrix(59.818,0,0,35.601,173.179,507.858)">
			<stop offset="0" stop-color="#faffff"/>
			<stop offset="1" stop-color="#d4d7d9"/>
		</linearGradient>
		<linearGradient id="g37" x2="1" gradientUnits="userSpaceOnUse" gradientTransform="matrix(51.711,0,0,35.527,211.978,506.187)">
			<stop offset="0" stop-color="#faffff"/>
			<stop offset="1" stop-color="#d4d7d9"/>
		</linearGradient>
		<linearGradient id="g38" x2="1" gradientUnits="userSpaceOnUse" gradientTransform="matrix(115.788,0,0,41.396,147.901,506.187)">
			<stop offset="0" stop-color="#ffffff"/>
			<stop offset="1" stop-color="#ffffff"/>
		</linearGradient>
		<linearGradient id="g39" x2="1" gradientUnits="userSpaceOnUse" gradientTransform="matrix(19.356,0,0,87.863,13.885,378.22)">
			<stop offset="0" stop-color="#ffffff"/>
			<stop offset="1" stop-color="#ffffff"/>
		</linearGradient>
		<linearGradient id="g40" x2="1" gradientUnits="userSpaceOnUse" gradientTransform="matrix(10.9,0,0,28.282,21.095,393.029)">
			<stop offset="0" stop-color="#faffff"/>
			<stop offset="1" stop-color="#d4d7d9"/>
		</linearGradient>
		<linearGradient id="g41" x2="1" gradientUnits="userSpaceOnUse" gradientTransform="matrix(14.277,0,0,31.65,16.633,416.473)">
			<stop offset="0" stop-color="#faffff"/>
			<stop offset="1" stop-color="#d4d7d9"/>
		</linearGradient>
		<linearGradient id="g42" x2="1" gradientUnits="userSpaceOnUse" gradientTransform="matrix(18.086,0,0,85.3,14.526,379.454)">
			<stop offset="0" stop-color="#ffffff"/>
			<stop offset="1" stop-color="#ffffff"/>
		</linearGradient>
		<linearGradient id="g43" x2="1" gradientUnits="userSpaceOnUse" gradientTransform="matrix(122.393,0,0,71.932,30.276,457.96)">
			<stop offset="0" stop-color="#f3f5f7"/>
			<stop offset="1" stop-color="#c8cccd"/>
		</linearGradient>
		<linearGradient id="g44" x2="1" gradientUnits="userSpaceOnUse" gradientTransform="matrix(120.383,0,0,71.65,30.276,459.101)">
			<stop offset="0" stop-color="#d9dbdd"/>
			<stop offset="1" stop-color="#7f8384"/>
		</linearGradient>
		<linearGradient id="g45" x2="1" gradientUnits="userSpaceOnUse" gradientTransform="matrix(118.865,0,0,70.244,29.585,463.976)">
			<stop offset="0" stop-color="#f3f5f7"/>
			<stop offset="1" stop-color="#c8cccd"/>
		</linearGradient>
		<linearGradient id="g46" x2="1" gradientUnits="userSpaceOnUse" gradientTransform="matrix(116.855,0,0,69.962,29.585,465.117)">
			<stop offset="0" stop-color="#d9dbdd"/>
			<stop offset="1" stop-color="#7f8384"/>
		</linearGradient>
		<linearGradient id="g47" x2="1" gradientUnits="userSpaceOnUse" gradientTransform="matrix(126.984,0,0,74.015,31.436,450.378)">
			<stop offset="0" stop-color="#f3f5f7"/>
			<stop offset="1" stop-color="#c8cccd"/>
		</linearGradient>
		<linearGradient id="g48" x2="1" gradientUnits="userSpaceOnUse" gradientTransform="matrix(124.942,0,0,73.728,31.436,451.538)">
			<stop offset="0" stop-color="#d9dbdd"/>
			<stop offset="1" stop-color="#7f8384"/>
		</linearGradient>
		<linearGradient id="g49" x2="1" gradientUnits="userSpaceOnUse" gradientTransform="matrix(-3.013,28.272,-21.812,-2.324,111.611,484.737)">
			<stop offset="0" stop-color="#747f81"/>
			<stop offset="1" stop-color="#343f41"/>
		</linearGradient>
		<linearGradient id="g50" x2="1" gradientUnits="userSpaceOnUse" gradientTransform="matrix(-14.368,55.801,-45.596,-11.74,106.914,481.761)">
			<stop offset="0" stop-color="#f3f5f7"/>
			<stop offset="1" stop-color="#c8cccd"/>
		</linearGradient>
		<linearGradient id="g51" x2="1" gradientUnits="userSpaceOnUse" gradientTransform="matrix(-0.943,-0.674,.39,-0.546,196.293,587.041)">
			<stop offset="0" stop-color="#747f81"/>
			<stop offset=".979" stop-color="#566163"/>
		</linearGradient>
		<linearGradient id="g52" x2="1" gradientUnits="userSpaceOnUse" gradientTransform="matrix(-1.627,-1.266,.951,-1.222,215.712,603.816)">
			<stop offset="0" stop-color="#747f81"/>
			<stop offset=".979" stop-color="#566163"/>
		</linearGradient>
		<linearGradient id="g53" x2="1" gradientUnits="userSpaceOnUse" gradientTransform="matrix(-46.305,11.577,-2.546,-10.182,468.793,395.969)">
			<stop offset="0" stop-color="#f3f5f7"/>
			<stop offset="1" stop-color="#c8cccd"/>
		</linearGradient>
	</defs>
	<style>
		.s0 { fill: #091215 } 
		.s1 { fill: #3b4447 } 
		.s2 { fill: #555e61 } 
		.s3 { fill: url(#g1) } 
		.s4 { fill: url(#g2) } 
		.s5 { fill: url(#g3) } 
		.s6 { fill: url(#g4) } 
		.s7 { fill: url(#g5) } 
		.s8 { fill: url(#g6) } 
		.s9 { fill: url(#g7) } 
		.s10 { fill: url(#g8) } 
		.s11 { fill: url(#g9) } 
		.s12 { fill: url(#g10) } 
		.s13 { fill: url(#g11) } 
		.s14 { fill: url(#g12) } 
		.s15 { fill: url(#g13) } 
		.s16 { fill: url(#g14) } 
		.s17 { fill: url(#g15) } 
		.s18 { fill: url(#g16) } 
		.s19 { fill: url(#g17) } 
		.s20 { fill: url(#g18) } 
		.s21 { fill: url(#g19) } 
		.s22 { fill: url(#g20) } 
		.s23 { fill: url(#g21) } 
		.s24 { fill: url(#g22) } 
		.s25 { fill: #508ecf } 
		.s26 { fill: #dfe4f4 } 
		.s27 { opacity: .2;mix-blend-mode: multiply;fill: url(#g23) } 
		.s28 { opacity: .2;mix-blend-mode: multiply;fill: #21345e } 
		.s29 { opacity: .2;mix-blend-mode: multiply;fill: url(#g24) } 
		.s30 { opacity: .1;mix-blend-mode: multiply;fill: url(#g25) } 
		.s31 { opacity: .2;mix-blend-mode: multiply;fill: url(#g26) } 
		.s32 { opacity: .2;mix-blend-mode: multiply;fill: url(#g27) } 
		.s33 { fill: #414c4e } 
		.s34 { opacity: .2;mix-blend-mode: multiply;fill: #414c4e } 
		.s35 { opacity: .2;mix-blend-mode: multiply;fill: url(#g28) } 
		.s36 { opacity: .3;mix-blend-mode: multiply;fill: #0f4560 } 
		.s37 { opacity: .1;mix-blend-mode: multiply;fill: #133e51 } 
		.s38 { opacity: .2;mix-blend-mode: multiply;fill: #0a4d77 } 
		.s39 { opacity: .3;mix-blend-mode: multiply;fill: #0a4d77 } 
		.s40 { opacity: .2;mix-blend-mode: multiply;fill: url(#g29) } 
		.s41 { opacity: .1;mix-blend-mode: multiply;fill: url(#g30) } 
		.s42 { opacity: .3;mix-blend-mode: multiply;fill: url(#g31) } 
		.s43 { opacity: .2;mix-blend-mode: multiply;fill: url(#g32) } 
		.s44 { opacity: .2;mix-blend-mode: multiply;fill: url(#g33) } 
		.s45 { opacity: .1;mix-blend-mode: multiply;fill: url(#g34) } 
		.s46 { fill: url(#g35) } 
		.s47 { fill: #0a4d77 } 
		.s48 { fill: #141c1e } 
		.s49 { fill: #303e42 } 
		.s50 { opacity: .7;fill: #c5d0d3 } 
		.s51 { fill: #39464a } 
		.s52 { fill: #374347 } 
		.s53 { opacity: .2;fill: #ffffff } 
		.s54 { fill: #db6e11 } 
		.s55 { fill: #f4872a } 
		.s56 { opacity: .2;mix-blend-mode: multiply;fill: #f4872a } 
		.s57 { fill: #c9c9ca } 
		.s58 { fill: url(#g36) } 
		.s59 { fill: #ffffff } 
		.s60 { fill: url(#g37) } 
		.s61 { fill: url(#g38) } 
		.s62 { opacity: .2;mix-blend-mode: multiply;fill: url(#g39) } 
		.s63 { fill: url(#g40) } 
		.s64 { fill: url(#g41) } 
		.s65 { fill: url(#g42) } 
		.s66 { fill: #970007 } 
		.s67 { fill: #b01120 } 
		.s68 { fill: #ca2b3a } 
		.s69 { fill: #bbc2c6 } 
		.s70 { opacity: .1;mix-blend-mode: multiply;fill: #bbc2c6 } 
		.s71 { opacity: .2;mix-blend-mode: multiply;fill: #bbc2c6 } 
		.s72 { fill: #5a6567 } 
		.s73 { fill: #343f41 } 
		.s74 { fill: url(#g43) } 
		.s75 { fill: url(#g44) } 
		.s76 { fill: url(#g45) } 
		.s77 { fill: url(#g46) } 
		.s78 { fill: url(#g47) } 
		.s79 { fill: url(#g48) } 
		.s80 { fill: url(#g49) } 
		.s81 { fill: url(#g50) } 
		.s82 { fill: url(#g51) } 
		.s83 { fill: url(#g52) } 
		.s84 { fill: #747f81 } 
		.s85 { fill: #e1e8ec } 
		.s86 { opacity: .2;mix-blend-mode: multiply;fill: #e1e8ec } 
		.s87 { fill: url(#g53) } 
		.s88 { fill: #414e52 } 
		.s89 { fill: #889aa5 } 
		.s90 { fill: #bcced9 } 
	</style>
	<g id="Layer 2">
		<g id="&lt;Group&gt;">
			<g id="&lt;Group&gt;">
				<path id="&lt;Path&gt;" class="s0" d="m748.9 268.4c-8.8-16.4-43.8 0.3-43.8 0.3l31.5 42.4 15.4-0.1c0 0 5.7-26.3-3.1-42.6z"/>
				<path id="&lt;Path&gt;" class="s0" d="m382.7 492.4c-3.8-6-52.3-6.2-52.3-6.2l28.8 50.8 17.5 5.5c0 0 9.8-44.2 6-50.1z"/>
				<g id="&lt;Group&gt;">
					<path id="&lt;Path&gt;" class="s1" d="m357.5 500l-30.8-16.3c-8.1-4-18.8-3.1-30.7 3.7-24.8 14.4-45 49.3-45 78 0 13.4 4.4 23.1 11.6 28.2l34.3 18.2c7.9 3.5 18.3 2.4 29.7-4.2 24.9-14.3 45.1-49.2 45.1-77.9 0-14.9-5.5-25.2-14.2-29.7z"/>
					<path id="&lt;Path&gt;" class="s2" d="m371.7 529.7c0 28.7-20.2 63.6-45.1 77.9-24.8 14.4-45 2.8-45-26 0-28.7 20.2-63.6 45-77.9 24.9-14.4 45.1-2.8 45.1 26z"/>
					<path id="&lt;Path&gt;" class="s1" d="m369.8 531.2c0 27-19 59.8-42.4 73.4-23.4 13.5-42.3 2.5-42.3-24.5 0-27 18.9-59.9 42.3-73.4 23.4-13.5 42.4-2.5 42.4 24.5z"/>
					<path id="&lt;Path&gt;" class="s3" d="m362.2 537.5c0 21.8-15.3 48.4-34.2 59.3-18.9 10.9-34.2 2-34.2-19.8 0-21.8 15.3-48.3 34.2-59.2 18.9-10.9 34.2-2.1 34.2 19.7z"/>
					<path id="&lt;Path&gt;" class="s4" d="m362.2 538c0 21.6-15.2 48-34 58.8-18.7 10.8-33.9 2-33.9-19.6 0-21.7 15.2-48 33.9-58.9 18.8-10.8 34-2 34 19.7z"/>
					<path id="&lt;Path&gt;" class="s5" d="m338.4 550.4c0 6.6-4.7 14.7-10.4 18-5.8 3.3-10.5 0.6-10.5-6 0-6.7 4.7-14.7 10.5-18.1 5.7-3.3 10.4-0.6 10.4 6.1z"/>
					<path id="&lt;Path&gt;" class="s6" d="m328.7 551.2c0 2.9-2.1 6.5-4.6 7.9-2.5 1.5-4.6 0.3-4.6-2.6 0-2.9 2.1-6.5 4.6-7.9 2.5-1.5 4.6-0.3 4.6 2.6z"/>
					<path id="&lt;Path&gt;" class="s0" d="m313.9 592.4c0 0 4.4-9 5.6-13 1.5-4.8 1.4-7.4 0-8.3-1.9-1.3-6.5 3.3-10.2 7.5-3.6 4.3-10.7 11.2-8.1 15.3 1.8 2.9 8.1 7.2 12.7-1.5z"/>
					<path id="&lt;Path&gt;" class="s0" d="m308.7 556.4c0 0 8.2-0.1 7.5 4.8-0.8 4.9-8.5 11.9-12.9 13.8-4.2 1.7-8.3 1.5-7-5.2 1.2-6.6 1.5-13.5 12.4-13.4z"/>
					<path id="&lt;Path&gt;" class="s0" d="m324.8 532.4c0 0 2.7 10.3-2.3 15.1-5 4.8-10.8-1.9-12.1-3.9-1.2-2-1.8-6.2 3.6-11.7 5.3-5.6 9.1-6.1 10.8 0.5z"/>
					<path id="&lt;Path&gt;" class="s0" d="m333.6 526.3c0 0-3.8 14.6 0 15.4 3.7 0.8 9.3-8.3 12-13.5 2.8-5.3 5.3-13.2-2.2-13.3-7.4-0.1-8.9 7.4-9.8 11.4z"/>
					<path id="&lt;Path&gt;" class="s0" d="m349.6 532.6c0 0-10.4 10.2-9.5 15.2 0.9 5 11.7 0.1 15.1-2.4 3.5-2.6 6.5-6.7 5.7-13.1-0.7-6.3-3.3-8.4-11.3 0.3z"/>
					<path id="&lt;Path&gt;" class="s0" d="m342.4 570.9c0 0-5.8-7.9-4.4-11.9 1.4-4.1 6.3-5.4 11.9-5.1 5.7 0.2 9.7 1.8 4.6 11.8-5.1 10-8.1 9.8-12.1 5.2z"/>
					<path id="&lt;Path&gt;" class="s0" d="m322.7 586.6c0.6-4.2 2.5-13.2 6.7-15.7 4.7-2.9 6.8 6.2 7.1 9.4 0.3 3.2 1.5 10.3-6.5 14.1-8 3.9-8.4 0.9-7.3-7.8z"/>
					<path id="&lt;Path&gt;" class="s7" d="m349.9 553.9q-2.3-0.2-4.4 0.1c0.4 0.7 0.6 1.5 0.3 2.4-0.6 1.7-3 8-6.1 10.1 1.3 2.5 2.7 4.4 2.7 4.4 4 4.6 7 4.8 12.1-5.2 5.1-10 1.1-11.6-4.6-11.8z"/>
					<path id="&lt;Path&gt;" class="s8" d="m349.7 532.5c2 6.4-4.3 12.8-6.8 14.1-1.2 0.6-2.1 0.5-2.8 0.3q-0.1 0.5 0 0.9c0.9 5 11.7 0.1 15.1-2.4 3.5-2.6 6.5-6.7 5.7-13.1-0.7-6.3-3.3-8.4-11.2 0.2z"/>
					<path id="&lt;Path&gt;" class="s9" d="m343.4 514.9c-3.2-0.1-5.3 1.3-6.8 3.3 5.5 1.1 1.7 15.1-0.4 18.7-1.2 2-2.7 3.1-3.9 3.6 0.3 0.6 0.7 1.1 1.3 1.2 3.7 0.8 9.3-8.3 12-13.5 2.8-5.3 5.3-13.2-2.2-13.3z"/>
					<path id="&lt;Path&gt;" class="s10" d="m324.8 532.4c-1.4-5.4-4.2-6-8.1-3 2.6 1.3 5.2 3.6 5.5 9.6 0.4 5.1-0.2 8.4-3.7 10.2 1.3 0 2.7-0.4 4-1.7 5-4.8 2.3-15.1 2.3-15.1z"/>
					<path id="&lt;Path&gt;" class="s11" d="m316.2 561.2q0-0.3 0-0.6c-1.8 1.6-6.1 5.4-10.1 7-4.5 1.9-7.9 2.1-9.5 0.4q-0.2 0.9-0.3 1.8c-1.3 6.7 2.8 6.9 7 5.2 4.4-1.9 12.1-8.9 12.9-13.8z"/>
					<path id="&lt;Path&gt;" class="s12" d="m319.5 571.1q-0.4-0.3-0.9-0.2c-1.2 7.1-8 13-11.1 14.7-1.6 0.8-3.3 0.9-4.6 0.8-1.9 2.7-3 5.5-1.7 7.5 1.8 2.9 8.1 7.2 12.7-1.5 0 0 4.4-9 5.6-13 1.5-4.8 1.4-7.4 0-8.3z"/>
					<path id="&lt;Path&gt;" class="s13" d="m336.5 580.3c-0.3-2.7-1.8-9.7-5.2-10 0 2.2-0.1 5.6-1.1 7.4-1.4 2.4-5.1 4.9-6.9 5.4-0.3 1.3-0.5 2.6-0.6 3.5-1.1 8.7-0.7 11.7 7.3 7.8 8-3.8 6.8-10.9 6.5-14.1z"/>
				</g>
				<g id="&lt;Group&gt;">
					<path id="&lt;Path&gt;" class="s1" d="m733.2 278.7l-30.9-16.3c-8-4-18.8-3.1-30.6 3.8-24.9 14.3-45 49.2-45 77.9 0 13.5 4.4 23.1 11.6 28.2l34.2 18.2c8 3.6 18.4 2.4 29.8-4.1 24.9-14.4 45-49.3 45-78 0-14.9-5.4-25.2-14.1-29.7z"/>
					<path id="&lt;Path&gt;" class="s2" d="m747.3 308.4c0 28.7-20.1 63.6-45 78-24.9 14.3-45 2.7-45-26 0-28.8 20.1-63.7 45-78 24.9-14.4 45-2.7 45 26z"/>
					<path id="&lt;Path&gt;" class="s1" d="m745.5 309.9c0 27-19 59.9-42.4 73.4-23.4 13.5-42.4 2.5-42.4-24.5 0-27 19-59.8 42.4-73.3 23.4-13.5 42.4-2.6 42.4 24.4z"/>
					<path id="&lt;Path&gt;" class="s14" d="m737.9 316.3c0 21.8-15.3 48.3-34.2 59.2-18.9 10.9-34.2 2-34.2-19.8 0-21.8 15.3-48.3 34.2-59.2 18.9-10.9 34.2-2 34.2 19.8z"/>
					<path id="&lt;Path&gt;" class="s15" d="m737.9 316.7c0 21.6-15.2 48-34 58.8-18.8 10.8-34 2.1-34-19.6 0-21.7 15.2-48 34-58.8 18.8-10.9 34-2.1 34 19.6z"/>
					<path id="&lt;Path&gt;" class="s16" d="m714 329.1c0 6.6-4.6 14.7-10.4 18-5.7 3.3-10.4 0.7-10.4-6 0-6.6 4.7-14.7 10.4-18 5.8-3.4 10.4-0.7 10.4 6z"/>
					<path id="&lt;Path&gt;" class="s17" d="m704.3 329.9c0 2.9-2 6.5-4.6 8-2.5 1.4-4.5 0.2-4.5-2.7 0-2.9 2-6.5 4.5-7.9 2.6-1.5 4.6-0.3 4.6 2.6z"/>
					<path id="&lt;Path&gt;" class="s0" d="m689.6 371.2c0 0 4.3-9.1 5.6-13.1 1.5-4.8 1.3-7.4 0-8.3-2-1.3-6.6 3.3-10.2 7.5-3.7 4.3-10.8 11.2-8.2 15.3 1.9 2.9 8.2 7.2 12.8-1.4z"/>
					<path id="&lt;Path&gt;" class="s0" d="m684.3 335.1c0 0 8.3-0.1 7.5 4.8-0.7 4.9-8.4 12-12.9 13.8-4.2 1.7-8.2 1.5-7-5.2 1.3-6.6 1.6-13.5 12.4-13.4z"/>
					<path id="&lt;Path&gt;" class="s0" d="m700.4 311.1c0 0 2.7 10.3-2.2 15.1-5 4.8-10.8-1.9-12.1-3.9-1.2-2-1.8-6.2 3.5-11.7 5.4-5.5 9.1-6.1 10.8 0.5z"/>
					<path id="&lt;Path&gt;" class="s0" d="m709.2 305c0 0-3.7 14.6 0 15.4 3.8 0.8 9.4-8.2 12.1-13.5 2.7-5.2 5.2-13.2-2.2-13.3-7.4-0.1-9 7.4-9.9 11.4z"/>
					<path id="&lt;Path&gt;" class="s0" d="m725.3 311.3c0 0-10.4 10.3-9.5 15.2 0.9 5 11.7 0.1 15.1-2.4 3.4-2.5 6.5-6.7 5.7-13-0.8-6.4-3.3-8.5-11.3 0.2z"/>
					<path id="&lt;Path&gt;" class="s0" d="m718.1 349.6c0 0-5.9-7.8-4.5-11.9 1.5-4.1 6.3-5.4 12-5.1 5.6 0.2 9.7 1.8 4.6 11.8-5.1 10-8.2 9.8-12.1 5.2z"/>
					<path id="&lt;Path&gt;" class="s0" d="m698.4 365.3c0.5-4.2 2.4-13.2 6.6-15.7 4.8-2.9 6.8 6.3 7.1 9.4 0.3 3.2 1.5 10.3-6.5 14.1-8 3.9-8.3 0.9-7.2-7.8z"/>
					<path id="&lt;Path&gt;" class="s18" d="m725.6 332.6q-2.3-0.1-4.4 0.1c0.3 0.7 0.5 1.5 0.3 2.4-0.6 1.8-3.1 8-6.1 10.1 1.2 2.5 2.7 4.4 2.7 4.4 3.9 4.6 7 4.8 12.1-5.2 5.1-10 1-11.6-4.6-11.8z"/>
					<path id="&lt;Path&gt;" class="s19" d="m725.4 311.2c2 6.5-4.3 12.8-6.8 14.1-1.2 0.6-2.2 0.6-2.9 0.3q0 0.5 0.1 0.9c0.9 5 11.7 0.1 15.1-2.4 3.4-2.5 6.5-6.7 5.7-13-0.8-6.4-3.3-8.5-11.2 0.1z"/>
					<path id="&lt;Path&gt;" class="s20" d="m719.1 293.6c-3.2-0.1-5.4 1.4-6.8 3.3 5.4 1.1 1.7 15.1-0.4 18.7-1.3 2-2.8 3.1-3.9 3.6 0.3 0.7 0.7 1.1 1.2 1.2 3.8 0.8 9.4-8.2 12.1-13.5 2.7-5.2 5.2-13.2-2.2-13.3z"/>
					<path id="&lt;Path&gt;" class="s21" d="m700.4 311.1c-1.4-5.4-4.2-6-8.1-3 2.7 1.3 5.2 3.6 5.6 9.6 0.3 5.1-0.2 8.4-3.8 10.2 1.4 0 2.7-0.4 4.1-1.7 4.9-4.8 2.2-15.1 2.2-15.1z"/>
					<path id="&lt;Path&gt;" class="s22" d="m691.8 339.9q0.1-0.3 0.1-0.6c-1.8 1.7-6.2 5.4-10.1 7-4.6 1.9-7.9 2.1-9.5 0.4q-0.2 0.9-0.4 1.8c-1.2 6.7 2.8 6.9 7 5.2 4.5-1.8 12.2-8.9 12.9-13.8z"/>
					<path id="&lt;Path&gt;" class="s23" d="m695.2 349.8q-0.4-0.2-0.9-0.2c-1.3 7.1-8 13-11.2 14.7-1.6 0.8-3.3 0.9-4.6 0.8-1.9 2.7-3 5.5-1.7 7.5 1.9 2.9 8.2 7.2 12.8-1.4 0 0 4.3-9.1 5.6-13.1 1.5-4.8 1.3-7.4 0-8.3z"/>
					<path id="&lt;Path&gt;" class="s24" d="m712.1 359c-0.2-2.7-1.7-9.7-5.1-9.9 0 2.1-0.2 5.5-1.1 7.3-1.4 2.5-5.1 4.9-6.9 5.4-0.3 1.4-0.5 2.6-0.6 3.5-1.1 8.7-0.8 11.7 7.2 7.8 8-3.8 6.8-10.9 6.5-14.1z"/>
				</g>
				<path id="&lt;Path&gt;" class="s25" d="m812.4 220.5c0 0 2.1-26.1 0.9-30.9-1.2-4.7-4.9-9.5-4.9-9.5 0 0-0.3-27.5-10.6-42.7-10.3-15.1-54.4-44.1-54.4-44.4 0-0.4 3.4-8.8 0-11.8-3.5-2.9-34.1-28.4-66.8-47.6-32.8-19.3-65.1-31.1-68.3-32.7-3.2-1.5-9.6 0.7-13 1.7-3.5 1-10.9 4-10.9 4 0 0-157.4 75.6-188.9 91.7-31.6 16.2-111.9 63.8-137.8 83.1-25.8 19.3-131.1 114.2-131.1 114.2l-46 36.5c0 0-17.8 10.3-28.6 20.3-10.8 10-28.8 39.4-36.2 53.2-7.5 13.8-15.9 27.5-14.7 43.4 1.3 15.9 1.3 30.5 1.3 30.5 0 0-4.3 6.7-1.4 24.1 2.9 17.5 12.8 29.3 20.9 35.5 8 6.1 75.2 55.5 112.3 68.6 37.1 13.2 95.3 20.8 135.8 0h0.1c0.3-1.8 0.5-3.4 0.6-4.1 0.2-1.6-1.6-3.7-1.6-3.7 0 0 2.3-27.7 11.3-48.8 9.1-21 27.4-44.4 56.9-56.5 29.5-12.2 41 14.4 41.2 23.9 0.2 6.5-1 17.7-1.8 24l269.8-164.2 0.5-0.4v-6.6c0 0 11.4-71.6 58.5-95.7 47.1-24.1 48.8 15.9 46.5 28.5v6.9c5.4-4 47.7-36 54.1-43.7 6.9-8.2 15.3-39.2 6.3-46.8z"/>
				<path id="&lt;Path&gt;" class="s26" d="m812.4 220.5c0 0 2.1-26.1 0.9-30.9-1.2-4.7-4.9-9.5-4.9-9.5 0 0-0.3-27.5-10.6-42.7-10.3-15.1-54.4-44.1-54.4-44.4 0-0.4 3.4-8.8 0-11.8-3.5-2.9-34.1-28.4-66.8-47.6-32.8-19.3-65.1-31.1-68.3-32.7-3.2-1.5-9.6 0.7-13 1.7-3.5 1-10.9 4-10.9 4 0 0-157.4 75.6-188.9 91.7-31.6 16.2-111.9 63.8-137.8 83.1-25.8 19.3-131.1 114.2-131.1 114.2l-46 36.5c0 0-17.8 10.3-28.6 20.3-10.8 10-28.8 39.4-36.2 53.2-7.5 13.8-15.9 27.5-14.7 43.4 1.3 15.9 1.3 30.5 1.3 30.5 0 0-4.3 6.7-1.4 24.1 2.9 17.5 12.8 29.3 20.9 35.5 8 6.1 75.2 55.5 112.3 68.6 37.1 13.2 95.3 20.8 135.8 0h0.1c0.3-1.8 0.5-3.4 0.6-4.1 0.2-1.6-1.6-3.7-1.6-3.7 0 0 2.3-27.7 11.3-48.8 9.1-21 27.4-44.4 56.9-56.5 29.5-12.2 41 14.4 41.2 23.9 0.2 6.5-1 17.7-1.8 24l269.8-164.2 0.5-0.4v-6.6c0 0 11.4-71.6 58.5-95.7 47.1-24.1 48.8 15.9 46.5 28.5v6.9c5.4-4 47.7-36 54.1-43.7 6.9-8.2 15.3-39.2 6.3-46.8z"/>
				<path id="&lt;Path&gt;" class="s27" d="m80.6 332.1c0 0-17.8 10.3-28.6 20.3-10.8 10-28.8 39.4-36.2 53.2-3.1 5.6-6.2 11.1-8.9 16.9l18.2 16.3 5.7 3.3c0 0-4.3-52.3 114.6-163.2l-0.1-0.1c-11.3 10.2-18.7 16.8-18.7 16.8z"/>
				<g id="&lt;Group&gt;">
					<path id="&lt;Compound Path&gt;" fill-rule="evenodd" class="s28" d="m815.1 244.3c-1.9 9.5-5.6 19-9 23-5.2 6.2-34.2 28.6-47.7 38.9v-1.6q0.2-1.3 0.3-2.9l9.7-7.9-9.4 4.1c0.2-8.3-1.3-19.4-7.9-27.2-4.9-5.9-11.9-9-20.4-9-7.9 0-17.4 2.8-28.1 8.2-49.4 25.3-61.4 97.3-61.8 100.4l-0.1 0.5v11l-257.1 156.5c0.2-1.6 0.4-3.4 0.5-5.2 0 0 223.5-136.8 231.6-142.4 8-5.6 11.8-15.5 11.8-15.5-2.3 3.6-6.2 8.7-11.6 12.1-7.9 5-188.2 115.2-231.4 141.5 0.3-3.8 0.5-7.6 0.4-10.5-0.2-5.2-2.5-12.7-7.2-19.3l2.8-3.8-18.8-60.1 183.4-119 136.6-91.5c0 0 50.9-34.5 57.9-39.5 7-5 7.6-12.9 7.9-23.3 0.2-10.5-3.9-12.8-14.6-19.8-10.7-7.1-28-16.7-28-16.7l-6.4 9.8c0 0-275.3 238.9-275.3 238.6 0-0.2-50.7 46.8-50.7 46.8l-8.1 4.2c1.8-5 4-10.9 6-16.1 4.7-11.9 37.6-68 62.4-104.5 24.7-36.6 69-71.1 86.2-81.5 17.2-10.3 131.6-75.1 149.7-84.9 18.1-9.8 61.1-33.4 65.7-37.2 4.5-3.7 10.3-16.6 10.3-16.6 0.7 3.7-1.3 8.8-1.3 9.1 0 0.3 44.1 29.3 54.4 44.4 10.3 15.2 10.6 42.7 10.6 42.7 0 0 3.7 4.8 4.9 9.5 1.2 4.8-0.9 30.9-0.9 30.9 0 0 1.6 16.4-6.5 24.4-8.1 7.9-26.9 22.6-32.7 26.2-5.8 3.6-9.4 10.2-9.9 14.1 0 0 39.2-21.5 51.8-40.9zm-302.7 113.6q1.1 0.1 2.4 0.2c6 0.2 15.2-6.8 21-11.1 5.8-4.2 6.5-8.1 6.5-8.1-0.3-1.1-0.7-1.4-0.7-1.4-1.8 0.1-6 1.8-10.9 5 1.8 0.4 4.3 1.1 4 2-0.5 1.6-4.7 5.1-8.4 7.3-3.3 2-8.6 3.9-11.2 2.9-1.3 1.3-2.2 2.4-2.7 3.2zm101.4 14.7c0 0-185.6 115.8-199 123.7-13.4 8-21 19.9-21 19.9l236-145.1c3.4-5.7-16 1.5-16 1.5zm57-118.9c-0.3-1.1-0.8-1.4-0.8-1.4-1.7 0.1-5.9 1.9-10.9 5 1.9 0.4 4.4 1.1 4.1 2.1-0.6 1.5-4.7 5-8.4 7.2-3.3 2-8.6 3.9-11.2 2.9-1.3 1.3-2.3 2.4-2.7 3.3q1 0.1 2.4 0.1c5.9 0.2 15.1-6.8 20.9-11.1 5.9-4.2 6.6-8.1 6.6-8.1z"/>
					<path id="&lt;Path&gt;" class="s28" d="m28.4 467.7c11.3 6.9 20.6 8.7 20.6 8.7l94.4 54.8 1.8 6.1c0 0 10.6 8.2 30.2 10.9 17.8 2.4 51.6 3.8 73.8-13.9-1.6-8-3.5-17.2-5.3-25.2-12.9 4.7-60.6 21.5-79 17.8-21.3-4.4-117.7-54.2-131.4-65.2-13.6-10.9-11.2-35.2-11.2-35.2l-0.9-30.9c-2.2 3.8-4.1 7.2-5.6 10q-0.6 0.9-1.1 1.8c-1.9 8-4.5 21.2-3.5 30.5 1.6 14.3 5.8 22.9 17.2 29.8z"/>
					<path id="&lt;Compound Path&gt;" fill-rule="evenodd" class="s29" d="m262.8 599.4l-0.2 2.7 0.2 0.2c-7.4 2.4-19.9 6.2-31.8 7.4-18.5 2-38.6 1.8-57.8-1.2-22.7-3.6-47.4-15.2-64-23.7-13.4-6.9-72-43.1-82.3-52.9-6.1-5.8-19.2-22.1-21.4-29.7-2.3-7.7-3.1-22.7-3.1-22.7 0 0 0-14.6-1.3-30.5-0.3-4.3 0.1-8.4 0.9-12.5 0.1 5.5 0.7 11.9 2.3 19.2 5.2 22.4 37 42.8 63.3 58.7 26.3 16 52.8 31.5 77 39.8 24.2 8.2 54 7.8 80.6 1.5 13.1-3.1 20.7-9.8 25.1-15.9 1.7 8.5 2.9 14.6 2.9 14.6 0 0-42.6 13-80 13 0 0 46.3 11.9 96.3-7h0.8c-5.8 18.9-7.4 38.1-7.5 39zm-20.9-22.9c-3.4 0.1-20.1 1.6-35.6 1.6-24.4 0-50.4-3.1-50.4-3.1 0 0 19.7 25.7 21.6 28.5 1.9 2.8 3.8 3.5 7.6 3.7 15.4 1 42.3-0.2 52.5-1.3 6.9-0.7 7.6-5.7 7.6-5.7 0 0 1.7-13.1 1.9-18.6 0.2-5.5-3.2-5.1-5.2-5.1z"/>
				</g>
				<path id="&lt;Path&gt;" class="s30" d="m708.1 99c-20.4 10.1-98.2 51.5-124 66.4-25.7 14.9-93.7 60.1-111.9 76.1-18.1 16-30.7 30-36.1 37.2l-54.6 71.5-27.9 60.8 16.8-2.4c4.7-11.9 37.6-68 62.4-104.5 24.7-36.6 69-71.1 86.2-81.5 17.2-10.3 131.6-75.1 149.7-84.9 18.1-9.8 61.1-33.4 65.7-37.2 4.5-3.7 10.3-16.6 10.3-16.6 0 0-16.3 5-36.6 15.1z"/>
				<path id="&lt;Path&gt;" class="s31" d="m342.9 417.9c-8.3 4.4-87 45.8-113.5 60.7-26.5 14.9-62.9 36.9-66.7 41.7-0.4 0.6-1.3 2.4-2.4 5.3q2.7 0.9 4.6 1.3c21.4 4.3 82.2-19 82.2-19l113.4-72c0 0 5.3-15.5 9.9-27.3l-16.8 2.4c0 0-2.3 2.5-10.7 6.9z"/>
				<path id="&lt;Path&gt;" class="s32" d="m232.1 609.6q-0.6 0.1-1.1 0.2c-18.5 1.9-38.6 1.7-57.8-1.3-22.7-3.6-47.4-15.2-64-23.7-13.4-6.9-72-43.1-82.3-52.9-4.4-4.2-12.5-13.9-17.5-21.8-1.9-3.1-3.3-5.8-3.9-7.9-2.3-7.7-3.1-22.7-3.1-22.7 0 0 0-1.4 0-3.8-0.1-5.4-0.4-15.7-1.3-26.7-0.3-4.3 0.1-8.5 0.9-12.5 0.1 5.4 0.7 11.9 2.3 19.2 5.2 22.4 37.1 42.8 63.3 58.7 26.3 16 52.8 31.5 77 39.8 24.2 8.2 54 7.8 80.6 1.5q2.8-0.6 5.2-1.5l0.2 6c-15.7 3.5-37.3 7.2-57.4 7.2 0 0 24.8 6.4 57.7 2.4l0.2 7.4c-6.9 0.4-16 0.9-24.8 0.9-24.4 0-50.4-3.1-50.4-3.1 0 0 19.7 25.7 21.6 28.5 1.9 2.8 3.8 3.5 7.6 3.7 13.2 0.8 34.5 0.1 46.9-0.8z"/>
				<path id="&lt;Path&gt;" class="s33" d="m17.6 498c0 0-3.4 13.1-8.2 12.1-1.9-3.1-3.3-5.8-3.9-7.9-2.3-7.7-3.1-22.7-3.1-22.7 0 0 0-1.4 0-3.8 1.1 0.9 2.7 2.7 4.5 6.7 3.1 7 10.7 15.6 10.7 15.6z"/>
				<path id="&lt;Path&gt;" class="s34" d="m231 613.3c-18.5 1.9-38.6 1.8-57.8-1.2-22.7-3.6-47.4-15.2-64-23.7-13.4-6.9-72-43.1-82.3-52.9-6.1-5.8-21.4-23.1-23.6-30.7-1.1-3.8-2.3-9.2-3.3-13.6-0.1 3.3 0.2 7.4 1 12.4 2.9 17.5 12.8 29.3 20.9 35.5 8 6.1 75.2 55.5 112.3 68.6 35 12.4 88.9 19.9 128.8 3.2 0.4-1.9 0.8-3.9 1-5.5-7 2.5-20.3 6.6-33 7.9z"/>
				<path id="&lt;Compound Path&gt;" fill-rule="evenodd" class="s35" d="m798.8 175.3l-8.5 18.3c0 0-2.1 19.2-5.3 28.4-3.2 9.2-13.2 18.1-30.7 28.6-7.2 4.4-11.7 8.8-14.5 12.5q-4.2-1.4-9.1-1.4c-7.9 0-17.4 2.8-28.1 8.2-49.4 25.3-61.4 97.3-61.8 100.4l-0.1 0.5v11l-257.1 156.5c0.2-1.6 0.4-3.4 0.5-5.2 0 0 223.5-136.8 231.6-142.4 8-5.6 11.8-15.5 11.8-15.5-2.3 3.6-6.2 8.7-11.6 12.1-7.9 5-188.2 115.2-231.4 141.5 0.3-3.8 0.5-7.6 0.4-10.5-0.3-10.9-10.2-32-31.6-33.2 4.3-6.9 13.8-21.7 21.3-26 9.7-5.7 298.6-193.9 298.6-193.9 0 0 113.6-75.3 119.8-83.5 1.4-1.7 3.4-4 5.8-6.4zm-185 197.3c0 0-185.6 115.8-199 123.7-13.4 8-21 19.9-21 19.9l236-145.1c3.4-5.7-16 1.5-16 1.5z"/>
				<path id="&lt;Path&gt;" class="s36" d="m752.4 300.8l6.6-2.9c0.2-8.3-1.3-19.4-7.9-27.2-4.9-5.9-11.9-9-20.4-9-7.9 0-17.4 2.8-28.1 8.2-49.4 25.3-61.4 97.3-61.8 100.4l-0.1 0.5v11l5.8-3.5 0.5-0.4v-6.6c0 0 11.4-71.6 58.5-95.7 43.5-22.2 48.3 10.2 46.9 25.2z"/>
				<path id="&lt;Path&gt;" class="s37" d="m763.3 285.2c0.5-3.9 4.1-10.5 9.9-14.1 5.8-3.6 24.6-18.3 32.7-26.2 8.1-8 6.5-24.4 6.5-24.4 0 0 2.1-26.1 0.9-30.9-1.2-4.7-4.9-9.5-4.9-9.5 0 0 0-1.8-0.2-4.8h-9.4l-8.5 18.3c0 0-2.1 19.2-5.3 28.4-3.2 9.2-13.2 18.1-30.7 28.6-7.2 4.4-11.7 8.8-14.5 12.5 4.5 1.4 8.3 4 11.3 7.6 6.6 7.8 8.1 18.9 7.9 27.2l9.4-4.1-9.7 7.9q-0.1 1.6-0.3 2.9v1.6c13.5-10.3 42.5-32.7 47.7-38.9 3.4-4 7.1-13.5 9-23-12.6 19.4-51.8 40.9-51.8 40.9z"/>
				<path id="&lt;Path&gt;" class="s38" d="m670.6 266.9c-25.3 16.4-227.7 148.3-282.6 183.6l-0.3 3 278.2-181.3z"/>
				<path id="&lt;Path&gt;" class="s39" d="m377.7 534.1c-0.4 3.1-0.7 6.1-1 8.4l6.9-4.2c0.2-1.6 0.4-3.4 0.5-5.2z"/>
				<path id="&lt;Path&gt;" class="s40" d="m377.8 533c1.5-1 3.8-2.4 6.7-4.2 0.3-3.8 0.5-7.6 0.4-10.5-0.3-11.2-10.8-33.2-33.4-33.2-5.2 0-10.8 1.2-16.6 3.6-26.7 11-48.7 32.8-60.3 59.9-9.3 21.8-11.7 49.6-11.8 50.8l-0.2 2.7 1.6 1.9c-0.2 1.5-0.7 4.4-1.2 6.9q3.6-1.4 7-3.2h0.1c0.3-1.8 0.5-3.4 0.6-4.1 0.2-1.6-1.6-3.7-1.6-3.7 0 0 2.3-27.7 11.3-48.8 9.1-21 27.4-44.4 56.9-56.5 29.5-12.2 41 14.4 41.2 23.9 0.2 3.8-0.2 9.3-0.7 14.5z"/>
				<path id="&lt;Path&gt;" class="s41" d="m615.4 387.6q0 0 0.1 0 0.2-0.2 0.4-0.3 0.9-0.6 1.8-1.3 0.3-0.2 0.6-0.4 0.6-0.5 1.1-0.9 0.3-0.3 0.6-0.6 0.5-0.4 1-0.9 0.3-0.3 0.6-0.5 0.5-0.5 1-1.1 0.2-0.2 0.4-0.4 1.3-1.6 2.4-3 0.1-0.1 0.2-0.2 0.5-0.7 0.9-1.3 0.1-0.1 0.1-0.2 0.5-0.7 0.9-1.3c1.5-2.4 2.3-4.1 2.3-4.1l-236 145.1-9 7c0 1.8-0.2 3.7-0.3 5.6 41.8-25.5 212.1-129.5 230.1-140.7q0.1 0 0.1-0.1 0.4-0.2 0.7-0.4z"/>
				<path id="&lt;Path&gt;" class="s42" d="m384.8 523.2l-6.6 5.3q-0.2 2.2-0.4 4.5c1.5-1 3.8-2.4 6.7-4.2 0.1-1.9 0.3-3.8 0.3-5.6z"/>
				<path id="&lt;Path&gt;" class="s43" d="m255.9 527.9c-21.4 24.4-60.8 23-80.5 20.3-19.6-2.7-30.2-10.9-30.2-10.9l-1.8-6.1-94.4-54.8c0 0-9.3-1.8-20.6-8.7-11.4-6.9-15.6-15.5-17.2-29.8-1-9.3 1.6-22.5 3.5-30.5-5.1 9.5-10.5 18.9-12.7 29.1 0.1 5.5 0.7 11.9 2.3 19.2 5.2 22.4 37 42.8 63.3 58.7 26.3 16 52.8 31.5 77 39.8 24.2 8.2 54 7.8 80.6 1.5 26.6-6.2 30.7-27.8 30.7-27.8z"/>
				<path id="&lt;Path&gt;" class="s44" d="m173.2 567.4c0 0 46.9 12 97.2-7.4l-17.2-5.6c0 0-42.6 13-80 13z"/>
				<path id="&lt;Path&gt;" class="s45" d="m361.7 435.1l-1.2 0.8-113.4 72c0 0-1.1 0.4-3.2 1.2 1.8 8 3.7 17.2 5.3 25.2 2.4-1.9 4.6-4.1 6.7-6.4 0 0-1 5.6-5.6 11.9 1.7 8.5 2.9 14.6 2.9 14.6l17.2 5.6q-0.4 0.2-0.9 0.4h0.8c1.3-4 2.7-8 4.3-11.8 11.6-27.1 33.6-48.9 60.3-59.9 5.8-2.4 11.4-3.6 16.6-3.6 12.2 0 20.8 6.3 26.2 13.9l2.8-3.8z"/>
				<g id="&lt;Group&gt;" style="opacity: .2;mix-blend-mode: multiply">
					<path id="&lt;Path&gt;" class="s46" d="m393.5 516.3c-3.2-9.1-5.2-60.7-5.3-62.9l-2.5-34-3-5.7 0.5-0.3 3.2 5.9 2.4 34.1c0 0.5 2.2 53.7 5.3 62.7z"/>
				</g>
				<g id="&lt;Group&gt;" style="opacity: .4;mix-blend-mode: multiply">
					<path id="&lt;Path&gt;" class="s38" d="m548.2 429h-0.6v-7.5l-2.7-6.1v-0.1c0-0.2 0.8-22.2 2.2-30.7 1.4-8.4 1.1-35.6 1-35.9h0.1l0.6-2.8-3.6-29.9-4.2-7.3 0.5-0.3 4.3 7.4 3.7 30.1-0.7 2.9c0 1.2 0.3 27.6-1.1 35.9-1.3 8.2-2.1 29.2-2.2 30.6l2.7 6.2z"/>
				</g>
				<g id="&lt;Group&gt;" style="opacity: .2;mix-blend-mode: multiply">
					<path id="&lt;Path&gt;" class="s47" d="m630.1 371.3l-0.6-0.3c0.1-0.1 2.8-5.4 4.2-10.1 0.4-1.4 3.3-6.6 7.2-13.7 9.3-16.8 24.9-45 29.4-61.9 6-23.2 11.6-59 11.9-61.2l-4.1-7 0.6-0.3 4.2 7.1v0.1c-0.1 0.4-5.8 37.6-12 61.4-4.5 17-20.1 45.2-29.4 62.1-4 7.1-6.8 12.2-7.2 13.6-1.4 4.7-4.2 10.1-4.2 10.2z"/>
				</g>
				<g id="&lt;Group&gt;" style="opacity: .2;mix-blend-mode: multiply">
					<path id="&lt;Path&gt;" class="s47" d="m234.8 509.2l-0.3-0.5c0.8-0.6 89.7-59.7 100.3-66.3 10.5-6.7 16.9-33.6 17-33.9l0.6 0.1c-0.3 1.2-6.5 27.5-17.3 34.3-10.6 6.7-99.4 65.7-100.3 66.3z"/>
				</g>
				<g id="&lt;Group&gt;">
					<path id="&lt;Path&gt;" class="s48" d="m436.1 278.7c0 0-26.1 34.6-41.4 62.5-15.3 28-36.6 65.3-36.6 65.3 0 0-3.2 8-17 4.3-13.7-3.6-60.7-18.9-120.2-54.2-52.4-31.2-72.1-53.4-79.4-69.6 0 0 87.9-77.6 98.4-86.6 10.6-8.9 29.1-21.5 29.1-21.5 0 0 38.5 31.6 74.2 51.8 35.7 20.1 92.9 48 92.9 48z"/>
					<path id="&lt;Path&gt;" class="s49" d="m426.4 287.8c-9 12.5-23.8 33.9-33.9 52.2-8.9 16.2-20.2 35.6-27.5 49.2-2.9 5.4-13.1 5.6-24.5 1.3-11.5-4.4-66.2-29.9-105.1-53-38.9-23.1-62.3-46.6-67.3-51.5-5-5-8.9-11.3-4.6-15 26.6-23.5 70.9-62.5 78.1-68.6 5-4.3 12-9.5 17.8-13.6 0 0 39.3 30.7 73.8 51.6 34.4 20.9 93.2 47.4 93.2 47.4z"/>
					<path id="&lt;Path&gt;" class="s48" d="m372.5 420.5l170.3-112 138.8-91.6 52-36.8c0 0 7.5-5.5 8.4-12.2 0.9-6.6 1.9-13-1.6-16.2-3.4-3.2-31.6-26.1-35.5-26.4-3.9-0.2-15.3 4.6-21.5 8.1-6.2 3.4-140.3 78.7-156.4 88.6-16 9.8-51.5 32.9-76.2 63.6-24.7 30.7-71.2 109.2-75.1 117.2-3.9 8-5.2 15.7-3.2 17.7z"/>
					<path id="&lt;Path&gt;" class="s48" d="m761.2 105.6c-9.9-7.2-17.8-12.5-17.8-12.6l-2.6 8.9 44.7 38.7c0 0-5.4-19.1-24.3-35z"/>
					<g id="&lt;Group&gt;">
						<path id="&lt;Path&gt;" class="s49" d="m641.3 160c-36.6 20.5-85.8 48.3-105.7 59.8 3.5 15.3 12 53.8 15.5 78l120.9-80.9z"/>
						<path id="&lt;Path&gt;" class="s49" d="m735.7 155.9c-4.4-4.1-32-24.1-36.1-25.2l-2.4-0.3c-1.1 0-6.3 1.7-12.6 5.2-1.6 0.9-15.9 8.9-35.3 19.8l30.1 56.6 50.4-35.2c1.9-1.4 7.2-4.4 7.8-8.9v-0.2c0.8-5.7 0.5-9.6-1.9-11.8z"/>
						<path id="&lt;Path&gt;" class="s49" d="m527.1 313.7c0 0-6.2-58.6-9.6-82.6-27.1 17.8-49.4 37-64.7 56.1-24.4 30.2-70.6 108-74.8 116.7-2.7 5.5-3.3 7.1-3.4 9.7z"/>
					</g>
					<path id="&lt;Path&gt;" class="s49" d="m770.3 118c-1.1-1.7-7.1-8.8-11.5-14.2-8.8-6.3-15.4-10.7-15.4-10.8l-1.7 5.5c5.1 4.3 28.7 24 30.4 25.4 1.9 1.6 0-3.1-1.8-5.9z"/>
					<path id="&lt;Path&gt;" class="s50" d="m261.3 190.2c-23.5 17.5-54.1 50.9-54.1 50.9l69.2-39.5c-7.1-5.2-12.4-9.3-15.1-11.4z"/>
					<path id="&lt;Path&gt;" class="s51" d="m208.4 260.6c-11.6-2.5-36.9 11.5-46.2 16.9 0.9 2.8 3.2 5.8 5.9 8.5 5 4.9 28.4 28.4 67.3 51.5 38.9 23.1 93.6 48.6 105.1 53 11.4 4.3 21.6 4.1 24.5-1.3 4.2-7.9 9.8-17.8 15.5-27.8-15.7-11.3-54.7-33.7-80.4-48.7-30.9-18.1-77.5-49-91.7-52.1z"/>
					<path id="&lt;Compound Path&gt;" fill-rule="evenodd" class="s52" d="m398.9 324.7q0.8 0.8 1.6 1.6c-2.9 4.7-5.6 9.3-8 13.7-3.3 6-6.9 12.3-10.5 18.7-3.2-2.6-6.5-5.5-9.6-8.8-16.1-17-23.2-36.4-15.9-43.3 7.3-7 26.3 1.1 42.4 18.1zm-15.9-6.4c-8.9-5.9-17.3-7.8-21.3-4-4 3.9-2.5 12.6 3.2 22-0.8-2.7-0.9-5.1-0.2-5.6 1.3-0.9 9.1-6 14.8-8.4 3.2-1.3 3.7-2.9 3.5-4z"/>
					<path id="&lt;Path&gt;" class="s52" d="m386.1 351.5c-4-5.8-9.7-11.4-17.2-15.6-12.5-6.8-37.2-12.5-48.5-9.5-11.2 3-15.2 26.3 11 41.4 12.9 7.5 26.7 12.2 37.8 13.7 5-9.1 11.1-19.7 16.9-30z"/>
					<path id="&lt;Path&gt;" class="s53" d="m259.4 188.8c-5.8 4.1-12.8 9.3-17.8 13.6-7.2 6.1-51.5 45.1-78.1 68.6-4.3 3.7-0.4 10 4.6 15 2.4 2.4 9.3 9.2 20.1 18.3 30.1-20.8 78.5-51.5 130.1-73.3-30-19.6-58.9-42.2-58.9-42.2z"/>
				</g>
				<g id="&lt;Group&gt;">
					<path id="&lt;Path&gt;" class="s54" d="m387.8 448.6l0.9 0.4-0.9 4c0 0-15.2 9.1-18.1 9.6-2.9 0.6-2-0.8 0-2.5 2-1.8 18.1-11.5 18.1-11.5z"/>
					<path id="&lt;Path&gt;" class="s55" d="m388.5 449v4.4c0 0-15.2 9.1-18.1 9.6-2.9 0.6-1.9-0.8 0-2.5 2-1.8 18.1-11.5 18.1-11.5z"/>
				</g>
				<g id="&lt;Group&gt;">
					<path id="&lt;Path&gt;" class="s56" d="m264.3 511.3c0-2.6-9.8-6-20.7-5.7-11 0.2-38.9 7-53.2 9.5-13.3 2.4-27.9 5.2-27.9 5.2l-15.6 16.8c0 0 15.4 9.6 34.7 10.8 19.3 1.1 53.4-0.2 64.6-8.2 11.1-8 18.1-26.8 18.1-28.4z"/>
					<path id="&lt;Path&gt;" class="s57" d="m194.7 547.6c-4.5 0-9-0.1-13-0.4-16.7-0.9-30.6-8.4-33.8-10.2l14.9-16.1c1.8-0.3 15.4-2.9 27.7-5.1 4.6-0.8 10.4-2.1 16.7-3.4 13.5-2.8 28.9-6 36.4-6.2q0.5 0 1 0c10.8 0 19.1 3.4 19.1 5.1 0 1.4-6.8 20-17.9 27.9-10.8 7.8-41.8 8.4-51.1 8.4z"/>
					<path id="&lt;Path&gt;" class="s58" d="m233 515.3c0-3-1.1-4.7-2.8-7.4-7.1 1.2-15.4 2.9-23 4.5-6.3 1.3-12.1 2.6-16.7 3.4-5.5 1-11.3 2-16.2 3-0.7 1.1-1.1 2.6-1.1 4.5 0 6.4 4.5 14.7 10.2 18.4 2.8 1.8 5.3 2.2 7.2 1.3l39.2-19.1c1.9-0.9 3.2-5.3 3.2-8.6z"/>
					<path id="&lt;Path&gt;" class="s59" d="m183.4 518.3q-0.9-0.5-1.7-0.9c-2.6 0.5-5.1 0.9-7.4 1.4-0.7 1.1-1.1 2.6-1.1 4.5 0 6.4 4.5 14.7 10.2 18.4 2.8 1.8 5.3 2.2 7.2 1.3 1.8-0.9 3-3.1 3-6.3 0-6.5-4.6-14.7-10.2-18.4z"/>
					<path id="&lt;Path&gt;" class="s60" d="m263.7 511.3c0-1.7-8.3-5.1-19.1-5.1q-0.5 0-1 0c-3.8 0.1-9.6 0.9-16.1 2.1l-12.4 6.2c-1.9 0.9-3.1 3.1-3.1 6.5 0 6.6 4.7 15.1 10.5 18.9 2.9 1.9 5.5 2.3 7.4 1.3l25.3-12.3c5.4-8 8.5-16.7 8.5-17.6z"/>
					<path id="&lt;Path&gt;" class="s59" d="m212 521c0 6.6 4.7 15.1 10.5 18.9 2.9 1.9 5.5 2.3 7.4 1.3 1.9-0.9 3.1-3.1 3.1-6.5 0-6.6-4.7-15.1-10.5-18.9-2.9-1.9-5.5-2.2-7.4-1.3-1.9 0.9-3.1 3.1-3.1 6.5z"/>
					<path id="&lt;Path&gt;" class="s61" d="m194.7 547.6c-4.5 0-9-0.1-13-0.4-16.7-0.9-30.6-8.4-33.8-10.2l14.9-16.1c1.8-0.3 15.4-2.9 27.7-5.1 4.6-0.8 10.4-2.1 16.7-3.4 13.5-2.8 28.9-6 36.4-6.2q0.5 0 1 0c10.8 0 19.1 3.4 19.1 5.1 0 1.4-6.8 20-17.9 27.9-10.8 7.8-41.8 8.4-51.1 8.4z"/>
				</g>
				<g id="&lt;Group&gt;">
					<path id="&lt;Path&gt;" class="s62" d="m28.6 466.1c0 0 2.6-24.3 2.8-33.5 0.2-9.3 0-27.3 0.7-34.2 0.6-6.2 2.2-17.7 0.1-20.2-4.6 7-9 14.2-12.4 20.2 0 0.1-5.6 18.1-5.9 32.4-0.3 14.3 4 25.6 14.7 35.3z"/>
					<path id="&lt;Path&gt;" class="s57" d="m28.1 464.8c-9.6-9.1-13.9-19.9-13.6-34 0.4-13.6 5.5-30.9 5.9-32.1 3.6-6.3 7.7-13.1 11.7-19.2 1.1 2.9 0.2 10.6-0.4 16q-0.1 1.5-0.3 2.8c-0.4 4.6-0.5 14.1-0.5 22.5 0 4.4-0.1 8.6-0.1 11.8-0.2 7.9-2.2 27.1-2.7 32.2z"/>
					<path id="&lt;Path&gt;" class="s63" d="m24.1 396.9c-1.8 0.9-3 3.1-3 6.3 0 6.3 4.3 14.3 9.8 18.1q0-0.2 0-0.5c0-8.4 0.1-17.9 0.5-22.5q0.2-1.3 0.3-2.8 0.2-1.2 0.3-2.5z"/>
					<path id="&lt;Path&gt;" class="s59" d="m31.4 398.3q0 0-0.1-0.1c-2.8-1.8-5.3-2.2-7.2-1.3-1.8 0.9-3 3.1-3 6.3 0 6.3 4.3 14.3 9.8 18.1q0-0.2 0-0.5c0-8.4 0.1-17.9 0.5-22.5q0 0 0 0z"/>
					<path id="&lt;Path&gt;" class="s64" d="m19.7 422c-1.9 0.9-3.1 3.1-3.1 6.4 0 6.4 4.6 14.6 10.2 18.3q1.5 1 2.9 1.4c0.5-5.9 1-11.9 1.1-15.5 0-3.2 0.1-7.4 0.1-11.8q0-2.1 0-4.3z"/>
					<path id="&lt;Path&gt;" class="s59" d="m26.9 423.4c-2.9-1.9-5.4-2.3-7.2-1.4-1.9 0.9-3.1 3.1-3.1 6.4 0 6.4 4.6 14.6 10.2 18.3q1.5 1 2.9 1.4c0.5-5.9 1-11.9 1.1-15.5 0-1.7 0-3.6 0-5.7-1.2-1.4-2.5-2.6-3.9-3.5z"/>
					<path id="&lt;Path&gt;" class="s65" d="m28.1 464.8c-9.6-9.1-13.9-19.9-13.6-34 0.4-13.6 5.5-30.9 5.9-32.1 3.6-6.3 7.7-13.1 11.7-19.2 1.1 2.9 0.2 10.6-0.4 16q-0.1 1.5-0.3 2.8c-0.4 4.6-0.5 14.1-0.5 22.5 0 4.4-0.1 8.6-0.1 11.8-0.2 7.9-2.2 27.1-2.7 32.2z"/>
				</g>
				<g id="&lt;Group&gt;">
					<path id="&lt;Path&gt;" class="s66" d="m797.8 137.4c-3.3-4.8-10-11-17.7-17.3 0.2 0.1 12.8 16.7 13.9 22.6 1.1 5.9-2.3 9.7-2.3 9.7l-1.5 43.8c0 0 14.7-9.5 17.9-21.7-0.6-8.8-2.9-26.2-10.3-37.1z"/>
					<path id="&lt;Path&gt;" class="s67" d="m799.9 150.9l-8.2 1.5-1.5 43.8c0 0 10.5-6.8 15.7-16.2z"/>
					<path id="&lt;Path&gt;" class="s68" d="m799.9 150.9c0 0 0.9-5.2-1.6-12.7q-0.3-0.4-0.5-0.8c-3.3-4.8-10-11-17.7-17.3 0.2 0.1 12.8 16.7 13.9 22.6 1.1 5.9-2.3 9.7-2.3 9.7z"/>
					<path id="&lt;Path&gt;" class="s69" d="m803.5 168.5l2.4 11.5c1-1.8 1.7-3.6 2.2-5.5-0.3-4-0.9-9.9-2.2-16.1-0.2 2.7-0.8 6.6-2.4 10.1z"/>
				</g>
				<path id="&lt;Path&gt;" class="s70" d="m643.6 269.5c2.6 1 7.9-0.9 11.2-2.9 3.7-2.2 7.8-5.7 8.4-7.2 0.3-1-2.2-1.7-4.1-2.1q-1.9 1.2-3.9 2.7c-4.2 3-8.7 6.7-11.6 9.5z"/>
				<path id="&lt;Path&gt;" class="s70" d="m671 257.2c0.1-1.6-0.1-2.7-0.2-3.5 0 0-0.7 3.9-6.6 8.1-5.8 4.3-15 11.3-20.9 11.1q-1.4 0-2.4-0.1-0.2 0.3-0.3 0.5c-0.5 2.2-1.3 4.5 1 4.7 2.3 0.3 11.3-4 17.6-8.4 6.2-4.3 11.5-8.4 11.8-12.4z"/>
				<path id="&lt;Path&gt;" class="s71" d="m659.2 269.6c-2.5 1.7-5.3 3.4-8 4.8 0.3 1 1.1 2.1 3 0.9 3.2-2 9-5.4 9.6-7.9 0.1-0.5 0.1-0.9 0.1-1.2q-2.2 1.7-4.7 3.4z"/>
				<path id="&lt;Path&gt;" class="s71" d="m663.2 259.4c0.3-1-2.2-1.7-4.1-2.1l0.6 5.8c1.8-1.5 3.2-2.9 3.5-3.7z"/>
				<path id="&lt;Path&gt;" class="s70" d="m515.1 354.7c2.6 1 7.9-0.9 11.2-2.9 3.7-2.2 7.9-5.7 8.4-7.3 0.3-0.9-2.2-1.6-4-2q-2 1.2-4 2.6c-4.1 3.1-8.7 6.8-11.6 9.6z"/>
				<path id="&lt;Path&gt;" class="s70" d="m542.5 342.4c0.1-1.6 0-2.8-0.2-3.5 0 0-0.7 3.9-6.5 8.1-5.8 4.3-15 11.3-21 11.1q-1.3-0.1-2.4-0.2-0.2 0.4-0.2 0.6c-0.6 2.2-1.3 4.4 1 4.7 2.3 0.3 11.2-4 17.5-8.4 6.3-4.3 11.5-8.4 11.8-12.4z"/>
				<path id="&lt;Path&gt;" class="s71" d="m530.7 354.8c-2.4 1.7-5.2 3.4-7.9 4.8 0.3 1 1 2.1 2.9 0.9 3.2-2 9-5.4 9.6-7.9 0.1-0.5 0.1-0.9 0.1-1.2q-2.2 1.7-4.7 3.4z"/>
				<path id="&lt;Path&gt;" class="s71" d="m534.7 344.5c0.3-0.9-2.2-1.6-4.1-2l0.6 5.8c1.8-1.5 3.2-2.9 3.5-3.8z"/>
				<path id="&lt;Path&gt;" class="s72" d="m162.5 520.3q0 0 0.2 0c-12.2-4.9-53.4-22-74.9-34.5-24.4-14.2-52.6-39.8-57-43.7-0.8 10.6-2.2 24-2.2 24q-0.1-0.1-0.2-0.2l0.5 1.8c0 0 28 24.2 49.8 36.8 28.5 16.6 65.6 32.5 65.6 32.5h2.7z"/>
				<path id="&lt;Path&gt;" class="s73" d="m84.8 491.6c-27.3-16.7-53.3-40.2-53.3-40.2l-0.3 12.6 1.2 1.1c8.8 7.6 30.6 24.8 50.7 37.2 23.9 14.7 56.5 26.7 65.3 30.2l7.9-7.3c0 0-44.3-16.8-71.5-33.6z"/>
				<path id="&lt;Path&gt;" class="s33" d="m31.5 451.4l-0.3 12.6 4.5-6.2 0.5-2.3c-3-2.6-4.7-4.1-4.7-4.1z"/>
				<g id="&lt;Group&gt;">
					<path id="&lt;Path&gt;" class="s74" d="m80.3 493.9c-20.2-12.3-39.6-28.4-48.4-35.9l-1.6 1.1c0 0 25.2 21.6 48.7 35.7 30.1 18 71.7 35.1 71.7 35.1l2-1.8c-8.9-3.4-48.6-19.5-72.4-34.2z"/>
					<path id="&lt;Path&gt;" class="s75" d="m30.3 459.1l0.6 1.3c0 0 25.3 21.6 48.8 35.7 30.1 18.1 70.1 34.7 70.1 34.7l0.9-0.9c0 0-41.6-17.1-71.7-35.1-23.5-14.1-48.7-35.7-48.7-35.7z"/>
				</g>
				<g id="&lt;Group&gt;">
					<path id="&lt;Path&gt;" class="s76" d="m78.9 499.6c-20.2-12.4-38.9-28.1-47.7-35.6l-1.6 1.1c0 0 24.6 21.3 48.1 35.4 30.1 18 68.7 33.7 68.7 33.7l2-1.7c-8.8-3.5-45.6-18.2-69.5-32.9z"/>
					<path id="&lt;Path&gt;" class="s77" d="m29.6 465.1l0.6 1.3c0 0 24.6 21.3 48.1 35.4 30.1 18 67.3 33.3 67.3 33.3l0.8-0.9c0 0-38.6-15.7-68.7-33.7-23.5-14.1-48.1-35.4-48.1-35.4z"/>
				</g>
				<g id="&lt;Group&gt;">
					<path id="&lt;Path&gt;" class="s78" d="m82.2 486.9c-20.4-12.5-40.2-28.9-49.1-36.5l-1.7 1.1c0 0 25.7 22 49.6 36.3 30.6 18.3 75.4 36.6 75.4 36.6l2-1.8c-9-3.5-51.9-20.7-76.2-35.7z"/>
					<path id="&lt;Path&gt;" class="s79" d="m31.4 451.5l0.7 1.4c0 0 25.6 21.9 49.5 36.2 30.6 18.4 73.9 36.2 73.9 36.2l0.9-0.9c0 0-44.8-18.3-75.4-36.6-23.9-14.3-49.6-36.3-49.6-36.3z"/>
				</g>
				<path id="&lt;Path&gt;" class="s80" d="m98.8 498.2c-2.5 10.2-10.8 17-18.6 15.1-7.8-1.9-12.1-11.6-9.6-21.8 2.4-10.2 10.8-17.1 18.5-15.1 9.8 2.5 12.1 11.6 9.7 21.8z"/>
				<path id="&lt;Path&gt;" class="s72" d="m95.1 499.5c-2.1 8.4-9.3 13.9-16.2 12.3-6.9-1.7-10.8-9.9-8.8-18.3 2-8.5 9.3-13.9 16.2-12.3 6.9 1.7 10.8 9.9 8.8 18.3z"/>
				<path id="&lt;Path&gt;" class="s81" d="m93.9 499.2c-1.8 7.7-8.4 12.7-14.7 11.2-6.2-1.6-9.8-9-8-16.6 1.9-7.7 8.5-12.7 14.7-11.2 6.3 1.5 9.8 9 8 16.6z"/>
				<g id="&lt;Group&gt;">
					<path id="&lt;Path&gt;" class="s33" d="m215.8 588.3c0 0-47.2-1.5-75.3-15.2l-3.6 24.5c0 0 26.4 11.5 54.5 12.9 28 1.4 53-3.9 56.3-5.4l-2.3-11.9z"/>
					<path id="&lt;Path&gt;" class="s82" d="m193.1 597.4c33 0.8 49.5-0.9 52.9-1.4-0.3-1.5-0.6-2.8-0.8-3.9-1.1-3.8-3.6-3.6-5.1-3.6-2.8-0.2-16.9 0.3-32.3-0.4-10.8-0.5-23.2-1.4-34.9-2.5l15.9 10.6c0.8 0.5 2.3 1.2 4.3 1.2z"/>
					<path id="&lt;Path&gt;" class="s83" d="m213.4 609.4c9.3-0.5 33.4-2.3 34.3-4.3q0-0.3 0-0.3c0 0-0.6-3.4-1.3-6.9-3.1 0.6-15.2 2.4-51.9 2.4l13.9 8.1c0.9 0.6 3.2 1.1 5 1z"/>
					<path id="&lt;Path&gt;" class="s33" d="m233.4 597.1c6.9-0.4 11-0.9 12.6-1.1-0.3-1.5-0.6-2.8-0.8-3.9-1.1-3.8-3.6-3.6-5.1-3.6-1.3-0.1-4.6 0-9.3 0 0.7 2 1.7 5.2 2.6 8.6z"/>
					<path id="&lt;Path&gt;" class="s33" d="m234.1 599.3c0.8 2.9 1.6 5.9 2.1 8.2 6.2-0.7 11.1-1.5 11.5-2.4q0-0.3 0-0.3c0 0-0.6-3.4-1.3-6.9-1.5 0.3-5.2 0.9-12.3 1.4z"/>
					<path id="&lt;Path&gt;" class="s73" d="m207.8 588.1c-7.5-0.3-15.6-0.9-23.7-1.5l10.4 7.5c0 0 28.5 1.4 38.2 0.6-0.7-2.4-1.4-4.7-1.9-6.2-5.9 0-14.3 0-23-0.4z"/>
					<path id="&lt;Path&gt;" class="s73" d="m206.3 600.2l7.7 5.7c0 0 14.4-0.2 21.6-1-0.5-1.7-1-3.7-1.5-5.6-6 0.4-14.8 0.8-27.8 0.9z"/>
				</g>
				<g id="&lt;Group&gt;">
					<path id="&lt;Path&gt;" class="s84" d="m26.9 531.9c10.3 9.8 68.9 46 82.3 52.9 16.6 8.5 41.3 20.1 64 23.7q1.1 0.1 2.2 0.3c-4.1-5.4-16.5-21.8-18.6-24.5-2.4-3.2-4.3-6.1-8.9-7.9-4.6-1.8-47.1-21.4-75.4-38.9-28.3-17.5-55.1-39.7-55.1-39.7 0 0-3.1-1.3-5.2 1.7-0.8 1.1-2.9 3.5-5.3 6 4.1 8.3 14.7 21.3 20 26.4z"/>
					<path id="&lt;Path&gt;" class="s33" d="m110.2 577.9c-13.4-6.8-70.9-42.5-81.2-52.3-4.5-4.3-13.4-15.5-18.6-23.9q-0.5 0.6-1.1 1.2c4.6 8.3 14.3 20.1 19.3 24.8 10.3 9.9 68.8 46 82.3 52.9 15.8 8.1 38.9 19.1 60.7 23.2q-0.8-1.1-1.7-2.4c-21.5-4.3-44.1-15.5-59.7-23.5z"/>
					<path id="&lt;Path&gt;" class="s33" d="m113.4 570.3c-13.4-6.8-72-43-82.3-52.8-4-3.9-11.2-12.4-16.2-19.9-0.7 0.2-1.5 0.5-2.2 1.3 5 7.6 12.4 16.3 16.5 20.2 10.3 9.9 68.8 46.1 82.3 52.9 13.7 7.1 33 16.2 52.1 21.2q-1.1-1.4-2.1-2.8c-17.8-5.1-35.3-13.5-48.1-20.1z"/>
					<path id="&lt;Path&gt;" class="s33" d="m108.6 561.1c14.2 7.6 29.7 16.2 47.1 21.8-2-2.6-3.9-4.9-7.8-6.5-4.6-1.8-47.1-21.4-75.4-38.9-26.8-16.6-52.4-37.4-54.9-39.5 3.1 3.2 6 6.1 7.8 8.3 10.4 12.7 65.5 45.4 83.2 54.8z"/>
					<path id="&lt;Path&gt;" class="s72" d="m162.1 591.3q-0.6-0.9-1.3-1.7c-17.5-5.2-34.7-13.5-47.3-19.9-13-6.6-71.6-42.7-82.1-52.8-4.1-3.8-11-12-15.9-19.3q-0.6 0-1.3 0.3c5 7.5 12.2 16 16.3 20 10.6 10 69.4 46.3 82.4 52.9 13 6.7 31 15.3 49.2 20.5z"/>
					<path id="&lt;Path&gt;" class="s72" d="m170.7 602.6q-0.6-0.8-1.2-1.6c-20.7-4.6-42-14.7-56.9-22.3-13-6.7-71.6-42.8-82.1-52.8-5.1-4.9-15-16.9-19.4-25.1q-0.4 0.5-0.8 1.1c4.6 8.3 14.2 20.1 19.3 24.9 10.6 10.1 69.4 46.3 82.5 53 15.2 7.8 37.3 18.3 58.6 22.8z"/>
					<path id="&lt;Path&gt;" class="s72" d="m52.2 543.2v3.2q1 0.6 1.9 1.3v-3.3q-0.9-0.6-1.9-1.2z"/>
					<path id="&lt;Path&gt;" class="s72" d="m106.7 576.9v3.1q1 0.6 1.9 1v-3q-0.9-0.5-1.9-1.1z"/>
					<path id="&lt;Path&gt;" class="s72" d="m69.2 554.2v3.1q1 0.7 1.9 1.2v-3.1q-0.9-0.6-1.9-1.2z"/>
					<path id="&lt;Path&gt;" class="s72" d="m87.7 565.6v3.2q1 0.6 1.9 1.2v-3.2q-0.9-0.6-1.9-1.2z"/>
					<path id="&lt;Path&gt;" class="s72" d="m125.7 586.6v2.9q1 0.4 1.9 0.9v-3q-0.9-0.4-1.9-0.8z"/>
					<path id="&lt;Path&gt;" class="s72" d="m20.4 516.4v4q0.9 1.2 1.9 2.3v-4q-1-1.1-1.9-2.3z"/>
					<path id="&lt;Path&gt;" class="s72" d="m35.8 531.8v3.3q0.9 0.7 1.9 1.4v-3.3q-1-0.7-1.9-1.4z"/>
					<path id="&lt;Path&gt;" class="s72" d="m148.4 596.1v2.7q0.9 0.4 1.9 0.7v-2.7q-1-0.4-1.9-0.7z"/>
					<g id="&lt;Group&gt;">
						<path id="&lt;Path&gt;" class="s72" d="m22.3 514.4v-5.7q-1-1.2-1.9-2.4v5.7q0.9 1.2 1.9 2.4z"/>
					</g>
					<g id="&lt;Group&gt;">
						<path id="&lt;Path&gt;" class="s72" d="m37.6 531.6q0.1 0 0.1 0.1 0-0.1-0.1-0.1z"/>
						<path id="&lt;Path&gt;" class="s72" d="m37.7 530.1v-6.5q-1-0.7-1.9-1.4v6.4q0.9 0.7 1.9 1.5z"/>
						<path id="&lt;Path&gt;" class="s72" d="m35.8 530.2c0.3 0.3 0.7 0.5 1 0.8q-0.5-0.4-1-0.8z"/>
					</g>
					<path id="&lt;Path&gt;" class="s72" d="m54.1 541.5v-6.6q-0.9-0.6-1.9-1.3v6.6q1 0.6 1.9 1.3z"/>
					<path id="&lt;Path&gt;" class="s72" d="m71.1 552.5v-6.6q-0.9-0.7-1.9-1.3v6.7q1 0.6 1.9 1.2z"/>
					<path id="&lt;Path&gt;" class="s72" d="m89.6 563.9v-6.6q-0.9-0.6-1.9-1.2v6.7q1 0.6 1.9 1.1z"/>
					<path id="&lt;Path&gt;" class="s72" d="m108.6 575.2v-6.7q-0.9-0.5-1.9-1.1v6.7q1 0.6 1.9 1.1z"/>
					<path id="&lt;Path&gt;" class="s72" d="m127.6 584.9v-6.8q-0.9-0.5-1.9-0.9v6.8q1 0.4 1.9 0.9z"/>
					<path id="&lt;Path&gt;" class="s72" d="m150.3 594.4v-6.9q-1-0.4-1.9-0.7v6.9q0.9 0.3 1.9 0.7z"/>
					<path id="&lt;Path&gt;" class="s72" d="m150.3 577.6q-0.9-0.5-1.9-0.9v7.7q0.9 0.3 1.9 0.7z"/>
					<path id="&lt;Path&gt;" class="s72" d="m20.4 500.3v1.6q0.9 1.2 1.9 2.5v-2.6q-1.1-0.9-1.9-1.5z"/>
					<path id="&lt;Path&gt;" class="s72" d="m54.1 525.4q-0.9-0.7-1.9-1.3v6.5q1 0.7 1.9 1.3z"/>
					<path id="&lt;Path&gt;" class="s72" d="m71.1 536.6q-0.9-0.6-1.9-1.2v6.3q1 0.6 1.9 1.2z"/>
					<path id="&lt;Path&gt;" class="s72" d="m106.7 556.6v8q1 0.6 1.9 1.1v-8.2q-0.9-0.4-1.9-0.9z"/>
					<path id="&lt;Path&gt;" class="s72" d="m127.6 567q-0.9-0.4-1.9-0.9v8.5q1 0.4 1.9 0.9z"/>
					<path id="&lt;Path&gt;" class="s72" d="m37.7 513.6q-1-0.7-1.9-1.4v6.8q0.9 0.7 1.9 1.4z"/>
					<path id="&lt;Path&gt;" class="s72" d="m89.6 547.4q-0.9-0.5-1.9-1v6.9q1 0.5 1.9 1.1z"/>
				</g>
				<g id="&lt;Group&gt;">
					<path id="&lt;Path&gt;" class="s85" d="m431.5 366.7c0 0 31.6 10.7 31.2 24.2l-0.9 3.8c0 0-9.4 8.1-22.9 8.6-13.5 0.6-25.8-0.9-25.8-0.9l-9.5 7-12.6-0.6 14-11.6c0 0-1-2 1.4-5.2 2.5-3.3 5.9-8.2 10.3-13.4 4.3-5.1 14.8-11.9 14.8-11.9z"/>
					<path id="&lt;Path&gt;" class="s86" d="m404.9 394.9c-0.3 1.5 0.1 2.3 0.1 2.3l-14 11.6 12.6 0.6 9.5-7c0 0 12.3 1.5 25.8 0.9 13.5-0.5 22.9-8.6 22.9-8.6l0.9-3.8c0 0-23.3 13.5-57.8 4z"/>
					<path id="&lt;Path&gt;" class="s87" d="m438.9 403.3c13.5-0.5 22.9-8.6 22.9-8.6l0.4-1.8c-3.1 1.6-21.2 10.4-47.6 6l-1.4 1-0.1 2.5c0 0 12.3 1.5 25.8 0.9z"/>
					<path id="&lt;Path&gt;" class="s88" d="m413.2 399.9c0 0-3.3-0.4-8.2-2.7l-14 11.6 12.6 0.6 9.5-7z"/>
				</g>
				<g id="&lt;Group&gt;">
					<path id="&lt;Path&gt;" class="s85" d="m162.4 263.6c10-9 21.3-18.9 32.5-28.8 0-3.4-0.2-8.4-1.2-10.4-1.5-3-12.6-10.8-16.1-10.6-3.5 0.2-13.7 7.5-15.5 14.8-1.8 7.3 1.8 20.3 1.8 20.3z"/>
					<path id="&lt;Path&gt;" class="s86" d="m193.7 224.4q-0.1-0.1-0.2-0.3c-3.3 2.3-8 5.8-12.6 10.6-8.8 9.4-9.2 17.4-12 16.7-2.8-0.7-5-2.5-5-2.5l-1.5 14.7c10-9 21.3-18.9 32.5-28.8 0-3.4-0.2-8.4-1.2-10.4z"/>
					<path id="&lt;Path&gt;" class="s88" d="m170.2 256c0 0-4.2-1.7-6.7-3.3l-1.1 10.9q3.9-3.5 8-7.2z"/>
				</g>
				<g id="&lt;Group&gt;">
					<path id="&lt;Path&gt;" class="s89" d="m720.8 88.9l-35.5 18.2v-2.4c0 0-101.3 54.7-119.7 65.7-18.4 10.9-70.9 41.5-87.3 57.3v4.5l-22.6 20.1c0 0 3.6-11.3 24.5-30.5 20.8-19.1 64.6-44 84.4-55.5 19.7-11.4 111.6-61.8 119.9-66.4 8.4-4.7 21-10.4 23.8-11 2.8-0.6 12.5 0 12.5 0z"/>
					<path id="&lt;Path&gt;" class="s90" d="m480.2 221.8c20.8-19.1 64.6-44 84.4-55.5 19.7-11.4 111.6-61.8 119.9-66.4 8.4-4.7 21-10.4 23.8-11 0.9-0.2 2.4-0.3 4.1-0.3-2.7-0.2-5.9-0.4-7.4-0.1-2.7 0.6-15.4 6.4-23.8 11-8.3 4.6-100.1 55-119.9 66.5-19.8 11.4-63.6 36.3-84.4 55.5-20.9 19.1-24.5 30.4-24.5 30.4l3.3 0.4c0 0 3.6-11.3 24.5-30.5z"/>
				</g>
				<g id="&lt;Group&gt;">
					<path id="&lt;Path&gt;" class="s89" d="m302.1 161.4l29.2-17.5v-3.1c0 0 96.8-55.2 147.2-79.1 50.4-23.9 73.7-36.7 73.7-36.7l0.9 2.6 36.1-17.6c0 0-4.1-3.7-15.8 1.9-11.7 5.6-70.1 33.8-96.6 46.6-26.4 12.8-133.3 70.7-146.5 78.5-13.2 7.8-28.2 24.4-28.2 24.4z"/>
					<path id="&lt;Path&gt;" class="s90" d="m330.3 137c13.2-7.8 120.1-65.7 146.5-78.5 26.5-12.8 84.9-41 96.6-46.6 4.8-2.3 8.3-3 10.7-3.1-2.1-0.7-6.5-0.9-14 2.7-11.6 5.6-70.1 33.8-96.6 46.6-26.4 12.9-133.3 70.7-146.5 78.5-13.2 7.8-28.2 24.4-28.2 24.4l3.3 0.4c0 0 15-16.6 28.2-24.4z"/>
				</g>
			</g>
		</g>
	</g>
</svg>