<svg xmlns="http://www.w3.org/2000/svg" viewBox="1416.346 625.541 66.992 70.459" width="66.992" height="70.459">
  <g id="Regular-S" transform="matrix(1, 0, 0, 1, 1406.579956, 696)">
    <path class="template-0 SFSymbolsPreview000000" d="M49.4141 0Q55.3223 0 60.6201-1.68457Q65.918-3.36914 69.9463-6.83594Q73.9746-10.3027 76.123-15.7227Q76.4648-16.6016 76.5869-17.4316Q76.709-18.2617 76.709-18.9941Q76.709-20.7031 75.708-21.7041Q74.707-22.7051 72.998-22.7051Q71.4844-22.7051 70.459-21.8506Q69.4336-20.9961 68.75-19.2383Q66.3574-13.1348 61.1816-10.4736Q56.0059-7.8125 49.4629-7.8125Q42.7734-7.8125 37.6221-11.1816Q32.4707-14.5508 29.5898-20.7275Q26.709-26.9043 26.709-35.3027Q26.709-43.5547 29.6143-49.707Q32.5195-55.8594 37.6465-59.2529Q42.7734-62.6465 49.4141-62.6465Q53.7598-62.6465 57.5195-61.2061Q61.2793-59.7656 64.1357-56.958Q66.9922-54.1504 68.6035-50.0977Q69.2871-48.3398 70.3613-47.4854Q71.4355-46.6309 72.9492-46.6309Q74.6582-46.6309 75.708-47.6807Q76.7578-48.7305 76.7578-50.4395Q76.7578-52.0996 76.123-53.7109Q74.1211-58.8379 70.3369-62.5977Q66.5527-66.3574 61.2549-68.4082Q55.957-70.459 49.4141-70.459Q40.1367-70.459 33.0811-66.1133Q26.0254-61.7676 22.0703-53.8574Q18.1152-45.9473 18.1152-35.3027Q18.1152-24.5117 22.0459-16.5771Q25.9766-8.64258 33.0322-4.32129Q40.0879 0 49.4141 0ZM12.5-39.502L54.2969-39.502Q55.5176-39.502 56.2988-40.332Q57.0801-41.1621 57.0801-42.334Q57.0801-43.6035 56.2988-44.3848Q55.5176-45.166 54.2969-45.166L12.5-45.166Q11.3281-45.166 10.5469-44.3848Q9.76562-43.6035 9.76562-42.334Q9.76562-41.1621 10.5469-40.332Q11.3281-39.502 12.5-39.502ZM12.5-25.4883L54.2969-25.4883Q55.5176-25.4883 56.2988-26.3184Q57.0801-27.1484 57.0801-28.3203Q57.0801-29.541 56.2988-30.3223Q55.5176-31.1035 54.2969-31.1035L12.5-31.1035Q11.3281-31.1035 10.5469-30.3223Q9.76562-29.541 9.76562-28.3203Q9.76562-27.1484 10.5469-26.3184Q11.3281-25.4883 12.5-25.4883Z"/>
  </g>
</svg>