<svg version="1.2" xmlns="http://www.w3.org/2000/svg" viewBox="0 0 748 477" width="32" height="32">
	<defs>
		<linearGradient id="g1" x2="1" gradientUnits="userSpaceOnUse" gradientTransform="matrix(-182.504,-1154.753,2338.924,-369.657,364.566,673.946)">
			<stop offset="0" stop-color="#505a66"/>
			<stop offset="1" stop-color="#79828c"/>
		</linearGradient>
		<linearGradient id="g2" x2="1" gradientUnits="userSpaceOnUse" gradientTransform="matrix(-363.712,-313.109,554.52,-644.14,353.797,599.797)">
			<stop offset="0" stop-color="#6d757f"/>
			<stop offset="1" stop-color="#79828c"/>
		</linearGradient>
		<linearGradient id="g3" x2="1" gradientUnits="userSpaceOnUse" gradientTransform="matrix(198.292,0,0,120.392,6.757,320.47)">
			<stop offset="0" stop-color="#8d939b"/>
			<stop offset="1" stop-color="#79828c"/>
		</linearGradient>
		<linearGradient id="g4" x2="1" gradientUnits="userSpaceOnUse" gradientTransform="matrix(190.463,0,0,123.251,.244,353.047)">
			<stop offset="0" stop-color="#6d757f"/>
			<stop offset="1" stop-color="#79828c"/>
		</linearGradient>
		<linearGradient id="g5" x2="1" gradientUnits="userSpaceOnUse" gradientTransform="matrix(-273.084,-235.09,270.483,-314.197,483.319,339.835)">
			<stop offset="0" stop-color="#6d757f"/>
			<stop offset="1" stop-color="#79828c"/>
		</linearGradient>
		<linearGradient id="g6" x2="1" gradientUnits="userSpaceOnUse" gradientTransform="matrix(-171.301,-147.468,58.091,-67.479,235.064,544.783)">
			<stop offset="0" stop-color="#6d757f"/>
			<stop offset="1" stop-color="#79828c"/>
		</linearGradient>
		<linearGradient id="g7" x2="1" gradientUnits="userSpaceOnUse" gradientTransform="matrix(97.344,-178.401,120.903,65.97,167.007,377.876)">
			<stop offset="0" stop-color="#ffffff" stop-opacity="0"/>
			<stop offset="1" stop-color="#767e88" stop-opacity="1"/>
		</linearGradient>
		<linearGradient id="g8" x2="1" gradientUnits="userSpaceOnUse" gradientTransform="matrix(97.344,-178.401,120.903,65.97,48.818,308.341)">
			<stop offset="0" stop-color="#ffffff" stop-opacity="0"/>
			<stop offset="1" stop-color="#767e88" stop-opacity="1"/>
		</linearGradient>
		<clipPath clipPathUnits="userSpaceOnUse" id="cp1">
			<path d="m364.32 261.6c-4.5 0-8.9-1.25-12.73-3.61l-133.05-82.16c-0.59-0.34-0.98-0.9-1.07-1.55-0.5-2.72 1.08-3.86 1.7-4.61 21.48-23.49 53.31-56.3 78.3-77.78l0.1-0.08 0.09-0.09c0.43-0.43 1.01-0.66 1.64-0.66q0.61 0 1.14 0.29l127.88 70.68c0.98 0.55 1.38 1.68 0.94 2.66l-45.18 88.06c-0.98 1.87-2.58 3.38-4.49 4.26l-5.13 2.36c-3.2 1.48-6.61 2.23-10.14 2.23q0 0 0 0z"/>
		</clipPath>
	</defs>
	<style>
		.s0 { fill: #575d6d } 
		.s1 { fill: #252835 } 
		.s2 { fill: #38414f } 
		.s3 { fill: #cfd8dc } 
		.s4 { fill: #263238 } 
		.s5 { fill: #ffffff } 
		.s6 { fill: #eceff1 } 
		.s7 { fill: #90a4ae } 
		.s8 { fill: #78909c } 
		.s9 { fill: url(#g1) } 
		.s10 { fill: #5a636f } 
		.s11 { fill: url(#g2) } 
		.s12 { mix-blend-mode: multiply;fill: #dfe5f4 } 
		.s13 { fill: #455a64 } 
		.s14 { fill: url(#g3) } 
		.s15 { fill: url(#g4) } 
		.s16 { fill: #ffd54f } 
		.s17 { fill: url(#g5) } 
		.s18 { fill: #323232 } 
		.s19 { fill: #3b6480 } 
		.s20 { fill: #ffa726 } 
		.s21 { fill: #252a35 } 
		.s22 { fill: #424951 } 
		.s23 { fill: #333a44 } 
		.s24 { fill: #ffe082 } 
		.s25 { fill: #273756 } 
		.s26 { fill: #244358 } 
		.s27 { fill: url(#g6) } 
		.s28 { fill: #37474f } 
		.s29 { fill: #77808a } 
		.s30 { mix-blend-mode: multiply;fill: url(#g7) } 
		.s31 { mix-blend-mode: multiply;fill: url(#g8) } 
	</style>
	<g id="Layer 2">
		<g id="&lt;Group&gt;">
			<g id="&lt;Group&gt;">
				<g id="&lt;Group&gt;">
					<path id="&lt;Path&gt;" class="s0" d="m330.3 401c0 0 0.1-1.5 0.1-2 0-22.1-13.2-37.1-37-27.7 0.3 2.3 0.5 4.6 0.5 7.1 0 0.5-0.1 2-0.1 2-0.1 4.1 0.1 11.3 3 10.2v0.1c0-0.1 30.8 17.8 35 20.2 0.3 0.2 0.2 0.2 0.1 0-1.6-1.4-1.7-6.6-1.6-9.9z"/>
					<path id="&lt;Path&gt;" class="s0" d="m667.8 213.9c-1.6-1.3-1.7-6.6-1.6-9.9 0 0 0.1-1.5 0.1-2 0-22.2-13.6-38.2-37.4-28.9 0.3 2.3 0.9 5.8 0.9 8.3 0 0.5-0.1 2-0.1 2-0.1 4.1 0.1 11.2 3 10.1v0.1c0 0 30.8 17.8 35 20.3 0.3 0.1 0.2 0.1 0.1 0z"/>
					<g id="&lt;Group&gt;">
						<g id="&lt;Group&gt;">
							<path id="&lt;Path&gt;" class="s1" d="m316.4 375.2l-57.3 98.8c0 0-18.4-10.5-25.8-14.6-7.5-4.2-12.1-13.2-12.1-26.1 0-25.6 18.3-56.7 41-69.5 11.6-6.5 22-7 29.4-2.6 7.2 4.3 24.8 14 24.8 14z"/>
						</g>
						<g id="&lt;Group&gt;">
							<path id="&lt;Path&gt;" class="s2" d="m328.8 401.4c0 25.6-18.4 56.7-41 69.5-22.7 12.8-41.1 2.5-41.1-23.1 0-25.6 18.4-56.8 41.1-69.6 22.6-12.8 41-2.4 41 23.2z"/>
						</g>
						<path id="&lt;Path&gt;" class="s3" d="m319.1 406.9c0 19.5-14 43.3-31.3 53.1-17.3 9.7-31.4 1.8-31.4-17.7 0-19.6 14.1-43.3 31.4-53.1 17.3-9.8 31.3-1.8 31.3 17.7z"/>
						<path id="&lt;Path&gt;" class="s4" d="m286.3 392.5c-15.3 8.7-27.7 29.6-27.7 46.9 0 17.2 12.4 24.2 27.7 15.6 15.3-8.6 27.7-29.6 27.7-46.8 0-17.3-12.4-24.3-27.7-15.7z"/>
						<path id="&lt;Path&gt;" class="s5" d="m284.1 437.4c1.4-0.8 2.8-1.9 4.1-3.1l9.4 18.5c6.2-5.9 11.6-13.4 15.4-21.5l-18.4-5.9c1.6-3.4 2.6-6.9 2.6-10.1q0-0.1 0-0.1l21.9-8.3c0-7.7-2.2-13.5-5.9-17.2l-18.5 18.4c-1.6-1.7-3.9-2.2-6.6-1.7l9.2-20.8c-3 0.6-6.2 1.8-9.5 3.7-3.4 1.9-6.6 4.3-9.6 7.1l1.9 14.5c-2.6 2.5-4.9 5.7-6.6 9.1l-11.1-1.6c-3.7 7.8-5.9 16.2-6 23.8l14.6-12.3q0 0.1 0 0.1c0 3.3 1 5.7 2.6 7.3l-11.1 22.5c3.8 3.8 9.2 5.2 15.5 4l2-24.9c1.3-0.3 2.7-0.7 4.1-1.5z"/>
						<g id="&lt;Group&gt;">
							<path id="&lt;Path&gt;" class="s6" d="m295.3 416.7c0 7-5 15.5-11.2 19-6.2 3.5-11.2 0.6-11.2-6.3 0-7 5-15.5 11.2-19 6.2-3.5 11.2-0.7 11.2 6.3z"/>
						</g>
						<g id="&lt;Group&gt;">
							<path id="&lt;Path&gt;" class="s7" d="m271 430q0 0 0-0.1l-2.8 2.5q0.6 1.7 1.8 2.8l-7.1 18.2-0.4 6.3 11.1-22.4c-1.6-1.6-2.6-4-2.6-7.3z"/>
							<path id="&lt;Path&gt;" class="s7" d="m286.4 435.8l7.4 13.6 3.8 3.4-9.4-18.5q-0.9 0.8-1.8 1.5z"/>
							<path id="&lt;Path&gt;" class="s7" d="m288.9 404.7l-0.8 1.7c2.7-0.5 5 0 6.6 1.7l18.5-18.4-6.2 1.7-16 14.6c-0.6-0.6-1.3-1-2.1-1.3z"/>
							<path id="&lt;Path&gt;" class="s7" d="m262.4 418.4l11.1 1.6c1.7-3.4 4-6.6 6.6-9.1l-1.9-14.5-2.7 4.8 1 7.6c-2.7 2.5-5 5.7-6.6 9.1l-5.6-0.6z"/>
							<path id="&lt;Path&gt;" class="s7" d="m308.9 429.4l-13.9-4.8q-0.2 0.4-0.4 0.8l18.4 5.9z"/>
						</g>
						<path id="&lt;Path&gt;" class="s8" d="m286.4 412.6c0 1.4-1 3.1-2.3 3.8-1.2 0.7-2.2 0.1-2.2-1.3 0-1.4 1-3.1 2.2-3.8 1.3-0.7 2.3-0.1 2.3 1.3z"/>
						<path id="&lt;Path&gt;" class="s3" d="m285.3 413.2c0 0.7-0.5 1.6-1.2 2-0.7 0.4-1.2 0.1-1.2-0.7 0-0.7 0.5-1.6 1.2-2 0.7-0.4 1.2-0.1 1.2 0.7z"/>
						<path id="&lt;Path&gt;" class="s8" d="m276.4 424.1c1.4-0.8 2.5-0.2 2.5 1.4 0 1.5-1.1 3.4-2.5 4.1-1.3 0.8-2.4 0.2-2.4-1.3 0-1.6 1.1-3.4 2.4-4.2z"/>
						<path id="&lt;Path&gt;" class="s8" d="m281.9 432.5c0-1.4 1-3.1 2.2-3.8 1.3-0.7 2.3-0.2 2.3 1.2 0 1.4-1 3.1-2.3 3.8-1.2 0.8-2.2 0.2-2.2-1.2z"/>
						<path id="&lt;Path&gt;" class="s8" d="m291.8 420.8c-1.3 0.7-2.3 0.1-2.3-1.3 0-1.4 1-3.2 2.3-3.9 1.3-0.7 2.3-0.1 2.3 1.3 0 1.4-1 3.1-2.3 3.9z"/>
						<path id="&lt;Path&gt;" class="s3" d="m276.4 425.4c0.7-0.4 1.3-0.1 1.3 0.7 0 0.8-0.6 1.8-1.3 2.3-0.7 0.4-1.3 0-1.3-0.8 0-0.8 0.6-1.8 1.3-2.2z"/>
						<path id="&lt;Path&gt;" class="s3" d="m282.9 431.9c0-0.8 0.5-1.7 1.2-2.1 0.7-0.3 1.2 0 1.2 0.7 0 0.8-0.5 1.7-1.2 2.1-0.7 0.3-1.2 0-1.2-0.7z"/>
						<path id="&lt;Path&gt;" class="s3" d="m291.8 419.6c-0.7 0.3-1.2 0-1.2-0.7 0-0.8 0.5-1.7 1.2-2.1 0.7-0.4 1.2-0.1 1.2 0.7 0 0.8-0.5 1.7-1.2 2.1z"/>
					</g>
					<g id="&lt;Group&gt;">
						<g id="&lt;Group&gt;">
							<path id="&lt;Path&gt;" class="s1" d="m650 182.1l-57.3 98.7c0 0-18.4-10.4-25.8-14.5-7.5-4.2-12.2-13.2-12.2-26.1 0-25.6 18.4-56.7 41.1-69.5 11.5-6.5 22-7 29.4-2.6 7.2 4.3 24.8 14 24.8 14z"/>
						</g>
						<g id="&lt;Group&gt;">
							<path id="&lt;Path&gt;" class="s2" d="m662.4 208.3c0 25.6-18.4 56.7-41.1 69.5-22.6 12.8-41 2.4-41-23.2 0-25.6 18.4-56.7 41-69.5 22.7-12.8 41.1-2.4 41.1 23.2z"/>
						</g>
						<path id="&lt;Path&gt;" class="s3" d="m652.7 213.8c0 19.5-14.1 43.3-31.4 53-17.3 9.8-31.3 1.9-31.3-17.7 0-19.5 14-43.2 31.3-53 17.3-9.8 31.4-1.9 31.4 17.7z"/>
						<path id="&lt;Path&gt;" class="s4" d="m619.9 199.4c-15.3 8.6-27.7 29.6-27.7 46.8 0 17.3 12.4 24.3 27.7 15.7 15.2-8.7 27.6-29.6 27.6-46.9 0-17.2-12.4-24.2-27.6-15.6z"/>
						<path id="&lt;Path&gt;" class="s5" d="m617.7 244.3c1.4-0.9 2.8-1.9 4.1-3.1l9.3 18.4c6.3-5.8 11.7-13.4 15.5-21.4l-18.4-5.9c1.6-3.4 2.6-6.9 2.6-10.2q0 0 0 0l21.9-8.4c-0.1-7.6-2.3-13.4-6-17.1l-18.4 18.3c-1.7-1.6-4-2.2-6.6-1.6l9.2-20.8c-3 0.6-6.2 1.8-9.6 3.7-3.3 1.9-6.5 4.3-9.5 7.1l1.9 14.5c-2.7 2.5-5 5.6-6.6 9.1l-11.2-1.7c-3.7 7.9-5.9 16.2-5.9 23.9l14.6-12.3q0 0.1 0 0.1c0 3.2 1 5.7 2.6 7.2l-11.1 22.6c3.8 3.7 9.2 5.2 15.4 4l2.1-25c1.3-0.2 2.7-0.6 4.1-1.4z"/>
						<g id="&lt;Group&gt;">
							<path id="&lt;Path&gt;" class="s6" d="m628.9 223.6c0 7-5 15.5-11.2 19-6.2 3.5-11.2 0.6-11.2-6.4 0-6.9 5-15.4 11.2-18.9 6.2-3.5 11.2-0.7 11.2 6.3z"/>
						</g>
						<g id="&lt;Group&gt;">
							<path id="&lt;Path&gt;" class="s7" d="m604.6 236.9q0 0 0-0.1l-2.9 2.5q0.7 1.7 1.8 2.8l-7.1 18.2-0.3 6.3 11.1-22.5c-1.6-1.5-2.6-4-2.6-7.2z"/>
							<path id="&lt;Path&gt;" class="s7" d="m619.9 242.7l7.5 13.6 3.7 3.3-9.3-18.4q-0.9 0.8-1.9 1.5z"/>
							<path id="&lt;Path&gt;" class="s7" d="m622.4 211.5l-0.7 1.8c2.6-0.6 4.9 0 6.6 1.6l18.4-18.3-6.1 1.7-16 14.6c-0.6-0.6-1.4-1.1-2.2-1.4z"/>
							<path id="&lt;Path&gt;" class="s7" d="m595.9 225.2l11.2 1.7c1.6-3.5 3.9-6.6 6.6-9.1l-1.9-14.5-2.8 4.7 1.1 7.7c-2.7 2.5-5 5.7-6.6 9.1l-5.6-0.6z"/>
							<path id="&lt;Path&gt;" class="s7" d="m642.5 236.3l-14-4.8q-0.1 0.4-0.3 0.8l18.4 5.9z"/>
						</g>
						<path id="&lt;Path&gt;" class="s8" d="m619.9 219.5c0 1.4-1 3.1-2.2 3.8-1.3 0.7-2.3 0.1-2.3-1.3 0-1.4 1-3.1 2.3-3.8 1.2-0.7 2.2-0.1 2.2 1.3z"/>
						<path id="&lt;Path&gt;" class="s3" d="m618.9 220c0 0.8-0.5 1.7-1.2 2.1-0.7 0.4-1.2 0-1.2-0.7 0-0.8 0.5-1.7 1.2-2 0.7-0.4 1.2-0.1 1.2 0.6z"/>
						<path id="&lt;Path&gt;" class="s8" d="m610 231c1.4-0.8 2.5-0.2 2.5 1.4 0 1.5-1.1 3.4-2.5 4.1-1.4 0.8-2.5 0.2-2.5-1.4 0-1.5 1.1-3.4 2.5-4.1z"/>
						<path id="&lt;Path&gt;" class="s8" d="m615.4 239.4c0-1.5 1-3.2 2.3-3.9 1.2-0.7 2.2-0.1 2.2 1.3 0 1.4-1 3.1-2.2 3.8-1.3 0.7-2.3 0.2-2.3-1.2z"/>
						<path id="&lt;Path&gt;" class="s8" d="m625.4 227.6c-1.3 0.7-2.3 0.2-2.3-1.3 0-1.4 1-3.1 2.3-3.8 1.2-0.7 2.3-0.1 2.3 1.3 0 1.4-1.1 3.1-2.3 3.8z"/>
						<path id="&lt;Path&gt;" class="s3" d="m610 232.3c0.7-0.5 1.3-0.1 1.3 0.7 0 0.8-0.6 1.8-1.3 2.2-0.7 0.4-1.3 0.1-1.3-0.7 0-0.8 0.6-1.8 1.3-2.2z"/>
						<path id="&lt;Path&gt;" class="s3" d="m616.5 238.8c0-0.8 0.5-1.7 1.2-2.1 0.7-0.4 1.2 0 1.2 0.7 0 0.8-0.5 1.7-1.2 2-0.7 0.4-1.2 0.1-1.2-0.6z"/>
						<path id="&lt;Path&gt;" class="s3" d="m625.4 226.4c-0.7 0.4-1.2 0.1-1.2-0.7 0-0.7 0.5-1.6 1.2-2 0.7-0.4 1.2-0.1 1.2 0.7 0 0.7-0.5 1.7-1.2 2z"/>
					</g>
					<path id="&lt;Path&gt;" class="s9" d="m747.6 116.7l-3.1 31.8c-0.8 7.7-5.8 16.4-12.3 21.1l-54.1 39.5c-0.2 0.1-5.6 3.1-8.6 4.8-3.2 1.8-3.5-5.8-3.3-10 0 0 0.1-1.6 0.1-2.1 0-16.7-7.5-29.4-21.6-30.5-6.4-0.5-14.2 1.4-23.4 6.5-9.9 5.7-18.4 13.4-25.2 22.2-12.8 16.5-19.7 36.5-19.7 52.6 0 0.4 0.1 1.9 0.1 1.9 0.2 4.1-0.1 11.9-3.3 13.8-28.6 16.1-239.9 142.9-239.9 142.9-2.9 1-3.1-6.1-3-10.2 0 0 0.1-1.5 0.1-2 0-19.1-9.8-32.9-27.8-30.3-5.1 0.7-10.8 2.8-17.1 6.3-6.2 3.5-11.8 7.8-16.8 12.6-18.2 17.8-28.2 42.9-28.2 62.2 0 0.4 0.1 1.9 0.1 1.9 0.2 4-0.1 11.9-3.2 13.7-14.1 8-23.7 5.7-48.4 11l-6.8-17.1c-2-4.9 0.6-13.1 5.9-18.6l17.2-17.7q0-0.1 0-0.1c-0.2-1.1-4.3-19.8 28.9-54.5 38.2-39.8 160.2-110 160.2-110l296.8-167.5c13.6 0.8 24.8 2.3 31.9 4.6l8.6 9.5 8.8 9.8c0.5-0.2 1.4-0.8 2.5-1.4 1.3-0.7 2.6-0.8 3.5-0.2 0.9 0.7 1.3 1.9 1.1 3.5z"/>
					<g id="&lt;Group&gt;" style="opacity: .4;mix-blend-mode: multiply">
						<path id="&lt;Path&gt;" class="s10" d="m571 256.5c-29.2 16.5-156.2 95.7-237 141.3 0.5 1.1 1.1 1.7 2.1 1.3v0.1c79-44.6 204.9-123.2 233.5-139.4 1.3-0.7 2.1-2.4 2.6-4.5-0.4 0.5-0.7 0.9-1.2 1.2z"/>
					</g>
					<path id="&lt;Path&gt;" class="s11" d="m723.1 95.5c-4.9-1.5-15.3-10.5-31.9-4.6l-296.8 167.5c-60.4 39.4-122.8 78.6-160.6 121.1q-0.4 0.5-0.8 1c-12.1 13.8-21.6 27.9-27.7 42.5l-17.2 17.7c-5.3 5.5-7.9 13.7-5.9 18.6l5.2 13c0.7 1.8 1.9 3.2 3.3 4 0 0-175.1-92.3-177.8-93.8-1.4-0.8-2.6-2.1-3.3-4l-8.7-21.7c-2-4.9 0.6-13.2 5.9-18.6l17.3-17.8c0 0 5.2-9 31.1-34.1q0.4-0.4 0.9-0.8c12.4-12.1 29.5-27.7 52.9-47.8 32.8-28.1 85.5-61.8 110.3-78.1l326-151c13.5 0.7 24.8 2.3 31.9 4.5z"/>
					<path id="&lt;Path&gt;" class="s12" d="m233.8 379.5q-0.4 0.5-0.8 1c-40.3-15.8-129.9-53.5-177.8-94.2q0.4-0.4 0.9-0.8c47.9 40.6 137.8 78.4 177.7 94z"/>
					<path id="&lt;Path&gt;" class="s13" d="m0.2 352.9c50.2 28.2 158.7 89.6 181.3 102.3 0.1-4.7 2.6-10.3 6.6-14.5l0.1-0.1c-13.6-7.6-127.4-71.9-181.4-102.4-4.1 4.2-6.5 10-6.6 14.7z"/>
					<path id="&lt;Path&gt;" class="s14" d="m24 320.5l-17.2 17.7q0 0 0 0c53.9 30.5 167.4 94.9 181.2 102.7q0-0.1 0.1-0.2l16.9-17.4c-35.2-20-132.9-75.6-181-102.8z"/>
					<path id="&lt;Path&gt;" class="s5" d="m61.5 369.6c-0.4-0.2-0.8-0.2-1.2-0.1-0.4 0.2-0.7 0.5-0.8 0.9l-3.5 11.9c-0.2 0.6 0 1.3 0.6 1.6l70.4 39.9c0.4 0.2 0.8 0.3 1.2 0.1 0.4-0.1 0.7-0.5 0.8-0.9l3.5-11.8c0.1-0.6-0.1-1.2-0.7-1.5z"/>
					<path id="&lt;Path&gt;" class="s15" d="m190.7 476.3c-1.4-0.8-2.6-2.2-3.3-4l-5.2-13c-0.5-1.2-0.7-2.5-0.7-4-27.3-15.4-132.5-74.8-181.3-102.3 0 1.4 0.2 2.7 0.7 3.8l8.7 21.7c0.7 1.8 3.1 2.4 3.3 4 0.3 1.8 157.9 96.1 177.8 93.8z"/>
					<path id="&lt;Path&gt;" class="s16" d="m155.3 422.1c-4 4.2-6.5 9.8-6.7 14.6 15 8.4 26.9 15.1 32.9 18.5 0.1-4.7 2.6-10.3 6.6-14.5l0.1-0.1c-4-2.2-16.3-9.1-32.9-18.5z"/>
					<path id="&lt;Path&gt;" class="s6" d="m171.3 431.1c-4.7-2.6-10-5.6-16-9-4 4.2-6.5 9.8-6.7 14.6 6 3.3 11.4 6.4 16.2 9.1 0.3-4.8 2.7-10.3 6.5-14.7z"/>
					<path id="&lt;Path&gt;" class="s16" d="m32.8 371.2c0.1-4.7 2.6-10.4 6.5-14.6-11.9-6.8-23.1-13-32.5-18.4-4.1 4.2-6.5 10-6.6 14.7 9.4 5.2 20.5 11.5 32.6 18.3z"/>
					<path id="&lt;Path&gt;" class="s6" d="m39.3 356.5c-4.6-2.6-10-5.6-16-9-4 4.2-6.4 9.8-6.6 14.6 5.9 3.4 11.4 6.4 16.2 9.1 0.3-4.8 2.6-10.3 6.4-14.7z"/>
					<path id="&lt;Path&gt;" class="s17" d="m400.3 27.4c-38.1 17.3-101.8 52.5-101.8 52.5-2.4 1.4-58.7 57.2-79.2 79.7l175.1 98.9 296.8-167.6-145.9-82.3c-44.3-2.6-111 3.5-145 18.8z"/>
					<path id="&lt;Path&gt;" class="s18" d="m743 113.4c1.1-0.6 2.2-0.7 3-0.4h0.1c0 0-5.6-3.1-14.6-8.2l9 10c0.5-0.2 1.4-0.8 2.5-1.4z"/>
					<path id="&lt;Path&gt;" class="s4" d="m450.4 18c21.8-3.8 47.8-5.9 73-5.9 7.2 0 14.2 0.2 20.6 0.5l129.9 73.3c-15.1-0.7-29.4-1-42.5-1-22.2 0-41.5 1-57.3 2.9z"/>
					<path id="&lt;Path&gt;" class="s19" d="m454.6 18.4c20.5-3.2 44-4.9 66.9-4.9 7 0 13.7 0.1 20 0.5l122 68.8c-12-0.4-23.4-0.6-34-0.6-22 0-41.2 0.9-56.9 2.8z"/>
					<path id="&lt;Path&gt;" class="s20" d="m740.5 114.8l-14.1 8.2c-0.8 0.4-1.8 0.3-2.6-0.1-0.8-0.5-1.2-1.3-1.2-2.2l0.5-25.2z"/>
					<path id="&lt;Path&gt;" class="s13" d="m239.7 414.5c-32.1 17.2-51.6 26.2-51.6 26.2-4 4.1-6.4 9.9-6.6 14.5 10.9-0.2 46.8-18.9 54.2-23.6 0.3-5.4 1.7-11.2 4-17.1z"/>
					<path id="&lt;Path&gt;" class="s21" d="m530.5 115.7l-68.2 38.9c-9.1 5.2-16.1 13.3-20.1 23l-26.3 64.4c-0.7 1-1.7 2.6-2.3 3.9-0.5 1.2-0.3 1.9-0.3 1.9l194-109.5c33.1-18.7-46.3-40.1-76.8-22.6z"/>
					<path id="&lt;Path&gt;" class="s22" d="m532.6 116.2l-70.3 40.3c-8.8 5.1-15.6 12.9-19.4 22.2l-25.7 63.2c-0.3 0.5-0.4 1-0.3 1.4 0.1 0.4 0.5 0.4 0.9 0.2l182.7-103.1c31.4-17.7-44.2-37.6-67.9-24.2z"/>
					<path id="&lt;Path&gt;" class="s23" d="m582.6 115.4c-6.3-1.4-38.4-10-59.2 6 0 0-73 92.7-106.5 121.7 0 0.1 0 0.1 0 0.2 0.1 0.4 0.5 0.4 0.9 0.2l182.7-103.1c17-9.6 2.6-19.8-17.9-25z"/>
					<path id="&lt;Path&gt;" class="s24" d="m206.7 431.6c-11.5 5.7-18.6 9.1-18.6 9.1-4 4.1-6.4 9.9-6.6 14.5 4.3-0.1 13.4-3.5 23.2-7.9z"/>
					<path id="&lt;Path&gt;" class="s0" d="m522.4 215.9c0 4-4.5 9.7-9.9 12.7-5.5 3.1-9.9 2.4-9.9-1.5 0-4 4.4-9.7 9.9-12.8 5.4-3 9.9-2.3 9.9 1.6z"/>
					<path id="&lt;Path&gt;" class="s5" d="m526.5 213.8c0 1.3-1 3-2.2 3.7l-23.6 13.3c-1.2 0.7-2.2 0.1-2.2-1.2v-0.4c0-1.4 1-3 2.2-3.7l23.6-13.3c1.2-0.7 2.2-0.2 2.2 1.2z"/>
					<path id="&lt;Path&gt;" class="s21" d="m547.9 171.8l-9.9 5.6-14.6-57.7 9.9-5.6z"/>
					<g id="&lt;Group&gt;" style="opacity: .4;mix-blend-mode: multiply">
						<path id="&lt;Path&gt;" class="s10" d="m505.8 294.6l-90.7 56.6c-7.3 4.1-18.3 2.4-18.3-9.7v-60.7c0-8.1 13.3-27.4 18-33.8l-1.6 0.8c-5.4 7.7-17.3 25.4-17.3 33.5v60.7c0 12.7 11.6 14.6 19.2 10.2l90.7-56.6c15.3-8.6 37.5-36.6 37.5-60.8v-60.4l-1 0.5v60.5c0 23.5-21.6 50.8-36.5 59.2z"/>
					</g>
					<g id="&lt;Group&gt;">
						<path id="&lt;Path&gt;" class="s21" d="m432.5 166.3c1.4-2.7 0.3-6-2.4-7.5l-127.9-70.7c-2.3-1.2-5.2-0.8-7.1 1-24.7 21.3-56.5 53.9-78.6 78-1.2 1.3-3.3 4.2-2.7 7.7 0.4 2.2 1.4 3.3 2.9 4.2l133 82.1c7.9 4.9 17.8 5.5 26.3 1.6l5.1-2.4c2.7-1.2 4.9-3.3 6.2-5.8z"/>
						<path id="&lt;Path&gt;" class="s25" d="m364.3 261.6c-4.5 0-8.9-1.2-12.7-3.6l-133.1-82.2c-0.6-0.3-0.9-0.9-1-1.5-0.5-2.7 1-3.9 1.7-4.6 21.4-23.5 53.3-56.3 78.3-77.8l0.1-0.1 0.1-0.1c0.4-0.4 1-0.6 1.6-0.6q0.6 0 1.1 0.2l127.9 70.7c1 0.6 1.4 1.7 1 2.7l-45.2 88.1c-1 1.8-2.6 3.3-4.5 4.2l-5.1 2.4c-3.2 1.5-6.7 2.2-10.2 2.2q0 0 0 0z"/>
					</g>
					<path id="&lt;Path&gt;" class="s26" d="m629.5 82.2c10.6 0 22 0.2 34 0.6l-122-68.8c-2.3-0.2-4.8-0.3-7.3-0.3l-48.3 22.4 86.7 48.9c15.7-1.9 34.9-2.8 56.9-2.8z"/>
					<path id="&lt;Path&gt;" class="s27" d="m217.4 380.7l-193.3-60.3 181.2 102.6z"/>
					<g id="&lt;Group&gt;">
						<path id="&lt;Path&gt;" class="s28" d="m133.8 443.2c1.1 2.5 0.7 3.9-0.9 2.9l-67.2-38.1c-1.7-0.9-4-3.8-5.2-6.3l-1.2-2.7c-1.1-2.5-0.7-3.8 0.9-2.9l67.2 38.1c1.6 1 4 3.8 5.1 6.4z"/>
						<path id="&lt;Path&gt;" class="s28" d="m51.4 396.5c1.2 2.6 0.8 3.9-0.9 2.9l-33.7-19c-1.7-0.9-4-3.8-5.2-6.3l-1.2-2.7c-1.1-2.5-0.7-3.8 0.9-2.9l33.8 19.1c1.6 0.9 3.9 3.7 5.1 6.3z"/>
						<path id="&lt;Path&gt;" class="s28" d="m148 454.7l33.8 19c1.6 1 2-0.4 0.8-2.9l-1.2-2.6c-1.1-2.6-3.5-5.4-5.1-6.4l-33.8-19c-1.6-1-2 0.3-0.8 2.9l1.2 2.6c1.1 2.6 3.5 5.4 5.1 6.4z"/>
					</g>
					<path id="&lt;Path&gt;" class="s13" d="m718.5 140.9l28.4-16.4 0.7-7.8c0.2-1.6-0.2-2.8-1.1-3.5-0.9-0.6-2.2-0.5-3.5 0.2-1.1 0.6-2 1.2-2.5 1.4l-32.7 19z"/>
					<g id="&lt;Group&gt;">
						<path id="&lt;Path&gt;" class="s23" d="m437.3 249.8c2-3.5 4-8.7 4-8.7-1.7 0-3.3 0-4.7-0.1-3.6-0.1-6.4-1.3-7.9-3.3l-3.9 5.9c0.5 8.4 11 9.1 12.5 6.2z"/>
						<path id="&lt;Path&gt;" class="s29" d="m429.9 221.5c1.8-6 5.2-9.1 13.1-6.7 9.7 3 18.6 6.3 22.6 8.7 2.8 1.7-0.7 12.5-4.6 16.1-4.1 3.7-16.2 3.2-24.4 2.7-5.6-0.2-9.1-2.7-9.1-7.2 0-4.6 2.4-13.6 2.4-13.6z"/>
					</g>
					<path id="&lt;Path&gt;" class="s29" d="m235.9 142.1c5.5-5.8 11.6-12 17.8-18.2-1.2-1.2-2.6-2.5-4.5-3.7-8.5-6.1-16-11.8-19.5-13.9-2.4-1.5-5.1 9.4-4.6 15.7 0.5 5.4 5.7 13.5 10.8 20.1z"/>
					<path id="&lt;Path&gt;" class="s3" d="m731.7 105l-8.9 4.9-0.1 6.4 12.9-7z"/>
					<path id="&lt;Path&gt;" class="s21" d="m444.6 14.9l126.5 74.8c2.4 1.4 5 2.5 7.7 3.2l33.2 8.9c8 2.1 16.4 2.3 24.5 0.6l63.2-13.4c0 0-99.3-64.6-151.8-81 0 0-70.8-0.5-103.3 6.9z"/>
					<path id="&lt;Path&gt;" class="s23" d="m625.6 101.1c-4.4 0-8.7-0.6-13-1.7l-33.2-8.8c-2.5-0.7-4.8-1.7-7-3l-121.1-71.6c30.3-5.3 83-5.6 93.9-5.6q1.7 0 2.3 0c45 14.2 125.1 64.3 145.8 77.5l-57.3 12.1c-3.4 0.7-6.9 1.1-10.4 1.1q0 0 0 0z"/>
				</g>
			</g>
			<path id="&lt;Path&gt;" class="s0" d="m547.9 8l25.5-7.3c0 0 100.5 39.5 144 81.6l-17.7 6.7c-49.7-31.2-99.9-59.8-151.8-81z"/>
			<path id="&lt;Path&gt;" class="s4" d="m717.4 82.3c0 0 0.5 1.3-0.7 3.3-1.2 2.1-4.5 5.7-4.5 5.7 0 0-6.8-3.3-21-0.4z"/>
			<g id="&lt;Group&gt;">
				<path id="&lt;Path&gt;" class="s13" d="m81 339.5l-7.4 9-17.7-10 8.1-8.6z"/>
				<path id="&lt;Path&gt;" class="s13" d="m97 348.5l-7.4 9.1-12.8-7.2 7.4-9.1z"/>
				<path id="&lt;Path&gt;" class="s13" d="m113.1 357.6l-7.4 9-12.8-7.2 7.4-9.1z"/>
				<path id="&lt;Path&gt;" class="s13" d="m129.1 366.6l-7.4 9.1-12.8-7.2 7.4-9.1z"/>
				<path id="&lt;Path&gt;" class="s13" d="m149.5 378.2l-6.5 9.5-18.1-10.2 7.4-9.1z"/>
				<path id="&lt;Path&gt;" class="s30" d="m219.3 368.2c0 0 36.8-40.4 57.1-50l-27.3-16.8c0 0-30.8 25.2-51.1 56.2z"/>
				<path id="&lt;Path&gt;" class="s31" d="m101.1 298.7c0 0 36.8-40.4 57.1-50l-27.3-16.8c0 0-30.8 25.2-51.1 56.2z"/>
			</g>
			<g id="&lt;Group&gt;" style="opacity: .4;mix-blend-mode: multiply">
				<g id="&lt;Group&gt;">
					<path id="&lt;Compound Path&gt;" fill-rule="evenodd" class="s10" d="m437.2 149.2l-0.3-0.1c-26.8-8.9-124.4-68-125.4-68.6l-0.8-0.5 0.8-0.5c40.9-27.3 111.8-58.2 112.6-58.5l0.2-0.1 0.3 0.2 120.2 70-1.4 0.4c-40.5 11.4-105.3 57.1-106 57.6zm-124.1-69.3c9.5 5.7 98.2 59.2 123.9 67.9 4.5-3.1 65.3-45.5 104.8-57.1l-117.5-68.5c-4.9 2.1-71.7 31.4-111.2 57.7z"/>
				</g>
			</g>
			<g id="&lt;Clip Group&gt;" clip-path="url(#cp1)">
				<g id="&lt;Group&gt;">
					<path id="&lt;Path&gt;" class="s22" d="m396.8 292.2c-0.9 0-1.7-0.2-2.5-0.7l-200.5-113c-1.3-0.8-2.2-2.1-2.4-3.6-0.2-1.4 0.3-2.9 1.3-4l87.1-86.2c0.9-1 2.1-1.5 3.5-1.5 0.8 0 1.7 0.2 2.4 0.6l165.5 91.5c2.2 1.2 3.1 4 2 6.3l-51.9 107.8c-0.6 1.2-1.7 2.2-3 2.6q-0.7 0.2-1.5 0.2z"/>
					<path id="&lt;Path&gt;" class="s23" d="m191.4 174.9c0.2 1.5 1.1 2.8 2.4 3.6l200.5 113c0.8 0.5 1.6 0.7 2.5 0.7q0.8 0 1.5-0.2c1.3-0.4 2.4-1.4 3-2.6l51.9-107.8c1.1-2.3 0.2-5.1-2-6.3l-123.9-68.5-131.2 60.8-3.4 3.3c-1 1.1-1.5 2.6-1.3 4z"/>
					<g id="&lt;Group&gt;">
						<path id="&lt;Path&gt;" class="s22" d="m355.3 134.7c-14.7-8.3-19-8.7-19-2 0 6.7 9.4 12.2 19 17.6 9.6 5.4 19 10.5 19 3.9 0-6.7-4.3-11.2-19-19.5z"/>
						<path id="&lt;Path&gt;" class="s22" d="m355.3 122.4c-9.1-5.1-18.1-10.2-26.7-15 0 6.9 11.1 15.1 18.2 19.1l3.1 20.7 5.4 3.1 5.4 3 3.1-17.2c7.1 4.1 18.2 8.4 18.2 1.5-8.6-5-17.6-10-26.7-15.2z"/>
					</g>
					<path id="&lt;Path&gt;" class="s22" d="m191.7 175.7q1.1-1.7 2.3-3.5l21.5-8.4 18.5-6.5c26.8-1 77.9 24.9 72.9 49.1 0 0 79.2 44 105.6 59.7l-11.2 23.3c-0.6 1.2-1.7 2.2-3 2.6q-0.7 0.2-1.5 0.2c-0.9 0-1.7-0.2-2.5-0.7l-200.5-113c-1.1-0.6-1.8-1.6-2.1-2.8z"/>
					<path id="&lt;Compound Path&gt;" fill-rule="evenodd" class="s22" d="m276.2 143.7c10.9 1.3 21.7 9 27.8 21.2 9.2 18.2 4.5 39.6-10.3 47.7-14.8 8.1-34.3-0.1-43.5-18.3-8.3-16.7-5.2-35.9 6.7-45.3 5.9-4.4 12.3-5.7 19.3-5.3zm-19.4 47c6.9 13.8 21.6 20.1 32.9 13.9 11.2-6.1 14.7-22.3 7.8-36.1-7-13.9-21.7-20.1-33-13.9-11.2 6.1-14.7 22.3-7.7 36.1z"/>
				</g>
			</g>
		</g>
	</g>
</svg>